<svg width="1003" height="728" viewBox="0 0 1003 728" fill="none" xmlns="http://www.w3.org/2000/svg">
<path d="M552.255 245.246C575.736 245.246 594.77 226.209 594.77 202.726C594.77 179.243 575.736 160.206 552.255 160.206C528.774 160.206 509.739 179.243 509.739 202.726C509.739 226.209 528.774 245.246 552.255 245.246Z" fill="#2FC7D6"/>
<path opacity="0.2" d="M552.255 285.55C597.992 285.55 635.069 248.468 635.069 202.726C635.069 156.984 597.992 119.903 552.255 119.903C506.517 119.903 469.44 156.984 469.44 202.726C469.44 248.468 506.517 285.55 552.255 285.55Z" fill="#D2CAE5"/>
<path opacity="0.2" d="M552.255 265.398C586.864 265.398 614.92 237.339 614.92 202.726C614.92 168.114 586.864 140.054 552.255 140.054C517.646 140.054 489.59 168.114 489.59 202.726C489.59 237.339 517.646 265.398 552.255 265.398Z" fill="#D2CAE5"/>
<path d="M269.355 386.51C286.047 386.51 299.579 372.976 299.579 356.282C299.579 339.588 286.047 326.055 269.355 326.055C252.663 326.055 239.131 339.588 239.131 356.282C239.131 372.976 252.663 386.51 269.355 386.51Z" fill="#6E55AB"/>
<path d="M382.73 265.866C384.028 257.847 378.58 250.293 370.561 248.995C362.542 247.696 354.99 253.145 353.691 261.165C352.393 269.185 357.841 276.738 365.86 278.037C373.879 279.335 381.432 273.886 382.73 265.866Z" fill="#6E55AB"/>
<path d="M480.76 215.26C482.061 207.24 476.615 199.684 468.596 198.382C460.578 197.081 453.022 202.527 451.721 210.547C450.419 218.566 455.865 226.123 463.884 227.424C471.903 228.726 479.458 223.28 480.76 215.26Z" fill="#6E55AB"/>
<path d="M522.03 437.292C522.03 444.547 516.187 450.391 508.933 450.391C501.679 450.391 495.836 444.547 495.836 437.292C495.836 430.037 501.679 424.193 508.933 424.193C516.187 424.193 522.03 430.239 522.03 437.292Z" fill="#6E55AB"/>
<path d="M514.776 429.433L511.754 448.779C511.754 448.779 488.985 439.106 487.978 437.292C487.172 435.68 488.179 419.76 488.179 419.76L514.776 429.433Z" fill="#6E55AB"/>
<path d="M475.283 344.191L487.978 360.313L471.858 371.396L475.283 344.191Z" fill="#6E55AB"/>
<path d="M453.522 210.988L475.082 202.525L487.574 244.037L473.671 250.083L453.522 210.988Z" fill="#6E55AB"/>
<path d="M356.603 266.809L374.536 254.516L407.178 294.618L391.058 307.515L356.603 266.809Z" fill="#6E55AB"/>
<path d="M214.145 596.087L217.369 594.274L134.554 503.994L122.062 522.534L214.145 596.087Z" fill="#6E55AB"/>
<path d="M433.977 508.025C433.977 508.025 400.73 534.222 393.073 537.043C385.416 539.864 382.595 525.758 391.058 511.047C399.521 496.337 409.999 481.827 409.999 481.827L327.587 441.322L394.685 349.431L473.671 461.877L433.977 508.025Z" fill="#CEC5E2"/>
<path d="M430.954 503.994L393.073 537.245C399.723 534.826 425.917 514.675 432.566 509.435L430.954 503.994Z" fill="#D2CAE5"/>
<path d="M377.558 375.628L396.297 366.963L384.006 319.808L377.558 375.628Z" fill="#6E55AB"/>
<path d="M486.567 429.433L506.112 436.889L512.762 451.398C512.762 451.398 448.686 511.652 435.589 515.682C422.492 519.713 423.096 482.029 429.342 468.729C435.79 455.429 486.567 429.433 486.567 429.433Z" fill="#E3DFEF"/>
<path d="M490.194 359.91L518 427.216L508.933 433.262L486.366 423.79L464.201 363.738L490.194 359.91Z" fill="#E3DFEF"/>
<path d="M493.015 369.784L514.776 429.433L518 427.216L494.224 369.784H493.015Z" fill="#D2CAE5"/>
<path d="M475.082 384.092C486.099 384.092 495.03 375.16 495.03 364.141C495.03 353.123 486.099 344.191 475.082 344.191C464.065 344.191 455.134 353.123 455.134 364.141C455.134 375.16 464.065 384.092 475.082 384.092Z" fill="#6E55AB"/>
<path d="M493.015 369.784C493.015 370.993 492.813 372.202 492.813 373.21C494.224 370.388 495.03 367.366 495.03 364.141C495.03 353.058 486.164 344.191 475.082 344.191C474.88 344.191 474.679 344.191 474.477 344.191C485.157 347.617 493.015 357.894 493.015 369.784Z" fill="#D2CAE5"/>
<path d="M495.836 410.087L489.791 426.41L469.037 408.677L475.082 396.586L495.836 410.087Z" fill="#6E55AB"/>
<path d="M469.037 405.251L488.179 419.76C488.179 419.76 491.604 431.851 489.791 431.247C488.179 430.642 441.835 463.086 432.365 471.147C422.894 479.208 414.029 457.041 420.275 440.516C426.723 424.193 469.037 405.251 469.037 405.251Z" fill="#EFECF6"/>
<path d="M387.633 405.251L397.506 399.205L421.887 446.763L408.588 454.623L387.633 405.251Z" fill="#6E55AB"/>
<path d="M466.216 376.837L479.515 366.963L493.821 375.426L501.276 405.251L489.791 415.327L469.037 405.251L466.216 376.837Z" fill="#EFECF6"/>
<path d="M382.192 307.515L475.082 341.168L476.694 362.731L447.477 391.145L391.058 368.776L382.192 307.515Z" fill="#EFECF6"/>
<path d="M384.006 319.808L469.037 347.818L476.694 362.731L475.082 341.168L382.192 307.515L384.006 319.808Z" fill="#D2CAE5"/>
<path d="M388.036 347.818L460.171 379.457L447.477 391.145L391.058 368.776L388.036 347.818Z" fill="#E3DFEF"/>
<path d="M384.207 311.747L384.006 373.008L340.886 442.532L314.691 451.6L295.952 394.167L384.207 311.747Z" fill="#EFECF6"/>
<path d="M384.006 344.191L310.46 438.703L314.691 451.6L340.886 442.531L384.006 373.008V344.191Z" fill="#E3DFEF"/>
<path d="M264.318 349.229L279.833 328.07L316.908 386.51L313.483 390.137L264.318 349.229Z" fill="#6E55AB"/>
<path d="M-21 728.484L117.427 518.906L214.145 596.087L166.391 797L-21 728.484Z" fill="white"/>
<path d="M217.369 594.274L130.927 521.526L128.51 497.747C128.51 497.747 206.488 403.034 214.347 392.958C222.205 382.882 223.212 368.776 227.847 363.738C230.265 361.119 240.743 357.088 249.81 353.864C257.668 351.244 278.825 360.917 278.825 360.917L319.326 394.57L323.356 434.269L357.207 499.964C357.207 499.964 352.976 524.952 334.841 543.895C316.102 562.434 217.369 594.274 217.369 594.274Z" fill="white"/>
<path d="M356.602 499.762L354.789 496.135L311.87 514.272C311.87 514.272 268.952 492.508 254.847 505.002C240.944 517.496 223.212 510.644 215.354 498.956C207.697 487.268 199.436 498.956 199.436 498.956C190.369 555.18 226.436 584.601 231.675 589.236C259.885 579.563 320.333 557.799 334.236 543.492C352.371 524.952 356.602 499.762 356.602 499.762Z" fill="#E3DFEF"/>
<path d="M202.257 424.596C202.257 424.596 199.839 434.672 187.548 448.778C175.257 462.885 163.973 467.721 163.973 467.721C163.973 467.721 182.107 464.9 192.384 451.398C202.459 437.897 202.257 424.596 202.257 424.596Z" fill="#D2CAE5"/>
<path d="M314.893 391.145L316.908 400.213L318.318 431.045L322.55 431.851L318.923 394.57L314.893 391.145Z" fill="#D2CAE5"/>
<path d="M283.661 566.263C257.467 575.936 224.623 581.981 224.623 581.981L231.877 589.437C260.086 579.765 320.535 558.001 334.438 543.693C334.237 543.693 309.856 556.389 283.661 566.263Z" fill="#D2CAE5"/>
<path d="M150.271 471.147H157.525L199.638 420.566V411.095C185.936 427.821 165.585 452.406 150.271 471.147Z" fill="#D2CAE5"/>
<path d="M336.453 541.275C352.774 522.735 356.603 499.762 356.603 499.762L348.341 483.842L279.833 543.29C279.833 543.492 309.05 547.522 336.453 541.275Z" fill="#E3DFEF"/>
<path d="M284.266 355.275L279.833 328.07L352.774 267.212L367.886 265.801L391.058 295.827V311.747L324.565 386.51H316.908L284.266 355.275Z" fill="white"/>
<path d="M410.2 295.223L396.096 292.804L372.319 263.181L375.946 249.478L449.492 209.779L461.582 213.205L475.082 237.79L473.268 252.501L410.2 295.223Z" fill="white"/>
<path d="M466.216 211.593L476.895 200.509L540.769 188.217C547.62 186.806 553.665 192.65 552.859 199.502C551.045 215.019 540.366 228.117 525.456 233.155L488.985 245.246L478.91 237.186L466.216 211.593Z" fill="white"/>
<path d="M269.355 465.101L383.804 405.049H391.26L412.618 446.36C412.618 446.36 410.805 457.444 410.805 457.041C410.805 456.638 310.259 537.043 310.259 537.043L269.355 465.101Z" fill="white"/>
<path d="M397.506 405.251V396.384C397.506 396.384 455.537 363.134 471.052 373.613C486.567 384.092 477.701 403.84 468.432 413.916C459.164 423.992 425.111 448.779 425.111 448.779L415.842 443.338L397.506 405.251Z" fill="white"/>
<path d="M310.057 537.245C310.057 537.245 410.603 456.638 410.603 457.242C410.603 457.847 412.417 446.562 412.417 446.562L412.014 445.957C413.424 445.353 415.036 444.748 416.245 443.741L424.91 448.779C424.91 448.779 458.761 423.992 468.231 413.916C474.074 407.669 479.515 397.795 479.313 388.525C475.686 395.578 468.433 407.064 456.544 415.528C438.007 429.03 429.342 433.262 429.342 433.262L425.111 422.178L393.678 443.942L402.342 451.6L330.811 503.994C330.811 503.994 326.781 494.12 322.953 487.47C321.139 484.246 307.639 497.143 295.751 512.256L310.057 537.245Z" fill="#E3DFEF"/>
<path d="M411.409 453.01L410.603 457.041L310.057 537.245L308.042 531.602L411.409 453.01Z" fill="#D2CAE5"/>
<path d="M286.684 544.096C308.829 544.096 326.781 526.142 326.781 503.994C326.781 481.847 308.829 463.892 286.684 463.892C264.538 463.892 246.586 481.847 246.586 503.994C246.586 526.142 264.538 544.096 286.684 544.096Z" fill="#6E55AB"/>
<path d="M404.76 447.166C416.222 447.166 425.514 437.873 425.514 426.41C425.514 414.947 416.222 405.654 404.76 405.654C393.298 405.654 384.006 414.947 384.006 426.41C384.006 437.873 393.298 447.166 404.76 447.166Z" fill="#6E55AB"/>
<path d="M403.35 410.289C413.626 410.289 421.887 418.551 421.887 428.828C421.887 431.448 421.283 433.866 420.275 436.083C422.089 433.262 423.096 429.836 423.096 426.209C423.096 415.931 414.835 407.669 404.559 407.669C396.902 407.669 390.252 412.304 387.431 418.954C391.058 413.715 396.7 410.289 403.35 410.289Z" fill="#D2CAE5"/>
<path d="M284.266 473.767C303.408 473.767 318.923 489.283 318.923 508.428C318.923 513.264 317.915 517.899 316.102 522.131C319.527 516.69 321.542 510.443 321.542 503.591C321.542 484.447 306.027 468.93 286.885 468.93C272.579 468.93 260.288 477.595 255.049 489.888C261.094 480.215 271.773 473.767 284.266 473.767Z" fill="#D2CAE5"/>
<path d="M200.444 518.906C200.444 469.132 240.944 428.627 290.714 428.627C302.199 428.627 313.281 430.843 323.356 434.672L323.154 434.068L322.751 430.037C312.878 426.41 301.997 424.395 290.915 424.395C238.929 424.395 196.615 466.714 196.615 518.705C196.615 547.32 209.309 572.913 229.459 590.042C230.869 589.639 232.28 589.034 233.892 588.43C213.339 572.308 200.444 547.119 200.444 518.906Z" fill="#E3DFEF"/>
<path d="M184.928 572.913L101.912 763.347" stroke="#E3DFEF" stroke-width="2" stroke-miterlimit="10"/>
<path d="M303.408 373.613L382.998 285.55" stroke="#E3DFEF" stroke-width="2" stroke-miterlimit="10"/>
<path d="M387.633 282.325L471.858 231.946" stroke="#E3DFEF" stroke-width="2" stroke-miterlimit="10"/>
<path d="M476.492 232.148L551.046 207.966C551.65 206.353 552.053 204.943 552.255 203.331L474.679 228.319L476.492 232.148Z" fill="#E3DFEF"/>
<path d="M196.414 581.981L128.308 783.095L166.391 797L214.145 596.087L196.414 581.981Z" fill="#E3DFEF"/>
<path d="M512.963 451.6L506.314 437.09L439.014 514.473C456.947 504.196 512.963 451.6 512.963 451.6Z" fill="#CEC5E2"/>
<path d="M487.373 432.254L419.671 463.086C422.089 470.945 427.126 475.58 432.365 471.147C440.626 464.094 477.701 437.897 487.373 432.254Z" fill="#CEC5E2"/>
<path d="M479.515 366.963L489.186 377.441L495.836 400.817L489.791 415.327L501.276 405.251L493.821 375.426L479.515 366.963Z" fill="#D2CAE5"/>
<path d="M410.2 295.222L473.268 252.501L475.082 237.79L396.096 292.804L410.2 295.222Z" fill="#E3DFEF"/>
<path d="M391.058 311.747V295.827L316.908 386.51H324.565L391.058 311.747Z" fill="#E3DFEF"/>
<path d="M522.03 224.288C506.716 229.931 479.112 236.984 479.112 236.984L489.186 245.045L525.657 232.954C535.933 229.528 544.195 222.273 549.03 212.802C548.829 212.802 537.344 218.848 522.03 224.288Z" fill="#E3DFEF"/>
<path d="M512.963 451.6L511.553 448.779L469.037 491.097C490.194 472.759 512.963 451.6 512.963 451.6Z" fill="#D2CAE5"/>
<path d="M522.03 437.292C522.03 434.068 520.821 431.045 518.806 428.627L517.194 429.433C519.209 432.053 520.418 435.478 520.418 439.106C520.418 441.322 520.015 443.338 519.209 445.151C521.023 443.136 522.03 440.315 522.03 437.292Z" fill="#D2CAE5"/>
<path d="M540.971 188.015L477.097 200.308L551.65 192.65C549.434 189.225 545.404 187.209 540.971 188.015Z" fill="#D2CAE5"/>
<path d="M372.319 263.181L378.162 252.501L447.074 216.429L461.582 213.205L449.492 209.779L375.946 249.478L372.319 263.181Z" fill="#D2CAE5"/>
<path d="M284.266 355.275L286.885 330.69L353.58 273.056L367.886 265.801L352.774 267.212L279.833 328.07L284.266 355.275Z" fill="#D2CAE5"/>
<path d="M249.407 354.065C240.34 357.29 229.862 361.119 227.444 363.94C223.011 368.978 221.802 383.084 213.944 393.16C212.533 394.973 208.705 399.608 203.667 405.855L206.891 416.536L212.13 405.251C212.13 405.251 228.25 390.943 229.862 381.673C231.474 372.404 234.295 369.784 244.974 362.731C255.653 355.678 278.422 361.119 278.422 361.119C278.422 361.119 257.265 351.244 249.407 354.065Z" fill="#D2CAE5"/>
<path d="M206.891 415.327C206.891 411.296 206.488 407.266 205.682 403.236C204.675 404.445 203.466 405.855 202.257 407.266C202.66 409.886 202.862 412.505 202.862 415.125C202.862 444.144 179.891 468.124 151.279 469.535C150.07 470.945 149.062 472.356 147.853 473.565C148.055 473.565 148.256 473.565 148.458 473.565C180.697 473.968 206.891 447.569 206.891 415.327Z" fill="#E3DFEF"/>
<path d="M214.145 596.087L208.302 591.453L190.57 695.435L214.145 596.087Z" fill="#D2CAE5"/>
<path d="M225.832 591.453L217.369 585.81L211.526 589.437L217.369 594.274L225.832 591.453Z" fill="#D2CAE5"/>
<path d="M269.959 331.294L271.168 326.055C270.564 326.055 269.959 326.055 269.355 326.055C254.646 326.055 242.556 336.533 239.735 350.438C244.772 339.153 256.258 331.294 269.355 331.294C269.556 331.294 269.758 331.294 269.959 331.294Z" fill="#D2CAE5"/>
<path d="M145.637 476.588H151.682L133.547 500.367L130.726 521.526L128.308 497.949L145.637 476.588Z" fill="#D2CAE5"/>
<path d="M128.308 527.572L-21 728.484L117.427 518.906L128.308 527.572Z" fill="#D2CAE5"/>
<path d="M471.052 373.411C455.537 362.932 397.506 396.183 397.506 396.183V405.049C397.506 405.049 399.924 398.802 400.73 397.795C401.536 396.787 425.111 387.719 443.246 379.658C461.38 371.597 473.873 375.426 473.873 375.426C472.865 374.822 472.059 374.016 471.052 373.411Z" fill="#D2CAE5"/>
<path d="M392.469 407.669L391.058 405.049H383.603L269.154 465.101C279.027 465.504 382.797 407.669 382.797 407.669H392.469Z" fill="#D2CAE5"/>
<path d="M410.201 295.222L473.269 252.501L473.873 247.463C473.47 247.664 473.269 247.664 473.269 247.664L406.977 294.618L410.201 295.222Z" fill="#D2CAE5"/>
<path d="M391.058 305.298V305.5L321.139 386.51H324.565L391.058 311.747V305.298Z" fill="#D2CAE5"/>
<path d="M525.657 232.954C533.314 230.334 539.762 225.699 544.598 219.654C544.396 219.855 537.344 224.288 524.851 230.132C517.195 233.76 499.463 239.604 486.97 243.634L488.985 245.246L525.657 232.954Z" fill="#D2CAE5"/>
<path d="M373.528 249.68C371.916 249.075 370.103 248.672 368.289 248.672C360.431 248.672 354.185 254.718 353.58 262.577C355.192 256.33 361.035 251.695 367.685 251.695C369.297 251.695 370.909 251.896 372.319 252.501L373.528 249.68Z" fill="#D2CAE5"/>
<path d="M474.477 200.509C472.059 198.897 469.44 198.091 466.417 198.091C461.582 198.091 457.35 200.509 454.731 203.935C457.35 201.92 460.373 200.913 463.798 200.913C466.619 200.913 469.238 201.719 471.455 203.129C472.261 202.323 473.268 201.517 474.477 200.509Z" fill="#D2CAE5"/>
<path d="M468.231 413.715C472.462 409.08 476.694 402.43 478.507 395.578C478.507 395.578 469.238 410.893 458.156 419.962C447.074 429.03 421.887 446.965 421.887 446.965L424.909 448.778C424.909 448.577 458.962 423.79 468.231 413.715Z" fill="#D2CAE5"/>
<path d="M489.791 426.41C489.791 426.41 447.678 456.235 441.432 464.295C458.156 451.801 488.582 430.642 489.993 431.247C490.597 431.448 490.194 429.03 489.791 426.41Z" fill="#D2CAE5"/>
<path d="M453.522 134.21L363.655 71.337" stroke="white" stroke-width="2" stroke-miterlimit="10" stroke-linecap="round"/>
<path d="M400.528 212.802H239.131" stroke="white" stroke-width="2" stroke-miterlimit="10" stroke-linecap="round"/>
<path d="M659.652 209.779H759.392" stroke="white" stroke-width="2" stroke-miterlimit="10" stroke-linecap="round"/>
<path d="M645.95 263.987L738.235 326.055" stroke="white" stroke-width="2" stroke-miterlimit="10" stroke-linecap="round"/>
<path d="M656.025 90.6827H596.987V97.1312H656.025V90.6827Z" fill="white"/>
<path d="M616.532 106.804H596.987V113.253H616.532V106.804Z" fill="white"/>
<path d="M812.587 408.475H753.549V414.924H812.587V408.475Z" fill="white"/>
<path d="M774.624 191.98V212.132H794.371V191.98H774.624Z" fill="#BCB1D8"/>
<path d="M804.647 179.385V212.232H824.394V179.385H804.647Z" fill="#D2CAE5"/>
<path d="M834.569 171.929V212.232H854.316V171.929H834.569Z" fill="#2FC7D6"/>
<path d="M773.094 424.596H753.549V431.045H773.094V424.596Z" fill="white"/>
<path d="M794.251 228.722H774.706V235.17H794.251V228.722Z" fill="white"/>
<path d="M349.349 107.61H329.804V114.059H349.349V107.61Z" fill="white"/>
<path d="M142.298 268.538H201.336V262.089H142.298V268.538Z" fill="white"/>
<path d="M142.372 284.659H161.917V278.211H142.372V284.659Z" fill="#2FC7D6"/>
<path d="M199.033 239.805H155.308C152.488 239.805 150.07 237.589 150.07 234.566V191.038C150.07 188.217 152.286 185.799 155.308 185.799H199.033C201.854 185.799 204.272 188.015 204.272 191.038V234.767C204.272 237.589 201.854 239.805 199.033 239.805Z" fill="#6E55AB"/>
<path d="M192.787 231.342H161.756C160.144 231.342 158.734 229.931 158.734 228.319V197.285C158.734 195.673 160.144 194.262 161.756 194.262H192.787C194.399 194.262 195.809 195.673 195.809 197.285V228.319C195.809 230.132 194.399 231.342 192.787 231.342Z" fill="#E3DFEF"/>
<path d="M160.95 190.434C159.741 190.434 158.734 189.426 158.734 188.217V180.559C158.734 179.35 159.741 178.343 160.95 178.343C162.159 178.343 163.167 179.35 163.167 180.559V188.217C163.167 189.426 162.159 190.434 160.95 190.434Z" fill="#6E55AB"/>
<path d="M171.831 190.434C170.622 190.434 169.615 189.426 169.615 188.217V180.559C169.615 179.35 170.622 178.343 171.831 178.343C173.04 178.343 174.048 179.35 174.048 180.559V188.217C174.048 189.426 173.04 190.434 171.831 190.434Z" fill="#6E55AB"/>
<path d="M182.712 190.434C181.503 190.434 180.495 189.426 180.495 188.217V180.559C180.495 179.35 181.503 178.343 182.712 178.343C183.921 178.343 184.928 179.35 184.928 180.559V188.217C184.928 189.426 183.921 190.434 182.712 190.434Z" fill="#6E55AB"/>
<path d="M193.593 190.434C192.384 190.434 191.376 189.426 191.376 188.217V180.559C191.376 179.35 192.384 178.343 193.593 178.343C194.802 178.343 195.809 179.35 195.809 180.559V188.217C195.809 189.426 194.802 190.434 193.593 190.434Z" fill="#6E55AB"/>
<path d="M160.95 247.463C159.741 247.463 158.734 246.455 158.734 245.246V237.589C158.734 236.38 159.741 235.372 160.95 235.372C162.159 235.372 163.167 236.38 163.167 237.589V245.246C163.167 246.455 162.159 247.463 160.95 247.463Z" fill="#6E55AB"/>
<path d="M171.831 247.463C170.622 247.463 169.615 246.455 169.615 245.246V237.589C169.615 236.38 170.622 235.372 171.831 235.372C173.04 235.372 174.048 236.38 174.048 237.589V245.246C174.048 246.455 173.04 247.463 171.831 247.463Z" fill="#6E55AB"/>
<path d="M182.712 247.463C181.503 247.463 180.495 246.455 180.495 245.246V237.589C180.495 236.38 181.503 235.372 182.712 235.372C183.921 235.372 184.928 236.38 184.928 237.589V245.246C184.928 246.455 183.921 247.463 182.712 247.463Z" fill="#6E55AB"/>
<path d="M193.593 247.463C192.384 247.463 191.376 246.455 191.376 245.246V237.589C191.376 236.38 192.384 235.372 193.593 235.372C194.802 235.372 195.809 236.38 195.809 237.589V245.246C195.809 246.455 194.802 247.463 193.593 247.463Z" fill="#6E55AB"/>
<path d="M199.637 196.479C199.637 195.27 200.645 194.262 201.854 194.262H209.511C210.72 194.262 211.727 195.27 211.727 196.479C211.727 197.688 210.72 198.696 209.511 198.696H201.854C200.645 198.897 199.637 197.89 199.637 196.479Z" fill="#6E55AB"/>
<path d="M199.637 207.361C199.637 206.152 200.645 205.144 201.854 205.144H209.511C210.72 205.144 211.727 206.152 211.727 207.361C211.727 208.57 210.72 209.578 209.511 209.578H201.854C200.645 209.779 199.637 208.772 199.637 207.361Z" fill="#6E55AB"/>
<path d="M199.637 218.243C199.637 217.034 200.645 216.026 201.854 216.026H209.511C210.72 216.026 211.727 217.034 211.727 218.243C211.727 219.452 210.72 220.46 209.511 220.46H201.854C200.645 220.661 199.637 219.452 199.637 218.243Z" fill="#6E55AB"/>
<path d="M199.637 229.125C199.637 227.916 200.645 226.908 201.854 226.908H209.511C210.72 226.908 211.727 227.916 211.727 229.125C211.727 230.334 210.72 231.342 209.511 231.342H201.854C200.645 231.342 199.637 230.334 199.637 229.125Z" fill="#6E55AB"/>
<path d="M142.614 196.479C142.614 195.27 143.622 194.262 144.831 194.262H152.488C153.697 194.262 154.704 195.27 154.704 196.479C154.704 197.688 153.697 198.696 152.488 198.696H144.831C143.622 198.897 142.614 197.89 142.614 196.479Z" fill="#6E55AB"/>
<path d="M142.614 207.361C142.614 206.152 143.622 205.144 144.831 205.144H152.488C153.697 205.144 154.704 206.152 154.704 207.361C154.704 208.57 153.697 209.578 152.488 209.578H144.831C143.622 209.779 142.614 208.772 142.614 207.361Z" fill="#6E55AB"/>
<path d="M142.614 218.243C142.614 217.034 143.622 216.026 144.831 216.026H152.488C153.697 216.026 154.704 217.034 154.704 218.243C154.704 219.452 153.697 220.46 152.488 220.46H144.831C143.622 220.661 142.614 219.452 142.614 218.243Z" fill="#6E55AB"/>
<path d="M142.614 229.125C142.614 227.916 143.622 226.908 144.831 226.908H152.488C153.697 226.908 154.704 227.916 154.704 229.125C154.704 230.334 153.697 231.342 152.488 231.342H144.831C143.622 231.342 142.614 230.334 142.614 229.125Z" fill="#6E55AB"/>
<path d="M85.188 344.191L96.4717 324.442L107.957 344.191H85.188Z" fill="white"/>
<path d="M664.689 493.717L676.174 473.968L687.458 493.717H664.689Z" fill="white"/>
<path d="M85.188 363.94L96.4717 344.191L107.957 363.94H85.188Z" fill="#2FC7D6"/>
<path d="M553.061 19.7487L564.546 0L576.031 19.7487H553.061Z" fill="white"/>
<path d="M553.061 39.4973L564.546 19.7487L576.031 39.4973H553.061Z" fill="#D2CAE5"/>
<path d="M795.056 328.271H784.377C783.37 328.271 782.362 329.077 782.161 330.085L779.944 340.564H799.489L797.273 330.085C797.071 329.077 796.064 328.271 795.056 328.271Z" fill="#6E55AB"/>
<path d="M765.034 339.556L759.795 348.826C759.19 349.834 759.392 350.841 760.198 351.647L768.056 358.902L777.728 341.974L767.452 338.75C766.646 338.146 765.638 338.75 765.034 339.556Z" fill="#6E55AB"/>
<path d="M759.795 371.194L765.034 380.464C765.638 381.472 766.646 381.875 767.653 381.472L777.929 378.248L768.258 361.32L760.399 368.575C759.392 369.179 759.19 370.388 759.795 371.194Z" fill="#6E55AB"/>
<path d="M784.579 391.548H795.258C796.266 391.548 797.273 390.742 797.475 389.734L799.691 379.255H780.146L782.362 389.734C782.564 390.943 783.37 391.548 784.579 391.548Z" fill="#6E55AB"/>
<path d="M814.602 380.464L819.841 371.194C820.445 370.187 820.244 369.179 819.438 368.373L811.579 361.119L801.907 378.046L812.184 381.27C812.99 381.673 813.997 381.27 814.602 380.464Z" fill="#6E55AB"/>
<path d="M819.84 348.826L814.602 339.556C813.997 338.549 812.99 338.146 811.982 338.549L801.706 341.773L811.378 358.7L819.236 351.446C820.243 350.841 820.445 349.632 819.84 348.826Z" fill="#6E55AB"/>
<path d="M789.818 384.898C803.617 384.898 814.803 373.71 814.803 359.909C814.803 346.109 803.617 334.921 789.818 334.921C776.019 334.921 764.832 346.109 764.832 359.909C764.832 373.71 776.019 384.898 789.818 384.898Z" fill="#A292C9"/>
<path d="M804.325 359.909C804.325 367.97 797.878 374.419 789.818 374.419C781.758 374.419 775.31 367.97 775.31 359.909C775.31 351.849 781.758 345.4 789.818 345.4C797.878 345.4 804.325 352.05 804.325 359.909Z" fill="#2FC7D6"/>
<path d="M789.818 366.761C793.601 366.761 796.668 363.694 796.668 359.909C796.668 356.125 793.601 353.058 789.818 353.058C786.034 353.058 782.967 356.125 782.967 359.909C782.967 363.694 786.034 366.761 789.818 366.761Z" fill="#6E55AB"/>
<path d="M610.688 75.1659H596.987L617.136 34.8625H630.838L610.688 75.1659Z" fill="#D2CAE5"/>
<path d="M540.366 537.245H529.083H464.201L469.44 547.32H534.12L542.784 564.852H636.883L622.98 537.245H540.366Z" fill="#D2CAE5"/>
<path d="M648.166 537.245H632.853L646.554 564.852H662.07L648.166 537.245Z" fill="#2FC7D6"/>
<path d="M633.256 75.1658H619.756L639.905 34.8624H653.406L633.256 75.1658Z" fill="#D2CAE5"/>
<path d="M656.025 75.1659H642.323L662.473 34.8625H676.174L656.025 75.1659Z" fill="#D2CAE5"/>
<path d="M571.195 406.661H557.494L577.643 366.358H591.345L571.195 406.661Z" fill="#BCB1D8"/>
<path d="M593.763 406.661H580.061L600.211 366.358H613.912L593.763 406.661Z" fill="#BCB1D8"/>
<path d="M616.33 406.661H602.83L622.98 366.358H636.48L616.33 406.661Z" fill="#BCB1D8"/>
<path d="M678.592 75.1659H664.891L685.04 34.8625H698.742L678.592 75.1659Z" fill="#D2CAE5"/>
<path d="M701.16 75.1659H687.66L707.809 34.8625H721.309L701.16 75.1659Z" fill="#2FC7D6"/>
<path d="M392.872 616.844L388.64 612.813L381.991 619.463L375.14 612.813L371.11 616.844L377.759 623.695L371.11 630.345L375.14 634.577L381.991 627.726L388.64 634.577L392.872 630.345L386.021 623.695L392.872 616.844Z" fill="#BCB1D8"/>
<path d="M75.5164 443.741L71.285 439.509L64.6356 446.36L57.7848 439.509L53.7549 443.741L60.4042 450.391L53.7549 457.242L57.7848 461.273L64.6356 454.623L71.285 461.273L75.5164 457.242L68.6655 450.391L75.5164 443.741Z" fill="white"/>
<path d="M764.429 113.051L760.198 109.021L753.549 115.671L746.698 109.021L742.668 113.051L749.317 119.903L742.668 126.553L746.698 130.785L753.549 123.933L760.198 130.785L764.429 126.553L757.579 119.903L764.429 113.051Z" fill="#2FC7D6"/>
<path d="M271.37 167.461C275.265 167.461 278.422 164.303 278.422 160.408C278.422 156.512 275.265 153.354 271.37 153.354C267.475 153.354 264.318 156.512 264.318 160.408C264.318 164.303 267.475 167.461 271.37 167.461Z" fill="#2FC7D6"/>
<path d="M726.548 623.695C726.548 626.517 724.332 628.733 721.511 628.733C718.69 628.733 716.474 626.517 716.474 623.695C716.474 620.874 718.69 618.657 721.511 618.657C724.13 618.657 726.548 620.874 726.548 623.695Z" fill="white"/>
<path d="M997.963 114.059C1000.74 114.059 1003 111.803 1003 109.021C1003 106.238 1000.74 103.983 997.963 103.983C995.181 103.983 992.925 106.238 992.925 109.021C992.925 111.803 995.181 114.059 997.963 114.059Z" fill="#D2CAE5"/>
<path d="M814.803 60.0521C817.585 60.0521 819.841 57.7965 819.841 55.0142C819.841 52.2318 817.585 49.9762 814.803 49.9762C812.021 49.9762 809.766 52.2318 809.766 55.0142C809.766 57.7965 812.021 60.0521 814.803 60.0521Z" fill="white"/>
<path d="M450.298 44.5353C453.08 44.5353 455.336 42.2798 455.336 39.4974C455.336 36.715 453.08 34.4595 450.298 34.4595C447.516 34.4595 445.261 36.715 445.261 39.4974C445.261 42.2798 447.516 44.5353 450.298 44.5353Z" fill="#BCB1D8"/>
<path d="M85.188 184.59C87.9701 184.59 90.2254 182.334 90.2254 179.552C90.2254 176.769 87.9701 174.514 85.188 174.514C82.4059 174.514 80.1506 176.769 80.1506 179.552C80.1506 182.334 82.4059 184.59 85.188 184.59Z" fill="#BCB1D8"/>
</svg>
