<svg width="167" height="167" viewBox="0 0 167 167" fill="none" xmlns="http://www.w3.org/2000/svg">
<path d="M83.2548 126.246C106.736 126.246 125.77 107.209 125.77 83.7262C125.77 60.243 106.736 41.2061 83.2548 41.2061C59.7741 41.2061 40.7393 60.243 40.7393 83.7262C40.7393 107.209 59.7741 126.246 83.2548 126.246Z" fill="#15154F"/>
<path opacity="0.2" d="M83.2549 146.398C117.864 146.398 145.92 118.339 145.92 83.7265C145.92 49.1138 117.864 21.0547 83.2549 21.0547C48.6459 21.0547 20.5898 49.1138 20.5898 83.7265C20.5898 118.339 48.6459 146.398 83.2549 146.398Z" fill="#6E55AB"/>
<path opacity="0.2" d="M83.2541 166.55C128.992 166.55 166.069 129.468 166.069 83.7259C166.069 37.9837 128.992 0.902344 83.2541 0.902344C37.5168 0.902344 0.439453 37.9837 0.439453 83.7259C0.439453 129.468 37.5168 166.55 83.2541 166.55Z" fill="#B199EC"/>
</svg>
