<svg width="167" height="167" viewBox="0 0 167 167" fill="none" xmlns="http://www.w3.org/2000/svg">
<path d="M83.2548 126.246C106.736 126.246 125.77 107.209 125.77 83.7262C125.77 60.243 106.736 41.2061 83.2548 41.2061C59.7741 41.2061 40.7393 60.243 40.7393 83.7262C40.7393 107.209 59.7741 126.246 83.2548 126.246Z" fill="#2FC7D6"/>
<path opacity="0.2" d="M83.2546 166.55C128.992 166.55 166.069 129.468 166.069 83.7262C166.069 37.984 128.992 0.902649 83.2546 0.902649C37.5173 0.902649 0.439941 37.984 0.439941 83.7262C0.439941 129.468 37.5173 166.55 83.2546 166.55Z" fill="#D2CAE5"/>
<path opacity="0.2" d="M83.2547 146.398C117.864 146.398 145.92 118.339 145.92 83.7262C145.92 49.1135 117.864 21.0544 83.2547 21.0544C48.6457 21.0544 20.5896 49.1135 20.5896 83.7262C20.5896 118.339 48.6457 146.398 83.2547 146.398Z" fill="#D2CAE5"/>
</svg>
