<svg width="31" height="31" viewBox="0 0 31 31" fill="none" xmlns="http://www.w3.org/2000/svg">
<path d="M1.75806 0.38274C0.796158 0.38274 0.026633 1.14816 0.026633 2.10495C0.026633 2.48767 0.219014 3.06175 0.603776 3.25311L13.1086 15.6914L0.603776 28.1297C-0.165748 28.7037 -0.165748 29.8519 0.411395 30.4259C0.988539 31 2.14283 31.1914 2.71997 30.6173L2.91235 30.4259L15.4171 17.9876L27.9219 30.4259C28.499 31.1914 29.6533 31.1914 30.4229 30.4259C31.1924 29.8519 31.1924 28.7037 30.4229 27.9383L17.9181 15.5L30.4229 3.06174C31.1924 2.48767 31.1924 1.33948 30.4229 0.574051C30.0381 0.191335 29.6533 0 29.0762 0C28.6914 0 28.3067 0.191335 27.9219 0.574051L15.4171 13.2037L2.91235 0.765421C2.71997 0.382705 2.33521 0.38274 1.75806 0.38274Z" fill="#ABBED1"/>
</svg>
