<svg width="160" height="81" viewBox="0 0 160 81" fill="none" xmlns="http://www.w3.org/2000/svg">
<path d="M252.457 46.8536L247.716 45.8149L240.377 38.7388C240.117 38.4791 239.987 38.544 237.779 38.8037C232.713 33.9998 232.908 34.1945 232.778 34.1296C166.923 8.35702 154.388 0.566821 154.323 0.566821C139.19 2.2547 111.263 -6.37944 98.7287 12.2521C93.2082 8.2921 87.8826 4.98127 84.2456 3.87766C69.8275 -0.406954 53.2012 4.33208 27.6122 12.5767C27.2225 12.7065 27.0277 13.161 27.2225 13.4856L27.5473 14.1348C21.8969 16.8613 17.4806 19.9774 6.82933 35.4929L0.594465 36.6614C0.204786 36.6614 -0.0550004 36.986 0.00994615 37.3755C16.1167 113.395 15.4023 110.019 15.5322 110.149C15.792 110.733 16.2466 110.993 16.7662 110.993C17.0259 110.993 11.5704 112.291 135.618 79.7672C137.047 79.3777 137.047 79.5724 137.437 80.5462C138.086 81.7147 139.45 82.2341 140.749 81.9095L174.197 73.0157C175.366 72.6911 176.275 71.6524 176.405 70.4839C176.405 70.4839 176.47 70.0294 176.47 69.6399L252.522 50.6189C254.535 50.1644 254.47 47.308 252.457 46.8536ZM239.728 39.8424L246.287 46.1395C180.107 62.1743 180.496 59.3179 172.183 65.615C169.196 66.3291 167.572 64.3815 162.571 64.1219C166.728 53.3454 174.391 46.6588 186.601 43.0234C206.215 37.3106 233.363 40.4916 239.728 39.8424ZM232.324 35.2981L235.896 38.6739C205.436 37.1808 171.404 36.7263 161.207 64.1868C160.623 64.1868 160.038 64.2517 159.389 64.3166C160.233 50.0995 168.871 41.1408 182.51 36.9211C196.668 32.4417 213.359 34.8437 232.324 35.2981ZM55.6691 65.6799C58.9814 64.5763 107.626 48.152 126.721 48.152C145.23 48.152 151.985 53.67 157.765 64.7061C151.335 66.5238 147.114 74.2491 140.554 75.4826C136.008 71.5875 113.926 75.2878 99.6379 79.7672C74.6335 87.6223 45.4725 100.931 22.3516 102.229C54.7599 67.3678 48.3302 74.5088 55.6691 65.6799ZM154.258 1.86519C166.663 9.3308 215.308 28.6115 228.817 33.9348C212.905 33.3506 197.318 31.6627 184.718 34.9086C169.131 38.9336 159.843 48.5415 158.22 62.1743C152.959 50.3592 137.502 42.9585 115.225 25.041C110.939 21.6004 105.288 17.0561 99.7678 13.0311C111.848 -5.01616 138.671 3.48815 154.258 1.86519ZM119.577 30.1047C131.981 39.4529 141.204 45.6851 147.504 51.0084C134.579 43.6077 114.9 47.6326 101.651 50.7487C87.2981 54.1894 68.9832 59.7074 55.6042 64.2517L28.7163 13.5505C85.6744 -4.75648 83.1415 2.51437 119.577 30.1047ZM28.1318 15.2384L54.5001 65.0307L49.759 70.7435L23.5855 17.7702C24.5597 17.0561 26.638 15.9525 28.1318 15.2384ZM22.4814 18.6141L48.8497 71.8471L21.1176 101.58L6.24481 38.609C7.3489 36.9211 16.1167 23.6777 22.4814 18.6141ZM1.43877 37.765L5.79019 36.986C4.42631 38.9336 3.12738 31.2732 20.1434 103.008C20.1434 103.073 20.2733 103.268 20.3382 103.333L16.3765 107.942L1.43877 37.765ZM252.197 49.3854L175.755 68.4065C174.586 68.4065 175.885 71.198 173.807 71.7173L140.359 80.6111C139.645 80.8059 138.866 80.4813 138.541 79.897C137.891 78.4688 137.307 77.9495 135.229 78.4688L16.7662 109.695C16.4414 109.759 16.8311 109.435 21.9619 103.462C45.4076 102.294 74.8284 88.7908 100.028 80.8708C115.42 76.0668 136.787 73.0806 139.84 76.5213C139.97 76.716 140.23 76.7809 140.424 76.716C149.127 75.4176 152.245 65.3553 161.662 65.4202C166.273 65.4202 168.221 67.0432 170.884 67.0432C171.339 67.0432 172.573 66.9134 172.898 66.7186C181.016 60.4864 180.496 63.4727 247.781 47.1133H247.846L252.197 48.087C252.847 48.2169 252.847 49.1906 252.197 49.3854Z" fill="#B199EC" fill-opacity="0.5"/>
<path d="M166.663 61.5903C179.197 43.543 202.318 47.8276 221.477 43.6079C201.929 45.88 177.444 42.4394 166.663 61.5903Z" fill="#B199EC" fill-opacity="0.5"/>
<path d="M172.573 61.3306C180.951 54.4492 194.59 53.7351 204.916 51.5928C194.46 51.7876 179.327 53.2158 172.573 61.3306Z" fill="#B199EC" fill-opacity="0.5"/>
<path d="M152.244 63.3431C141.723 48.2171 118.342 54.644 101.651 62.564C118.472 56.8512 140.749 49.6453 152.244 63.3431Z" fill="#B199EC" fill-opacity="0.5"/>
<path d="M77.426 79.7025C64.3069 81.5851 52.6814 88.1419 42.0302 89.7648C51.4474 89.9596 61.1894 84.8959 77.426 79.7025Z" fill="#B199EC" fill-opacity="0.5"/>
</svg>
