<svg width="155" height="80" viewBox="0 0 155 80" fill="none" xmlns="http://www.w3.org/2000/svg">
<path d="M210.788 102.713L198.289 92.1927L181.981 74.6198C196.206 74.7393 196.206 75.4566 196.503 74.6198C196.563 74.3807 196.503 74.0818 196.265 73.9623C191.087 70.2564 185.552 67.3276 180.016 64.339C193.765 61.1711 193.23 61.5895 193.23 60.932C193.289 60.2745 192.932 60.3343 187.516 58.3618C191.325 57.2859 191.623 57.2859 191.623 56.748C191.623 56.1502 191.325 56.1502 188.29 55.1341C189.956 54.5962 190.611 54.5962 190.611 53.9387C190.611 53.6996 190.432 53.4605 190.194 53.4007C176.862 49.396 167.637 47.304 160.316 46.527C159.84 46.4672 152.578 48.0213 146.924 49.7547C150.138 46.6465 166.684 30.3288 169.065 26.5034C169.244 26.2643 169.125 25.9654 169.005 25.7861C168.172 24.8895 162.816 29.492 151.031 30.9863C150.614 31.046 137.579 36.6048 128.235 45.3913C134.187 33.676 140.436 22.4987 147.46 10.365C147.817 9.76725 147.043 9.16953 146.567 9.58793C145.019 10.9029 138.532 14.1904 136.508 17.4181C129.485 28.5356 121.926 41.3866 115.915 55.1939C119.069 37.8003 120.855 21.2435 121.985 1.1601C122.045 0.383061 120.914 0.32329 120.795 1.04055C118.057 16.1031 115.736 28.954 113.593 41.6854C114.843 28.1172 115.557 14.8479 115.915 0.622149C115.915 -0.154885 114.843 -0.214657 114.724 0.502605C112.641 16.5215 110.974 31.7633 109.427 47.6626C109.189 35.4692 107.999 23.993 105.975 12.9949C105.915 12.8156 105.856 12.6961 105.677 12.5765C95.3805 6.06139 82.6434 5.94185 71.5729 6.71888C71.0968 6.77865 70.8587 7.25683 71.1563 7.67523C79.7865 19.5698 87.4645 34.7519 93.3569 51.1294C87.1074 44.3154 78.239 37.9796 65.7996 29.9104C65.6805 29.8506 65.5615 29.7908 65.3829 29.7908C29.493 34.3933 31.9928 34.1542 31.7547 34.2737C31.5762 34.453 31.4571 34.6921 31.5762 34.991C32.0523 36.1267 49.789 48.0213 50.8603 48.7385C40.0279 51.5478 29.7311 54.8353 18.2439 59.1388C18.0058 59.2584 17.8273 59.4975 17.8868 59.7963C17.9463 60.4538 18.1844 60.2745 22.9459 60.7527C20.8032 61.6493 18.601 62.6056 16.3393 63.6217C16.1012 63.7413 15.9227 63.9804 15.9822 64.2792C16.1012 65.116 16.0417 64.4585 30.3263 66.2517C10.1493 79.1026 11.3397 78.1463 11.5183 78.744C11.6373 79.282 10.9231 79.282 27.2908 79.7004C22.4698 83.7649 19.3152 85.4982 10.685 93.0893C10.4469 93.2686 10.3874 93.6272 10.6255 93.9261L0.209655 102.713C-0.206978 103.071 0.0310984 103.729 0.626288 103.788L43.8371 103.131H30.0287C29.9691 103.131 94.5472 101.756 97.1066 101.696C97.7017 101.696 97.9993 102.414 97.5827 102.832C96.3923 103.968 97.1066 106 98.8326 106H112.105C113.653 106 114.427 104.267 113.593 103.131C112.046 100.919 109.367 101.637 180.85 103.131H179.421L210.431 103.788C210.966 103.788 211.204 103.071 210.788 102.713ZM208.764 102.533L207.098 102.473C204.776 100.381 202.693 98.2297 201.027 96.0181L208.764 102.533ZM97.1066 100.561L5.6854 102.473C8.78039 99.6044 11.2802 96.4963 13.0658 93.5077C17.5297 92.5513 79.3699 80.1785 102.88 98.1699C101.035 99.6044 100.321 101.637 97.7613 100.501C97.5827 100.441 97.3446 100.501 97.1066 100.561ZM29.5525 89.5627C54.2529 84.6017 80.1437 83.8844 95.9757 92.8502C77.9415 85.0201 49.1343 86.873 29.5525 89.5627ZM102.523 100.202C106.689 95.9583 107.879 100.74 110.498 101.816C107.463 102.892 103.356 102.832 100.38 101.816C101.273 101.457 101.928 100.8 102.523 100.202ZM196.741 92.3122C165.553 89.8616 135.139 80.9556 111.451 95.3606C130.675 79.8797 147.876 74.5002 180.314 74.6198L196.741 92.3122ZM175.374 91.1168C144.424 89.503 128.83 89.5627 112.284 96.1974C130.259 85.4982 152.221 88.188 175.374 91.1168ZM193.884 73.7232C149.602 71.93 130.616 77.1899 106.927 97.5722C106.868 97.5722 106.808 97.5124 106.808 97.5124C127.878 78.1463 150.733 71.0932 178.29 64.7574C183.528 67.6264 188.825 70.376 193.884 73.7232ZM190.551 60.6929C160.792 67.3276 136.449 72.7668 114.248 89.6225C135.08 71.153 162.577 65.0563 185.492 58.84C187.159 59.4377 188.825 60.0354 190.551 60.6929ZM189.063 56.6284C169.065 62.3665 137.46 68.1046 114.427 87.9489C133.532 67.9851 155.138 65.4747 186.326 55.7318C187.278 56.0307 188.171 56.3296 189.063 56.6284ZM160.256 47.7224C167.16 48.4397 175.791 50.3524 187.992 53.9387C154.542 64.5183 131.806 66.5505 111.57 89.2639C121.688 74.2611 132.282 63.8608 144.96 51.6076C149.602 50.0535 154.661 48.7983 160.256 47.7224ZM109.367 90.4593C122.224 63.2033 138.532 54.1778 157.161 37.86C140.496 55.1341 124.069 67.9253 109.367 90.4593ZM151.269 32.1219C157.28 31.3449 162.756 29.3724 165.91 28.0574C144.722 49.4558 125.676 56.987 110.796 84.9005C115.915 71.3921 121.033 59.7963 126.509 48.7983C132.877 41.9843 140.853 36.7841 151.269 32.1219ZM137.52 18.0158C138.889 15.8042 142.877 13.4133 145.138 11.9788C131.33 36.0071 120.259 56.4491 109.308 85.6178C111.51 76.8313 113.355 68.7023 114.903 60.8125C121.093 45.1522 129.663 30.4483 137.52 18.0158ZM120.14 11.4409C118.236 37.5014 114.843 58.3618 108.058 85.3787C112.105 59.617 109.308 71.8702 120.14 11.4409ZM114.308 13.9513C113.415 33.2576 111.748 51.488 108.832 72.1691C109.308 65.7137 109.129 58.0032 114.308 13.9513ZM72.8823 7.735C83.4172 7.07751 95.321 7.37637 104.963 13.3536C109.367 37.1428 109.546 63.3826 105.499 93.5077C100.797 62.1274 88.5358 29.7311 72.8823 7.735ZM65.4425 30.9265C79.1318 39.7727 88.4763 46.5867 94.6068 54.2375C98.7731 66.3115 101.987 78.9831 103.951 91.5352C91.9879 63.3229 49.6104 41.2073 34.6116 34.9312L65.4425 30.9265ZM36.2782 37.0232C52.5268 44.1959 90.8571 65.0562 102.523 91.2961C87.8216 67.3874 61.1571 55.5525 36.2782 37.0232ZM21.2794 59.3182C32.1118 55.3732 41.992 52.2651 52.3483 49.6351C69.7873 61.1113 87.643 71.93 99.1897 88.3673C80.8579 68.4035 48.301 62.0079 21.2794 59.3182ZM19.0177 63.7413C21.2199 62.7849 23.3625 61.8883 25.5052 60.9918C52.884 64.0999 73.4775 70.4357 87.7026 80.1188C68.6565 69.838 40.504 65.7137 19.0177 63.7413ZM14.0776 77.967L32.2904 66.3712C63.9545 70.4955 85.6789 77.6681 97.2256 87.9489C100.083 90.8777 102.463 93.9858 104.487 97.3928C104.368 97.4526 104.249 97.4526 104.13 97.5124C90.2024 77.0106 42.4681 79.2222 14.0776 77.967ZM29.7311 79.6406C53.003 80.2383 82.4649 81.374 97.2851 92.1927C75.8583 79.4613 37.7066 85.4385 13.5419 92.0731C18.482 87.9489 23.7792 83.8246 29.7311 79.6406ZM10.0303 95.8986C8.36376 98.1699 6.28059 100.381 3.89983 102.473L2.29282 102.533L10.0303 95.8986ZM112.105 104.864H98.8326C98.416 104.864 98.1779 104.506 98.1779 104.207C98.1779 103.729 98.8921 103.549 98.9517 102.533C102.761 104.267 108.237 104.207 111.927 102.533C111.986 103.011 112.165 103.43 112.522 103.729C112.998 104.147 112.701 104.864 112.105 104.864ZM113.831 100.561C113.534 100.501 113.296 100.441 113.117 100.561C111.094 101.457 110.32 100.381 108.891 99.0067C130.318 89.1443 147.102 90.8179 197.872 93.6272C199.658 96.6158 202.158 99.6642 205.253 102.533C102.88 100.322 226.917 102.952 113.831 100.561Z" fill="#B199EC" fill-opacity="0.5"/>
</svg>
