<svg width="113" height="81" viewBox="0 0 113 81" fill="none" xmlns="http://www.w3.org/2000/svg">
<path d="M119.604 1.56513C119.553 1.31293 119.352 1.11116 119.049 1.1616C114.412 1.56513 111.741 2.2713 107.457 3.381C107.255 1.1616 107.356 0.505874 106.701 0.505874C99.9974 0.758078 99.1405 1.51469 96.5197 2.72527C93.5459 2.2713 90.421 2.67483 89.9674 2.82615C89.8162 2.87659 90.4714 2.57395 87.8505 3.73408C85.9857 3.6332 82.4576 3.381 80.5927 3.73408C80.5927 3.48188 80.3911 3.28012 80.1391 3.28012C76.6614 2.77571 74.2925 2.5235 70.1595 3.28012C69.8571 3.33056 69.8067 3.53232 68.0426 6.60921C63.9601 0.556315 64.0609 0.606755 63.7081 0.556315C53.3253 -0.351619 46.8739 0.00146621 38.9608 0.556315C38.7088 0.556315 38.5072 0.808518 38.5072 1.06072V2.32174C36.6423 1.06072 36.7935 1.1616 36.6927 1.11116C36.4911 1.01028 29.8885 0.203229 23.5883 1.06072C23.0843 1.11116 23.1347 1.56513 23.1347 2.62439C22.429 2.11998 13.1047 0.657196 6.30046 2.0191C6.09885 2.06954 5.89724 2.2713 5.89724 2.47306C-0.503783 113.443 -0.352578 106.633 0.302646 106.785C6.14925 107.945 11.3406 108.55 17.3384 108.298C17.3889 108.298 17.4897 108.298 17.5401 108.247L21.5218 106.23C21.5218 107.39 21.421 107.793 21.925 107.894C28.9309 108.903 34.6767 108.5 35.1303 108.247L38.5576 105.978C38.5576 107.692 38.4064 108.298 39.0112 108.348C48.6884 109.004 54.1317 109.407 63.8089 108.348C63.9601 108.348 64.0105 108.298 64.1113 108.197C64.1617 108.146 69.5547 100.278 69.5547 100.025V62.1445L70.8652 100.025C70.8652 100.177 74.5949 108.247 74.7461 108.348C75.0485 108.6 81.0967 108.651 84.9776 107.592C85.4817 107.44 85.3809 107.289 85.1793 103.304C87.5481 106.532 87.4473 106.482 87.7497 106.482C90.3706 106.684 92.4371 106.684 94.9572 106.482C95.2092 106.482 95.4612 106.23 95.4108 105.927L95.1588 102.648C98.1829 106.835 98.3845 107.037 98.4853 107.188C99.0397 107.844 104.987 107.44 105.794 107.39C106.046 107.39 106.298 107.138 106.247 106.835L105.995 103.96C108.969 108.399 108.717 108.146 108.918 108.247C109.271 108.399 113.858 108.348 116.529 106.835C116.932 106.583 116.832 107.087 115.924 96.6964C123.837 108.853 123.333 108.298 123.737 108.298C128.626 108.046 131.65 107.491 135.732 105.978C136.387 105.725 137.244 112.737 119.604 1.56513ZM16.8344 107.289C10.4838 107.541 5.24202 106.734 0.957869 105.877L6.90528 2.97747C10.5846 2.2713 16.6328 2.22086 22.2778 3.48188L16.8344 107.289ZM21.4714 105.07L17.8425 106.936L23.0338 7.66846L21.4714 105.07ZM34.3238 107.289C30.9469 107.642 26.8644 107.491 22.4794 106.885L24.1427 2.06954C28.2756 1.51469 31.1485 1.61557 35.9871 2.06954L34.3238 107.289ZM38.5072 104.716L35.3319 106.835L36.9951 2.57394L38.5072 3.58276V104.716ZM39.5152 107.289V1.56513C47.0755 1.01028 53.3253 0.707637 63.2041 1.56513V107.339C53.9805 108.298 48.5876 107.894 39.5152 107.289ZM68.4963 99.7733L64.2121 106.078V2.72527L67.589 7.7189C68.7483 39.8497 68.4963 19.9256 68.4963 99.7733ZM71.8228 99.8237L68.5971 7.7189L69.8571 5.54995L74.3933 105.372L71.8228 99.8237ZM75.5021 107.39L70.8147 4.23849C74.3933 3.6332 76.5101 3.83496 79.6351 4.23849L84.3224 106.633C81.5503 107.339 78.9798 107.44 75.5021 107.39ZM85.0785 101.438L81.4495 22.4476L87.1449 104.212L85.0785 101.438ZM88.2538 105.423L81.2479 4.7429C83.516 4.54113 85.1288 4.64202 87.3969 4.7429L94.4028 105.423C92.3867 105.624 90.6226 105.574 88.2538 105.423ZM95.058 100.732L88.405 4.64202L89.7154 4.03673L98.2333 105.07L95.058 100.732ZM99.3926 106.381L90.7234 3.73408C92.9915 3.43144 94.6044 3.43144 96.6205 3.73408L105.29 106.381C103.021 106.532 101.509 106.583 99.3926 106.381ZM105.894 101.841L97.5781 3.381L98.8885 2.77571L108.515 105.826L105.894 101.841ZM109.675 107.239L99.8966 2.37218C102.215 1.76689 103.828 1.61557 106.348 1.51469L115.824 106.078C114.311 106.835 112.346 107.239 109.675 107.239ZM115.773 94.477L108.566 15.4363L122.88 105.473L115.773 94.477ZM124.19 107.239L107.86 4.33937C111.943 3.28012 114.463 2.57394 118.696 2.22086L135.077 105.12C131.398 106.431 128.525 106.986 124.19 107.239Z" fill="#B199EC" fill-opacity="0.5"/>
</svg>
