<svg width="92" height="81" viewBox="0 0 92 81" fill="none" xmlns="http://www.w3.org/2000/svg">
<path d="M112.989 86.3789C90.1314 16.8248 91.6524 20.9876 91.1309 21.031L85.1341 21.5947L83.7001 15.3071C83.5698 14.7867 83.7001 14.9168 74.9657 15.654C74.1835 10.1903 74.2704 9.88674 73.7489 9.9301L64.7972 10.4071L64.58 7.11151C64.58 6.85134 64.3627 6.67788 64.102 6.72125L55.8455 7.37169L55.7152 5.11682C55.7152 4.85664 55.4979 4.68319 55.2372 4.72655L52.1084 4.98673V2.3416C52.1084 2.08142 51.8912 1.90797 51.6304 1.90797L39.55 2.77522V0.433629C39.55 0.173452 39.3761 0 39.1154 0C-2.25362 1.60443 0.223307 1.77788 0.0494879 2.16814C0.00603302 2.25487 -0.0808767 76.0585 0.179853 76.2753C4.69916 79.3107 8.30591 80.655 14.52 81.739C14.6938 81.7824 14.3896 81.8691 22.0811 79.1373C22.3853 84.0373 22.3418 83.9072 22.5591 84.0806C25.3837 85.6417 28.2952 86.2488 32.5972 86.2488C32.6406 86.2488 32.6841 86.2488 32.7276 86.2488C32.9014 86.2488 32.1626 86.5089 42.2876 82.5629C43.4609 92.1461 43.2871 91.539 43.5478 91.7125C46.0247 93.3603 51.6739 94.5744 52.0215 94.401C52.1084 94.3576 51.0655 94.9647 63.5371 87.593C66.4485 100.038 66.1443 99.1709 66.4485 99.2576C67.9695 99.8647 69.0124 100.125 70.7071 100.125C70.9244 100.125 70.4464 100.428 76.8777 95.7886C78.4855 101.946 78.3552 101.729 78.6593 101.816C86.0467 104.201 85.4383 104.071 85.699 103.941C85.7859 103.897 84.3519 104.765 112.815 86.8992C112.945 86.7691 113.032 86.5523 112.989 86.3789ZM54.8895 5.55045L55.0199 7.41505L27.9475 9.62656L21.0816 8.23895L54.8895 5.55045ZM0.87513 2.86195L14.1723 5.377V80.785C8.43628 79.7443 5.09025 78.4868 0.87513 75.7116V2.86195ZM14.6503 4.5531L4.13425 2.60177L38.6809 0.910621V2.86195L14.6503 4.5531ZM15.0414 80.655V5.42036L51.2828 2.81859V4.98673C16.2147 7.76196 17.4314 7.41505 17.4749 8.10886L22.0377 78.27L15.0414 80.655ZM23.2544 83.4302L18.3874 8.58585L27.513 10.4071L32.293 85.3815C27.8172 85.3382 25.3837 84.5576 23.2544 83.4302ZM33.1621 85.1647L28.3821 10.4071L63.7543 7.54514L63.9282 10.4071C36.4212 11.8381 42.9394 11.4478 41.9834 11.5779L34.3354 12.7053C33.6836 12.7921 33.4228 8.67258 42.1573 81.6523L33.1621 85.1647ZM44.1996 91.1054L34.9003 13.4859L41.6358 12.4885L51.3262 93.447C48.4148 92.8399 46.0247 92.2762 44.1996 91.1054ZM52.1953 93.2736L42.5049 12.4018L73.4013 10.7974L74.14 15.6974C54.9764 17.3018 51.6739 17.562 51.6304 17.562C47.6326 18.4726 47.7629 18.3859 47.6326 18.6027C47.5022 18.8195 46.4158 13.9628 63.3632 86.6824L52.1953 93.2736ZM66.97 98.5205L48.4582 19.1664L51.3262 18.516L70.1422 99.2143C68.9689 99.2143 68.1433 98.9541 66.97 98.5205ZM70.9678 98.9107L52.1953 18.3859L82.9179 15.8708L84.265 21.6814C65.7098 23.3726 64.6234 23.4593 64.5365 23.5027C58.4528 25.7576 58.5397 25.5841 58.6701 26.1045L76.617 94.878L70.9678 98.9107ZM79.1374 101.036L59.6261 26.2345L64.4062 24.4567L84.8734 102.9L79.1374 101.036ZM85.7425 102.857L65.2318 24.2399L90.8267 21.8983L112.033 86.2921L85.7425 102.857Z" fill="#B199EC" fill-opacity="0.5"/>
</svg>
