<svg width="336" height="229" viewBox="0 0 336 229" fill="none" xmlns="http://www.w3.org/2000/svg">
<g clip-path="url(#clip0_457_33852)">
<path d="M4.71794 154.037L188.498 52.0307C195.44 48.0284 205.96 47.5957 211.979 51.1113L301.999 99.7346C302.975 100.275 302.975 101.682 301.999 102.223L119.52 206.717C113.012 210.449 103.143 210.881 97.503 207.582L4.88062 156.363C3.95874 155.876 3.90451 154.632 4.71794 154.037Z" fill="#DAF5F8"/>
<path d="M3.57918 147.222L188.01 44.8914C194.952 40.889 205.472 40.4563 211.491 43.9719L301.511 92.5952C303.354 93.5688 304.493 95.5159 304.493 97.6252C304.493 99.6805 303.409 101.573 301.619 102.601L118.869 207.474C111.928 211.476 101.407 211.909 95.3881 208.393L3.57918 158.364C1.5185 157.228 0.27124 155.119 0.27124 152.793C0.27124 150.467 1.5185 148.358 3.57918 147.222Z" fill="#B199EC"/>
<path d="M105.691 210.989C101.787 210.989 98.0994 210.178 95.3338 208.61L3.47063 158.634C1.35571 157.444 0 155.227 0 152.793C0 150.359 1.30148 148.141 3.4164 147.006L187.902 44.6209C194.897 40.6186 205.58 40.1859 211.654 43.7015L301.673 92.3248C303.626 93.3524 304.819 95.4077 304.819 97.5711C304.819 99.6805 303.68 101.682 301.836 102.763L119.086 207.636C115.236 209.854 110.355 210.989 105.691 210.989ZM201.296 41.8626C196.741 41.8626 191.915 42.9443 188.173 45.1077L3.68754 147.492C1.73531 148.574 0.542285 150.629 0.542285 152.793C0.542285 155.01 1.78954 157.066 3.74177 158.147L95.6049 208.123C101.516 211.53 111.982 211.152 118.815 207.203L301.565 102.331C303.246 101.357 304.276 99.5723 304.276 97.6252C304.276 95.624 303.192 93.7851 301.402 92.8656L211.383 44.2423C208.671 42.6198 205.092 41.8626 201.296 41.8626Z" fill="#636363"/>
<path d="M4.2299 146.843L188.01 44.8914C194.952 40.889 205.472 40.4563 211.491 43.9719L301.511 92.5952C302.487 93.1361 302.487 94.5423 301.511 95.0832L119.032 199.577C112.524 203.309 102.655 203.742 97.0149 200.443L4.39259 149.223C3.4707 148.736 3.41647 147.492 4.2299 146.843C4.17567 146.843 4.2299 146.843 4.2299 146.843Z" fill="white"/>
<path d="M106.613 202.931C102.98 202.931 99.4552 202.173 96.9065 200.713L4.22991 149.44C3.74185 149.169 3.41648 148.682 3.36225 148.087C3.30802 147.547 3.52494 147.06 3.90454 146.735L4.06722 146.627L187.902 44.6209C194.952 40.5645 205.58 40.1859 211.654 43.7015L301.728 92.3248C302.216 92.5952 302.541 93.1361 302.541 93.731C302.541 94.38 302.216 94.9209 301.673 95.2454L119.194 199.794C115.561 201.849 110.952 202.931 106.613 202.931ZM4.39259 147.06C4.06722 147.276 3.90454 147.655 3.95876 148.033C4.01299 148.412 4.17568 148.736 4.55528 148.953L97.1776 200.172C102.763 203.363 112.47 202.985 118.923 199.307L301.457 94.8127C301.836 94.5964 302.053 94.2178 302.053 93.7851C302.053 93.3524 301.836 93.0279 301.457 92.8115L211.437 44.1882C205.526 40.7808 195.06 41.1594 188.227 45.1077L4.39259 147.06Z" fill="#636363"/>
<path d="M46.2028 175.184L56.7774 180.918C57.7535 181.458 58.5127 182.865 58.5669 184.109C58.5669 185.353 57.862 185.948 56.8858 185.461L46.3113 179.728C45.3352 179.187 44.576 177.781 44.5217 176.537C44.5217 175.293 45.2809 174.698 46.2028 175.184Z" fill="#636363"/>
<g opacity="0.8">
<path d="M111.277 196.765L129.172 186.705L147.068 176.645C147.61 176.32 148.207 176.158 148.857 176.158C149.454 176.158 150.05 176.32 150.593 176.645L153.467 178.213C154.606 178.862 155.31 180.106 155.31 181.458C155.31 182.811 154.606 184.055 153.467 184.758L135.571 194.709L117.676 204.715C117.134 205.04 116.537 205.202 115.886 205.202C115.29 205.202 114.693 205.04 114.151 204.769L111.277 203.363C110.138 202.714 109.379 201.47 109.379 200.118C109.433 198.712 110.138 197.414 111.277 196.765Z" fill="white"/>
<path d="M153.358 178.267C154.117 178.7 154.66 179.403 154.931 180.16C155.093 180.593 155.148 181.026 155.148 181.512C155.148 182.811 154.334 184.109 153.25 184.704L136.981 193.79L135.517 194.601L117.676 204.553C117.133 204.824 116.537 205.04 115.94 205.04C115.561 205.04 115.127 204.986 114.747 204.824C114.585 204.769 114.368 204.661 114.205 204.553L111.385 203.147C110.626 202.714 110.084 202.011 109.813 201.254C109.65 200.821 109.596 200.388 109.596 199.902C109.596 198.604 110.409 197.306 111.494 196.711L127.762 187.516L129.226 186.705L146.959 176.699C147.501 176.374 148.152 176.212 148.749 176.212C149.128 176.212 149.562 176.266 149.942 176.428C150.104 176.482 150.321 176.591 150.484 176.699L153.358 178.267Z" fill="#FDFFFF"/>
<path d="M153.304 178.375C154.063 178.808 154.551 179.511 154.768 180.268C154.931 180.647 154.931 181.134 154.931 181.567C154.931 182.811 154.009 184.109 152.979 184.704L136.819 193.736L135.354 194.547L117.73 204.445C117.242 204.715 116.537 204.932 115.995 204.932C115.615 204.932 115.181 204.878 114.856 204.769C114.693 204.715 114.476 204.607 114.314 204.499L111.494 203.093C110.735 202.66 110.247 201.957 110.03 201.2C109.867 200.821 109.867 200.334 109.867 199.902C109.867 198.658 110.735 197.36 111.819 196.765L127.979 187.624L129.443 186.813L147.068 176.861C147.556 176.591 148.261 176.32 148.803 176.32C149.183 176.32 149.616 176.374 149.996 176.537C150.159 176.591 150.376 176.699 150.538 176.807L153.304 178.375Z" fill="#FCFEFE"/>
<path d="M153.25 178.484C154.009 178.916 154.497 179.619 154.66 180.377C154.822 180.755 154.768 181.242 154.768 181.621C154.768 182.81 153.792 184.109 152.762 184.703L136.71 193.682L135.246 194.493L117.73 204.283C117.242 204.553 116.537 204.823 115.995 204.823C115.615 204.823 115.236 204.769 114.856 204.661C114.693 204.607 114.476 204.499 114.314 204.391L111.494 202.985C110.735 202.552 110.247 201.849 110.084 201.092C109.921 200.713 109.975 200.226 109.975 199.848C109.975 198.658 110.952 197.36 111.928 196.765L127.979 187.678L129.444 186.867L146.959 176.969C147.447 176.699 148.152 176.428 148.695 176.428C149.074 176.428 149.508 176.482 149.833 176.591C149.996 176.645 150.213 176.753 150.376 176.861L153.25 178.484Z" fill="#FAFEFE"/>
<path d="M153.196 178.592C153.955 179.024 154.389 179.728 154.551 180.485C154.66 180.863 154.606 181.296 154.606 181.729C154.606 182.865 153.521 184.163 152.545 184.703L136.547 193.628L135.083 194.439L117.676 204.174C117.242 204.445 116.483 204.715 115.995 204.715C115.615 204.769 115.236 204.661 114.856 204.553C114.693 204.499 114.476 204.391 114.314 204.283L111.548 202.876C110.789 202.444 110.355 201.741 110.192 200.983C110.03 200.605 110.138 200.172 110.138 199.739C110.138 198.604 111.223 197.305 112.145 196.765L128.088 187.732L129.498 186.921L146.905 177.077C147.339 176.807 148.098 176.536 148.64 176.536C149.02 176.482 149.454 176.591 149.779 176.699C149.942 176.753 150.159 176.861 150.322 176.969L153.196 178.592Z" fill="#F9FDFE"/>
<path d="M153.141 178.7C153.9 179.133 154.334 179.89 154.388 180.593C154.497 180.918 154.388 181.404 154.388 181.783C154.388 182.865 153.195 184.163 152.274 184.704L136.439 193.574L134.975 194.385L117.676 204.066C117.242 204.283 116.483 204.607 115.995 204.607C115.615 204.661 115.235 204.607 114.856 204.445C114.693 204.391 114.476 204.283 114.314 204.175L111.548 202.822C110.789 202.39 110.355 201.632 110.246 200.929C110.138 200.605 110.246 200.118 110.246 199.739C110.246 198.658 111.439 197.36 112.307 196.819L128.142 187.895L129.552 187.083L146.851 177.348C147.285 177.077 148.098 176.807 148.586 176.807C148.966 176.753 149.345 176.807 149.725 176.969C149.888 177.023 150.104 177.132 150.267 177.24L153.141 178.7Z" fill="#F7FDFD"/>
<path d="M153.087 178.808C153.846 179.241 154.226 179.998 154.28 180.701C154.389 181.026 154.172 181.513 154.172 181.837C154.172 182.865 152.87 184.217 152.057 184.704L136.331 193.52L134.921 194.331L117.73 203.904C117.351 204.12 116.537 204.445 116.049 204.445C115.67 204.499 115.29 204.445 114.91 204.283C114.748 204.229 114.531 204.12 114.368 204.012L111.602 202.66C110.843 202.227 110.464 201.47 110.409 200.767C110.301 200.443 110.464 199.956 110.464 199.631C110.464 198.604 111.711 197.252 112.578 196.765L128.305 187.895L129.715 187.083L146.959 177.402C147.339 177.186 148.207 176.807 148.64 176.807C149.02 176.753 149.4 176.807 149.779 176.969C149.942 177.023 150.159 177.132 150.322 177.24L153.087 178.808Z" fill="#F5FCFD"/>
<path d="M153.033 178.916C153.738 179.349 154.172 180.106 154.172 180.809C154.28 181.08 154.009 181.621 154.009 181.945C154.009 182.865 152.599 184.271 151.84 184.704L136.222 193.465L134.812 194.277L117.784 203.85C117.405 204.066 116.537 204.445 116.103 204.445C115.724 204.499 115.344 204.445 114.964 204.283C114.856 204.229 114.585 204.12 114.422 204.012L111.711 202.66C110.951 202.227 110.572 201.47 110.572 200.821C110.463 200.551 110.68 200.01 110.68 199.685C110.68 198.766 112.036 197.36 112.849 196.927L128.467 188.111L129.877 187.3L146.959 177.672C147.339 177.456 148.206 177.077 148.64 177.077C149.02 177.023 149.4 177.077 149.779 177.24C149.888 177.294 150.159 177.402 150.321 177.51L153.033 178.916Z" fill="#F4FCFD"/>
<path d="M152.979 179.024C153.684 179.457 154.063 180.214 154.009 180.917C154.117 181.188 153.792 181.675 153.792 181.999C153.792 182.865 152.328 184.271 151.569 184.703L136.059 193.411L134.649 194.223L117.73 203.688C117.405 203.904 116.483 204.283 116.103 204.283C115.724 204.337 115.344 204.283 115.019 204.174C114.91 204.12 114.639 204.012 114.476 203.904L111.765 202.552C111.06 202.119 110.68 201.362 110.68 200.713C110.572 200.442 110.843 199.956 110.843 199.631C110.843 198.766 112.307 197.36 113.066 196.927L128.576 188.165L129.986 187.354L146.905 177.78C147.285 177.564 148.152 177.186 148.586 177.186C148.966 177.131 149.345 177.186 149.725 177.294C149.833 177.348 150.159 177.51 150.267 177.564L152.979 179.024Z" fill="#F2FCFD"/>
<path d="M152.924 179.079C153.629 179.511 154.009 180.323 153.901 180.972C154.009 181.242 153.629 181.729 153.629 181.999C153.629 182.81 152.057 184.217 151.352 184.649L135.951 193.249L134.541 194.006L117.73 203.417C117.405 203.58 116.483 204.012 116.103 204.012C115.724 204.066 115.344 204.012 115.019 203.904C114.91 203.85 114.585 203.742 114.476 203.634L111.819 202.281C111.114 201.849 110.735 201.037 110.843 200.443C110.735 200.172 111.114 199.685 111.06 199.415C111.06 198.604 112.633 197.197 113.338 196.765L128.739 188.057L130.094 187.3L146.905 177.78C147.23 177.564 148.152 177.186 148.532 177.186C148.912 177.131 149.291 177.131 149.616 177.294C149.725 177.348 150.05 177.51 150.159 177.564L152.924 179.079Z" fill="#F1FBFC"/>
<path d="M152.87 179.187C153.575 179.619 153.901 180.431 153.792 181.026C153.901 181.242 153.467 181.783 153.467 182.053C153.467 182.81 151.786 184.271 151.135 184.595L135.842 193.141L134.433 193.898L117.73 203.363C117.405 203.525 116.483 203.958 116.103 203.958C115.724 204.012 115.344 204.012 115.019 203.85C114.91 203.796 114.585 203.688 114.531 203.634L111.873 202.281C111.169 201.849 110.843 201.037 110.952 200.442C110.843 200.226 111.277 199.685 111.223 199.415C111.223 198.658 112.904 197.197 113.555 196.819L128.901 188.165L130.257 187.408L146.959 177.997C147.285 177.835 148.261 177.348 148.586 177.348C148.966 177.294 149.345 177.294 149.671 177.456C149.779 177.51 150.105 177.672 150.159 177.726L152.87 179.187Z" fill="#EFFBFC"/>
<path d="M152.816 179.295C153.521 179.728 153.846 180.539 153.684 181.134C153.792 181.35 153.304 181.891 153.304 182.107C153.304 182.811 151.514 184.271 150.918 184.595L135.734 193.087L134.378 193.844L117.784 203.147C117.513 203.309 116.537 203.796 116.212 203.796C115.886 203.904 115.452 203.85 115.127 203.688C115.019 203.634 114.693 203.525 114.639 203.471L111.982 202.173C111.277 201.795 110.952 200.929 111.114 200.334C111.006 200.118 111.494 199.577 111.494 199.361C111.494 198.658 113.229 197.197 113.826 196.873L129.064 188.273L130.42 187.516L147.013 178.159C147.285 177.997 148.315 177.51 148.64 177.51C149.02 177.402 149.4 177.456 149.725 177.618C149.833 177.672 150.159 177.835 150.213 177.889L152.816 179.295Z" fill="#EDFAFC"/>
<path d="M152.762 179.403C153.467 179.836 153.738 180.647 153.521 181.242C153.575 181.458 153.087 181.945 153.087 182.216C153.087 182.865 151.243 184.325 150.647 184.649L135.626 193.087L134.27 193.844L117.784 203.093C117.513 203.255 116.483 203.742 116.212 203.742C115.886 203.85 115.507 203.796 115.127 203.634C115.019 203.58 114.693 203.417 114.639 203.417L112.036 202.119C111.331 201.741 111.06 200.875 111.223 200.28C111.169 200.064 111.657 199.577 111.657 199.307C111.657 198.658 113.5 197.197 114.043 196.873L129.172 188.327L130.528 187.57L147.014 178.267C147.285 178.105 148.315 177.618 148.586 177.618C148.912 177.51 149.345 177.564 149.671 177.726C149.779 177.781 150.105 177.943 150.159 177.997L152.762 179.403Z" fill="#ECFAFB"/>
<path d="M152.708 179.511C153.413 179.944 153.684 180.809 153.413 181.35C153.467 181.512 152.925 182.053 152.925 182.27C152.925 182.865 150.972 184.325 150.484 184.595L135.517 192.979L134.161 193.736L117.784 202.876C117.568 202.985 116.483 203.525 116.212 203.525C115.886 203.634 115.507 203.58 115.127 203.417C115.019 203.363 114.693 203.201 114.639 203.201L112.036 201.903C111.331 201.524 111.06 200.605 111.331 200.064C111.277 199.902 111.819 199.361 111.819 199.145C111.819 198.55 113.772 197.089 114.26 196.765L129.281 188.327L130.637 187.57L147.014 178.321C147.231 178.159 148.315 177.672 148.586 177.672C148.912 177.564 149.345 177.618 149.671 177.781C149.779 177.835 150.105 177.997 150.159 178.051L152.708 179.511Z" fill="#EAF9FB"/>
<path d="M152.653 179.62C153.358 180.052 153.575 180.918 153.304 181.458C153.358 181.621 152.762 182.162 152.762 182.324C152.762 182.865 150.701 184.325 150.267 184.595L135.409 192.925L134.053 193.682L117.784 202.768C117.567 202.876 116.483 203.417 116.212 203.417C115.886 203.526 115.507 203.471 115.181 203.363C115.127 203.363 114.748 203.147 114.693 203.147L112.09 201.849C111.385 201.47 111.168 200.551 111.44 200.01C111.385 199.848 111.982 199.307 111.982 199.145C111.982 198.604 114.043 197.143 114.476 196.873L129.389 188.49L130.745 187.732L147.014 178.538C147.23 178.43 148.315 177.835 148.586 177.835C148.912 177.726 149.291 177.726 149.671 177.889C149.725 177.943 150.105 178.105 150.159 178.159L152.653 179.62Z" fill="#E8F9FB"/>
<path d="M152.599 179.728C153.304 180.106 153.521 181.026 153.141 181.567C153.196 181.729 152.545 182.27 152.545 182.432C152.545 182.919 150.376 184.433 149.996 184.649L135.246 192.925L133.89 193.682L117.784 202.714C117.622 202.822 116.483 203.417 116.266 203.417C115.941 203.525 115.561 203.525 115.236 203.363C115.181 203.363 114.802 203.147 114.748 203.147L112.199 201.849C111.494 201.47 111.277 200.551 111.602 200.01C111.548 199.848 112.199 199.307 112.199 199.145C112.199 198.658 114.368 197.143 114.748 196.927L129.552 188.598L130.853 187.841L146.959 178.754C147.122 178.646 148.315 178.051 148.532 178.051C148.857 177.943 149.237 177.943 149.562 178.105C149.616 178.105 149.996 178.321 150.05 178.375L152.599 179.728Z" fill="#E7F8FA"/>
<path d="M152.545 179.836C153.25 180.214 153.412 181.134 153.033 181.675C153.087 181.783 152.382 182.324 152.382 182.486C152.382 182.919 150.105 184.433 149.779 184.649L135.137 192.871L133.836 193.628L117.839 202.606C117.676 202.714 116.483 203.309 116.32 203.309C115.995 203.417 115.615 203.417 115.29 203.255C115.236 203.255 114.856 203.039 114.802 203.039L112.253 201.795C111.548 201.416 111.385 200.497 111.765 199.956C111.711 199.848 112.416 199.307 112.416 199.144C112.416 198.712 114.639 197.197 115.019 196.981L129.715 188.706L131.016 187.949L147.014 178.916C147.176 178.808 148.369 178.213 148.532 178.213C148.857 178.105 149.237 178.105 149.562 178.267C149.616 178.267 149.996 178.484 150.05 178.538L152.545 179.836Z" fill="#E5F8FA"/>
<path d="M152.491 179.944C153.195 180.323 153.358 181.296 152.924 181.783C152.979 181.891 152.219 182.432 152.219 182.54C152.219 182.919 149.888 184.433 149.562 184.595L135.029 192.762L133.727 193.52L117.838 202.444C117.676 202.498 116.483 203.147 116.32 203.147C115.995 203.255 115.615 203.255 115.29 203.093C115.236 203.093 114.856 202.876 114.802 202.876L112.307 201.632C111.602 201.254 111.44 200.334 111.873 199.793C111.819 199.685 112.578 199.144 112.578 199.036C112.578 198.658 114.91 197.143 115.236 196.981L129.823 188.76L131.124 188.003L147.013 179.024C147.176 178.916 148.369 178.321 148.532 178.321C148.857 178.213 149.237 178.213 149.562 178.375C149.616 178.375 149.996 178.592 150.05 178.646L152.491 179.944Z" fill="#E4F8FA"/>
<path d="M152.436 180.052C153.141 180.431 153.25 181.404 152.816 181.891C152.87 181.999 152.057 182.54 152.057 182.648C152.057 182.919 149.616 184.487 149.345 184.649L134.92 192.708L133.619 193.465L117.838 202.281C117.73 202.336 116.483 202.985 116.374 202.985C116.049 203.093 115.669 203.093 115.344 202.93C115.29 202.93 114.91 202.714 114.856 202.714L112.361 201.47C111.656 201.092 111.548 200.118 111.982 199.631C111.928 199.523 112.741 198.982 112.741 198.874C112.741 198.604 115.181 197.035 115.398 196.873L129.877 188.706L131.179 188.003L146.959 179.079C147.068 179.024 148.315 178.321 148.478 178.321C148.803 178.159 149.183 178.213 149.508 178.375C149.562 178.375 149.942 178.592 149.996 178.646L152.436 180.052Z" fill="#E2F7FA"/>
<path d="M152.382 180.106C153.087 180.485 153.196 181.458 152.653 181.945C152.707 181.999 151.84 182.594 151.84 182.648C151.84 182.865 149.291 184.433 149.074 184.595L134.758 192.6L133.456 193.303L117.784 202.065C117.676 202.119 116.429 202.822 116.32 202.822C115.995 202.985 115.615 202.93 115.344 202.768C115.29 202.768 114.91 202.552 114.856 202.552L112.361 201.308C111.656 200.929 111.548 199.956 112.09 199.469C112.036 199.415 112.904 198.82 112.904 198.766C112.904 198.549 115.452 196.927 115.615 196.819L129.986 188.706L131.287 188.003L146.959 179.187C147.068 179.133 148.315 178.43 148.423 178.43C148.749 178.267 149.128 178.267 149.454 178.484C149.508 178.484 149.888 178.7 149.942 178.754L152.382 180.106Z" fill="#E0F7F9"/>
<path d="M152.328 180.214C153.033 180.593 153.087 181.567 152.545 182.053C152.545 182.107 151.677 182.648 151.677 182.702C151.677 182.865 149.02 184.487 148.857 184.541L134.649 192.546L133.348 193.249L117.784 201.957C117.73 202.011 116.429 202.714 116.32 202.714C115.995 202.876 115.615 202.876 115.344 202.714C115.344 202.714 114.91 202.498 114.856 202.498L112.416 201.254C111.711 200.875 111.656 199.902 112.199 199.415C112.199 199.361 113.066 198.82 113.066 198.712C113.066 198.549 115.724 196.927 115.832 196.873L130.094 188.814L131.341 188.111L146.905 179.349C146.959 179.295 148.315 178.592 148.369 178.592C148.695 178.43 149.074 178.43 149.4 178.592C149.4 178.592 149.833 178.808 149.888 178.862L152.328 180.214Z" fill="#DFF6F9"/>
<path d="M152.274 180.323C152.979 180.701 153.033 181.729 152.436 182.161C152.436 182.216 151.515 182.756 151.515 182.81C151.515 182.919 148.749 184.541 148.695 184.595L134.595 192.492L133.348 193.195L117.893 201.849C117.839 201.849 116.483 202.606 116.429 202.606C116.103 202.768 115.778 202.768 115.453 202.606C115.453 202.606 115.019 202.39 114.964 202.39L112.524 201.146C111.819 200.767 111.765 199.793 112.362 199.307C112.362 199.253 113.283 198.712 113.283 198.658C113.283 198.549 115.995 196.927 116.103 196.873L130.257 188.868L131.504 188.165L146.959 179.457C147.014 179.403 148.369 178.7 148.424 178.7C148.749 178.538 149.128 178.538 149.4 178.7C149.4 178.7 149.833 178.97 149.888 178.97L152.274 180.323Z" fill="#DDF6F9"/>
<path d="M152.219 180.431C152.924 180.809 152.924 181.837 152.274 182.216L151.297 182.811C151.297 182.865 148.478 184.487 148.423 184.541L134.432 192.384L133.185 193.087L117.893 201.687L116.483 202.444C116.157 202.606 115.832 202.606 115.507 202.444C115.507 202.444 115.073 202.227 115.019 202.227L112.578 201.038C111.873 200.659 111.873 199.631 112.47 199.253L113.446 198.658C113.446 198.604 116.266 196.981 116.32 196.927L130.365 189.03L131.613 188.327L146.959 179.674C146.959 179.674 148.369 178.862 148.423 178.862C148.749 178.7 149.128 178.7 149.399 178.862L149.833 179.133L152.219 180.431Z" fill="#DCF5F8"/>
<path d="M148.315 178.97C148.64 178.808 148.966 178.808 149.291 178.97L152.165 180.539C152.87 180.918 152.87 181.945 152.165 182.324L134.324 192.33L116.483 202.336C116.158 202.498 115.832 202.498 115.507 202.336L112.633 200.929C111.928 200.551 111.928 199.523 112.633 199.145L130.528 189.085L148.315 178.97Z" fill="#DAF5F8"/>
</g>
<path d="M97.991 164.638C95.9846 164.638 93.9239 164.151 92.0801 163.123L62.6882 146.735L62.9594 146.248L92.3512 162.636C95.8761 164.584 100.214 164.584 103.685 162.582L153.467 134.133L153.738 134.62L104.01 163.069C102.167 164.097 100.106 164.638 97.991 164.638Z" fill="#636363"/>
<path d="M162.685 96.7598L162.414 96.273L210.624 68.6892C212.033 67.8779 212.847 66.4176 212.847 64.795C212.847 63.1724 211.979 61.7121 210.569 60.9549L161.872 34.1283L162.143 33.6415L210.84 60.4681C212.467 61.3335 213.443 62.9561 213.443 64.795C213.443 66.6339 212.522 68.2565 210.895 69.176L162.685 96.7598Z" fill="#636363"/>
<path d="M180.906 192.492L180.635 192.005L214.908 172.426C216.535 171.507 217.511 169.83 217.511 167.991C217.511 166.152 216.535 164.475 214.908 163.502L173.423 139.596L173.694 139.109L215.179 163.015C216.968 164.043 218.053 165.882 218.053 167.991C218.053 170.046 216.968 171.939 215.179 172.967L180.906 192.492Z" fill="#636363"/>
<path d="M104.119 112.823L35.7365 74.0437C34.3808 73.2865 33.5674 71.8803 33.5674 70.2577C33.5674 68.6892 34.435 67.283 35.7908 66.5258L46.9618 60.5222L47.233 61.009L36.0619 67.0666C34.8689 67.7157 34.1097 68.9055 34.1097 70.3118C34.1097 71.6639 34.8146 72.9079 36.0077 73.5569L104.39 112.337L104.119 112.823Z" fill="#636363"/>
<path d="M115.182 60.5222C114.965 60.2517 114.639 59.9813 114.26 59.7649L58.7839 27.8001C57.0485 26.7725 54.1744 26.7725 52.3849 27.8001L19.5766 46.7302C19.3055 46.8925 19.0343 47.1088 18.8717 47.2711L18.2751 47.3252V48.5692C18.2751 49.2182 18.709 49.9213 19.5766 50.4081L75.0524 82.3729C76.7877 83.4005 79.6618 83.4005 81.4514 82.3729L114.26 63.4428C115.127 62.956 115.561 62.2529 115.561 61.6039V60.3599L115.182 60.5222Z" fill="#636363"/>
<path d="M81.4514 81.183C79.7161 82.2106 76.842 82.2106 75.0524 81.183L19.5766 49.2182C17.8413 48.1906 17.8413 46.568 19.5766 45.5403L52.3849 26.6103C54.1202 25.5826 56.9943 25.5826 58.7839 26.6103L114.26 58.5751C115.995 59.6027 115.995 61.2253 114.26 62.2529L81.4514 81.183Z" fill="white"/>
<path d="M78.306 82.1566C77.113 82.1566 75.92 81.8861 74.9981 81.3453L19.4681 49.4346C18.5462 48.8937 18.0039 48.1906 18.0039 47.3793C18.0039 46.568 18.492 45.8649 19.4681 45.324L52.2763 26.3939C54.1201 25.3122 57.1027 25.3122 58.9465 26.3939L114.422 58.3587C115.344 58.8996 115.886 59.6568 115.886 60.414C115.886 61.2253 115.398 61.9284 114.422 62.4693L81.614 81.3994C80.6921 81.8861 79.4991 82.1566 78.306 82.1566ZM55.5843 26.0694C54.4455 26.0694 53.3609 26.2858 52.5475 26.7725L19.7392 45.7026C18.98 46.1353 18.5462 46.7303 18.5462 47.3252C18.5462 47.9201 18.98 48.5151 19.7392 48.9478L75.215 80.9126C76.8961 81.8861 79.6618 81.8861 81.3428 80.9126L114.151 61.9825C114.91 61.5498 115.344 60.9549 115.344 60.3599C115.344 59.765 114.91 59.17 114.151 58.7373L58.6211 26.7725C57.8077 26.3398 56.7231 26.0694 55.5843 26.0694Z" fill="#636363"/>
<path d="M75.8659 42.8901L84.2713 47.7038C84.5966 47.866 85.1389 47.866 85.4643 47.7038C85.7897 47.4874 85.7897 47.217 85.4643 47.0007L77.0589 42.1329C76.7335 41.9707 76.1912 41.9707 75.8659 42.1329C75.5405 42.3493 75.5405 42.6738 75.8659 42.8901Z" fill="#636363"/>
<path d="M86.7115 48.8396L101.19 57.1147C101.516 57.277 102.058 57.277 102.384 57.1147C102.709 56.8984 102.709 56.628 102.384 56.4116L87.9045 48.1365C87.5791 47.9742 87.0368 47.9742 86.7115 48.1365C86.3319 48.3528 86.3319 48.6773 86.7115 48.8396Z" fill="#636363"/>
<path d="M58.567 36.0753L74.1848 45.0536C74.5102 45.2158 75.0525 45.2158 75.3779 45.0536C75.7032 44.8372 75.7032 44.5668 75.3779 44.3505L59.7601 35.3722C59.4347 35.2099 58.8924 35.2099 58.567 35.3722C58.2417 35.5344 58.2417 35.859 58.567 36.0753Z" fill="#636363"/>
<path d="M74.2932 40.6185L57.2112 30.7749C56.8859 30.6126 56.3436 30.6126 56.0182 30.7749C55.6928 30.9912 55.6928 31.2617 56.0182 31.478L73.1002 41.3217C73.4256 41.4839 73.9678 41.4839 74.2932 41.3217C74.6186 41.1053 74.6186 40.8349 74.2932 40.6185Z" fill="#636363"/>
<path d="M52.4391 55.6003L60.8445 60.414C61.1699 60.5762 61.7122 60.5762 62.0375 60.414C62.3629 60.1976 62.3629 59.9272 62.0375 59.7109L53.6321 54.8431C53.3068 54.6809 52.7645 54.6809 52.4391 54.8431C52.1137 55.1136 52.1137 55.384 52.4391 55.6003Z" fill="#636363"/>
<path d="M63.2306 61.6039L77.7096 69.879C78.035 70.0413 78.5773 70.0413 78.9026 69.879C79.228 69.6627 79.228 69.3922 78.9026 69.1759L64.4236 60.9007C64.0983 60.7385 63.556 60.7385 63.2306 60.9007C62.9052 61.063 62.9052 61.3875 63.2306 61.6039Z" fill="#636363"/>
<path d="M50.8123 53.3287L33.7303 43.4851C33.4049 43.3228 32.8626 43.3228 32.5372 43.4851C32.2119 43.7014 32.2119 43.9719 32.5372 44.1882L49.6192 54.0319C49.9446 54.1941 50.4869 54.1941 50.8123 54.0319C51.1376 53.8155 51.1376 53.5451 50.8123 53.3287Z" fill="#636363"/>
<path d="M90.9955 53.3828L78.1434 45.9731C77.818 45.8108 77.2757 45.8108 76.9503 45.9731C76.625 46.1894 76.625 46.4598 76.9503 46.6762L89.8025 54.086C90.1279 54.2482 90.6702 54.2482 90.9955 54.086C91.3209 53.8696 91.3209 53.5451 90.9955 53.3828Z" fill="#636363"/>
<path d="M70.1718 45.9189L78.5772 50.7326C78.9026 50.8948 79.4448 50.8948 79.7702 50.7326C80.0956 50.5162 80.0956 50.2458 79.7702 50.0295L71.3648 45.1617C71.0394 44.9995 70.4971 44.9995 70.1718 45.1617C69.8464 45.4322 69.8464 45.7567 70.1718 45.9189Z" fill="#636363"/>
<path d="M80.9633 51.9225L95.4423 60.1977C95.7677 60.3599 96.3099 60.3599 96.6353 60.1977C96.9607 59.9813 96.9607 59.7109 96.6353 59.4946L82.1563 51.2194C81.8309 51.0572 81.2886 51.0572 80.9633 51.2194C80.6379 51.4358 80.6379 51.7603 80.9633 51.9225Z" fill="#636363"/>
<path d="M52.8729 39.1041L68.4908 48.1365C68.8161 48.2987 69.3584 48.2987 69.6838 48.1365C70.0092 47.9201 70.0092 47.6497 69.6838 47.4333L54.066 38.4551C53.7406 38.2928 53.1983 38.2928 52.8729 38.4551C52.5476 38.6173 52.5476 38.9418 52.8729 39.1041Z" fill="#636363"/>
<path d="M68.5449 43.7014L51.4629 33.8578C51.1376 33.6955 50.5953 33.6955 50.2699 33.8578C49.9445 34.0741 49.9445 34.3446 50.2699 34.5609L67.3519 44.4045C67.6773 44.5668 68.2196 44.5668 68.5449 44.4045C68.8703 44.1882 68.8703 43.8637 68.5449 43.7014Z" fill="#636363"/>
<path d="M85.2475 56.4657L72.3953 49.056C72.0699 48.8937 71.5277 48.8937 71.2023 49.056C70.8769 49.2723 70.8769 49.5427 71.2023 49.7591L84.0544 57.1689C84.3798 57.3311 84.9221 57.3311 85.2475 57.1689C85.5728 56.9525 85.5728 56.628 85.2475 56.4657Z" fill="#636363"/>
<path d="M39.5326 54.735L55.1504 63.7132C55.4758 63.8755 56.0181 63.8755 56.3434 63.7132C56.6688 63.4969 56.6688 63.2265 56.3434 63.0101L40.7256 54.0318C40.4003 53.8696 39.858 53.8696 39.5326 54.0318C39.2072 54.2482 39.2072 54.5727 39.5326 54.735Z" fill="#636363"/>
<path d="M71.9613 72.0425L59.1092 64.6327C58.7838 64.4704 58.2415 64.4704 57.9161 64.6327C57.5908 64.849 57.5908 65.1195 57.9161 65.3358L70.7683 72.7456C71.0937 72.9078 71.636 72.9078 71.9613 72.7456C72.2867 72.5833 72.2867 72.2588 71.9613 72.0425Z" fill="#636363"/>
<path d="M64.4237 49.0019L72.8291 53.8155C73.1545 53.9778 73.6968 53.9778 74.0222 53.8155C74.3475 53.5992 74.3475 53.3288 74.0222 53.1124L65.6167 48.2447C65.2914 48.0824 64.7491 48.0824 64.4237 48.2447C64.0983 48.5151 64.0983 48.8396 64.4237 49.0019Z" fill="#636363"/>
<path d="M75.2694 55.0054L89.7484 63.2806C90.0738 63.4428 90.6161 63.4428 90.9415 63.2806C91.2668 63.0642 91.2668 62.7938 90.9415 62.5774L76.4624 54.3023C76.1371 54.14 75.5948 54.14 75.2694 54.3023C74.944 54.5186 74.944 54.8432 75.2694 55.0054Z" fill="#636363"/>
<path d="M57.3197 48.1365L72.9375 57.1147C73.2629 57.277 73.8052 57.277 74.1306 57.1147C74.4559 56.8984 74.4559 56.628 74.1306 56.4116L58.5127 47.4333C58.1874 47.2711 57.6451 47.2711 57.3197 47.4333C56.9943 47.6497 56.9943 47.9201 57.3197 48.1365Z" fill="#636363"/>
<path d="M62.8511 46.7843L45.7691 36.9407C45.4437 36.7784 44.9014 36.7784 44.5761 36.9407C44.2507 37.157 44.2507 37.4274 44.5761 37.6438L61.6581 47.4874C61.9834 47.6497 62.5257 47.6497 62.8511 47.4874C63.1765 47.2711 63.1765 46.9466 62.8511 46.7843Z" fill="#636363"/>
<path d="M209.539 34.9936C209.322 34.7232 208.997 34.4528 208.617 34.2364L153.142 2.27164C151.406 1.24401 148.532 1.24401 146.743 2.27164L113.934 21.2017C113.663 21.364 113.392 21.5803 113.229 21.7426L112.633 21.7967V23.0407C112.633 23.6897 113.067 24.3928 113.934 24.8796L169.41 56.8444C171.145 57.872 174.02 57.872 175.809 56.8444L208.617 37.9143C209.485 37.4275 209.919 36.7244 209.919 36.0754V34.8314L209.539 34.9936Z" fill="#636363"/>
<path d="M175.809 55.6004C174.074 56.628 171.2 56.628 169.41 55.6004L113.934 23.6896C112.199 22.662 112.199 21.0394 113.934 20.0118L146.743 1.0817C148.478 0.0540658 151.352 0.0540658 153.142 1.0817L208.617 32.9924C210.353 34.0201 210.353 35.6426 208.617 36.6703L175.809 55.6004Z" fill="white"/>
<path d="M172.609 56.6821C171.416 56.6821 170.223 56.4117 169.302 55.8708L113.826 23.906C112.904 23.3651 112.362 22.6079 112.362 21.8507C112.362 21.0394 112.904 20.2822 113.826 19.7414L146.634 0.81129C148.478 -0.27043 151.46 -0.27043 153.304 0.81129L208.78 32.7761C209.702 33.317 210.244 34.0742 210.244 34.8855C210.244 35.6967 209.702 36.3999 208.78 36.9948L175.972 55.9249C175.05 56.4117 173.857 56.6821 172.609 56.6821ZM149.942 0.594946C148.857 0.594946 147.719 0.81129 146.905 1.29806L114.097 20.2282C113.338 20.6608 112.904 21.2558 112.904 21.7966C112.904 22.3916 113.338 22.9325 114.097 23.3651L169.573 55.3299C171.2 56.3035 174.019 56.3035 175.646 55.3299L208.455 36.3999C209.214 35.9672 209.648 35.3722 209.648 34.8314C209.648 34.2364 209.214 33.6956 208.455 33.2629L152.979 1.29806C152.165 0.81129 151.027 0.594946 149.942 0.594946Z" fill="#636363"/>
<path d="M170.224 17.3616L178.629 22.1752C178.954 22.3375 179.497 22.3375 179.822 22.1752C180.147 21.9589 180.147 21.6884 179.822 21.4721L171.417 16.6044C171.091 16.4421 170.549 16.4421 170.224 16.6044C169.898 16.8207 169.898 17.1452 170.224 17.3616Z" fill="#636363"/>
<path d="M181.015 23.3111L195.494 31.5862C195.819 31.7485 196.362 31.7485 196.687 31.5862C197.012 31.3699 197.012 31.0994 196.687 30.8831L182.208 22.662C181.883 22.4998 181.34 22.4998 181.015 22.662C180.69 22.8243 180.69 23.1488 181.015 23.3111Z" fill="#636363"/>
<path d="M152.925 10.5467L168.543 19.525C168.868 19.6873 169.41 19.6873 169.736 19.525C170.061 19.3087 170.061 19.0382 169.736 18.8219L154.118 9.84362C153.792 9.68136 153.25 9.68136 152.925 9.84362C152.599 10.0059 152.599 10.3304 152.925 10.5467Z" fill="#636363"/>
<path d="M168.597 15.09L151.515 5.24633C151.189 5.08407 150.647 5.08407 150.322 5.24633C149.996 5.46267 149.996 5.7331 150.322 5.94944L167.404 15.7931C167.729 15.9553 168.271 15.9553 168.597 15.7931C168.922 15.5767 168.922 15.2522 168.597 15.09Z" fill="#636363"/>
<path d="M146.797 30.0718L155.202 34.8854C155.528 35.0477 156.07 35.0477 156.395 34.8854C156.721 34.6691 156.721 34.3986 156.395 34.1823L147.99 29.3146C147.664 29.1523 147.122 29.1523 146.797 29.3146C146.471 29.585 146.471 29.8554 146.797 30.0718Z" fill="#636363"/>
<path d="M157.588 36.0754L172.067 44.3505C172.393 44.5128 172.935 44.5128 173.26 44.3505C173.586 44.1342 173.586 43.8637 173.26 43.6474L158.781 35.3722C158.456 35.21 157.914 35.21 157.588 35.3722C157.263 35.5345 157.263 35.859 157.588 36.0754Z" fill="#636363"/>
<path d="M145.17 27.8002L128.088 17.9565C127.763 17.7943 127.22 17.7943 126.895 17.9565C126.57 18.1729 126.57 18.4433 126.895 18.6596L143.977 28.5033C144.302 28.6656 144.845 28.6656 145.17 28.5033C145.495 28.287 145.495 28.0165 145.17 27.8002Z" fill="#636363"/>
<path d="M185.299 27.8543L172.447 20.4445C172.121 20.2823 171.579 20.2823 171.254 20.4445C170.928 20.6609 170.928 20.9313 171.254 21.1476L184.106 28.5574C184.431 28.7197 184.974 28.7197 185.299 28.5574C185.679 28.3411 185.679 28.0165 185.299 27.8543Z" fill="#636363"/>
<path d="M164.53 20.3904L172.935 25.204C173.26 25.3663 173.803 25.3663 174.128 25.204C174.453 24.9877 174.453 24.7172 174.128 24.5009L165.723 19.6332C165.397 19.4709 164.855 19.4709 164.53 19.6332C164.15 19.9036 164.15 20.2281 164.53 20.3904Z" fill="#636363"/>
<path d="M175.321 26.394L189.8 34.6691C190.125 34.8314 190.668 34.8314 190.993 34.6691C191.318 34.4528 191.318 34.1823 190.993 33.966L176.514 25.6908C176.189 25.5286 175.646 25.5286 175.321 25.6908C174.996 25.9072 174.996 26.2317 175.321 26.394Z" fill="#636363"/>
<path d="M147.231 13.5755L162.848 22.5538C163.174 22.7161 163.716 22.7161 164.041 22.5538C164.367 22.3375 164.367 22.067 164.041 21.8507L148.424 12.8724C148.098 12.7102 147.556 12.7102 147.231 12.8724C146.851 13.0888 146.851 13.4133 147.231 13.5755Z" fill="#636363"/>
<path d="M162.903 18.1729L145.821 8.32921C145.495 8.16696 144.953 8.16696 144.628 8.32921C144.302 8.54556 144.302 8.81599 144.628 9.03233L161.71 18.876C162.035 19.0382 162.577 19.0382 162.903 18.876C163.228 18.6596 163.228 18.3351 162.903 18.1729Z" fill="#636363"/>
<path d="M179.605 30.9372L166.753 23.5274C166.428 23.3651 165.885 23.3651 165.56 23.5274C165.235 23.7437 165.235 24.0142 165.56 24.2305L178.412 31.5862C178.737 31.7485 179.28 31.7485 179.605 31.5862C179.931 31.4239 179.931 31.0994 179.605 30.9372Z" fill="#636363"/>
<path d="M133.89 29.2064L149.508 38.1847C149.833 38.3469 150.376 38.3469 150.701 38.1847C151.026 37.9683 151.026 37.6979 150.701 37.4816L135.083 28.5033C134.758 28.341 134.216 28.341 133.89 28.5033C133.565 28.7196 133.565 29.0441 133.89 29.2064Z" fill="#636363"/>
<path d="M166.319 46.5139L153.467 39.1041C153.141 38.9419 152.599 38.9419 152.274 39.1041C151.948 39.3205 151.948 39.5909 152.274 39.8072L165.126 47.217C165.451 47.3793 165.994 47.3793 166.319 47.217C166.644 47.0007 166.644 46.7302 166.319 46.5139Z" fill="#636363"/>
<path d="M158.781 23.4733L167.187 28.287C167.512 28.4492 168.054 28.4492 168.38 28.287C168.705 28.0706 168.705 27.8002 168.38 27.5839L159.974 22.7161C159.649 22.5539 159.107 22.5539 158.781 22.7161C158.456 22.9865 158.456 23.3111 158.781 23.4733Z" fill="#636363"/>
<path d="M169.627 29.4768L184.106 37.752C184.431 37.9143 184.974 37.9143 185.299 37.752C185.624 37.5357 185.624 37.2652 185.299 37.0489L170.82 28.7737C170.495 28.6115 169.952 28.6115 169.627 28.7737C169.247 28.9901 169.247 29.3146 169.627 29.4768Z" fill="#636363"/>
<path d="M151.677 22.608L167.295 31.5862C167.621 31.7485 168.163 31.7485 168.488 31.5862C168.814 31.3699 168.814 31.0995 168.488 30.8831L152.87 21.9048C152.545 21.7426 152.003 21.7426 151.677 21.9048C151.352 22.1212 151.352 22.3916 151.677 22.608Z" fill="#636363"/>
<path d="M157.209 21.2557L140.127 11.4121C139.801 11.2498 139.259 11.2498 138.934 11.4121C138.608 11.6284 138.608 11.8989 138.934 12.1152L156.016 21.9589C156.341 22.1211 156.883 22.1211 157.209 21.9589C157.534 21.7425 157.534 21.418 157.209 21.2557Z" fill="#636363"/>
<path d="M99.7807 143.652C99.5638 143.382 99.2384 143.111 98.8588 142.895L43.383 110.93C41.6477 109.903 38.7736 109.903 36.984 110.93L4.17575 129.86C3.90461 130.023 3.63347 130.239 3.47078 130.401L2.87427 130.455V131.699C2.87427 132.348 3.3081 133.051 4.17575 133.538L59.7058 165.503C61.4411 166.531 64.3152 166.531 66.1047 165.503L98.913 146.573C99.7807 146.086 100.214 145.383 100.214 144.734V143.49L99.7807 143.652Z" fill="#636363"/>
<path d="M66.1047 164.259C64.3694 165.287 61.4953 165.287 59.7057 164.259L4.22995 132.294C2.49464 131.267 2.49464 129.644 4.22995 128.616L37.0382 109.686C38.7735 108.659 41.6476 108.659 43.4372 109.686L98.913 141.651C100.648 142.679 100.648 144.301 98.913 145.329L66.1047 164.259Z" fill="white"/>
<path d="M62.9052 165.287C61.7121 165.287 60.5191 165.016 59.5972 164.475L4.0672 132.565C3.14531 132.024 2.60303 131.267 2.60303 130.509C2.60303 129.698 3.14531 128.941 4.0672 128.4L36.8755 109.47C38.7192 108.388 41.7018 108.388 43.5456 109.47L99.0214 141.435C99.9433 141.976 100.486 142.733 100.486 143.544C100.486 144.355 99.9433 145.059 99.0214 145.599L66.2131 164.53C65.3454 165.016 64.0982 165.287 62.9052 165.287ZM40.1834 109.2C39.0988 109.2 37.96 109.416 37.1466 109.903L4.33834 128.887C3.57914 129.32 3.14531 129.914 3.14531 130.455C3.14531 131.05 3.57914 131.591 4.33834 132.024L59.8141 163.989C61.441 164.962 64.2609 164.962 65.8877 163.989L98.696 145.059C99.4552 144.626 99.889 144.085 99.889 143.49C99.889 142.895 99.4552 142.354 98.696 141.922L43.2744 109.903C42.4068 109.47 41.3222 109.2 40.1834 109.2Z" fill="#636363"/>
<path d="M60.5192 125.966L68.9246 130.78C69.25 130.942 69.7923 130.942 70.1176 130.78C70.443 130.563 70.443 130.293 70.1176 130.077L61.7122 125.209C61.3868 125.047 60.8445 125.047 60.5192 125.209C60.1938 125.479 60.1938 125.804 60.5192 125.966Z" fill="#636363"/>
<path d="M71.3107 131.97L85.7897 140.245C86.1151 140.407 86.6574 140.407 86.9827 140.245C87.3081 140.029 87.3081 139.758 86.9827 139.542L72.5037 131.267C72.1783 131.104 71.6361 131.104 71.3107 131.267C70.9853 131.483 70.9853 131.807 71.3107 131.97Z" fill="#636363"/>
<path d="M43.2202 119.151L58.8381 128.13C59.1634 128.292 59.7057 128.292 60.0311 128.13C60.3565 127.913 60.3565 127.643 60.0311 127.427L44.4133 118.448C44.0879 118.286 43.5456 118.286 43.2202 118.448C42.8406 118.665 42.8406 118.989 43.2202 119.151Z" fill="#636363"/>
<path d="M58.8923 123.749L41.8103 113.905C41.485 113.743 40.9427 113.743 40.6173 113.905C40.2919 114.121 40.2919 114.392 40.6173 114.608L57.6993 124.452C58.0247 124.614 58.567 124.614 58.8923 124.452C59.2177 124.235 59.2177 123.911 58.8923 123.749Z" fill="#636363"/>
<path d="M37.0382 138.676L45.4436 143.49C45.769 143.652 46.3113 143.652 46.6367 143.49C46.962 143.274 46.962 143.003 46.6367 142.787L38.2312 137.919C37.9059 137.757 37.3636 137.757 37.0382 137.919C36.7128 138.19 36.7128 138.514 37.0382 138.676Z" fill="#636363"/>
<path d="M47.8839 144.68L62.3629 152.955C62.6883 153.117 63.2306 153.117 63.556 152.955C63.8813 152.739 63.8813 152.468 63.556 152.252L49.0769 143.977C48.7516 143.815 48.2093 143.815 47.8839 143.977C47.5585 144.193 47.5585 144.518 47.8839 144.68Z" fill="#636363"/>
<path d="M35.4656 136.459L18.3836 126.615C18.0582 126.453 17.5159 126.453 17.1906 126.615C16.8652 126.832 16.8652 127.102 17.1906 127.318L34.2726 137.162C34.5979 137.324 35.1402 137.324 35.4656 137.162C35.791 136.946 35.791 136.621 35.4656 136.459Z" fill="#636363"/>
<path d="M75.5946 136.459L62.7425 129.049C62.4171 128.887 61.8748 128.887 61.5494 129.049C61.2241 129.265 61.2241 129.536 61.5494 129.752L74.4016 137.162C74.727 137.324 75.2693 137.324 75.5946 137.162C75.92 137 75.92 136.675 75.5946 136.459Z" fill="#636363"/>
<path d="M54.7709 129.049L63.1763 133.863C63.5017 134.025 64.044 134.025 64.3693 133.863C64.6947 133.646 64.6947 133.376 64.3693 133.16L55.9639 128.292C55.6385 128.13 55.0963 128.13 54.7709 128.292C54.4455 128.562 54.4455 128.887 54.7709 129.049Z" fill="#636363"/>
<path d="M65.6167 135.053L80.0957 143.328C80.4211 143.49 80.9634 143.49 81.2888 143.328C81.6141 143.111 81.6141 142.841 81.2888 142.625L66.8098 134.349C66.4844 134.187 65.9421 134.187 65.6167 134.349C65.2371 134.566 65.2371 134.836 65.6167 135.053Z" fill="#636363"/>
<path d="M37.4721 122.234L53.0899 131.213C53.4152 131.375 53.9575 131.375 54.2829 131.213C54.6083 130.996 54.6083 130.726 54.2829 130.509L38.6651 121.531C38.3397 121.369 37.7974 121.369 37.4721 121.531C37.1467 121.747 37.1467 122.072 37.4721 122.234Z" fill="#636363"/>
<path d="M53.1982 126.832L36.1163 116.988C35.7909 116.826 35.2486 116.826 34.9232 116.988C34.5979 117.204 34.5979 117.475 34.9232 117.691L52.0052 127.535C52.3306 127.697 52.8729 127.697 53.1982 127.535C53.5236 127.318 53.5236 126.994 53.1982 126.832Z" fill="#636363"/>
<path d="M69.9008 139.542L57.0486 132.132C56.7233 131.97 56.181 131.97 55.8556 132.132C55.5302 132.348 55.5302 132.619 55.8556 132.835L68.7078 140.245C69.0331 140.407 69.5754 140.407 69.9008 140.245C70.2262 140.028 70.2262 139.758 69.9008 139.542Z" fill="#636363"/>
<path d="M24.1859 137.865L39.8037 146.843C40.1291 147.006 40.6714 147.006 40.9968 146.843C41.3221 146.627 41.3221 146.357 40.9968 146.14L25.379 137.162C25.0536 137 24.5113 137 24.1859 137.162C23.8606 137.378 23.8606 137.649 24.1859 137.865Z" fill="#636363"/>
<path d="M56.5605 155.173L43.7083 147.763C43.3829 147.601 42.8406 147.601 42.5153 147.763C42.1899 147.979 42.1899 148.25 42.5153 148.466L55.3674 155.876C55.6928 156.038 56.2351 156.038 56.5605 155.876C56.8858 155.659 56.8858 155.335 56.5605 155.173Z" fill="#636363"/>
<path d="M49.077 132.132L57.4825 136.946C57.8078 137.108 58.3501 137.108 58.6755 136.946C59.0009 136.729 59.0009 136.459 58.6755 136.242L50.2701 131.375C49.9447 131.212 49.4024 131.212 49.077 131.375C48.7517 131.645 48.7517 131.916 49.077 132.132Z" fill="#636363"/>
<path d="M59.8685 138.135L74.3476 146.411C74.6729 146.573 75.2152 146.573 75.5406 146.411C75.866 146.194 75.866 145.924 75.5406 145.708L61.0616 137.432C60.7362 137.27 60.1939 137.27 59.8685 137.432C59.5432 137.649 59.5432 137.919 59.8685 138.135Z" fill="#636363"/>
<path d="M41.973 131.213L57.5908 140.191C57.9162 140.353 58.4585 140.353 58.7839 140.191C59.1092 139.974 59.1092 139.704 58.7839 139.488L43.1661 130.509C42.8407 130.347 42.2984 130.347 41.973 130.509C41.6477 130.726 41.6477 131.05 41.973 131.213Z" fill="#636363"/>
<path d="M47.4502 129.86L30.3682 120.017C30.0428 119.854 29.5006 119.854 29.1752 120.017C28.8498 120.233 28.8498 120.503 29.1752 120.72L46.2572 130.563C46.5825 130.726 47.1248 130.726 47.4502 130.563C47.7756 130.401 47.7756 130.077 47.4502 129.86Z" fill="#636363"/>
<path d="M208.238 206.392C208.021 206.122 207.695 205.851 207.316 205.635L151.84 173.67C150.105 172.643 147.231 172.643 145.441 173.67L112.633 192.6C112.362 192.762 112.09 192.979 111.928 193.141L111.331 193.195V194.439C111.331 195.088 111.765 195.791 112.633 196.278L168.163 228.243C169.898 229.271 172.772 229.271 174.562 228.243L207.37 209.313C208.238 208.826 208.672 208.123 208.672 207.474V206.23L208.238 206.392Z" fill="#636363"/>
<path d="M174.508 226.999C172.772 228.027 169.898 228.027 168.109 226.999L112.633 195.034C110.897 194.006 110.897 192.384 112.633 191.356L145.441 172.426C147.176 171.398 150.05 171.398 151.84 172.426L207.316 204.391C209.051 205.419 209.051 207.041 207.316 208.069L174.508 226.999Z" fill="white"/>
<path d="M171.308 228.026C170.115 228.026 168.922 227.756 168 227.215L112.524 195.25C111.602 194.71 111.06 193.952 111.06 193.195C111.06 192.384 111.602 191.627 112.524 191.086L145.332 172.156C147.176 171.074 150.159 171.074 152.003 172.156L207.478 204.12C208.4 204.661 208.943 205.419 208.943 206.23C208.943 207.041 208.4 207.744 207.478 208.285L174.67 227.215C173.748 227.81 172.555 228.026 171.308 228.026ZM148.64 171.939C147.556 171.939 146.417 172.156 145.604 172.642L112.795 191.573C112.036 192.005 111.602 192.6 111.602 193.141C111.602 193.736 112.036 194.277 112.795 194.71L168.271 226.674C169.898 227.648 172.718 227.648 174.345 226.674L207.153 207.744C207.912 207.312 208.346 206.771 208.346 206.176C208.346 205.581 207.912 205.04 207.153 204.607L151.677 172.642C150.864 172.21 149.725 171.939 148.64 171.939Z" fill="#636363"/>
<path d="M168.922 188.706L177.327 193.52C177.653 193.682 178.195 193.682 178.52 193.52C178.846 193.303 178.846 193.033 178.52 192.816L170.115 187.949C169.79 187.786 169.247 187.786 168.922 187.949C168.597 188.219 168.597 188.544 168.922 188.706Z" fill="#636363"/>
<path d="M179.714 194.709L194.193 202.985C194.518 203.147 195.06 203.147 195.386 202.985C195.711 202.768 195.711 202.498 195.386 202.281L180.907 194.006C180.581 193.844 180.039 193.844 179.714 194.006C179.388 194.223 179.388 194.547 179.714 194.709Z" fill="#636363"/>
<path d="M151.623 181.891L167.241 190.869C167.566 191.032 168.109 191.032 168.434 190.869C168.759 190.653 168.759 190.383 168.434 190.166L152.816 181.188C152.491 181.026 151.949 181.026 151.623 181.188C151.298 181.404 151.298 181.729 151.623 181.891Z" fill="#636363"/>
<path d="M167.295 186.488L150.213 176.645C149.888 176.483 149.346 176.483 149.02 176.645C148.695 176.861 148.695 177.132 149.02 177.348L166.102 187.192C166.428 187.354 166.97 187.354 167.295 187.192C167.621 186.975 167.621 186.651 167.295 186.488Z" fill="#636363"/>
<path d="M145.495 201.47L153.901 206.284C154.226 206.446 154.768 206.446 155.094 206.284C155.419 206.068 155.419 205.797 155.094 205.581L146.688 200.713C146.363 200.551 145.821 200.551 145.495 200.713C145.17 200.929 145.17 201.254 145.495 201.47Z" fill="#636363"/>
<path d="M156.287 207.42L170.766 215.695C171.091 215.857 171.633 215.857 171.959 215.695C172.284 215.478 172.284 215.208 171.959 214.992L157.48 206.717C157.154 206.554 156.612 206.554 156.287 206.717C155.961 206.933 155.961 207.257 156.287 207.42Z" fill="#636363"/>
<path d="M143.868 199.199L126.786 189.355C126.461 189.193 125.919 189.193 125.593 189.355C125.268 189.571 125.268 189.842 125.593 190.058L142.675 199.902C143.001 200.064 143.543 200.064 143.868 199.902C144.194 199.685 144.194 199.361 143.868 199.199Z" fill="#636363"/>
<path d="M183.997 199.253L171.145 191.843C170.82 191.681 170.278 191.681 169.952 191.843C169.627 192.059 169.627 192.33 169.952 192.546L182.804 199.956C183.13 200.118 183.672 200.118 183.997 199.956C184.377 199.739 184.377 199.415 183.997 199.253Z" fill="#636363"/>
<path d="M163.228 191.789L171.633 196.602C171.959 196.765 172.501 196.765 172.827 196.602C173.152 196.386 173.152 196.116 172.827 195.899L164.421 191.032C164.096 190.869 163.553 190.869 163.228 191.032C162.848 191.302 162.848 191.627 163.228 191.789Z" fill="#636363"/>
<path d="M174.019 197.792L188.498 206.067C188.824 206.23 189.366 206.23 189.691 206.067C190.017 205.851 190.017 205.581 189.691 205.364L175.212 197.089C174.887 196.927 174.345 196.927 174.019 197.089C173.694 197.306 173.694 197.63 174.019 197.792Z" fill="#636363"/>
<path d="M145.875 184.974L161.493 193.952C161.818 194.115 162.36 194.115 162.686 193.952C163.011 193.736 163.011 193.465 162.686 193.249L147.068 184.271C146.743 184.109 146.2 184.109 145.875 184.271C145.55 184.487 145.55 184.812 145.875 184.974Z" fill="#636363"/>
<path d="M161.601 189.571L144.519 179.728C144.194 179.565 143.651 179.565 143.326 179.728C143.001 179.944 143.001 180.214 143.326 180.431L160.408 190.274C160.733 190.437 161.276 190.437 161.601 190.274C161.926 190.058 161.926 189.734 161.601 189.571Z" fill="#636363"/>
<path d="M178.304 202.281L165.451 194.872C165.126 194.709 164.584 194.709 164.258 194.872C163.933 195.088 163.933 195.358 164.258 195.575L177.111 202.985C177.436 203.147 177.978 203.147 178.304 202.985C178.629 202.822 178.629 202.498 178.304 202.281Z" fill="#636363"/>
<path d="M132.589 200.605L148.207 209.583C148.532 209.745 149.074 209.745 149.4 209.583C149.725 209.367 149.725 209.096 149.4 208.88L133.782 199.902C133.456 199.739 132.914 199.739 132.589 199.902C132.263 200.118 132.263 200.388 132.589 200.605Z" fill="#636363"/>
<path d="M165.017 217.912L152.165 210.503C151.84 210.34 151.298 210.34 150.972 210.503C150.647 210.719 150.647 210.989 150.972 211.206L163.824 218.615C164.15 218.778 164.692 218.778 165.017 218.615C165.343 218.399 165.343 218.129 165.017 217.912Z" fill="#636363"/>
<path d="M157.48 194.872L165.885 199.685C166.211 199.848 166.753 199.848 167.078 199.685C167.404 199.469 167.404 199.199 167.078 198.982L158.673 194.114C158.348 193.952 157.805 193.952 157.48 194.114C157.154 194.385 157.154 194.709 157.48 194.872Z" fill="#636363"/>
<path d="M168.271 200.875L182.75 209.15C183.076 209.313 183.618 209.313 183.943 209.15C184.269 208.934 184.269 208.664 183.943 208.447L169.464 200.172C169.139 200.01 168.596 200.01 168.271 200.172C167.946 200.388 167.946 200.659 168.271 200.875Z" fill="#636363"/>
<path d="M150.376 194.006L165.994 202.985C166.319 203.147 166.861 203.147 167.187 202.985C167.512 202.768 167.512 202.498 167.187 202.281L151.569 193.303C151.244 193.141 150.701 193.141 150.376 193.303C150.05 193.465 150.05 193.79 150.376 194.006Z" fill="#636363"/>
<path d="M155.853 192.6L138.825 182.811C138.5 182.648 137.958 182.648 137.632 182.811C137.307 183.027 137.307 183.297 137.632 183.514L154.714 193.357C155.04 193.52 155.582 193.52 155.907 193.357C156.233 193.141 156.233 192.816 155.853 192.6Z" fill="#636363"/>
<path d="M209.919 92.5411V119.854C209.919 127.318 204.713 134.836 194.301 140.569L194.193 82.5892C194.247 82.5892 209.919 100.059 209.919 92.5411Z" fill="white"/>
<path d="M194.03 141.056V140.569L193.921 81.832L194.409 82.3729C197.446 85.7803 205.635 94.1095 208.563 94.1095C208.726 94.1095 208.834 94.1095 208.997 94.0555C209.431 93.8932 209.593 93.4064 209.593 92.5411H210.136C210.136 92.5411 210.136 92.541 210.136 92.5951V119.909C210.136 127.805 204.55 135.269 194.409 140.84L194.03 141.056ZM194.518 83.3464L194.626 140.083C204.333 134.62 209.702 127.427 209.648 119.854V94.3259C209.539 94.4341 209.377 94.5422 209.214 94.5963C209.051 94.6504 208.834 94.7045 208.672 94.7045C205.201 94.7045 196.85 85.8885 194.518 83.3464Z" fill="#636363"/>
<path d="M180.31 75.4499C180.31 75.0172 180.256 74.5845 180.148 74.1519C180.039 73.7192 179.931 73.2865 179.768 72.9079C177.382 67.0125 169.356 64.3082 163.174 63.2806C156.179 62.1448 148.641 62.5775 142.025 64.9572C140.778 65.3899 139.585 65.9308 138.5 66.5257L138.554 111.742C139.639 111.147 140.832 110.66 142.079 110.173C148.587 107.793 155.962 107.361 162.849 108.442C168.76 109.362 176.135 111.742 179.28 116.826C179.551 117.258 179.822 117.691 180.039 118.124C180.148 118.34 180.256 118.556 180.364 118.719V75.4499H180.31Z" fill="white"/>
<path d="M180.581 119.855L179.985 118.665C179.876 118.502 179.822 118.34 179.768 118.178C179.659 117.853 179.442 117.583 179.226 117.258C179.171 117.15 179.063 117.042 179.009 116.934C175.646 111.417 167.404 109.362 162.794 108.659C155.636 107.523 148.315 108.172 142.187 110.389C140.94 110.822 139.747 111.363 138.663 111.904L138.229 112.12L138.175 66.2553L138.337 66.2012C139.422 65.6063 140.615 65.0654 141.916 64.6327C148.315 62.307 155.853 61.7121 163.228 62.9561C167.35 63.6592 177.273 65.9849 180.039 72.7456C180.202 73.1783 180.364 73.611 180.473 74.0437C180.581 74.4764 180.636 74.9091 180.636 75.3418V75.4499V119.855H180.581ZM155.799 107.577C158.131 107.577 160.517 107.739 162.903 108.118C167.621 108.875 176.026 110.93 179.497 116.663C179.551 116.772 179.605 116.88 179.714 116.988C179.822 117.15 179.931 117.312 180.039 117.529V75.4499C180.039 75.0713 179.985 74.6386 179.876 74.2059C179.768 73.7733 179.659 73.3947 179.497 72.962C176.84 66.4176 167.187 64.2 163.12 63.4969C155.853 62.307 148.424 62.902 142.133 65.1736C140.94 65.6063 139.801 66.093 138.771 66.6339L138.825 111.201C139.801 110.714 140.886 110.227 141.971 109.849C146.2 108.334 150.972 107.577 155.799 107.577Z" fill="#636363"/>
<path d="M194.355 140.569L173.152 129.32L173.098 100.654L194.247 111.904L194.355 140.569Z" fill="#636363"/>
<path d="M138.5 112.283L117.351 100.979V70.9067L138.5 82.1566V112.283Z" fill="white"/>
<path d="M138.771 112.715L117.08 101.141V70.4199L138.825 81.9943V112.715H138.771ZM117.622 100.816L138.229 111.796V82.3729L117.622 71.3935V100.816Z" fill="#636363"/>
<path d="M194.518 70.9067C214.582 83.8873 215.667 100.6 194.247 111.904L173.043 100.6C182.642 95.5158 182.696 87.2406 173.152 82.1566C163.608 77.0725 148.098 77.0725 138.446 82.1566L117.296 70.8526C138.717 59.6027 173.098 57.0607 194.518 70.9067Z" fill="#B199EC"/>
<path d="M194.247 112.228L172.447 100.654L172.935 100.384C177.49 97.9497 180.039 94.7586 180.039 91.4053C180.039 88.052 177.544 84.8609 173.043 82.4811C163.608 77.4511 148.153 77.4511 138.608 82.4811L138.5 82.5352L116.7 70.9067L117.188 70.6363C138.12 59.5487 172.826 56.5198 194.681 70.6363C205.038 77.3429 210.57 85.2395 210.244 92.8656C209.919 100.167 204.442 106.82 194.409 112.12L194.247 112.228ZM173.694 100.6L194.247 111.579C204.008 106.387 209.322 99.8968 209.648 92.8656C209.973 85.4558 204.55 77.7215 194.355 71.1231C172.826 57.223 138.771 60.0895 117.947 70.9067L138.5 81.8862C148.207 76.8562 163.77 76.8562 173.315 81.9402C178.032 84.4282 180.581 87.7815 180.581 91.3512C180.581 94.8668 178.141 98.112 173.694 100.6Z" fill="#636363"/>
<path d="M123.424 82.4811V108.334L138.5 116.339V90.4858L123.424 82.4811Z" fill="#636363"/>
<path d="M117.296 79.1818L138.446 90.4857C130.745 94.5422 128.956 100.492 133.836 105.63L107.047 112.877C96.2015 101.465 100.214 88.2682 117.296 79.1818Z" fill="white"/>
<path d="M106.993 113.202L106.884 113.094C102.112 108.118 100.052 102.601 100.974 97.1924C102.112 90.3235 107.698 83.9955 117.188 78.9655L117.296 78.9114L139.096 90.5399L138.608 90.8103C134.487 92.9737 131.992 95.7862 131.504 98.7068C131.125 101.033 131.992 103.358 134.053 105.522L134.378 105.846L106.993 113.202ZM117.296 79.5063C108.023 84.4282 102.546 90.594 101.462 97.2465C100.594 102.439 102.6 107.739 107.101 112.553L133.294 105.468C131.341 103.304 130.528 100.87 130.908 98.5446C131.396 95.5158 133.782 92.7574 137.849 90.4858L117.296 79.5063Z" fill="#636363"/>
<path d="M101.082 101.411C101.082 101.465 101.136 101.519 101.136 101.573C101.191 101.952 101.245 102.331 101.353 102.763C101.353 102.817 101.353 102.871 101.407 102.926C101.516 103.358 101.624 103.737 101.733 104.17C101.733 104.278 101.787 104.332 101.787 104.44C101.896 104.819 102.058 105.251 102.221 105.63C102.221 105.684 102.275 105.738 102.275 105.792C102.438 106.225 102.655 106.658 102.872 107.09V107.144C103.089 107.577 103.36 108.01 103.631 108.442C103.685 108.551 103.739 108.605 103.794 108.713C103.848 108.821 103.956 108.983 104.01 109.091C104.119 109.254 104.173 109.362 104.282 109.524C104.39 109.632 104.444 109.794 104.553 109.903C104.661 110.065 104.77 110.173 104.878 110.335C104.987 110.444 105.095 110.606 105.149 110.714C105.258 110.876 105.366 110.984 105.475 111.147C105.583 111.255 105.692 111.417 105.8 111.525C105.908 111.633 106.017 111.742 106.125 111.904C106.396 112.228 106.722 112.607 107.047 112.931L107.156 133.322C106.83 132.997 106.505 132.619 106.234 132.294C106.18 132.24 106.18 132.186 106.125 132.186C106.071 132.132 106.017 132.024 105.908 131.97C105.8 131.862 105.692 131.699 105.583 131.591C105.475 131.429 105.366 131.321 105.258 131.158C105.149 131.05 105.041 130.888 104.987 130.78C104.878 130.618 104.77 130.509 104.661 130.347C104.553 130.239 104.498 130.077 104.39 129.969C104.282 129.806 104.173 129.698 104.119 129.536C104.065 129.428 103.956 129.265 103.902 129.157C103.902 129.103 103.848 129.103 103.848 129.049C103.794 128.995 103.794 128.941 103.794 128.941C103.522 128.508 103.305 128.076 103.034 127.643V127.589C102.817 127.156 102.6 126.723 102.438 126.291C102.438 126.237 102.384 126.183 102.384 126.183V126.128C102.221 125.75 102.058 125.317 101.95 124.939C101.896 124.884 101.896 124.776 101.896 124.668C101.787 124.235 101.679 123.857 101.57 123.424C101.57 123.424 101.57 123.424 101.57 123.37C101.57 123.316 101.57 123.316 101.57 123.262C101.462 122.883 101.407 122.505 101.353 122.072C101.353 122.018 101.353 121.964 101.353 121.91C101.299 121.477 101.299 121.098 101.245 120.666C101.245 120.612 101.245 120.612 101.245 120.558C101.245 120.395 101.136 120.287 101.136 120.125L100.974 99.7886V99.7345C100.974 99.8968 101.082 100.113 101.082 100.275C100.974 100.6 101.028 101.033 101.082 101.411Z" fill="white"/>
<path d="M107.427 133.971L106.939 133.43C106.613 133.106 106.288 132.727 106.017 132.402C106.017 132.348 105.963 132.348 105.963 132.348L105.908 132.294C105.854 132.24 105.8 132.186 105.746 132.078L105.692 132.024C105.583 131.916 105.475 131.807 105.366 131.645L104.715 130.834C104.607 130.672 104.498 130.563 104.39 130.401C104.282 130.293 104.227 130.131 104.119 130.023C104.01 129.914 103.956 129.752 103.848 129.644L103.739 129.482C103.685 129.374 103.631 129.32 103.577 129.211L103.794 128.995L103.577 129.157C103.577 129.103 103.522 129.103 103.522 129.049C103.522 129.049 103.522 128.995 103.468 128.995C103.197 128.508 102.926 128.076 102.709 127.643C102.492 127.21 102.275 126.777 102.058 126.291C102.058 126.237 102.004 126.237 102.004 126.183C101.95 126.128 101.95 126.074 101.95 126.074C101.787 125.75 101.679 125.317 101.516 124.884C101.516 124.83 101.462 124.722 101.462 124.668C101.299 124.181 101.191 123.803 101.136 123.424C101.136 123.37 101.136 123.316 101.136 123.316C101.028 122.883 100.974 122.505 100.919 122.126V122.072C100.919 122.018 100.919 121.964 100.919 121.964C100.865 121.585 100.865 121.153 100.811 120.72C100.811 120.666 100.811 120.612 100.811 120.612C100.811 120.612 100.811 120.558 100.757 120.504C100.702 120.395 100.702 120.287 100.702 120.179L100.54 99.8427V99.7886H101.136C101.136 99.8427 101.136 99.8967 101.191 100.005C101.245 100.113 101.245 100.221 101.245 100.329C101.245 100.6 101.299 100.87 101.353 101.141C101.353 101.249 101.407 101.411 101.407 101.573C101.407 101.627 101.462 101.682 101.462 101.79C101.516 102.168 101.624 102.601 101.679 102.926L101.733 103.088C101.787 103.466 101.896 103.845 102.058 104.278L102.112 104.494C102.221 104.873 102.384 105.251 102.546 105.684C102.546 105.738 102.6 105.738 102.6 105.792V105.846C102.763 106.279 102.98 106.712 103.197 107.144C103.414 107.577 103.685 108.01 103.956 108.496L104.01 108.551C104.065 108.605 104.065 108.659 104.119 108.713C104.173 108.821 104.282 108.983 104.336 109.091C104.444 109.254 104.498 109.362 104.607 109.524L104.878 109.903C104.987 110.065 105.095 110.173 105.203 110.335L105.475 110.714C105.583 110.876 105.692 110.984 105.8 111.147L105.854 111.255C105.908 111.363 106.017 111.417 106.071 111.525C106.18 111.633 106.288 111.742 106.396 111.904C106.668 112.228 106.993 112.607 107.318 112.931L107.373 113.04L107.427 133.971ZM102.6 125.966C102.6 126.02 102.655 126.074 102.655 126.074C102.872 126.561 103.034 126.94 103.251 127.318L103.305 127.372C103.522 127.751 103.739 128.184 104.01 128.616L104.173 128.887C104.227 128.995 104.282 129.049 104.336 129.157L104.39 129.265C104.498 129.428 104.607 129.59 104.661 129.698C104.77 129.806 104.824 129.969 104.932 130.077C105.041 130.239 105.149 130.347 105.258 130.509L105.854 131.321C105.963 131.429 106.071 131.537 106.18 131.699L106.234 131.753C106.288 131.807 106.342 131.862 106.396 131.916C106.451 131.97 106.505 132.024 106.505 132.024C106.668 132.186 106.776 132.348 106.939 132.511L106.885 112.986C106.613 112.661 106.288 112.337 106.017 112.012C105.908 111.904 105.8 111.742 105.692 111.633C105.637 111.525 105.529 111.471 105.475 111.363L105.42 111.255C105.312 111.093 105.203 110.984 105.095 110.822L104.824 110.444C104.715 110.281 104.607 110.173 104.498 110.011L104.227 109.632C104.119 109.47 104.01 109.362 103.956 109.2C103.902 109.091 103.794 108.929 103.739 108.821C103.685 108.767 103.685 108.713 103.631 108.659L103.577 108.605C103.305 108.172 103.034 107.685 102.817 107.307L102.763 107.252C102.546 106.874 102.384 106.441 102.167 105.954V105.9C102.167 105.846 102.112 105.792 102.112 105.738C101.95 105.305 101.787 104.927 101.679 104.494L101.624 104.224C101.462 103.791 101.407 103.412 101.299 103.034L101.462 120.017C101.462 120.017 101.462 120.071 101.516 120.125C101.57 120.233 101.57 120.287 101.57 120.449C101.57 120.504 101.57 120.558 101.57 120.612C101.57 120.99 101.624 121.423 101.679 121.802V121.964C101.733 122.342 101.787 122.721 101.896 123.1L101.95 123.262C102.004 123.64 102.112 124.019 102.275 124.452C102.329 124.56 102.329 124.614 102.329 124.668C102.492 125.101 102.6 125.479 102.763 125.858L102.546 126.02L102.6 125.966Z" fill="#636363"/>
<path d="M133.945 135.107L107.156 133.268L107.102 112.823L133.89 105.576L133.945 135.107Z" fill="white"/>
<path d="M134.27 135.431L106.885 133.538L106.776 112.661L134.162 105.251L134.27 135.431ZM107.427 132.997L133.673 134.836L133.619 106.009L107.373 113.04L107.427 132.997Z" fill="#636363"/>
<path d="M111.331 123.478C122.665 132.294 139.53 137.487 154.009 137.595H154.335V149.061C154.335 149.061 153.087 149.061 152.491 149.007C137.632 148.52 120.821 145.059 109.596 135.539C108.728 134.782 107.861 134.025 107.102 133.214L107.047 119.692C108.349 121.044 109.759 122.288 111.331 123.478Z" fill="white"/>
<path d="M154.606 149.331H154.335C154.335 149.331 153.087 149.331 152.491 149.277C141.97 148.953 122.394 146.735 109.433 135.756C108.566 134.999 107.698 134.187 106.939 133.43L106.885 133.376L106.776 119.043L107.264 119.584C108.511 120.882 109.921 122.126 111.494 123.316C122.34 131.699 139.042 137.27 154.009 137.378H154.606V149.331ZM107.427 133.106C108.132 133.863 108.945 134.62 109.813 135.323C122.665 146.248 142.079 148.412 152.491 148.736C152.925 148.736 153.63 148.736 154.009 148.79V137.919H153.955C138.879 137.757 122.014 132.186 111.114 123.749C109.704 122.721 108.457 121.639 107.318 120.504L107.427 133.106Z" fill="#636363"/>
<path d="M154.334 119.584V137.649C154.334 137.649 154.063 137.649 154.009 137.649C139.584 137.649 122.611 132.24 111.331 123.532C109.759 122.342 108.349 121.098 107.047 119.8L133.836 112.553C137.957 116.772 145.929 119.314 154.334 119.584Z" fill="white"/>
<path d="M154.66 137.919H154.389C154.389 137.919 154.117 137.919 154.063 137.919C139.205 137.919 122.394 132.348 111.223 123.749C109.65 122.559 108.186 121.315 106.939 119.963L106.613 119.638L134.053 112.228L134.161 112.337C138.066 116.393 145.821 119.097 154.443 119.314H154.714V137.919H154.66ZM107.644 119.855C108.782 121.044 110.138 122.18 111.548 123.208C122.611 131.753 139.313 137.27 154.063 137.27C154.063 137.27 154.063 137.27 154.117 137.27V119.8C145.549 119.476 137.849 116.826 133.836 112.769L107.644 119.855Z" fill="#636363"/>
<path d="M194.247 131.862L194.355 140.57C183.455 146.357 170.549 148.737 158.076 149.061C156.829 149.115 155.853 149.115 154.389 149.061V140.353C155.853 140.353 193.705 132.132 194.247 131.862Z" fill="white"/>
<path d="M156.124 149.386C155.582 149.386 155.04 149.386 154.335 149.386H154.063V140.083H154.335C155.528 140.083 192.674 132.186 194.138 131.645L194.572 131.429V131.916L194.681 140.84L194.518 140.894C184.594 146.14 172.013 149.061 158.131 149.386C157.371 149.331 156.775 149.386 156.124 149.386ZM154.606 148.791C156.016 148.791 156.938 148.791 158.022 148.791C171.796 148.466 184.215 145.545 194.03 140.461L193.921 132.294C189.854 133.376 158.076 140.137 154.606 140.678V148.791Z" fill="#636363"/>
<path d="M173.043 120.612L194.192 131.916C193.65 132.186 193.108 132.457 192.566 132.727C182.045 137.865 168.868 140.786 156.883 140.407C156.016 140.407 155.148 140.407 154.28 140.407V124.398C158.456 124.506 162.74 124.073 166.753 122.991C169.247 122.397 171.145 121.639 173.043 120.612Z" fill="white"/>
<path d="M159.052 140.732C158.348 140.732 157.643 140.732 156.938 140.678C156.178 140.678 155.311 140.678 154.335 140.678H154.063V124.127H154.335C158.619 124.236 162.903 123.749 166.753 122.721C169.139 122.072 170.983 121.369 172.935 120.341L173.043 120.287L194.843 131.916L194.355 132.186C193.813 132.457 193.271 132.727 192.728 132.997C182.75 137.865 170.332 140.732 159.052 140.732ZM156.992 140.083C168.705 140.461 181.991 137.595 192.512 132.457C192.891 132.294 193.271 132.078 193.65 131.916L173.098 120.936C171.145 121.964 169.302 122.667 166.97 123.262C163.174 124.29 158.944 124.776 154.66 124.668V140.083C155.473 140.137 156.287 140.137 156.992 140.083Z" fill="#636363"/>
<path d="M268.485 157.985C268.811 157.769 269.245 157.769 269.624 157.985L334.915 193.087C335.675 193.52 335.675 194.709 334.915 195.142L300.209 214.289C299.884 214.505 299.45 214.505 299.124 214.289L233.779 179.403C233.02 178.97 233.02 177.781 233.779 177.348L268.485 157.985Z" fill="#CFCFCF"/>
<path d="M232.586 177.943V174.968L235.46 175.401L266.425 158.472C267.726 157.769 269.245 157.769 270.546 158.472L330.252 190.491L335.566 191.356V194.277V194.331C335.566 194.872 335.295 195.359 334.753 195.629L301.185 213.694C299.884 214.397 298.365 214.397 297.064 213.694L233.345 179.241C232.857 178.97 232.586 178.43 232.532 177.943H232.586Z" fill="#C0EEF2"/>
<path d="M299.179 214.667C298.42 214.667 297.606 214.451 296.901 214.072L233.183 179.62C232.695 179.349 232.315 178.862 232.207 178.322H232.152V177.943V174.536L235.352 175.022L266.154 158.147C267.564 157.39 269.245 157.336 270.655 158.147L330.36 190.166L335.946 191.032V194.764H335.892C335.783 195.305 335.403 195.737 334.915 196.008L301.348 214.072C300.697 214.505 299.938 214.667 299.179 214.667ZM233.02 177.889V177.997C233.02 178.43 233.237 178.754 233.617 178.971L297.335 213.423C298.528 214.072 299.884 214.072 301.077 213.423L334.644 195.359C335.024 195.142 335.241 194.818 335.241 194.385V194.223V191.735L330.143 190.924L270.383 158.905C269.19 158.256 267.835 158.256 266.642 158.905L235.569 175.888L233.02 175.509V177.889Z" fill="#636363"/>
<path d="M233.4 175.833L240.937 180.052L297.118 210.286C298.42 210.989 299.938 210.989 301.24 210.286L327.323 196.224L333.234 193.033L334.807 192.167C335.892 191.572 335.892 190.004 334.807 189.409L270.546 154.956C269.245 154.253 267.726 154.253 266.425 154.956L240.558 169.073L233.4 173.021C232.315 173.724 232.315 175.239 233.4 175.833Z" fill="white"/>
<path d="M299.179 211.206C298.42 211.206 297.606 210.989 296.901 210.611L240.775 180.377L233.237 176.158C232.586 175.834 232.207 175.184 232.207 174.427C232.207 173.724 232.586 173.075 233.237 172.697L240.395 168.748L266.262 154.632C267.672 153.875 269.353 153.821 270.763 154.632L335.024 189.085C335.675 189.409 336.054 190.058 336.054 190.815C336.054 191.518 335.675 192.167 335.024 192.546L327.54 196.603L301.456 210.665C300.697 211.043 299.938 211.206 299.179 211.206ZM233.616 175.509L241.154 179.728L297.335 209.962C298.528 210.611 299.884 210.611 301.077 209.962L327.161 195.899L334.644 191.843C335.024 191.627 335.241 191.248 335.241 190.815C335.241 190.383 335.024 190.004 334.644 189.788L270.383 155.335C269.19 154.686 267.835 154.686 266.642 155.335L240.775 169.451L233.616 173.4C233.237 173.616 233.02 173.995 233.02 174.427C233.02 174.914 233.237 175.293 233.616 175.509Z" fill="#636363"/>
<path d="M259.592 165.503V153.117L270.655 150.413L279.657 155.605L288.496 149.548L296.142 153.712L313.929 141.164V195.683L259.592 165.503Z" fill="url(#paint0_linear_457_33852)"/>
<path d="M291.533 156.254L296.142 153.712L288.496 149.548L283.886 152.09L291.533 156.254Z" fill="#636363"/>
<path d="M309.32 143.707V198.225L291.912 188.814L291.153 188.382L275.427 179.89L274.613 179.457L266.425 174.536L265.666 174.103L254.983 168.045V155.714L265.666 152.955H266.045L266.425 153.117L274.613 157.985L275.047 158.147L275.427 157.985L283.886 152.09L291.153 156.146L291.533 156.254L291.912 155.984L309.32 143.707Z" fill="white"/>
<path d="M309.591 198.766L274.451 179.728L266.262 174.806L265.503 174.373L254.657 168.262V155.443L265.611 152.685L266.154 152.739L266.533 152.901L274.776 157.769L274.993 157.877L275.264 157.769L283.832 151.819L291.207 155.93L291.424 155.984L309.536 143.22V198.766H309.591ZM255.308 167.883L266.642 174.265L274.83 179.187L275.589 179.62L308.994 197.738V144.301L291.587 156.579L290.99 156.417L283.886 152.468L275.589 158.256L275.047 158.526L274.559 158.31L266.316 153.442L266.045 153.334H265.774L255.362 155.984V167.883H255.308Z" fill="#636363"/>
<path d="M309.32 143.706L313.929 141.164V195.683L309.32 198.225V143.706Z" fill="#636363"/>
<path d="M254.983 155.714L259.592 153.117L270.655 150.413L266.045 152.955L254.983 155.714Z" fill="#636363"/>
<path d="M279.657 155.605L275.047 158.147L266.045 152.955L270.655 150.413L279.657 155.605Z" fill="#636363"/>
<path d="M288.496 149.548L283.886 152.09L275.047 158.147L279.657 155.605L288.496 149.548Z" fill="#636363"/>
<path d="M255.471 171.29V161.176L267.13 161.284L276.62 165.179L283.886 161.879L290.177 163.61L304.71 153.334V198.009L255.471 171.29Z" fill="url(#paint1_linear_457_33852)"/>
<path d="M286.381 165.719L290.177 163.61L283.887 161.879L280.145 163.989L286.381 165.719Z" fill="#636363"/>
<path d="M300.914 155.443V200.064L286.706 192.384L286.056 192.005L273.204 185.028L272.553 184.704L263.659 179.89L263.063 179.511L251.675 173.4V163.231L263.063 163.34L263.334 163.394L263.659 163.502L272.553 167.126L272.878 167.234L273.204 167.126L280.145 163.989L286.056 165.611L286.381 165.719L286.706 165.503L300.914 155.443Z" fill="#B199EC"/>
<path d="M301.24 200.605L251.404 173.562V162.961L263.497 163.123L272.878 166.963L273.095 166.855L280.145 163.664L286.381 165.395L301.294 154.902V200.605H301.24ZM252 173.183L300.643 199.577V156.038L286.435 166.044L280.145 164.313L272.878 167.612L272.444 167.45L263.334 163.718H263.063L252 163.61V173.183Z" fill="#636363"/>
<path d="M300.914 155.443L304.71 153.334V198.009L300.914 200.064V155.443Z" fill="#636363"/>
<path d="M251.675 163.232L255.471 161.176L267.13 161.284L263.334 163.394L251.675 163.232Z" fill="#636363"/>
<path d="M276.62 165.179L272.878 167.234L263.334 163.394L267.13 161.284L276.62 165.179Z" fill="#636363"/>
<path d="M283.887 161.879L280.145 163.989L272.878 167.234L276.62 165.179L283.887 161.879Z" fill="#636363"/>
</g>
<defs>
<linearGradient id="paint0_linear_457_33852" x1="259.601" y1="168.437" x2="313.928" y2="168.437" gradientUnits="userSpaceOnUse">
<stop stop-color="#ACE9EE"/>
<stop offset="1" stop-color="#83DEE6"/>
</linearGradient>
<linearGradient id="paint1_linear_457_33852" x1="255.474" y1="175.67" x2="304.719" y2="175.67" gradientUnits="userSpaceOnUse">
<stop stop-color="#ACE9EE"/>
<stop offset="1" stop-color="#83DEE6"/>
</linearGradient>
<clipPath id="clip0_457_33852">
<rect width="336" height="229" fill="white"/>
</clipPath>
</defs>
</svg>
