<svg width="693" height="567" viewBox="0 0 693 567" fill="none" xmlns="http://www.w3.org/2000/svg">
<g opacity="0.3">
<path d="M341.567 25.5603V566.085H517.336V25.5603H341.567ZM508.482 37.6091V117.354H435.343V37.6091H508.482ZM424.397 37.6091V117.354H350.422V37.6091H424.397ZM350.422 130.03H424.397V209.218H350.422V130.03ZM508.482 554.106H350.422V222.938H508.482V554.106ZM435.343 209.218V130.03H508.482V209.218H435.343Z" stroke="black" stroke-miterlimit="10" stroke-linecap="round" stroke-linejoin="round"/>
<path d="M516.639 25.5603V566.085H692.408V25.5603H516.639ZM683.553 37.6091V117.354H610.415V37.6091H683.553ZM599.468 37.6091V117.354H525.493V37.6091H599.468ZM525.493 130.03H599.468V209.218H525.493V130.03ZM683.553 554.106H525.493V222.938H683.553V554.106V554.106ZM610.415 209.218V130.03H683.553V209.218H610.415Z" stroke="black" stroke-miterlimit="10" stroke-linecap="round" stroke-linejoin="round"/>
<path d="M469.158 312.642L425.024 367.454" stroke="black" stroke-miterlimit="10" stroke-linecap="round" stroke-linejoin="round"/>
<path d="M480.105 298.992L473.063 307.698" stroke="black" stroke-miterlimit="10" stroke-linecap="round" stroke-linejoin="round"/>
<path d="M377.056 407.501L367.992 418.087" stroke="black" stroke-miterlimit="10" stroke-linecap="round" stroke-linejoin="round"/>
<path d="M435.623 338.69L383.819 399.561" stroke="black" stroke-miterlimit="10" stroke-linecap="round" stroke-linejoin="round"/>
<path d="M646.949 329.358L602.815 384.239" stroke="black" stroke-miterlimit="10" stroke-linecap="round" stroke-linejoin="round"/>
<path d="M657.896 315.777L650.854 324.482" stroke="black" stroke-miterlimit="10" stroke-linecap="round" stroke-linejoin="round"/>
<path d="M554.847 424.216L545.783 434.872" stroke="black" stroke-miterlimit="10" stroke-linecap="round" stroke-linejoin="round"/>
<path d="M613.414 355.475L561.61 416.276" stroke="black" stroke-miterlimit="10" stroke-linecap="round" stroke-linejoin="round"/>
<path d="M667.308 50.1455L646.183 76.4022" stroke="black" stroke-miterlimit="10" stroke-linecap="round" stroke-linejoin="round"/>
<path d="M672.537 43.5986L669.19 47.7774" stroke="black" stroke-miterlimit="10" stroke-linecap="round" stroke-linejoin="round"/>
<path d="M623.244 95.5547L618.921 100.639" stroke="black" stroke-miterlimit="10" stroke-linecap="round" stroke-linejoin="round"/>
<path d="M651.272 62.6121L626.451 91.7242" stroke="black" stroke-miterlimit="10" stroke-linecap="round" stroke-linejoin="round"/>
<path d="M584.897 50.1455L563.771 76.4022" stroke="black" stroke-miterlimit="10" stroke-linecap="round" stroke-linejoin="round"/>
<path d="M590.126 43.5986L586.779 47.7774" stroke="black" stroke-miterlimit="10" stroke-linecap="round" stroke-linejoin="round"/>
<path d="M540.833 95.5547L536.51 100.639" stroke="black" stroke-miterlimit="10" stroke-linecap="round" stroke-linejoin="round"/>
<path d="M568.861 62.6121L544.04 91.7242" stroke="black" stroke-miterlimit="10" stroke-linecap="round" stroke-linejoin="round"/>
<path d="M584.897 148.486L563.771 174.743" stroke="black" stroke-miterlimit="10" stroke-linecap="round" stroke-linejoin="round"/>
<path d="M590.126 142.009L586.779 146.188" stroke="black" stroke-miterlimit="10" stroke-linecap="round" stroke-linejoin="round"/>
<path d="M540.833 193.896L536.51 198.98" stroke="black" stroke-miterlimit="10" stroke-linecap="round" stroke-linejoin="round"/>
<path d="M568.861 161.022L544.04 190.135" stroke="black" stroke-miterlimit="10" stroke-linecap="round" stroke-linejoin="round"/>
<path d="M658.385 148.486L637.259 174.743" stroke="black" stroke-miterlimit="10" stroke-linecap="round" stroke-linejoin="round"/>
<path d="M663.683 142.009L660.267 146.188" stroke="black" stroke-miterlimit="10" stroke-linecap="round" stroke-linejoin="round"/>
<path d="M614.32 193.896L609.997 198.98" stroke="black" stroke-miterlimit="10" stroke-linecap="round" stroke-linejoin="round"/>
<path d="M642.348 161.022L617.597 190.135" stroke="black" stroke-miterlimit="10" stroke-linecap="round" stroke-linejoin="round"/>
<path d="M493.561 50.1455L472.436 76.4022" stroke="black" stroke-miterlimit="10" stroke-linecap="round" stroke-linejoin="round"/>
<path d="M498.79 43.5986L495.443 47.7774" stroke="black" stroke-miterlimit="10" stroke-linecap="round" stroke-linejoin="round"/>
<path d="M449.497 95.5547L445.174 100.639" stroke="black" stroke-miterlimit="10" stroke-linecap="round" stroke-linejoin="round"/>
<path d="M477.525 62.6121L452.704 91.7242" stroke="black" stroke-miterlimit="10" stroke-linecap="round" stroke-linejoin="round"/>
<path d="M493.561 146.258L472.436 172.514" stroke="black" stroke-miterlimit="10" stroke-linecap="round" stroke-linejoin="round"/>
<path d="M498.79 139.711L495.443 143.889" stroke="black" stroke-miterlimit="10" stroke-linecap="round" stroke-linejoin="round"/>
<path d="M449.497 191.667L445.174 196.681" stroke="black" stroke-miterlimit="10" stroke-linecap="round" stroke-linejoin="round"/>
<path d="M477.525 158.724L452.704 187.836" stroke="black" stroke-miterlimit="10" stroke-linecap="round" stroke-linejoin="round"/>
<path d="M413.382 146.258L392.256 172.514" stroke="black" stroke-miterlimit="10" stroke-linecap="round" stroke-linejoin="round"/>
<path d="M418.61 139.711L415.264 143.889" stroke="black" stroke-miterlimit="10" stroke-linecap="round" stroke-linejoin="round"/>
<path d="M369.317 191.667L364.994 196.681" stroke="black" stroke-miterlimit="10" stroke-linecap="round" stroke-linejoin="round"/>
<path d="M397.345 158.724L372.524 187.836" stroke="black" stroke-miterlimit="10" stroke-linecap="round" stroke-linejoin="round"/>
<path d="M407.804 50.1455L386.678 76.4022" stroke="black" stroke-miterlimit="10" stroke-linecap="round" stroke-linejoin="round"/>
<path d="M413.032 43.5986L409.686 47.7774" stroke="black" stroke-miterlimit="10" stroke-linecap="round" stroke-linejoin="round"/>
<path d="M363.739 95.5547L359.416 100.639" stroke="black" stroke-miterlimit="10" stroke-linecap="round" stroke-linejoin="round"/>
<path d="M391.767 62.6121L366.946 91.7242" stroke="black" stroke-miterlimit="10" stroke-linecap="round" stroke-linejoin="round"/>
</g>
<path opacity="0.2" d="M469.228 494.071H77.9487C73.9049 494.071 70.6279 490.798 70.6279 486.758V16.5062C70.6279 12.4667 73.9049 9.19336 77.9487 9.19336H469.228C473.272 9.19336 476.549 12.4667 476.549 16.5062V486.758C476.549 490.798 473.272 494.071 469.228 494.071Z" fill="black"/>
<path d="M457.375 485.226H66.0962C62.0523 485.226 58.7754 481.953 58.7754 477.913V7.66101C58.7754 3.62152 62.0523 0.348145 66.0962 0.348145H457.375C461.419 0.348145 464.696 3.62152 464.696 7.66101V477.913C464.696 481.953 461.419 485.226 457.375 485.226Z" fill="white"/>
<path d="M405.363 0.348145H102.84V485.226H405.363V0.348145Z" fill="white" stroke="#263238" stroke-miterlimit="10" stroke-linecap="round" stroke-linejoin="round"/>
<path d="M451.24 1.46265V486.132C458.84 485.296 464.697 478.888 464.697 471.088V16.5759C464.697 8.77551 458.84 2.2984 451.24 1.46265Z" fill="white"/>
<path d="M464.697 189.438H451.24V265.422H464.697V189.438Z" fill="#808080" stroke="#263238" stroke-miterlimit="10" stroke-linecap="round" stroke-linejoin="round"/>
<path d="M464.696 64.0049V16.5757C464.696 8.21816 457.933 1.39282 449.497 1.39282H73.9748C65.6081 1.39282 58.7754 8.14852 58.7754 16.5757V64.0745H464.696V64.0049Z" fill="white"/>
<path d="M253.787 25.9084H81.0859V37.4001H253.787V25.9084Z" fill="white" stroke="#263238" stroke-miterlimit="10" stroke-linecap="round" stroke-linejoin="round"/>
<path d="M464.696 43.5986H58.7754V64.005H464.696V43.5986Z" fill="#2FC7D6" stroke="#263238" stroke-miterlimit="10" stroke-linecap="round" stroke-linejoin="round"/>
<path d="M68.1875 48.8918H78.7852" stroke="white" stroke-miterlimit="10" stroke-linecap="round" stroke-linejoin="round"/>
<path d="M68.1875 53.4885H78.7852" stroke="white" stroke-miterlimit="10" stroke-linecap="round" stroke-linejoin="round"/>
<path d="M68.1875 58.0156H78.7852" stroke="white" stroke-miterlimit="10" stroke-linecap="round" stroke-linejoin="round"/>
<path d="M122.78 48.6829V60.5924" stroke="white" stroke-miterlimit="10" stroke-linecap="round" stroke-linejoin="round"/>
<path d="M185.042 48.6829V60.5924" stroke="white" stroke-miterlimit="10" stroke-linecap="round" stroke-linejoin="round"/>
<path d="M247.233 48.6829V60.5924" stroke="white" stroke-miterlimit="10" stroke-linecap="round" stroke-linejoin="round"/>
<path d="M309.426 48.6829V60.5924" stroke="white" stroke-miterlimit="10" stroke-linecap="round" stroke-linejoin="round"/>
<path d="M371.617 48.6829V60.5924" stroke="white" stroke-miterlimit="10" stroke-linecap="round" stroke-linejoin="round"/>
<path d="M464.696 19.083V16.5757C464.696 8.21816 457.933 1.39282 449.497 1.39282H73.9748C65.6081 1.39282 58.7754 8.14852 58.7754 16.5757V19.083H464.696Z" fill="#263238" stroke="#263238" stroke-miterlimit="10" stroke-linecap="round" stroke-linejoin="round"/>
<path d="M406.687 14.765C409.19 14.765 411.219 12.7382 411.219 10.2379C411.219 7.73775 409.19 5.71094 406.687 5.71094C404.184 5.71094 402.155 7.73775 402.155 10.2379C402.155 12.7382 404.184 14.765 406.687 14.765Z" fill="white" stroke="#263238" stroke-miterlimit="10" stroke-linecap="round" stroke-linejoin="round"/>
<path d="M420.911 14.765C423.414 14.765 425.443 12.7382 425.443 10.2379C425.443 7.73775 423.414 5.71094 420.911 5.71094C418.408 5.71094 416.379 7.73775 416.379 10.2379C416.379 12.7382 418.408 14.765 420.911 14.765Z" fill="white" stroke="#263238" stroke-miterlimit="10" stroke-linecap="round" stroke-linejoin="round"/>
<path d="M435.204 14.765C437.707 14.765 439.736 12.7382 439.736 10.2379C439.736 7.73775 437.707 5.71094 435.204 5.71094C432.701 5.71094 430.672 7.73775 430.672 10.2379C430.672 12.7382 432.701 14.765 435.204 14.765Z" fill="white" stroke="#263238" stroke-miterlimit="10" stroke-linecap="round" stroke-linejoin="round"/>
<path d="M58.7754 456.88V471.088C58.7754 479.445 65.5384 486.271 73.9748 486.271H449.567C457.933 486.271 464.766 479.515 464.766 471.088V456.88H58.7754Z" fill="#B2B2B2" stroke="#263238" stroke-miterlimit="10" stroke-linecap="round" stroke-linejoin="round"/>
<path d="M357.185 97.9924H132.192V223.983H357.185V97.9924Z" fill="#B199EC"/>
<path d="M357.185 168.683L306.915 136.298L255.74 187.418L219.972 145.7L134.563 222.59L132.192 223.983H357.185V168.683Z" fill="white" stroke="#263238" stroke-miterlimit="10" stroke-linecap="round" stroke-linejoin="round"/>
<path d="M167.123 144.864C177.019 144.864 185.041 136.851 185.041 126.965C185.041 117.08 177.019 109.066 167.123 109.066C157.226 109.066 149.204 117.08 149.204 126.965C149.204 136.851 157.226 144.864 167.123 144.864Z" fill="white" stroke="#263238" stroke-miterlimit="10" stroke-linecap="round" stroke-linejoin="round"/>
<path d="M133.029 253.025H356.279" stroke="#263238" stroke-miterlimit="10"/>
<path d="M133.029 263.263H266.826" stroke="#263238" stroke-miterlimit="10"/>
<path d="M328.46 282.346H357.185" stroke="#263238" stroke-miterlimit="10"/>
<path d="M294.366 282.346H325.183" stroke="#263238" stroke-miterlimit="10"/>
<path d="M282.095 282.346H291.019" stroke="#263238" stroke-miterlimit="10"/>
<path d="M239.982 282.346H279.724" stroke="#263238" stroke-miterlimit="10"/>
<path d="M188.249 282.346H235.66" stroke="#263238" stroke-miterlimit="10"/>
<path d="M150.46 282.346H183.299" stroke="#263238" stroke-miterlimit="10"/>
<path d="M132.472 282.346H146.137" stroke="#263238" stroke-miterlimit="10"/>
<path d="M161.197 294.186H132.472" stroke="#263238" stroke-miterlimit="10"/>
<path d="M195.36 294.186H164.474" stroke="#263238" stroke-miterlimit="10"/>
<path d="M207.632 294.186H198.638" stroke="#263238" stroke-miterlimit="10"/>
<path d="M249.674 294.186H209.933" stroke="#263238" stroke-miterlimit="10"/>
<path d="M301.408 294.186H253.997" stroke="#263238" stroke-miterlimit="10"/>
<path d="M339.197 294.186H306.358" stroke="#263238" stroke-miterlimit="10"/>
<path d="M357.185 294.186H343.52" stroke="#263238" stroke-miterlimit="10"/>
<path d="M328.46 305.539H357.185" stroke="#263238" stroke-miterlimit="10"/>
<path d="M294.366 305.539H325.183" stroke="#263238" stroke-miterlimit="10"/>
<path d="M282.095 305.539H291.019" stroke="#263238" stroke-miterlimit="10"/>
<path d="M239.982 305.539H279.724" stroke="#263238" stroke-miterlimit="10"/>
<path d="M188.249 305.539H235.66" stroke="#263238" stroke-miterlimit="10"/>
<path d="M150.46 305.539H183.299" stroke="#263238" stroke-miterlimit="10"/>
<path d="M132.472 305.539H146.137" stroke="#263238" stroke-miterlimit="10"/>
<path d="M161.197 317.378H132.472" stroke="#263238" stroke-miterlimit="10"/>
<path d="M195.36 317.378H164.474" stroke="#263238" stroke-miterlimit="10"/>
<path d="M207.632 317.378H198.638" stroke="#263238" stroke-miterlimit="10"/>
<path d="M249.674 317.378H209.933" stroke="#263238" stroke-miterlimit="10"/>
<path d="M301.408 317.378H253.997" stroke="#263238" stroke-miterlimit="10"/>
<path d="M339.197 317.378H306.358" stroke="#263238" stroke-miterlimit="10"/>
<path d="M357.185 317.378H343.52" stroke="#263238" stroke-miterlimit="10"/>
<path d="M328.46 328.731H357.185" stroke="#263238" stroke-miterlimit="10"/>
<path d="M294.366 328.731H325.183" stroke="#263238" stroke-miterlimit="10"/>
<path d="M282.095 328.731H291.019" stroke="#263238" stroke-miterlimit="10"/>
<path d="M239.982 328.731H279.724" stroke="#263238" stroke-miterlimit="10"/>
<path d="M188.249 328.731H235.66" stroke="#263238" stroke-miterlimit="10"/>
<path d="M150.46 328.731H183.299" stroke="#263238" stroke-miterlimit="10"/>
<path d="M132.472 328.731H146.137" stroke="#263238" stroke-miterlimit="10"/>
<path d="M161.197 340.571H132.472" stroke="#263238" stroke-miterlimit="10"/>
<path d="M195.36 340.571H164.474" stroke="#263238" stroke-miterlimit="10"/>
<path d="M207.632 340.571H198.638" stroke="#263238" stroke-miterlimit="10"/>
<path d="M249.674 340.571H209.933" stroke="#263238" stroke-miterlimit="10"/>
<path d="M301.408 340.571H253.997" stroke="#263238" stroke-miterlimit="10"/>
<path d="M339.197 340.571H306.358" stroke="#263238" stroke-miterlimit="10"/>
<path d="M357.185 340.571H343.52" stroke="#263238" stroke-miterlimit="10"/>
<path d="M328.46 351.853H357.185" stroke="#263238" stroke-miterlimit="10"/>
<path d="M294.366 351.853H325.183" stroke="#263238" stroke-miterlimit="10"/>
<path d="M282.095 351.853H291.019" stroke="#263238" stroke-miterlimit="10"/>
<path d="M239.982 351.853H279.724" stroke="#263238" stroke-miterlimit="10"/>
<path d="M188.249 351.853H235.66" stroke="#263238" stroke-miterlimit="10"/>
<path d="M150.46 351.853H183.299" stroke="#263238" stroke-miterlimit="10"/>
<path d="M132.472 351.853H146.137" stroke="#263238" stroke-miterlimit="10"/>
<path d="M161.197 363.693H132.472" stroke="#263238" stroke-miterlimit="10"/>
<path d="M195.36 363.693H164.474" stroke="#263238" stroke-miterlimit="10"/>
<path d="M207.632 363.693H198.638" stroke="#263238" stroke-miterlimit="10"/>
<path d="M249.674 363.693H209.933" stroke="#263238" stroke-miterlimit="10"/>
<path d="M301.408 363.693H253.997" stroke="#263238" stroke-miterlimit="10"/>
<path d="M339.197 363.693H306.358" stroke="#263238" stroke-miterlimit="10"/>
<path d="M357.185 363.693H343.52" stroke="#263238" stroke-miterlimit="10"/>
<path d="M328.46 375.046H357.185" stroke="#263238" stroke-miterlimit="10"/>
<path d="M294.366 375.046H325.183" stroke="#263238" stroke-miterlimit="10"/>
<path d="M282.095 375.046H291.019" stroke="#263238" stroke-miterlimit="10"/>
<path d="M239.982 375.046H279.724" stroke="#263238" stroke-miterlimit="10"/>
<path d="M188.249 375.046H235.66" stroke="#263238" stroke-miterlimit="10"/>
<path d="M150.46 375.046H183.299" stroke="#263238" stroke-miterlimit="10"/>
<path d="M132.472 375.046H146.137" stroke="#263238" stroke-miterlimit="10"/>
<path d="M161.197 386.885H132.472" stroke="#263238" stroke-miterlimit="10"/>
<path d="M195.36 386.885H164.474" stroke="#263238" stroke-miterlimit="10"/>
<path d="M207.632 386.885H198.638" stroke="#263238" stroke-miterlimit="10"/>
<path d="M249.674 386.885H209.933" stroke="#263238" stroke-miterlimit="10"/>
<path d="M301.408 386.885H253.997" stroke="#263238" stroke-miterlimit="10"/>
<path d="M339.197 386.885H306.358" stroke="#263238" stroke-miterlimit="10"/>
<path d="M357.185 386.885H343.52" stroke="#263238" stroke-miterlimit="10"/>
<path d="M328.46 398.238H357.185" stroke="#263238" stroke-miterlimit="10"/>
<path d="M294.366 398.238H325.183" stroke="#263238" stroke-miterlimit="10"/>
<path d="M282.095 398.238H291.019" stroke="#263238" stroke-miterlimit="10"/>
<path d="M239.982 398.238H279.724" stroke="#263238" stroke-miterlimit="10"/>
<path d="M188.249 398.238H235.66" stroke="#263238" stroke-miterlimit="10"/>
<path d="M150.46 398.238H183.299" stroke="#263238" stroke-miterlimit="10"/>
<path d="M132.472 398.238H146.137" stroke="#263238" stroke-miterlimit="10"/>
<path d="M161.197 410.078H132.472" stroke="#263238" stroke-miterlimit="10"/>
<path d="M195.36 410.078H164.474" stroke="#263238" stroke-miterlimit="10"/>
<path d="M207.632 410.078H198.638" stroke="#263238" stroke-miterlimit="10"/>
<path d="M249.674 410.078H209.933" stroke="#263238" stroke-miterlimit="10"/>
<path d="M301.408 410.078H253.997" stroke="#263238" stroke-miterlimit="10"/>
<path d="M339.197 410.078H306.358" stroke="#263238" stroke-miterlimit="10"/>
<path d="M357.185 410.078H343.52" stroke="#263238" stroke-miterlimit="10"/>
<path d="M328.46 421.36H357.185" stroke="#263238" stroke-miterlimit="10"/>
<path d="M294.366 421.36H325.183" stroke="#263238" stroke-miterlimit="10"/>
<path d="M282.095 421.36H291.019" stroke="#263238" stroke-miterlimit="10"/>
<path d="M239.982 421.36H279.724" stroke="#263238" stroke-miterlimit="10"/>
<path d="M188.249 421.36H235.66" stroke="#263238" stroke-miterlimit="10"/>
<path d="M150.46 421.36H183.299" stroke="#263238" stroke-miterlimit="10"/>
<path d="M132.472 421.36H146.137" stroke="#263238" stroke-miterlimit="10"/>
<path d="M161.197 433.2H132.472" stroke="#263238" stroke-miterlimit="10"/>
<path d="M195.36 433.2H164.474" stroke="#263238" stroke-miterlimit="10"/>
<path d="M207.632 433.2H198.638" stroke="#263238" stroke-miterlimit="10"/>
<path d="M249.674 433.2H209.933" stroke="#263238" stroke-miterlimit="10"/>
<path d="M301.408 433.2H253.997" stroke="#263238" stroke-miterlimit="10"/>
<path d="M339.197 433.2H306.358" stroke="#263238" stroke-miterlimit="10"/>
<path d="M357.185 433.2H343.52" stroke="#263238" stroke-miterlimit="10"/>
</svg>
