<svg width="303" height="81" viewBox="0 0 303 81" fill="none" xmlns="http://www.w3.org/2000/svg">
<path d="M366.659 99.4767L353.607 89.7759C349.604 83.1217 349.924 83.5226 349.764 83.4424L309.167 51.8547C319.817 52.4159 331.427 53.378 344.079 54.7409C344.799 54.8211 345.28 53.9392 344.719 53.378C341.677 49.9306 341.276 47.766 340.796 47.3651C340.636 47.2048 341.837 47.766 321.178 39.1876C339.515 40.0695 338.634 40.3902 338.954 39.5884C339.434 38.466 337.593 38.5462 335.991 34.3773C335.751 33.7359 316.133 28.204 305.243 25.2377C313.731 24.2756 322.379 23.3136 330.626 22.111C331.347 22.0308 331.587 21.0688 330.947 20.6679C330.947 20.6679 329.826 19.9464 328.705 19.2248C329.105 15.5369 287.067 1.58703 283.544 0.0637623C282.743 -0.256925 283.464 0.624965 257.76 2.86977C228.053 5.43527 197.305 8.08094 182.972 35.179C156.868 25.1575 130.845 29.4868 100.657 34.4574C69.2689 39.6686 69.7493 38.7065 69.2689 39.2677C60.4608 48.247 43.8858 60.7538 18.5828 77.5097C18.2625 77.7502 18.1023 78.151 18.2625 78.4717C18.5828 79.2735 18.823 79.1131 24.7484 77.9907C13.6983 86.8096 19.2234 82.2398 17.6219 83.6829C17.4618 83.8432 17.5418 83.6829 15.3799 87.932C-0.474556 99.6371 -0.234338 99.156 0.0859535 99.9578C0.166026 100.278 0.486318 100.519 0.806609 100.519C0.886682 100.519 161.353 91.219 171.362 90.5777C173.363 90.5777 173.764 92.8225 172.403 93.7044C170.881 94.6664 169.04 95.4681 169.68 97.6328C170 98.7552 170.961 99.3966 172.082 99.3966H194.423C196.905 99.3966 197.866 96.1897 195.784 94.8268C194.343 93.8647 192.981 93.3837 193.382 91.8604C193.542 91.2992 194.102 90.6578 194.983 90.6578C195.063 90.6578 195.063 90.6578 195.063 90.6578L345.36 99.7974C345.28 99.7974 356.33 100.759 366.179 101C366.98 100.92 367.3 99.8776 366.659 99.4767ZM351.205 88.8941C288.748 84.4044 221.407 68.6908 189.218 84.9656C188.898 84.5648 188.737 84.2441 188.497 83.9234C217.964 57.7072 289.389 82.0795 348.803 84.8053L351.205 88.8941ZM328.625 88.4932C275.616 86.3286 232.537 78.3114 195.544 84.0036C224.93 73.5813 277.138 83.1217 328.625 88.4932ZM192.501 90.0966C191.7 90.9785 191.46 92.4216 191.94 93.544H174.565C175.045 92.3414 174.805 90.9785 174.004 90.0966C178.488 88.2527 179.609 82.1596 183.293 82.1596C186.736 82.1596 187.937 87.6915 191.94 89.7759C191.94 89.8561 192.501 90.0966 192.501 90.0966ZM346.721 83.1217C287.467 79.995 217.323 56.2642 187.456 82.7208C187.296 82.5605 187.136 82.4001 186.976 82.2398C210.597 60.7538 239.504 48.5677 306.364 51.6944L346.721 83.1217ZM342.237 52.8969C248.312 43.116 213.48 55.8633 185.615 81.1976C223.009 37.1031 278.179 43.5168 339.675 48.728C340.556 50.4116 341.356 51.6944 342.237 52.8969ZM335.191 46.7237C280.901 42.1539 226.372 36.6221 189.298 74.7838C219.806 38.7065 270.972 37.1031 316.454 39.0272L335.191 46.7237ZM336.312 38.3859C285.866 35.7402 228.454 32.373 192.741 68.6106C223.569 31.3307 285.546 30.8497 334.63 35.4195C335.111 36.5419 335.671 37.504 336.312 38.3859ZM327.344 33.1747C254.878 27.4825 209.957 40.2298 187.376 73.0201C205.793 34.698 257.92 30.2885 300.839 25.6386C311.489 28.6049 321.098 31.3307 327.344 33.1747ZM328.224 20.8282C275.296 28.204 211.238 27.0015 187.777 68.771C206.754 26.6006 281.302 21.1489 326.783 19.9464C327.263 20.1869 327.744 20.5076 328.224 20.8282ZM184.093 36.3816C202.11 1.6672 248.152 7.59991 283.063 1.58703C290.03 4.55338 312.69 11.2076 325.182 18.3429C275.777 19.7058 198.426 26.6006 184.093 74.1425C184.093 31.7316 184.093 58.5891 184.093 36.3816ZM22.5063 76.7881C45.9677 61.0745 61.5819 49.209 70.1497 40.6307C113.309 35.5798 148.141 23.5541 182.492 36.7023C182.492 95.1475 182.492 21.7101 182.492 79.3536C145.098 42.2341 66.2261 68.8511 22.5063 76.7881ZM28.1114 77.3493C70.8703 68.771 141.735 46.8039 178.088 77.5097C160.952 68.4503 145.578 64.9227 125.32 65.3236C100.337 65.8046 66.9467 72.2985 21.3853 82.6407C23.0668 81.4381 25.389 79.5941 28.1114 77.3493ZM18.6628 84.9656C119.394 61.9564 146.299 61.1546 181.131 81.0372C179.289 81.9993 178.008 84.0838 176.646 85.8475C146.299 70.2942 74.2334 81.839 14.1788 93.7845L18.6628 84.9656ZM170.961 85.126C120.756 78.0709 63.2634 91.7802 22.3462 93.8647C77.2761 83.1217 140.133 73.7416 170.961 85.126ZM13.298 91.5397L7.53272 98.5147L3.52908 98.7552L13.298 91.5397ZM171.362 88.9742C169.2 89.1346 12.1769 98.194 9.69469 98.3543L12.1769 95.388C12.3371 95.6285 12.5773 95.7087 12.8175 95.7087C54.9358 95.7087 120.275 78.151 175.285 87.3708C174.004 88.5734 172.963 88.8941 171.442 88.9742C171.362 88.9742 171.362 88.9742 171.362 88.9742ZM194.903 96.1095C195.624 96.5906 195.303 97.7931 194.423 97.7931C170.241 97.7931 171.522 98.0336 171.282 97.1517C171.041 96.35 171.602 96.1897 173.123 95.1475H193.382L194.903 96.1095ZM195.223 88.9742L193.862 88.8139C192.421 88.4932 191.38 87.6113 190.499 86.4889C233.738 78.0709 285.786 90.4975 352.326 90.5777L357.211 98.7552L195.223 88.9742ZM359.052 98.9155L355.689 93.3035L363.536 99.0759L359.052 98.9155Z" fill="#B199EC" fill-opacity="0.5"/>
</svg>
