<svg width="80" height="81" viewBox="0 0 80 81" fill="none" xmlns="http://www.w3.org/2000/svg">
<path d="M100.833 77.0061L90.9615 67.9852L91.7005 63.2625C95.5012 63.3686 95.0789 64.0054 93.6009 59.0173C100.78 58.4336 100.78 58.5928 100.78 57.903C100.78 48.0331 100.833 48.2984 100.622 48.0862C99.1964 47.131 105.636 51.9068 86.5801 37.3142C86.7913 34.0242 87.1608 31.371 87.3719 29.6199C95.2901 29.7791 95.3429 29.9383 95.4484 29.3546C95.9763 26.9136 96.3986 21.1827 95.2901 20.0153C95.1845 19.9092 97.2432 21.6603 71.8523 0.169343C71.694 -0.0429131 75.8642 0.0101509 13.5218 0.0101509C13.0467 0.0101509 13.733 -1.05113 3.86167 18.5295C3.7561 18.6887 3.59773 19.75 3.54495 19.9622C0.060954 23.5706 0.0609541 23.4114 0.0609541 23.7298C0.0081663 43.3104 -0.0446215 42.992 0.0609541 43.1512C0.272105 43.5226 0.430468 43.4165 2.91149 43.5226C2.06689 50.5271 1.90853 55.7804 2.4364 61.9359C2.4364 61.9889 13.6802 104.546 14.3137 106.722C15.3694 110.596 18.3783 115 19.2229 115C19.2757 115 15.8445 115.159 92.07 104.122C99.2492 103.06 99.038 103.273 99.1964 102.848C99.3547 102.424 99.2492 102.53 96.1347 98.55C95.9763 88.4148 98.035 79.9776 98.5101 78.1204L100.569 77.8551C100.991 77.8551 101.15 77.2714 100.833 77.0061ZM88.6916 75.7856L8.71815 73.1854V60.8215L13.9441 60.9807L14.8943 65.1728C15.0527 65.8626 12.5717 65.8095 55.752 62.2012L90.6448 63.2094L88.6916 75.7856ZM90.1169 73.2916L91.0671 75.8386L89.7474 75.7856L90.1169 73.2916ZM14.8415 54.2946V60.1317L11.252 43.8941L12.5189 43.9472L14.8415 54.2946ZM13.733 59.8664L9.08766 59.7072L12.4133 53.9763L13.733 59.8664ZM12.0966 52.4905L8.77094 58.2214L4.54791 43.6818L10.249 43.9472L12.0966 52.4905ZM93.4425 62.2012L65.0955 61.3522L92.5451 59.0704L93.4425 62.2012ZM99.7243 57.4254L15.8973 64.4299V54.7722L99.7243 49.0413V57.4254ZM98.8269 48.0331L15.7917 53.7109L13.6274 44.0533C21.6511 44.4247 78.4508 47.3433 88.6916 47.5555C89.1139 47.5555 89.3251 47.1841 89.2195 46.8657L86.4745 39.0653C86.4745 38.9061 86.4745 38.7469 86.4745 38.5877L98.8269 48.0331ZM86.3689 41.9307L87.9526 46.4412L86.3689 46.3881C86.3162 44.9023 86.3162 43.3635 86.3689 41.9307ZM94.5511 28.6647L5.39252 26.9667C4.38955 24.2604 4.1784 22.0317 4.75907 19.3255L94.5511 20.9174C95.3957 23.5175 94.7622 27.3912 94.5511 28.6647ZM13.8386 1.07143H71.3772L93.4953 19.803L5.18137 18.2642L13.8386 1.07143ZM3.43937 21.6603C3.43937 22.244 3.43937 22.7746 3.49216 23.3583L1.85574 23.3053L3.43937 21.6603ZM1.11671 42.4083V24.3135L3.59773 24.4196C3.7561 25.4809 4.07282 26.5422 4.54791 27.7096C4.75907 28.1871 -0.783649 27.9218 86.3162 29.6199C85.8411 32.9098 85.102 39.2245 85.3132 46.3881L1.11671 42.4083ZM13.469 99.5052L3.49216 61.8297C3.01707 56.1519 3.06986 51.2169 3.80889 44.9554L8.03191 59.4418C7.82076 59.8133 7.66239 60.0256 7.66239 60.2378V73.663C7.66239 74.3528 8.08469 74.1937 12.3605 74.3528C17.6393 92.4477 16.0029 87.0882 16.3724 88.0964C15.6333 89.6353 13.733 94.1988 13.469 99.5052ZM97.7183 102.318L96.293 102.53C96.2403 101.787 96.1875 101.097 96.1875 100.407L97.7183 102.318ZM95.2373 102.636L19.3813 113.939C14.3664 108.42 12.4133 99.0276 17.3753 88.3617L97.296 78.3326C96.6098 81.145 94.3927 91.2803 95.2373 102.636ZM17.2698 87.3005L13.5218 74.3528L84.0991 76.6877L91.8589 76.953C92.07 76.953 92.2284 76.8469 92.2812 76.7407C92.4923 76.4223 92.4923 76.5815 90.4864 71.1159L90.8031 69.2056L99.302 77.0061L17.2698 87.3005Z" fill="#B199EC" fill-opacity="0.5"/>
</svg>
