<svg width="101" height="80" viewBox="0 0 101 80" fill="none" xmlns="http://www.w3.org/2000/svg">
<path d="M130.528 33.8252C130.664 32.5929 129.573 32.456 128.71 32.1822V27.39L129.846 26.888C130.846 26.4316 130.71 25.0167 129.664 24.7429L118.254 21.822C118.163 21.4569 118.117 21.0005 117.799 20.8635C52.7458 -0.952178 55.5188 0.00625247 55.337 0.00625247C2.55779 10.4577 4.78534 9.77312 4.69442 9.81876C3.64883 10.4577 5.23994 15.0673 5.83092 16.2539C5.92184 16.4365 5.55816 16.2083 11.0134 19.3118C11.0134 24.6973 11.0134 25.9752 11.0134 26.0664C11.0588 26.4316 10.6497 26.2034 19.3326 29.5351C8.69491 31.7714 8.92221 31.5432 8.92221 32.0452V40.9449C8.92221 41.1731 8.92221 41.1275 10.0133 42.5423C6.01276 44.1854 5.69454 44.3223 5.74 44.3223C5.0581 44.733 5.0581 50.5749 5.0581 51.3051C2.33049 52.6287 0.284783 53.5871 0.239323 53.6328C-0.0788977 53.8609 0.0120225 52.6287 0.0120225 73.8054C0.0120225 74.7182 0.557544 75.5397 1.37583 75.9049C86.7499 114.379 83.3859 113.238 83.7496 112.919L118.254 78.5976C118.936 77.913 118.708 76.772 117.845 76.3613L116.754 75.8592C119.663 68.4656 118.981 63.1714 118.754 61.8935C119.618 61.1633 120.39 60.7525 120.209 59.7941C120.027 58.6987 120.209 59.0639 106.571 53.6784L113.799 49.2514L133.619 45.1438C134.119 45.0525 133.983 45.2351 133.983 35.7877C133.892 35.5595 133.756 35.6051 130.528 33.8252ZM130.119 34.6467L132.119 35.742L125.255 37.1569C130.301 34.6011 129.983 34.7836 130.119 34.6467ZM129.437 33.3688C129.664 33.4144 129.71 33.8708 129.482 34.0077L88.1592 54.865V53.1307C131.483 32.1822 128.755 33.6883 128.755 33.1862L129.437 33.3688ZM8.05846 59.6572L57.3827 81.0165V82.2944L7.37656 59.9766L8.05846 59.6572ZM57.4282 80.0124L8.42215 58.8357C7.37656 53.4502 7.74024 47.8822 7.92208 46.1022L14.6502 48.9319L28.0155 66.8682C28.2882 67.1877 26.879 67.3703 48.1998 62.9432L57.4282 66.8226V80.0124ZM57.019 39.5301L117.39 21.8676C118.026 24.6516 117.526 27.1618 117.345 27.9377L58.9738 45.7827L57.019 39.5301ZM76.0668 41.4926L87.25 45.2807V54.9107L62.9743 45.5089L76.0668 41.4926ZM83.9314 54.5912L30.4248 65.6816V57.7403L70.5661 49.4339L83.9314 54.5912ZM73.7938 57.649L58.5647 66.3205L49.7454 62.6237L73.7938 57.649ZM58.3374 67.1877C58.792 67.3703 57.3372 68.0549 76.7032 57.0557L85.5225 55.2301C87.6591 56.0516 87.7046 56.1429 87.9319 56.006L92.2052 53.8609L104.934 51.2139L58.3828 79.9211V67.1877H58.3374ZM127.8 32.9124L88.1137 52.081V45.2351L127.8 27.7551V32.9124ZM118.436 22.7804C130.164 25.747 129.619 25.5644 129.619 25.7926C129.619 26.0208 132.528 24.6516 87.6591 44.4136L77.567 40.9906C120.572 27.8464 117.981 28.7592 118.117 28.3941C118.163 28.3028 118.89 25.8382 118.436 22.7804ZM55.3825 0.919044L116.163 21.2743L56.4735 38.7542L6.1946 10.4577L55.3825 0.919044ZM6.55828 15.7519C6.33098 15.2042 5.37632 12.9223 5.33086 11.0054L56.0644 39.5301L57.8373 45.372L6.55828 15.7519ZM11.8771 25.747V19.8595L42.5627 37.6133L11.8771 25.747ZM20.8328 30.174L47.6542 40.5798C59.292 47.2888 58.4283 46.8781 58.701 46.7868L61.5196 45.9197L68.9296 48.795L28.561 57.1926L10.1042 32.4104L20.8328 30.174ZM9.78595 40.8537V33.5057C29.152 59.5203 28.0155 58.2423 28.4701 58.1511L29.5156 57.9229V65.8642L28.561 66.0467L9.78595 40.8537ZM10.5133 43.3638L13.5591 47.4714L7.1038 44.733L10.5133 43.3638ZM7.05834 45.7371C6.92196 47.2432 6.4219 53.1307 7.5584 58.9269L6.69466 59.3377C5.46724 51.8072 6.01276 46.9237 6.28552 45.372L7.05834 45.7371ZM5.01264 52.3548C5.0581 53.4046 5.14902 54.4999 5.23994 55.7322L1.46675 54.0435L5.01264 52.3548ZM1.64859 75.129C1.14853 74.9008 0.830305 74.3988 0.830305 73.8967V54.7737L5.37632 56.8275C5.78546 60.1592 5.87638 60.3418 6.10368 60.433C60.0648 84.4395 57.7009 83.4354 57.8373 83.4354C58.0191 83.4354 57.8373 83.5267 60.8377 81.6554L82.5676 91.4223C80.5674 99.4092 80.9765 104.749 82.6585 111.823L1.64859 75.129ZM117.39 77.274C117.663 77.411 117.754 77.7761 117.526 78.0043L83.6132 111.732C83.4768 111.184 83.3859 110.682 83.2495 110.18C119.436 74.2162 115.799 78.0499 116.344 76.8177L117.39 77.274ZM117.845 62.6694C118.072 64.5863 118.345 70.063 115.208 77.1371L83.0677 109.085C81.9312 103.289 81.7948 98.4052 83.5677 91.4223L117.845 62.6694ZM118.981 59.7028C119.299 59.8397 119.39 60.2505 119.118 60.4787L83.1131 90.6921L61.8378 81.1534L105.525 54.4086L118.981 59.7028ZM58.3374 82.2031V81.0165L107.525 50.6662L111.117 49.9359L58.3374 82.2031ZM132.983 44.4592L95.3419 52.2636L122.118 38.7542L132.983 36.5179V44.4592Z" fill="#B199EC" fill-opacity="0.5"/>
</svg>
