<svg width="107" height="81" viewBox="0 0 107 81" fill="none" xmlns="http://www.w3.org/2000/svg">
<path d="M128.796 52.2212V42.81C128.741 42.1534 128.686 42.3175 122.689 41.7704C123.349 38.8157 121.424 33.2346 120.323 32.8516C120.158 32.7969 120.819 32.8516 113.117 32.4138C115.812 24.8082 115.097 19.446 112.842 11.8951C112.676 11.348 113.777 11.5121 95.0719 11.5121C98.3178 4.94611 94.6318 0.240483 94.5768 0.185766C94.3017 -0.0878168 100.078 0.0216164 12.4403 0.0216164C12.1103 0.0216164 11.8352 0.349916 11.8902 0.678216C14.3108 14.3574 8.53433 11.5121 15.3561 13.4819C14.806 13.5366 14.6409 13.9743 14.806 14.3026C17.6667 19.6102 17.7217 25.6837 14.971 30.6082C-0.157941 31.4289 0.777303 31.3195 0.61226 31.4289C-0.26797 31.9761 -0.0479121 37.1742 0.337188 39.4723C0.447217 40.0194 -0.102927 39.7459 12.3303 41.8798C12.4954 47.7345 11.01 46.6949 13.7057 47.5703L1.5475 48.8288C0.942346 48.8835 0.887332 49.8137 1.49249 49.9231L2.37272 50.0873C1.87759 51.7288 0.942346 56.4344 2.37272 63.274L1.76756 63.1098C1.05238 62.9457 0.777303 63.9853 1.49249 64.1495L8.69937 66.0645C7.92917 73.5607 8.4243 79.689 8.8094 82.3701C7.70911 82.4795 6.8839 82.4248 6.60882 83.2456C6.27874 84.1757 2.86785 82.0418 42.5882 120.836C42.6982 120.945 42.8633 121 43.0283 121C43.2484 120.945 124.285 103.928 124.395 103.874C125.44 103.491 129.566 80.838 125.825 74.9833C125.66 74.7645 126.155 74.9833 118.068 71.9739L132.592 67.9249C133.142 67.7608 132.977 68.4721 132.977 53.3156C132.867 52.6043 132.757 52.7684 128.796 52.2212ZM128.851 53.3156L77.1372 62.2891L58.4874 58.9514L126.375 52.9873L128.851 53.3156ZM121.424 42.81L52.0507 48.0081L48.5298 47.1326L118.068 42.5364L121.424 42.81ZM51.2255 48.9383C52.2707 49.1571 43.6335 49.759 127.695 43.4119V51.7835L51.2255 58.5137V48.9383ZM119.883 34.0006C120.379 34.6572 121.754 37.0648 121.589 41.2232L44.9538 46.2571C43.3034 43.3024 43.1934 38.2138 43.1934 36.627L119.883 34.0006ZM111.906 12.6611C114.052 19.9385 114.657 25.1365 111.906 32.5233H33.7859C36.3166 26.395 36.2616 19.7196 33.7309 12.6611H111.906ZM13.1005 11.5121C13.8707 7.57251 13.7057 4.89139 13.1005 1.11595H93.8616C94.4668 2.04613 96.7774 6.04044 93.8066 11.5121H13.1005ZM16.3464 12.6064H23.2232L18.2719 13.1536L16.3464 12.6064ZM16.1813 14.5215L32.5756 12.7159C35.1613 19.7743 35.2163 26.4497 32.5756 32.5233L16.2363 30.6629C18.822 25.7384 18.822 19.829 16.1813 14.5215ZM15.3011 31.6478C38.7922 34.2195 19.7022 33.6176 98.7029 33.6176L42.6982 35.5874L8.0392 32.0855L15.3011 31.6478ZM1.38246 38.8704C0.997361 36.6817 0.997361 34.7667 1.38246 32.4686L42.0931 36.5723C42.0931 38.1044 42.1481 42.81 43.6335 46.093L1.38246 38.8704ZM13.2656 46.2571C13.4306 45.1081 13.5406 43.4666 13.4856 42.0987C48.6398 48.1175 41.3229 46.7496 50.1252 48.7194V58.3495L13.2656 46.2571ZM16.2363 48.3911L36.6467 55.0665L5.50854 49.5401L16.2363 48.3911ZM5.67358 64.1495L3.52802 63.6023C1.9326 56.5986 2.97788 51.7835 3.41799 50.3062L44.0186 57.5288C50.9504 59.8269 50.4553 59.6627 50.6203 59.6627C50.6753 59.6627 50.5653 59.6627 54.1962 59.3344L74.6066 63.0004C75.8719 69.457 74.8816 79.9078 74.6066 82.5342L5.67358 64.1495ZM79.998 82.4795L84.3991 81.2758L122.689 76.1871C125.44 83.4644 122.304 99.2775 121.809 101.794L45.9991 117.225C53.316 106.117 49.52 89.4832 48.6398 86.0361L71.8559 82.9173C75.3218 83.8474 75.0467 83.7927 75.1567 83.7927C75.2667 83.7927 74.8816 83.9022 79.998 82.4795ZM44.1836 85.4889L18.0518 68.5268L69.1051 82.1512L44.1836 85.4889ZM14.6409 67.6513C45.8891 87.8965 43.8535 86.638 44.0736 86.638C44.1286 86.638 44.6237 86.5833 47.4845 86.2002C48.2547 89.2097 52.2707 106.5 44.6237 117.225L10.0197 83.5191C9.85467 82.3701 8.8094 75.4758 9.74464 66.3928L14.6409 67.6513ZM42.8633 119.577L7.59908 83.5739L8.91943 83.4097C9.02946 84.2304 6.33375 81.3852 44.0186 118.045L42.8633 119.577ZM44.2386 119.577L45.0639 118.483L122.139 102.779L122.634 103.108L44.2386 119.577ZM125 75.8041C125.605 77.2814 127.86 84.2852 123.789 102.451L122.854 101.904C123.404 99.1681 126.485 83.6286 123.789 75.9135L125 75.8041ZM123.074 74.9833L92.1011 79.1418L116.252 72.4664L123.074 74.9833ZM131.822 66.94L75.8169 82.4795C76.147 79.5795 77.0272 69.7853 75.8719 63.2193C77.7424 63.5476 70.9206 64.4778 131.822 53.9175V66.94Z" fill="#B199EC" fill-opacity="0.5"/>
</svg>
