<svg width="93" height="81" viewBox="0 0 93 81" fill="none" xmlns="http://www.w3.org/2000/svg">
<path d="M128.992 38.4421C128.992 38.216 128.879 37.9899 128.654 37.8768C128.542 37.8203 129.329 37.9333 115.036 36.3504L109.127 26.7399C117.006 15.9422 116.499 16.6771 116.499 16.3944C116.105 9.66707 117.174 4.5226 117.062 4.18341C116.781 3.67462 120.72 3.44849 60.6205 0C60.5643 0 5.75476 12.946 5.52966 13.3417C5.41712 13.5678 5.41712 12.5502 5.97985 27.9836C5.97985 28.7185 5.64221 28.4924 19.7104 29.4535C12.5075 35.8982 12.9014 35.4459 12.9014 35.8416L12.9576 44.7738C0.0712241 49.0137 0.690222 48.6745 0.577677 49.1833C-1.05423 60.0376 1.1404 74.1142 2.60349 74.3968L15.4899 76.9408C1.25295 84.9684 2.20958 84.4031 2.09704 84.5727C0.296314 87.8516 0.296314 103.285 6.31748 117.757C6.43003 117.927 6.4863 118.04 6.71139 118.096C6.76766 118.096 102.938 128.103 103.219 127.99C103.5 127.877 101.868 131.156 126.122 80.2762C126.685 79.5978 126.291 78.5237 125.39 78.4106C125.278 78.4106 125.39 78.4106 123.871 78.5237C124.152 74.1142 124.49 67.8391 124.659 63.8252L125.109 63.2599C125.503 62.7511 125.39 61.9597 124.715 61.6205C128.935 58.9069 129.048 58.9634 128.992 58.5112C128.429 52.5187 128.429 45.961 128.992 38.4421ZM126.459 38.7248L115.711 43.9823C115.993 37.4245 115.936 37.8203 115.768 37.5376L126.459 38.7248ZM115.374 16.2814L102.262 34.3153L101.7 34.2587C101.193 28.8881 101.249 25.6092 101.981 20.2952C102.881 20.3517 103.05 20.4082 103.275 20.1821L115.768 6.16205C115.374 9.2148 115.261 13.6809 115.374 16.2814ZM60.6768 1.13065L115.374 4.8618L102.6 19.2211L9.86265 13.2851L60.6768 1.13065ZM7.1053 27.4748L6.59884 14.1897L100.855 20.3517C100.18 25.5527 100.124 28.9447 100.574 34.2022L7.1053 27.4748ZM21.3423 29.6231C108.34 35.8416 102.712 35.6155 102.994 35.2198L108.452 27.7575L114.361 37.4245L14.9272 35.2763L21.3423 29.6231ZM114.811 38.5552C114.698 44.265 114.192 53.3667 113.46 57.6067L14.1956 55.4584L14.0268 36.407L114.811 38.5552ZM53.4739 57.4371L86.9561 58.172L79.5281 61.7901L53.4739 57.4371ZM12.9576 45.961L13.0139 50.7097L3.50385 49.0703L12.9576 45.961ZM3.16622 73.3227C0.127496 64.1644 1.30922 52.5753 1.64686 49.9182L13.0702 51.8403C13.1265 56.0803 12.9014 56.5891 13.6329 56.5891L45.652 57.2675L79.0217 62.8642C78.7403 65.8604 77.5586 80.4458 79.6407 88.4734L3.16622 73.3227ZM2.9974 85.4772L4.85439 85.6468C2.71604 93.3918 5.13576 106.62 8.7372 115.044L6.99275 116.627C2.71603 105.885 1.08413 93.0526 2.9974 85.4772ZM5.97985 85.7033C6.03612 85.7033 42.8384 88.8692 97.1414 93.5614C96.016 97.4621 92.3583 112.669 99.5612 123.806L9.80638 114.591C6.20494 106.281 3.89776 92.996 5.97985 85.7033ZM8.1182 117.135L9.63756 115.722L100.405 125.05L101.7 126.746L8.1182 117.135ZM125.165 79.5413C125.053 79.6544 126.066 77.5626 102.769 126.35L101.362 124.428L123.702 79.8805C123.815 79.5978 123.421 79.7109 125.165 79.5413ZM122.633 79.4848L100.63 123.411C93.4837 112.556 97.3103 97.0664 98.2669 93.6744C101.249 93.9571 101.193 93.9571 101.306 93.9571C102.487 93.9571 100.799 95.7661 123.421 65.4081C123.252 69.7612 122.914 75.6405 122.633 79.4848ZM124.209 62.525C100.349 94.5789 101.812 92.8264 101.306 92.8264L4.40421 84.4596L17.1218 77.2235C83.1858 90.2825 80.2597 89.7171 80.3722 89.7171C80.6536 89.7171 77.7274 91.5262 123.196 62.4685L124.209 62.525ZM80.7661 88.3038C78.6278 80.3327 79.922 65.069 80.1471 62.7511L89.4321 58.2285C115.993 58.7938 114.361 58.9634 114.473 58.2851C115.036 55.5715 115.43 50.314 115.711 45.3391L127.866 39.4032C127.36 46.4697 127.36 52.6318 127.923 58.2851L80.7661 88.3038Z" fill="#B199EC" fill-opacity="0.5"/>
</svg>
