<svg width="82" height="81" viewBox="0 0 82 81" fill="none" xmlns="http://www.w3.org/2000/svg">
<path d="M97.4482 6.08453C97.4482 5.83417 97.1988 5.63389 96.9495 5.63389C94.1568 5.58382 92.0124 5.83417 89.0701 6.1346C88.8707 6.18467 88.9205 6.18467 87.7735 6.93573C87.7735 4.58241 87.9231 3.88142 87.3247 3.88142C81.1908 3.43078 77.6501 3.33064 72.314 3.83134C72.314 0.927242 72.4636 0.426535 71.8153 0.376465C60.495 -0.0741719 54.1117 -0.174313 44.088 0.376465C43.4397 0.426535 43.6391 0.877172 43.6391 3.78127C40.1483 3.38071 38.0538 3.33064 34.8123 3.83134C34.2138 3.93149 34.4133 4.13177 34.4133 9.93997C33.2663 9.58948 30.2742 8.73828 28.0799 8.83842C27.5313 8.88849 28.4789 6.03446 14.4656 57.3069C7.68334 82.142 1.34993 90.0531 1.3998 90.8543C1.99823 99.8169 -0.0962789 110.232 0.00345985 110.532C0.302676 111.533 7.33426 113.136 8.18204 112.285C8.43138 112.034 8.2319 112.034 21.547 82.6927C25.0877 74.8316 29.4264 66.1193 34.4632 42.9866C34.4632 116.49 34.2637 112.134 34.8123 112.285C38.353 113.336 40.5472 113.136 44.2376 112.285C54.8598 113.336 61.0436 113.086 71.7156 112.285C77.7498 113.336 81.2406 113.086 87.3247 112.285C87.9231 112.184 87.7735 113.286 87.7735 93.2577C95.9521 113.336 95.4534 112.234 95.603 112.335C95.9022 112.585 100.091 112.635 103.782 111.083C104.28 110.883 104.53 118.093 97.4482 6.08453ZM2.39719 91.0045C2.94575 90.1533 5.73844 85.3965 9.22929 76.534L1.99823 102.721C2.39719 99.2161 2.59667 95.0101 2.39719 91.0045ZM7.38412 111.483C4.69118 111.634 1.99823 110.582 1.00085 110.131L28.4789 9.8899C30.4238 9.8899 33.0668 10.641 34.1141 10.9414L7.38412 111.483ZM34.4133 38.1298C28.2295 68.723 23.9906 74.3309 9.87759 105.976L34.4133 13.6452V38.1298ZM43.6391 111.383C40.4974 112.084 38.5525 112.285 35.4107 111.383V4.78269C38.3031 4.33205 40.3478 4.43219 43.6391 4.78269V111.383ZM44.6365 111.333V1.32781C54.2115 0.77703 60.495 0.877172 71.3166 1.32781V111.283C61.0436 112.084 54.9096 112.335 44.6365 111.333ZM86.7761 111.333C81.2406 112.034 77.8495 112.285 72.314 111.333V4.78269C77.4506 4.28198 80.9414 4.38212 86.7761 4.78269V111.333ZM87.7735 90.6039V8.13743L88.721 7.48651L95.2539 108.93L87.7735 90.6039ZM96.4009 111.483L89.6686 7.03587C92.1122 6.78552 94.0571 6.58523 96.5007 6.58523L103.034 110.282C101.039 111.133 99.0939 111.433 96.4009 111.483Z" fill="#B199EC" fill-opacity="0.5"/>
</svg>
