<svg width="114" height="81" viewBox="0 0 114 81" fill="none" xmlns="http://www.w3.org/2000/svg">
<path d="M134.497 63.32C134.444 62.8892 135.726 63.5892 112.967 53.3051C127.552 45.2285 126.911 45.767 126.751 45.1747C126.537 44.5824 126.43 43.8825 126.323 43.0748C131.345 42.9133 131.986 43.1286 131.933 42.3748C131.933 42.1056 131.666 41.8364 131.399 41.8364L128.781 41.9441C128.193 36.829 128.193 33.4907 128.781 28.3755L131.452 28.2678C132.04 28.2678 132.147 27.4063 131.612 27.2448L116.867 22.1835L123.332 21.9143C123.652 21.9143 123.866 21.6451 123.866 21.322C123.332 12.8148 126.484 10.1226 125.308 9.47646C125.095 9.42261 75.4103 0 75.3035 0C10.8206 2.69217 14.0795 2.20758 13.9192 2.74602C13.3315 5.33051 13.2781 7.0535 13.9192 10.2303C13.9726 10.5533 13.2781 10.0149 23.4821 16.853C23.3218 23.3681 24.4437 25.9526 26.5807 33.9214C-0.345046 41.0287 0.776862 40.5442 0.723438 41.0826C-0.131348 48.2976 -0.345044 53.3051 0.723438 60.5201C0.830286 61.1124 -0.932708 60.6278 27.4355 64.9891L17.0712 78.6115C16.8041 78.9884 17.0712 79.473 17.4986 79.473H19.0479C19.6356 84.5881 20.0095 89.3264 19.0479 94.8722H17.4452C16.7507 94.8722 16.7507 95.9491 17.4452 95.9491C126.965 95.9491 120.393 96.2183 120.5 95.5184C121.943 86.4727 120.767 80.2268 119.699 74.6809C135.138 73.2272 134.337 73.4425 134.497 72.9041C135.245 69.1889 135.085 67.0352 134.497 63.32ZM131.88 63.0507L87.6979 67.3044L111.739 54.005L131.88 63.0507ZM125.576 45.067L78.0815 71.3965C76.2651 64.9891 76.8528 56.6434 78.1884 51.3129L94.3224 44.1517L125.202 43.1286C125.308 43.8286 125.415 44.4747 125.576 45.067ZM77.6541 50.3437L42.0737 45.8208L91.491 44.2055L77.6541 50.3437ZM127.659 41.9441L30.6409 45.1209C29.7327 39.898 29.893 36.6136 30.6409 31.8215L127.659 28.4294C127.071 33.4907 127.071 36.829 127.659 41.9441ZM128.46 27.2987L30.5875 30.7446L27.6492 19.6529C36.945 25.8987 36.4107 25.5757 36.6778 25.5757L113.822 22.2912L128.46 27.2987ZM122.691 20.8374L37.1052 24.5526C36.0902 21.1067 35.8765 18.7914 35.9299 14.5377L124.24 10.5533C122.904 14.4301 122.53 17.2838 122.691 20.8374ZM75.3035 1.07687L120.34 9.63799L35.5025 13.4609L16.4301 3.3383L75.3035 1.07687ZM14.9342 9.79952C14.4534 7.21503 14.4 5.65357 14.8274 3.66136L34.8614 14.2685C34.808 18.3068 34.9683 20.6759 35.8231 23.745L14.9342 9.79952ZM24.4972 17.553L26.3136 18.7914L29.6259 31.3908C29.1985 34.1368 28.9314 36.452 28.9314 38.9289C25.2451 24.8219 24.4972 23.3142 24.4972 17.553ZM26.7944 34.9444L29.1985 44.2055L3.98231 40.9749L26.7944 34.9444ZM1.68507 59.9817C0.723438 53.2512 0.937134 48.4591 1.68507 41.7826L29.519 45.3362C29.8396 46.5208 29.3587 46.2516 35.182 46.0362C53.453 48.3515 73.0062 50.8821 77.0665 51.3667C75.7309 56.8049 75.1966 65.0968 76.9596 71.5042L1.68507 59.9817ZM43.249 71.558L40.5244 67.0352L59.6502 69.9966L43.249 71.558ZM42.6614 79.9576L34.2738 66.066L39.1354 66.8198L42.4477 72.3118C43.0887 74.9501 43.0353 76.8885 42.6614 79.9576ZM18.5671 78.45L28.6642 65.2045L32.9382 65.8506L40.5244 78.3961H18.5671V78.45ZM119.539 94.9261H20.1698C21.078 89.3264 20.704 84.5881 20.1164 79.5268H41.1655L42.5545 81.7883C42.8216 82.219 40.6312 82.2729 69.5871 79.5268H119.592C120.287 84.4266 120.287 89.8648 119.539 94.9261ZM119.325 78.45H80.8062L118.63 74.8425L119.325 78.45ZM133.482 72.3118L43.5696 80.9268C43.9969 77.6962 44.2106 75.5424 43.623 72.6349L63.9776 70.6965L77.6007 72.7964C77.8678 72.8503 77.3336 73.0656 85.2938 68.6505L133.429 64.0199C133.963 67.1428 134.123 69.1351 133.482 72.3118Z" fill="#B199EC" fill-opacity="0.5"/>
</svg>
