<svg width="68" height="81" viewBox="0 0 68 81" fill="none" xmlns="http://www.w3.org/2000/svg">
<path d="M101.853 59.1119C101.697 58.8525 102.632 59.2676 91.4673 54.8572C91.5193 52.7299 91.1039 46.9706 90.4807 46.5036L78.3298 37.7349C90.325 36.749 90.2211 37.0085 90.2211 36.2821C90.2211 28.3954 90.2211 27.8246 90.2211 27.669C90.1692 27.202 90.8442 27.6171 76.2527 21.8577C76.2527 15.6314 76.3046 15.6314 76.1489 15.4758C65.7115 -1.024 66.4904 0.0137219 66.075 0.0137219C7.55327 0.0137219 11.1362 -0.0900501 10.8766 0.273152C0.750827 16.5135 1.21817 15.5795 1.21817 15.7871V26.0605C1.21817 26.3718 1.42588 26.5794 1.73744 26.5794H6.87822L9.83806 30.0557C4.02223 39.0839 4.33379 38.5131 4.33379 38.7207C4.12608 41.8339 4.69728 43.8574 5.78775 46.5036C5.83968 46.6074 5.8916 46.7111 5.99546 46.763C6.04738 47.6451 6.35895 51.4847 7.034 52.0035C7.08592 52.0554 8.43603 53.0412 10.8247 54.7535L11.9151 56.3619C-0.0800059 58.6449 0.750827 58.4374 0.595046 58.6449C0.127702 59.1119 -0.391568 63.5222 0.439264 67.9325C0.491191 68.2438 0.127703 67.8806 6.56665 72.6542L6.98207 73.4324V79.2956L5.26848 79.4512C4.5415 79.5031 4.07416 80.2295 4.33379 80.904C23.9103 125.941 22.3525 122.828 22.6121 122.932C22.8717 123.087 18.1464 123.762 87.6247 113.54C88.6114 113.385 93.1809 100.102 91.1039 90.918C91 90.6586 91.2077 90.8661 87.5209 87.9605C97.4909 85.1068 97.387 85.3143 97.387 84.7436C97.387 73.173 97.4909 73.9513 97.1793 73.7438C97.1274 73.6919 97.0235 73.64 94.0118 72.2391L94.2714 68.0882C94.2714 68.0363 94.2714 68.0363 94.2714 67.9844C103.255 65.7533 102.943 65.909 102.995 65.442C103.047 63.6779 102.684 60.7204 101.853 59.1119ZM99.6718 59.2157C96.5043 59.9421 93.5444 60.6166 90.6884 61.2911C91 59.9421 91.3116 58.1261 91.4154 55.9987L99.6718 59.2157ZM89.1306 62.9515L88.0921 61.9137C89.3383 55.895 89.4422 51.5365 88.3517 47.5932L89.7018 47.4894C91.2596 54.8054 89.7538 60.876 89.1306 62.9515ZM48.2641 78.206C48.5756 78.3616 69.4503 74.0551 89.7538 69.1259L93.129 68.7108L92.7136 75.4041L31.6474 83.0314V76.5456C31.8551 76.7013 30.9724 76.7531 42.8636 75.1966C44.9927 76.3899 47.0178 77.5314 48.2641 78.206ZM85.34 110.687L24.6373 119.352C26.247 113.955 26.4547 108.974 25.3123 100.984L41.4616 98.649L43.6945 100.309C44.006 100.517 42.9156 100.724 59.1168 96.1066L87.7286 91.9557C89.0268 96.0547 87.5728 105.394 85.34 110.687ZM42.6559 87.5454L36.7363 83.3946L79.5761 77.9984L42.6559 87.5454ZM32.1667 75.2485L27.3375 68.3476L30.9724 68.1401C34.1399 70.1117 37.4632 72.1353 40.9943 74.1588L32.1667 75.2485ZM32.7898 68.0363L40.9423 67.5174C42.7079 68.3476 44.4215 69.1778 46.2389 69.9042C46.2908 70.89 46.4985 74.0032 47.4332 76.5456C42.2405 73.6919 37.3075 70.7863 32.7898 68.0363ZM43.0714 67.3618L68.256 65.7533C61.8689 66.8429 55.0146 67.8806 46.8101 68.9702C45.5639 68.5033 44.3176 67.9325 43.0714 67.3618ZM23.4429 67.5693L24.1699 66.791L87.3132 62.6401L88.1959 63.5222L23.4429 67.5693ZM13.6287 46.8668H14.875L23.3391 66.2203L22.4044 67.258L13.6287 46.8668ZM13.4729 49.1498C12.4344 48.3196 11.4478 47.5413 10.565 46.8668H12.4863L13.4729 49.1498ZM87.1055 61.5505L24.4296 65.7014V51.8997L87.3132 47.6451C88.4036 51.4847 88.2998 55.6874 87.1055 61.5505ZM15.9654 46.8668H18.7176L21.262 51.796C21.4697 52.2111 21.8851 52.0554 23.4429 51.9516V63.7816L15.9654 46.8668ZM88.6633 46.5036L21.989 51.0177L19.86 46.8668C74.7988 46.8668 72.3063 47.1781 72.3063 46.3479C72.3063 37.9424 72.4621 39.6546 71.787 38.3056L76.6681 37.8905L88.6633 46.5036ZM70.9562 38.8764L65.0884 38.8245L70.6965 38.3575L70.9562 38.8764ZM89.1306 35.867L21.3139 41.315C21.6774 38.7207 21.7813 36.749 21.4178 33.9991C21.5216 33.9991 18.7176 34.2585 89.0787 28.3435V35.867H89.1306ZM76.2008 26.0605V23.0511L87.3651 27.4614L21.7293 32.9095L16.277 26.5794C79.7318 26.5794 76.2008 26.8907 76.2008 26.0605ZM11.6036 1.05144H65.7635L74.7468 15.3201H2.67213L11.6036 1.05144ZM2.25671 25.5416V16.3578H75.1103V25.5935H2.25671V25.5416ZM8.22832 26.5794H14.9269L20.2235 32.8057C20.7427 36.0226 20.6908 37.9943 20.3792 40.6924L8.22832 26.5794ZM10.565 30.8859L17.004 38.3575L5.78775 38.2537L10.565 30.8859ZM5.32041 39.2914L17.8867 39.3952L18.8214 40.4329C18.8734 40.4848 20.3273 42.2489 20.4831 42.3008C20.587 42.3527 20.6389 42.3527 20.7427 42.3527C60.1034 39.2914 48.9391 39.6546 71.2677 39.9141V45.8291H6.61858C5.68389 43.5461 5.26848 41.8339 5.32041 39.2914ZM7.76098 51.2771C7.29363 49.9281 7.08592 48.2677 7.034 46.8668H8.9553C10.4612 48.1121 12.2786 49.5649 14.3557 51.1215L17.3155 57.9704C11.8632 54.3384 8.43603 51.796 7.76098 51.2771ZM18.0425 59.7345C21.989 68.9184 21.7293 68.7108 22.1967 68.7108C22.3005 68.7108 23.8064 68.607 25.9354 68.4514L30.6089 75.1447V81.9417L13.2133 56.4657C14.6153 57.4515 16.2251 58.5412 18.0425 59.7345ZM12.5383 57.2959L24.5334 74.8853L2.25671 59.2157L12.5383 57.2959ZM1.37395 67.5174C1.01046 65.3382 0.802754 62.3288 1.2701 59.8383L26.1951 77.272C31.0243 84.3804 30.7647 84.1729 31.232 84.121L35.2823 83.6021L42.3444 88.5313C42.604 88.6869 42.7079 88.635 43.9022 88.3237C44.3176 91.2812 44.2137 95.3802 43.6426 98.9604L1.37395 67.5174ZM40.2673 97.767L22.9237 100.258L8.59181 74.2107L40.2673 97.767ZM22.1967 101.14C22.4044 101.555 22.716 101.399 24.2738 101.191C25.3642 108.819 25.2604 113.437 23.8064 118.521L7.96868 81.4229V75.3522L22.1967 101.14ZM22.8198 121.168L5.32041 80.4371L6.98207 80.2814C6.98207 82.1493 5.16462 77.272 23.3391 119.974L22.8198 121.168ZM23.6506 121.842L24.2738 120.441L85.5477 111.672L86.4304 112.606L23.6506 121.842ZM87.3132 112.088L86.3266 111.05C88.6114 105.55 90.0653 96.2623 88.7671 91.8001L90.1172 91.5926C91.7789 99.7387 88.3517 109.389 87.3132 112.088ZM89.2345 90.7105L66.4904 93.9793L86.1708 88.3237L89.2345 90.7105ZM96.2966 84.3804L44.6292 99.1679C45.2004 95.4321 45.3042 91.1256 44.8369 88.0643L87.6767 77.0126C94.0637 76.2343 93.6483 76.5456 93.7002 75.456L96.2446 74.7815V84.3804H96.2966ZM95.258 74.0032L93.8041 74.3664L93.856 73.3287L95.258 74.0032ZM48.7833 77.1682C47.6409 74.7815 47.3294 71.2532 47.2255 70.008C58.961 68.4514 67.9444 66.9986 76.8759 65.2345C90.273 64.4043 89.546 64.5599 89.7538 64.1967C89.9095 63.9373 90.273 62.7439 90.325 62.3807C93.7002 61.6543 97.2312 60.8241 101.022 59.9421C101.541 61.2392 101.853 63.3666 101.853 65.0269C83.5744 69.6966 68.6195 73.1211 48.7833 77.1682Z" fill="#B199EC" fill-opacity="0.5"/>
</svg>
