<svg width="101" height="81" viewBox="0 0 101 81" fill="none" xmlns="http://www.w3.org/2000/svg">
<path d="M116.954 91.065C74.8373 14.4419 77.6153 19.2896 77.1193 19.339C76.0279 19.3885 71.4144 20.3778 71.2656 20.4273C68.934 15.4312 69.0332 15.3817 68.6363 15.3323C68.4875 15.3323 66.8505 15.5301 66.7513 15.5796L62.485 17.4593C59.8558 3.70772 60.1534 4.10345 59.5085 4.20238C56.036 4.54864 53.9028 4.84544 51.0752 5.83477C48.4956 3.70772 48.6444 3.80665 48.3964 3.80665C46.2632 3.80665 44.527 3.85612 42.8403 4.00452L37.185 2.52053C37.0858 2.52053 31.6289 2.1248 26.4697 2.32267C22.1539 0.393486 22.5507 0.541885 22.4019 0.541885C14.2662 -0.0517092 8.75976 -0.29904 0.475267 0.541885C0.227228 0.591351 0.0287972 0.789216 0.0287972 1.03655C0.0287972 98.7322 -0.169634 92.7963 0.475267 92.8952C8.56133 94.0824 13.7701 94.4287 22.4515 92.8952C22.5507 92.8952 22.6499 92.7963 22.7492 92.7468L29.9423 84.0408C30.7856 93.3404 30.5872 93.2415 31.1329 93.3404C36.044 94.1319 39.6158 94.2308 45.1719 93.3404C45.5191 93.2415 45.3703 93.4394 47.4538 89.5315C47.9499 93.4888 47.8507 93.6372 48.3468 93.6867C52.613 94.2308 55.7879 94.0824 59.7566 92.6974C59.9054 92.5984 60.0542 92.4995 60.1038 92.3016L61.4928 78.1543C61.4928 78.0554 61.6416 79.2426 58.3179 52.0856C66.652 96.1105 66.0567 93.9835 66.652 93.9835C70.6207 93.8351 73.101 93.4394 76.2759 91.9554C76.8216 91.708 77.3673 95.8137 64.1716 26.1159L82.5265 75.7799C82.5761 75.8789 96.9624 93.8846 97.1608 93.934C97.26 93.9835 97.3592 93.9835 97.4585 93.934C100.336 93.1426 101.874 92.4006 103.56 91.0155C103.957 90.6693 103.808 90.6693 101.973 86.7614C112.043 94.3297 111.398 93.8846 111.547 93.934C112.142 94.0824 117.55 92.1532 116.954 91.065ZM1.02095 91.9554V1.48174C8.80937 0.690283 14.2166 0.98708 21.8562 1.48174V91.9554C13.1749 93.4394 7.86682 92.9447 1.02095 91.9554ZM72.8034 21.0703C72.6546 21.1693 72.4561 21.2682 72.2577 21.3671H71.712L71.6624 21.2682L72.8034 21.0703ZM40.0127 4.25185C39.2685 4.35078 38.5244 4.49918 37.7307 4.64758L37.6315 3.65825L40.0127 4.25185ZM22.8484 1.77854L24.287 2.4216C23.0964 2.47107 22.9972 2.47107 22.8484 2.61946V1.77854ZM22.8484 91.0155V4.74651L29.7935 82.5568L22.8484 91.0155ZM31.6786 92.3511L23.6917 3.46039C28.1564 3.16359 31.5297 3.16359 36.5897 3.46039L36.7385 5.09277C36.7385 5.14224 36.6889 4.30131 44.527 92.3511C39.2685 93.1426 35.8456 92.9942 31.6786 92.3511ZM45.4199 91.065L40.2111 32.596L47.2058 87.7507L45.4199 91.065ZM48.8428 92.6479L37.7803 5.58743C41.5009 4.89491 44.0309 4.74651 47.9499 4.69704L59.0124 91.7575C55.7383 92.8952 52.9107 93.1426 48.8428 92.6479ZM60.4015 78.0554L59.4589 87.7013L49.0413 5.38957L49.9838 6.18103C49.3389 6.42836 49.2397 4.54864 55.3911 37.1469L60.4015 78.0554ZM75.4326 91.1144C72.6546 92.3511 70.4222 92.6974 66.9497 92.8458L50.6783 6.97249C53.6548 5.88423 55.7383 5.53797 59.1116 5.1917L75.4326 91.1144ZM83.3699 75.2358L63.5763 21.8123L95.1269 89.9273L83.3699 75.2358ZM102.618 90.4219C101.229 91.5102 99.8892 92.1532 97.6073 92.7963L63.3283 18.8444C65.1142 17.855 66.3048 17.3109 68.3387 16.47L102.618 90.4219ZM101.08 84.7828L72.7042 23.4942L110.208 91.6091L101.08 84.7828ZM111.994 92.8458L73.101 22.1091C74.7381 21.2187 75.1846 21.0703 76.9704 20.4273L115.913 91.2134C115.02 91.807 113.482 92.45 111.994 92.8458Z" fill="#B199EC" fill-opacity="0.5"/>
</svg>
