<svg width="121" height="81" viewBox="0 0 121 81" fill="none" xmlns="http://www.w3.org/2000/svg">
<path d="M151.575 78.2211C151.687 74.2049 150.286 71.6947 150.174 71.5274C150.118 71.4158 150.51 71.8063 143.171 64.9452C143.171 64.8894 143.171 64.8894 143.171 64.8894C140.649 59.6459 117.678 7.7135 117.006 7.60193C47.8119 -0.597927 51.6778 -0.374802 51.4537 0.294574L46.075 16.3596C15.5401 19.6507 17.1088 19.316 16.8847 19.7623C16.8287 19.8738 15.2599 23.0534 16.4365 30.5839C16.4365 30.6954 16.3244 30.3607 18.2294 34.7675C0.300591 38.449 -0.147629 38.2817 0.0204535 39.0626C0.804838 42.6326 0.580728 47.5972 0.0204535 49.5495C-0.0916014 49.9958 62.8833 127.811 62.9393 127.867C63.0514 127.978 63.2755 128.034 63.4436 127.978L155.161 94.0073C155.553 93.8399 155.273 94.4535 157.962 83.1299C158.13 82.5721 158.018 82.6836 151.575 78.2211ZM151.014 82.1816C151.239 81.2333 151.407 80.3966 151.463 79.5599L156.225 82.851L65.4605 114.144L53.1905 99.8085C154.712 81.9027 150.23 82.6837 150.342 82.6279C150.622 82.5721 150.902 82.5163 151.014 82.1816ZM150.006 81.5122L48.2601 99.4738C48.2601 97.0195 48.092 91.3855 46.5233 86.421L127.595 75.3763C142.274 75.7668 141.434 75.8783 141.658 75.4321C142.05 74.7069 142.33 73.9818 142.554 73.3124L149.278 72.4199C149.838 73.424 151.127 76.8266 150.006 81.5122ZM140.874 74.5954L34.9816 71.7505C34.5894 70.356 33.3008 65.5588 32.6845 60.5384L142.162 65.6145C142.386 66.6744 143.003 70.2444 140.874 74.5954ZM40.8645 73.0335L120.704 75.209L46.1871 85.3612L40.8645 73.0335ZM39.6319 72.9777L45.2907 86.1421C46.5793 90.0468 46.9715 94.4535 47.1396 97.4099L36.3263 72.9219L39.6319 72.9777ZM143.507 66.786L148.437 71.4158L143.003 72.141C143.619 69.9655 143.619 68.0689 143.507 66.786ZM52.3501 1.07551L116.502 8.606L141.714 64.3874L32.8526 59.367L52.3501 1.07551ZM45.6828 17.531L33.0767 55.0161L18.1734 20.4316L45.6828 17.531ZM17.501 30.3607C16.8287 25.954 17.1649 23.1649 17.445 21.6588L32.5164 56.6338C31.3958 59.9249 31.4519 59.8133 31.4519 59.9806C31.5639 60.9289 31.676 61.933 31.8441 62.8813L17.501 30.3607ZM18.6776 35.7715L32.7965 67.7342C33.4128 70.5233 33.9731 72.4199 33.9731 72.4757C34.0291 72.6988 34.2532 72.8661 34.4774 72.8661H35.0376L40.1922 84.5244L1.64525 39.3415L18.6776 35.7715ZM62.9393 126.082L1.19703 49.5495C1.64525 47.5414 1.81333 43.9156 1.47717 40.8476L41.817 88.0944C47.6438 101.315 47.1956 100.311 47.2516 100.422C47.5318 100.868 47.5318 100.757 51.9579 99.9759L64.7322 114.925L62.9393 126.082ZM154.544 93.0032L64.0038 126.528L65.7407 115.148L156.617 83.7993L154.544 93.0032Z" fill="#B199EC" fill-opacity="0.5"/>
</svg>
