<svg width="110" height="80" viewBox="0 0 110 80" fill="none" xmlns="http://www.w3.org/2000/svg">
<path d="M144.123 43.8072C144.026 43.3221 146.064 43.8072 118.219 39.053C121.178 34.6383 120.936 34.9779 120.984 34.8808C122.197 30.8057 122.731 24.9357 121.712 20.1814L125.787 18.726C126.757 18.3864 126.757 9.99367 125.641 9.89665L116.716 9.55706C116.521 7.27695 116.521 5.48197 116.764 2.91078C120.354 0.533643 122.197 0 60.9295 0C60.9295 0 6.74424 14.0203 6.59871 14.1658C6.21063 14.5539 6.0651 18.8716 6.11361 19.8418C2.23284 20.521 1.94178 20.424 1.89328 20.9576C1.89328 21.0061 3.05751 27.2643 1.89328 32.6978C1.84477 32.9888 2.0388 33.2314 2.28135 33.2799L17.1253 35.3175L5.91957 40.0717C5.43448 40.2658 5.58001 40.9935 6.0651 40.9935L8.53909 41.139C9.0727 42.7399 11.3041 50.599 9.55779 58.2641C-0.338167 61.9026 0.00140045 61.66 0.00140045 62.1451C0.00140045 62.3392 0.146929 62.5332 0.340968 62.5817L0.535006 62.6303C1.89328 68.3548 1.84477 74.2734 0.486497 79.4157C0.437987 79.6583 0.583516 79.9009 0.826064 79.9979C84.2626 106.923 81.5946 106.146 81.8856 105.952C81.9341 105.904 144.075 58.8948 144.123 58.6037C145.433 52.5881 145.142 48.9011 144.123 43.8072ZM120.111 34.5412L97.4087 68.5488C100.416 58.9918 99.4461 53.4613 96.293 45.8448L117.734 21.6853L120.839 20.5695C121.761 25.0327 121.275 30.6117 120.111 34.5412ZM125.302 17.9013L62.8213 40.4113C63.4035 36.4333 63.4035 33.0859 62.7728 29.981L71.9412 27.2158L94.3526 27.9435C94.6436 27.9435 93.6249 28.6712 110.361 15.5242L125.302 11.0124C125.496 12.2253 125.884 15.2816 125.302 17.9013ZM7.32635 14.9905L93.7705 16.737C93.0913 20.2784 93.0913 23.3347 93.7705 26.9247L7.32635 24.0624C6.98678 20.7636 6.88977 18.629 7.32635 14.9905ZM115.794 3.58996C115.6 5.9671 115.648 7.71356 115.842 9.99367L94.6922 26.5851C94.013 22.607 94.2071 19.7448 94.7407 16.7855C96.293 16.834 93.625 18.2894 115.794 3.58996ZM68.9336 27.1188L62.1907 29.1563L41.7197 26.197L68.9336 27.1188ZM116.764 10.5273L122.779 10.7699L112.495 13.8747C116.958 10.3818 116.716 10.5758 116.764 10.5273ZM61.075 0.97026L116.23 2.13457L95.5653 15.8152L10.431 14.1173L61.075 0.97026ZM6.11361 20.8606C6.11361 20.9091 6.11361 21.0061 6.11361 21.0546L5.48299 20.9576L6.11361 20.8606ZM2.96049 32.4067C3.59111 28.9623 3.44558 24.4991 2.96049 21.5398L6.21063 22.0249C6.25914 22.8011 6.35616 23.6743 6.45318 24.5961C6.50169 25.2268 5.33746 24.9842 32.8909 25.9059L61.8512 30.078C62.4818 33.1829 62.4818 36.5303 61.8512 40.6054L2.96049 32.4067ZM8.24803 40.1688L19.0172 35.6085L62.1422 41.6241C62.3363 41.6727 58.601 42.934 115.794 22.316L95.4683 45.2141L8.24803 40.1688ZM9.6063 41.236L95.3713 46.1844C98.8155 54.4801 99.5916 59.9621 95.3713 71.3626L9.6063 61.466C12.8564 53.1217 10.431 43.8557 9.6063 41.236ZM9.26674 59.4284C9.0727 60.0591 8.87866 60.7383 8.5876 61.3689L6.16212 61.0778C5.5315 60.9808 5.43448 61.9511 6.0651 62.0481C96.2445 72.4299 95.8079 72.5269 96.0504 72.2843C96.0989 72.2358 96.1474 72.1873 117.637 39.9747L142.377 44.1953L81.5461 86.2561L2.0388 62.0966L9.26674 59.4284ZM81.255 104.934L1.60222 79.2217C2.86347 74.2249 2.91198 68.5003 1.69924 62.9699L81.255 87.1293C82.1767 94.1637 82.5162 98.2388 81.255 104.934ZM143.202 58.2641L82.3222 104.448C83.4379 97.9962 83.1469 93.3875 82.1282 87.0323L143.299 44.729C144.172 49.3377 144.366 52.7336 143.202 58.2641Z" fill="#B199EC" fill-opacity="0.5"/>
</svg>
