<svg width="413" height="402" viewBox="0 0 413 402" fill="none" xmlns="http://www.w3.org/2000/svg">
<g clip-path="url(#clip0_728_1523)">
<path d="M297.511 52.4202H296.043" stroke="#263238" stroke-linejoin="round"/>
<path d="M293.148 52.4202H79.4119" stroke="#263238" stroke-linejoin="round" stroke-dasharray="6.93 6.93"/>
<path d="M77.9436 52.4202H76.4753" stroke="#263238" stroke-linejoin="round"/>
<path d="M299.776 316.697V315.233" stroke="#263238" stroke-linejoin="round"/>
<path d="M299.776 312.304V57.6079" stroke="#263238" stroke-linejoin="round" stroke-dasharray="6.96 6.96"/>
<path d="M299.776 56.1436V54.6794" stroke="#263238" stroke-linejoin="round"/>
<path d="M302 50.2029H297.511V54.6794H302V50.2029Z" stroke="#263238" stroke-miterlimit="10" stroke-linejoin="round"/>
<path d="M337.448 65.8914L304.685 52.1692L318.444 84.8011L322.262 73.7565L329.561 81.0777L333.672 76.9778L326.373 69.6566L337.448 65.8914Z" stroke="#263238" stroke-miterlimit="10" stroke-linecap="round" stroke-linejoin="round"/>
<path opacity="0.3" d="M259.42 52.0019L324.779 331.298C324.779 331.298 103.827 413.379 114.23 387.985C114.23 387.985 61.6248 138.476 66.0715 137.556C70.5182 136.636 259.42 52.0019 259.42 52.0019Z" fill="black" fill-opacity="0.7"/>
<path d="M313.955 326.319L123.418 386.688L76.7688 144.25L74.126 130.444L243.857 48.5295C247.255 46.8979 251.575 48.9897 252.54 52.7968L256.064 66.4771L319.786 315.567C321.003 320.295 318.486 324.897 313.955 326.319Z" fill="white"/>
<path d="M256.064 66.4771L78.1112 147.68L74.084 130.444L243.857 48.5295C247.255 46.8979 251.575 48.9897 252.54 52.7968L256.064 66.4771Z" fill="#263238"/>
<path d="M247.129 60.4527C247.129 62.921 245.367 64.8036 243.185 64.6781C241.004 64.5108 239.242 62.3771 239.242 59.9088C239.242 57.4405 241.004 55.5579 243.185 55.6834C245.367 55.8508 247.129 57.9844 247.129 60.4527Z" fill="#92E3A9" stroke="#263238" stroke-miterlimit="10" stroke-linecap="round" stroke-linejoin="round"/>
<path d="M236.977 65.473C236.977 67.774 235.341 69.5311 233.327 69.3637C231.314 69.2382 229.677 67.2301 229.677 64.9291C229.677 62.6282 231.314 60.8711 233.327 61.0384C235.341 61.2057 236.977 63.172 236.977 65.473Z" fill="#92E3A9" stroke="#263238" stroke-miterlimit="10" stroke-linecap="round" stroke-linejoin="round"/>
<path d="M227.37 69.824C227.37 71.9576 225.818 73.631 223.93 73.4637C222.043 73.3382 220.49 71.4974 220.49 69.322C220.49 67.1465 222.043 65.5149 223.93 65.6822C225.86 65.8078 227.37 67.6485 227.37 69.824Z" fill="#92E3A9" stroke="#263238" stroke-miterlimit="10" stroke-linecap="round" stroke-linejoin="round"/>
<path opacity="0.3" d="M313.955 326.319L123.418 386.688L76.7688 144.25L74.126 130.444L243.857 48.5295C247.255 46.8979 251.575 48.9897 252.54 52.7968L256.064 66.4771L319.786 315.567C321.003 320.295 318.486 324.897 313.955 326.319Z" fill="black" fill-opacity="0.7"/>
<path d="M313.955 326.319L123.418 386.688L76.7688 144.25L74.126 130.444L243.857 48.5295C247.255 46.8979 251.575 48.9897 252.54 52.7968L256.064 66.4771L319.787 315.567C321.003 320.295 318.486 324.897 313.955 326.319Z" stroke="#263238" stroke-miterlimit="10" stroke-linecap="round" stroke-linejoin="round"/>
<path d="M302.671 314.396L114.692 388.027L68.6724 148.81L66.0715 135.213L233.537 41.4593C236.893 39.5767 241.13 41.3756 242.095 45.099L245.535 58.5283L308.418 303.184C309.635 307.828 307.159 312.639 302.671 314.396Z" fill="white" stroke="#263238" stroke-miterlimit="10" stroke-linecap="round" stroke-linejoin="round"/>
<path opacity="0.4" d="M266.468 312.848L145.4 362.591" stroke="black" stroke-width="2" stroke-miterlimit="10" stroke-linecap="round" stroke-linejoin="round"/>
<path opacity="0.4" d="M282.828 297.703L128.997 362.591" stroke="black" stroke-width="2" stroke-miterlimit="10" stroke-linecap="round" stroke-linejoin="round"/>
<path opacity="0.3" d="M267.726 232.44L255.309 179.81L221.665 195.833L233.956 248.295L267.726 232.44Z" fill="black" fill-opacity="0.7"/>
<path opacity="0.3" d="M207.947 137.347L219.651 187.215L253.254 170.983L241.214 119.901L207.947 137.347Z" fill="black" fill-opacity="0.7"/>
<path d="M240.123 115.383L230.307 73.6728L197.082 90.9928L206.94 132.954L240.123 115.383Z" fill="#2FC7D6"/>
<path opacity="0.3" d="M235.173 253.483L246.499 301.761L280.563 286.91L269.111 238.38L235.173 253.483Z" fill="black" fill-opacity="0.7"/>
<path d="M52.3958 131.03L104.708 402C121.446 382.923 241.088 295.528 241.088 295.528C250.401 288.792 254.764 277.162 252.247 265.992L196.83 29.1595C194.775 20.123 183.784 16.6088 176.862 22.7587C176.862 22.7587 65.6101 92.4571 52.3958 131.03Z" fill="#B199EC"/>
<g opacity="0.7">
<path d="M242.766 274.485C241.172 274.485 239.746 273.397 239.368 271.807C238.403 267.916 237.48 264.067 236.599 260.177C236.138 258.294 237.313 256.412 239.2 255.993C241.088 255.533 242.976 256.704 243.395 258.587C244.318 262.436 245.241 266.327 246.164 270.175C246.625 272.058 245.451 273.941 243.563 274.401C243.311 274.443 243.018 274.485 242.766 274.485Z" fill="white"/>
</g>
<g opacity="0.7">
<path d="M235.592 243.359C233.998 243.359 232.53 242.271 232.195 240.639L184.203 30.4983C184.203 30.4565 184.162 30.2891 183.952 30.2054C183.742 30.1218 183.616 30.2054 183.574 30.2473C171.241 38.4471 129.542 66.3097 110.245 81.7471C97.9538 91.955 86.6692 103.711 73.7066 119.776C72.49 121.282 70.2666 121.533 68.7564 120.32C67.2462 119.106 66.9945 116.889 68.2111 115.383C81.4673 98.9416 93.0456 86.8929 105.757 76.3085C124.802 61.0802 163.774 34.9747 179.631 24.4321C181.686 23.0934 184.245 22.8005 186.511 23.7209C188.776 24.6413 190.454 26.6076 190.999 28.9922L238.99 239.091C239.41 240.974 238.235 242.857 236.348 243.275C236.096 243.317 235.844 243.359 235.592 243.359Z" fill="white"/>
</g>
<path d="M85.1169 383.509C83.8584 372.297 82.1804 356.734 80.7121 341.882C78.5727 320.211 76.9366 300.172 77.8176 297.662C79.8731 291.888 79.4536 287.746 79.4536 287.746C83.8584 287.244 85.872 281.22 85.872 281.22L83.4808 260.051C83.4808 260.051 84.9491 219.554 83.1452 208.008C81.2994 196.503 73.9162 188.763 73.7484 185.709C73.5806 182.655 79.5375 169.184 81.4672 165.335C83.3969 161.486 82.3062 139.773 79.16 132.996C78.2371 131.03 76.9786 129.9 75.5942 129.314C72.2801 127.85 68.5046 129.482 68.5046 129.482C67.6237 142.2 63.8901 150.692 60.4082 156.717C57.3458 161.988 54.5352 165.419 54.0318 168.222C52.9411 174.204 39.7267 189.6 37.2097 197.59C34.7347 205.581 33.8957 232.691 29.9943 243.359C28.1485 248.379 21.5203 264.402 19.7584 313.266C18.7516 341.338 14.3888 366.816 10.865 383.383H85.1169V383.509Z" fill="white"/>
<path d="M13.9272 367.904C16.5701 352.676 19.0452 333.724 19.8003 313.35C21.5622 264.486 28.1903 248.463 30.0361 243.442C33.9375 232.774 34.7765 205.623 37.2516 197.674C39.7266 189.683 52.9829 174.288 54.0317 168.305C55.1224 162.323 66.9104 153.412 68.5045 129.565C68.5045 129.565 76.0136 126.302 79.1599 133.08C82.3061 139.857 83.4388 161.528 81.4671 165.419C79.5374 169.268 73.5805 182.739 73.7483 185.793C73.9161 188.847 81.2993 196.586 83.1451 208.091C84.949 219.596 83.4807 260.135 83.4807 260.135L85.8719 281.304C85.8719 281.304 83.9002 287.328 79.4955 287.83C79.4955 287.83 79.915 291.972 77.8594 297.745C76.475 301.678 81.1735 347.655 84.3197 376.48" stroke="#263238" stroke-miterlimit="10" stroke-linecap="round" stroke-linejoin="round"/>
<path d="M73.7903 185.793C73.7903 185.793 71.4411 192.277 66.9524 192.277" stroke="#263238" stroke-miterlimit="10" stroke-linecap="round" stroke-linejoin="round"/>
<path d="M72.2799 188.679C72.2799 188.679 73.6643 196.544 68.7561 201.565" stroke="#263238" stroke-miterlimit="10" stroke-linecap="round" stroke-linejoin="round"/>
<path d="M55.7097 164.415C55.7097 164.415 61.2052 163.327 64.6451 165.419" stroke="#263238" stroke-miterlimit="10" stroke-linecap="round" stroke-linejoin="round"/>
<path d="M51.9341 269.506C51.9341 269.506 69.7629 275.07 72.5736 277.915C75.3843 280.76 79.4954 287.746 79.4954 287.746" stroke="#263238" stroke-miterlimit="10" stroke-linecap="round" stroke-linejoin="round"/>
<path d="M65.8196 266.787C68.4205 269.715 74.2935 273.062 77.0622 275.698C79.831 278.292 81.2153 284.107 81.2153 284.107" stroke="#263238" stroke-miterlimit="10" stroke-linecap="round" stroke-linejoin="round"/>
<path d="M77.5657 265.406C77.5657 265.406 81.6768 263.356 83.8163 256.955" stroke="#263238" stroke-miterlimit="10" stroke-linecap="round" stroke-linejoin="round"/>
<path d="M72.7414 289.085C68.8401 291.051 68.7142 313.392 70.8117 338.661" stroke="#263238" stroke-miterlimit="10" stroke-linecap="round" stroke-linejoin="round"/>
<path d="M74.7971 293.729C74.8391 296.197 78.1531 315.065 79.7053 330.879" stroke="#263238" stroke-miterlimit="10" stroke-linecap="round" stroke-linejoin="round"/>
<path d="M260.007 141.698C260.007 141.698 252.708 154.96 252.792 157.972C252.876 160.984 266.719 181.818 267.097 184.203C267.475 186.546 277.501 191.148 281.192 193.532C284.842 195.959 289.498 178.388 288.869 165.753C288.282 153.161 260.007 141.698 260.007 141.698Z" fill="white"/>
<path d="M260.007 141.698C260.007 141.698 252.708 154.96 252.792 157.972C252.876 160.984 266.719 181.818 267.097 184.203C267.475 186.546 277.501 191.148 281.192 193.532C284.842 195.959 289.498 178.388 288.869 165.753C288.282 153.161 260.007 141.698 260.007 141.698Z" stroke="#263238" stroke-miterlimit="10" stroke-linecap="round" stroke-linejoin="round"/>
<path d="M265 166.381C265 166.381 272.173 163.118 279.934 171.778" stroke="#263238" stroke-miterlimit="10" stroke-linecap="round" stroke-linejoin="round"/>
<path d="M412.79 289.88L369.036 339.121C369.036 339.121 361.863 330.21 352.843 319.291C340.048 303.77 323.646 284.274 318.99 280.718C313.326 276.367 276.452 251.224 266.258 238.757C264.79 236.958 263.531 235.368 262.399 233.946C255.687 225.286 254.344 221.604 250.988 209.555C247.087 195.457 242.808 187.675 241.717 182.446C241.675 182.278 241.633 182.111 241.633 181.944C240.501 176.17 238.529 158.767 235.97 154.332C233.327 149.772 243.815 147.555 247.8 150.107C251.785 152.617 261.769 164.958 261.14 175.585C261.14 175.585 268.985 194.871 272.97 194.327C272.97 194.327 272.467 175.041 269.782 170.313C268.188 167.51 267.81 164.917 267.726 163.285C267.684 162.155 267.768 161.486 267.768 161.486C267.768 161.486 255.435 148.224 251.827 139.271C248.219 130.36 241.088 116.596 239.746 103.209C239.746 103.209 238.151 93.5866 243.982 89.2357C246.206 87.5623 248.261 87.1021 250.359 89.9888C251.198 91.202 252.079 92.9591 252.96 95.4274C261.727 120.069 272.509 129.482 272.509 129.482C272.509 129.482 279.682 131.323 284.884 133.749C285.639 134.084 286.478 134.628 287.401 135.255C289.708 136.803 292.477 139.02 295.372 141.196C299.525 144.333 303.845 147.387 307.118 148.099C318.444 150.567 323.856 156.298 323.856 156.298C323.856 156.298 331.365 154.709 335.35 161.695C339.21 168.431 341.349 169.811 341.349 169.811C341.391 169.811 344.202 169.853 346.467 174.79C350.494 183.534 362.576 230.18 363.163 232.063C368.029 247.5 382.46 264.026 398.989 278.543C403.477 282.475 408.134 286.282 412.79 289.88Z" fill="white"/>
<path d="M369.036 339.121C369.036 339.121 326.918 286.784 318.989 280.718C313.326 276.367 276.452 251.224 266.258 238.757C256.064 226.29 254.89 223.612 250.988 209.514C247.087 195.415 242.808 187.633 241.717 182.404C240.626 177.175 238.613 158.85 235.97 154.29C233.327 149.73 243.815 147.513 247.8 150.065C251.785 152.617 261.769 164.958 261.14 175.543C261.14 175.543 268.985 194.829 272.97 194.285C272.97 194.285 272.467 174.999 269.782 170.272C267.139 165.544 267.81 161.444 267.81 161.444C267.81 161.444 255.477 148.182 251.869 139.229C248.261 130.277 241.13 116.554 239.787 103.167C239.787 103.167 238.193 93.5448 244.024 89.1939C247.171 86.8511 249.981 86.8929 252.96 95.3437C261.727 119.985 272.509 129.44 272.509 129.44C272.509 129.44 279.682 131.281 284.884 133.707C290.086 136.134 300.699 146.676 307.118 148.057C318.444 150.525 323.856 156.257 323.856 156.257C323.856 156.257 331.365 154.667 335.35 161.653C339.21 168.431 341.307 169.77 341.307 169.77C341.307 169.77 344.118 169.728 346.425 174.748C350.452 183.492 362.534 230.139 363.121 232.021C369.288 251.642 391.018 273.104 412.748 289.838" stroke="#263238" stroke-miterlimit="10" stroke-linecap="round" stroke-linejoin="round"/>
<path d="M272.551 129.524C272.551 129.524 283.248 144.292 290.757 147.136" stroke="#263238" stroke-miterlimit="10" stroke-linecap="round" stroke-linejoin="round"/>
<path d="M290.128 150.4C297.343 152.701 302 154.081 303.342 159.52C304.684 164.958 308.544 177.216 310.39 182.027C312.235 186.839 316.724 199.055 316.724 199.055" stroke="#263238" stroke-miterlimit="10" stroke-linecap="round" stroke-linejoin="round"/>
<path d="M272.97 194.327C272.97 194.327 277.878 200.686 276.662 206.962" stroke="#263238" stroke-miterlimit="10" stroke-linecap="round" stroke-linejoin="round"/>
<path d="M270.914 193.323C270.914 193.323 270.705 200.268 272.467 204.912" stroke="#263238" stroke-miterlimit="10" stroke-linecap="round" stroke-linejoin="round"/>
<path d="M267.81 161.486C267.81 161.486 271.754 163.62 272.677 166.088" stroke="#263238" stroke-miterlimit="10" stroke-linecap="round" stroke-linejoin="round"/>
<path d="M270.663 172.656C270.663 172.656 272.425 176.463 274.313 178.555C276.2 180.647 277.123 187.424 277.123 187.424" stroke="#263238" stroke-miterlimit="10" stroke-linecap="round" stroke-linejoin="round"/>
<path d="M241.717 182.446C241.717 182.446 245.954 177.677 250.359 177.049" stroke="#263238" stroke-miterlimit="10" stroke-linecap="round" stroke-linejoin="round"/>
<path d="M261.811 128.561C261.811 128.561 266.761 124.88 270.495 127.432" stroke="#263238" stroke-miterlimit="10" stroke-linecap="round" stroke-linejoin="round"/>
<path d="M344.118 181.818C345.124 184.538 350.159 208.886 351.417 212.358" stroke="#263238" stroke-miterlimit="10" stroke-linecap="round" stroke-linejoin="round"/>
<path d="M309.509 153.872C309.509 153.872 314.165 150.567 319.996 154.625C325.827 158.683 325.827 160.649 329.435 159.687C333.001 158.725 335.392 161.653 335.392 161.653" stroke="#263238" stroke-miterlimit="10" stroke-linecap="round" stroke-linejoin="round"/>
<path d="M328.26 171.025C329.183 176.505 333.127 203.238 335.056 209.932" stroke="#263238" stroke-miterlimit="10" stroke-linecap="round" stroke-linejoin="round"/>
</g>
<defs>
<clipPath id="clip0_728_1523">
<rect width="413" height="402" fill="white"/>
</clipPath>
</defs>
</svg>
