<svg width="159" height="121" viewBox="0 0 159 121" fill="none" xmlns="http://www.w3.org/2000/svg">
<path d="M140.4 99.2773C139.015 99.2773 137.815 100.175 137.815 101.372V106.758C137.815 107.88 138.923 108.853 140.4 108.853C141.785 108.853 142.985 107.955 142.985 106.758V101.372C142.985 100.175 141.785 99.2773 140.4 99.2773Z" fill="#3E3E51"/>
<path d="M142.985 20.7227C142.985 19.6005 141.877 18.6279 140.4 18.6279C139.015 18.6279 137.815 19.5257 137.815 20.7227V31.1217C137.815 32.2439 138.923 33.2165 140.4 33.2165C141.785 33.2165 142.985 32.3187 142.985 31.1217V20.7227Z" fill="#3E3E51"/>
<path d="M19.6617 94.0396H28.7079C30.0925 94.0396 31.2925 93.1416 31.2925 91.9446C31.2925 90.7476 30.1848 89.8496 28.7079 89.8496H19.6617C18.2771 89.8496 17.0771 90.7476 17.0771 91.9446C17.0771 93.1416 18.2771 94.0396 19.6617 94.0396Z" fill="#3E3E51"/>
<path d="M142.985 78.4044C142.985 77.2822 141.877 76.3096 140.4 76.3096C139.015 76.3096 137.815 77.2074 137.815 78.4044V93.2924C137.815 94.4144 138.923 95.3874 140.4 95.3874C141.785 95.3874 142.985 94.4894 142.985 93.2924V78.4044Z" fill="#3E3E51"/>
<path d="M19.6617 101.372H28.7079C30.0925 101.372 31.2925 100.474 31.2925 99.2766C31.2925 98.1546 30.1848 97.1816 28.7079 97.1816H19.6617C18.2771 97.1816 17.0771 98.0796 17.0771 99.2766C17.0771 100.399 18.2771 101.372 19.6617 101.372Z" fill="#3E3E51"/>
<path d="M62.4921 29.4766H53.9075C50.1229 29.4766 46.9844 32.0203 46.9844 35.0876V66.8831C46.9844 69.9504 50.1229 72.4941 53.9075 72.4941H62.4921C66.2767 72.4941 69.4152 69.9504 69.4152 66.8831V35.1624C69.4152 32.0203 66.2767 29.4766 62.4921 29.4766ZM64.2459 66.9579C64.2459 67.7808 63.4152 68.3794 62.4921 68.3794H53.9075C52.8921 68.3794 52.1536 67.706 52.1536 66.9579V35.1624C52.1536 34.3394 52.9844 33.7409 53.9075 33.7409H62.4921C63.5075 33.7409 64.2459 34.4143 64.2459 35.1624V66.9579Z" fill="#3E3E51"/>
<path d="M155.354 115.81H151.477C151.662 115.362 151.754 114.913 151.754 114.389V36.7332C151.754 35.611 150.646 34.6384 149.169 34.6384C147.692 34.6384 146.585 35.5362 146.585 36.7332V114.389C146.585 115.137 145.846 115.81 144.831 115.81H135.969C135.046 115.81 134.215 115.212 134.215 114.389V12.7182C134.215 11.9701 134.954 11.2968 135.969 11.2968H144.831C145.754 11.2968 146.585 11.8953 146.585 12.7182V24.3142C146.585 25.4364 147.692 26.409 149.169 26.409C150.646 26.409 151.754 25.5112 151.754 24.3142V12.7182C151.754 9.6509 148.615 7.1072 144.831 7.1072H135.969C135.323 7.1072 134.769 7.182 134.215 7.3317V5.611C134.215 2.5436 131.169 0 127.292 0H103.015C99.231 0 96.092 2.5436 96.092 5.611V12.7182C95.538 12.5686 94.985 12.4938 94.338 12.4938H81.2308C80.5846 12.4938 80.0308 12.5686 79.4769 12.7182C79.4769 9.6509 76.3385 7.182 72.5538 7.182H43.8462C40.0615 7.182 36.9231 9.7257 36.9231 12.793V23.4913C36.3692 23.3416 35.8154 23.2668 35.1692 23.2668H13.1077C9.3231 23.2668 6.1846 25.7357 6.1846 28.8778V114.464C6.1846 114.988 6.2769 115.436 6.4615 115.885H2.5846C1.2 115.885 0 116.783 0 117.98C0 119.102 1.1077 120.075 2.5846 120.075H155.538C156.923 120.075 158.123 119.177 158.123 117.98C157.938 116.708 156.831 115.81 155.354 115.81ZM36.9231 114.389C36.9231 115.137 36.1846 115.81 35.1692 115.81H13.1077C12.1846 115.81 11.3538 115.212 11.3538 114.389V67.7806H36.9231V114.389ZM36.9231 63.6658H11.3538V60.6733H36.9231V63.6658ZM36.9231 56.4838H11.3538V53.9402H36.9231V56.4838ZM36.9231 49.7506H11.3538V46.7581H36.9231V49.7506ZM36.9231 42.6434H11.3538V28.803C11.3538 28.0549 12.0923 27.3815 13.1077 27.3815H35.1692C36.0923 27.3815 36.9231 27.9801 36.9231 28.803V42.6434ZM74.3077 114.389C74.3077 115.137 73.5692 115.81 72.5538 115.81H43.8462C42.9231 115.81 42.0923 115.212 42.0923 114.389V12.7182C42.0923 11.9701 42.8308 11.2968 43.8462 11.2968H72.5538C73.4769 11.2968 74.3077 11.8953 74.3077 12.7182V114.389ZM96.185 31.8703H86.954C85.569 31.8703 84.369 32.7681 84.369 33.9651C84.369 35.0873 85.477 36.0599 86.954 36.0599H96.185V94.04H87.785C86.4 94.04 85.2 94.938 85.2 96.135C85.2 97.332 86.308 98.229 87.785 98.229H96.185V114.539C96.185 115.287 95.446 115.96 94.431 115.96H81.2308C80.3077 115.96 79.4769 115.362 79.4769 114.539V18.1047C79.4769 17.3566 80.2154 16.6833 81.2308 16.6833H94.431C95.354 16.6833 96.185 17.2818 96.185 18.1047V31.8703ZM129.046 114.389C129.046 115.137 128.308 115.81 127.292 115.81H103.015C102.092 115.81 101.262 115.212 101.262 114.389V95.387H129.046V114.389ZM129.046 91.197H101.262V88.504H129.046V91.197ZM129.046 84.389H101.262V61.4214H129.046V84.389ZM129.046 57.2319H101.262V54.5387H129.046V57.2319ZM129.046 50.3491H101.262V27.4564H129.046V50.3491ZM129.046 23.2668H101.262V20.5736H129.046V23.2668ZM129.046 12.7182V16.384H101.262V5.611C101.262 4.8628 102 4.1895 103.015 4.1895H127.385C128.308 4.1895 129.138 4.788 129.138 5.611V12.7182H129.046Z" fill="#3E3E51"/>
<path d="M108 108.778H122.308C123.692 108.778 124.892 107.88 124.892 106.683C124.892 105.486 123.785 104.589 122.308 104.589H108C106.615 104.589 105.415 105.486 105.415 106.683C105.415 107.88 106.615 108.778 108 108.778Z" fill="#3E3E51"/>
<path d="M62.6766 97.1816H53.6305C52.2458 97.1816 51.0459 98.0796 51.0459 99.2766C51.0459 100.399 52.1535 101.372 53.6305 101.372H62.6766C64.0612 101.372 65.2612 100.474 65.2612 99.2766C65.2612 98.0796 64.1535 97.1816 62.6766 97.1816Z" fill="#3E3E51"/>
<path d="M62.6766 89.8496H53.6305C52.2458 89.8496 51.0459 90.7476 51.0459 91.9446C51.0459 93.1416 52.1535 94.0396 53.6305 94.0396H62.6766C64.0612 94.0396 65.2612 93.1416 65.2612 91.9446C65.2612 90.7476 64.1535 89.8496 62.6766 89.8496Z" fill="#3E3E51"/>
</svg>
