<svg width="102" height="120" viewBox="0 0 102 120" fill="none" xmlns="http://www.w3.org/2000/svg">
<path d="M71.4 63.8328H64.0292C63.0613 62.8571 62.2423 61.3937 61.5723 59.5122C67.3796 56.1673 71.2511 50.1742 71.2511 43.3449V43.2753C71.3255 43.2753 71.4 43.2753 71.4745 43.2753C75.7183 43.2753 79.1431 39.5122 79.1431 34.9129V14.9129C79.1431 11.3589 75.7927 8.5017 71.6978 8.5017C71.0277 8.5017 70.3577 8.5714 69.6876 8.7805C67.8263 6.3415 64.9226 4.878 61.7212 4.878C59.8599 4.878 58.073 5.3659 56.5095 6.2718C54.8715 2.5784 51.0745 0 46.6073 0C41.3956 0 37.0774 3.554 36.035 8.2927C35.5883 8.223 35.0672 8.223 34.6204 8.223C28.6642 8.223 23.8248 11.0801 22.9314 14.8432C22.8569 15.0523 22.7825 15.2613 22.7825 15.5401V34.9129C22.7825 39.5122 26.2073 43.2753 30.4511 43.2753C30.5255 43.2753 30.6 43.2753 30.6745 43.2753V43.3449C30.6745 50.1742 34.546 56.1673 40.3533 59.5122C39.6832 61.3937 38.8642 62.8571 37.8964 63.8328H30.5255C13.6993 63.8328 0 76.6551 0 92.404V118.049C0 119.094 0.8934 120 2.0847 120H21.1445H82.7168H99.915C101.032 120 102 119.164 102 118.049V92.404C102 76.6551 88.301 63.8328 71.4 63.8328ZM71.2511 39.3728V30.5226C72.7401 30.453 74.1547 31.6376 74.6759 33.3101V33.3798C74.7504 33.5192 74.7504 33.6585 74.7504 33.7979C74.7504 33.8676 74.7504 33.8676 74.7504 33.9373C74.7504 34.0767 74.8248 34.216 74.8248 34.2857C74.8248 34.3554 74.8248 34.3554 74.8248 34.4251C74.8248 34.5645 74.8248 34.7735 74.8248 34.9129C74.9737 37.4216 73.1869 39.5122 71.2511 39.3728ZM30.7489 39.3728C28.8131 39.5122 27.0263 37.4216 27.0263 34.9129C27.0263 34.7735 27.0263 34.5645 27.0263 34.4251C27.0263 34.3554 27.0263 34.3554 27.0263 34.2857C27.0263 34.1463 27.0263 34.007 27.1007 33.8676V33.7979C27.5474 31.8467 29.0365 30.3833 30.6745 30.453V39.3728H30.7489ZM31.5679 23.554C31.0467 23.9024 30.7489 24.4599 30.7489 25.0871V26.5505H30.6745C30.6 26.5505 30.6 26.5505 30.5255 26.5505C29.9299 26.5505 29.4088 26.6202 28.8131 26.7596C28.7387 26.7596 28.6642 26.8293 28.5898 26.8293C28.3664 26.899 28.1431 26.9686 27.9197 27.0383C27.8453 27.0383 27.7708 27.108 27.6964 27.108C27.473 27.1777 27.3241 27.3171 27.1007 27.3868C27.0263 27.3868 27.0263 27.4564 26.9518 27.4564V15.9582C26.9518 15.8885 26.9518 15.8885 26.9518 15.8188C27.1752 14.0767 30.3022 12.1254 34.546 12.1254C35.5139 12.1254 36.4073 12.1951 37.3752 12.4042C37.9708 12.5436 38.6409 12.4042 39.162 12.0557C39.6832 11.7073 39.981 11.1498 39.981 10.5226C39.981 10.453 39.981 10.3833 39.981 10.3136C40.0555 6.7596 42.9591 3.8328 46.6073 3.8328C50.181 3.8328 53.0847 6.6202 53.1591 10.1742C53.1591 11.0105 53.8292 11.777 54.7226 11.9861C55.6161 12.1951 56.5095 11.8467 57.0307 11.1498C57.9985 9.6167 59.7854 8.7805 61.7212 8.7805C63.9547 8.7805 65.965 10.0348 66.7839 11.9164C67.0073 12.4739 67.454 12.8223 68.0496 13.0314C68.6453 13.2404 69.2409 13.1707 69.762 12.892C70.3577 12.6132 70.9533 12.4042 71.6978 12.4042C73.4847 12.4042 74.9737 13.5192 74.9737 14.9826V27.5958C74.8993 27.5958 74.8248 27.5261 74.8248 27.5261C74.6759 27.4564 74.4526 27.3171 74.3036 27.2474C74.2292 27.1777 74.0803 27.1777 74.0058 27.108C73.8569 27.0383 73.6336 26.9686 73.4847 26.9686C73.4102 26.9686 73.2613 26.899 73.1869 26.899C73.038 26.8293 72.8146 26.8293 72.5912 26.7596C72.5168 26.7596 72.4423 26.7596 72.2934 26.6899C71.9956 26.6202 71.6978 26.6202 71.4 26.6202C71.3255 26.6202 71.2511 26.6202 71.1766 26.6202V25.1568C71.1766 24.3902 70.7299 23.6934 69.9109 23.4146C69.1664 23.1359 68.273 23.2056 67.6774 23.7631C66.1139 25.0871 54.0526 29.1289 45.9372 26.7596C41.0234 25.3659 33.3547 23.3449 33.2803 23.3449C32.7591 23.0662 32.0891 23.2056 31.5679 23.554ZM34.8438 43.3449V40.7666V29.1289V27.7352C37.5241 28.4321 41.6934 29.547 44.746 30.453C52.3401 32.6829 61.8701 30.453 67.0817 28.4321V29.1986V40.8362V43.4146C67.0817 49.2683 63.508 54.3554 58.2219 56.8641H58.1474C53.6058 59.0244 48.3197 59.0244 43.7781 56.8641H43.7037C38.492 54.2857 34.8438 49.1986 34.8438 43.3449ZM40.3533 67.108C41.9168 65.7143 43.2569 63.7631 44.1504 61.1847C45.1927 61.5331 46.3839 61.8118 47.5007 62.0209C48.0219 62.0906 48.6175 62.1603 49.2131 62.23H49.2876C49.8088 62.2997 50.4044 62.2997 51 62.2997C51.5956 62.2997 52.1168 62.2997 52.7124 62.23H52.7869C53.3825 62.1603 53.9036 62.0906 54.4993 62.0209C55.6161 61.8118 56.7328 61.5331 57.8496 61.1847C58.8175 63.7631 60.0832 65.7143 61.6467 67.108C62.3912 67.8746 62.7635 68.6411 62.7635 69.4077C62.7635 71.9164 58.7431 74.3554 53.6058 74.9129H48.3942C43.2569 74.2857 39.2365 71.9164 39.2365 69.4077C39.2365 68.6411 39.6088 67.8746 40.3533 67.108ZM81.6745 78.8153L78.6219 109.338H25.2394L22.1869 78.8153H81.6745ZM16.6774 111.289C15.7095 112.544 15.4117 114.077 15.8584 115.54L16.0073 116.098H4.0949V92.404C4.1693 78.7457 16.0073 67.6655 30.5255 67.6655H35.2905C35.1416 68.223 35.0672 68.7805 35.0672 69.4077C35.0672 71.4983 36.1095 73.3798 37.8964 74.9129H19.8788C19.2832 74.9129 18.762 75.1219 18.3153 75.5401C17.9431 75.9582 17.7197 76.5157 17.7942 77.0035L20.9956 109.268H20.8467C19.2088 109.408 17.7197 110.105 16.6774 111.289ZM83.982 114.425L83.685 115.401C83.536 115.819 83.164 116.028 82.7168 116.028H21.1445C20.6978 116.028 20.3255 115.749 20.1766 115.401L19.8788 114.425C19.7299 114.077 19.9533 113.728 20.0277 113.589C20.1022 113.449 20.4 113.24 20.8467 113.24H23.3781H80.5577H83.089C83.536 113.24 83.759 113.449 83.908 113.589C83.908 113.798 84.057 114.077 83.982 114.425ZM97.831 116.098H87.78L87.928 115.54C88.375 114.077 88.077 112.544 87.109 111.289C86.142 110.035 84.653 109.338 83.015 109.338H82.7912L85.993 77.0732C86.067 76.5157 85.844 75.9582 85.472 75.6098C85.099 75.1916 84.504 74.9826 83.908 74.9826H64.1036C65.8905 73.4495 66.9328 71.4983 66.9328 69.4773C66.9328 68.9199 66.8584 68.2927 66.7095 67.7352H71.4745C85.993 67.7352 97.831 78.8153 97.831 92.404V116.098Z" fill="#3E3E51"/>
</svg>
