<svg width="121" height="120" viewBox="0 0 121 120" fill="none" xmlns="http://www.w3.org/2000/svg">
<path d="M113.578 44.0576H106.858C106.783 44.0576 106.708 44.0576 106.559 44.0576H106.335L106.26 44.1322C106.185 44.1322 106.111 44.2069 106.036 44.2069L105.887 44.2816C105.812 44.3562 105.737 44.3562 105.663 44.4309L105.513 44.5056C105.439 44.5803 105.364 44.6549 105.289 44.7296L105.215 44.8043C105.14 44.879 105.065 44.9536 105.065 45.0283L104.991 45.103C104.916 45.1777 104.916 45.327 104.841 45.4017V45.4763C104.841 45.551 104.767 45.7004 104.767 45.775V46.2978C104.767 46.4471 104.767 46.5218 104.841 46.6711C106.111 50.9275 106.783 55.4079 106.783 59.963C106.783 64.6674 106.111 69.1478 104.841 73.4042C104.692 74.0016 104.468 74.5243 104.319 75.1216C104.244 75.3457 104.169 75.5697 104.095 75.7937C103.945 76.2417 103.796 76.6898 103.572 77.0632C103.423 77.4365 103.273 77.8099 103.124 78.1086C103.049 78.2579 103.049 78.3326 102.974 78.4819C98.1954 89.4593 89.3844 98.2703 78.4074 102.974C78.3327 103.049 78.1834 103.049 78.1087 103.124C77.7353 103.273 77.3619 103.423 76.9886 103.572C76.6152 103.721 76.1672 103.871 75.7938 104.02C75.5698 104.095 75.2711 104.169 75.0471 104.244C74.5244 104.393 74.0016 104.617 73.4789 104.767C69.2226 106.036 64.6675 106.783 60.0377 106.783C55.5573 106.783 51.0769 106.111 46.7459 104.841C46.6712 104.841 46.5219 104.767 46.4472 104.767H45.9245C45.8498 104.767 45.7005 104.767 45.6258 104.841H45.5511C45.4764 104.841 45.3271 104.916 45.2524 104.991L45.1777 105.065C45.1031 105.14 45.0284 105.14 44.9537 105.215L44.8791 105.289C44.8044 105.364 44.7297 105.439 44.655 105.513L44.5804 105.588C44.5057 105.663 44.5057 105.737 44.431 105.812L44.3563 105.961C44.3563 106.036 44.2817 106.111 44.2817 106.185L44.207 106.26V106.484C44.207 106.559 44.207 106.633 44.207 106.708V113.354C44.207 116.938 47.1193 119.776 50.6289 119.776H69.5959C73.1802 119.776 76.0925 116.864 76.0925 113.354V108.276C76.4659 108.127 76.8392 108.052 77.2126 107.903C77.4366 107.828 77.586 107.754 77.81 107.679C78.5567 107.38 79.3034 107.082 80.0502 106.783C81.0956 106.335 82.141 105.812 83.1864 105.364L86.7704 108.948C89.2354 111.413 93.4914 111.413 95.8814 108.948L109.322 95.5073C110.516 94.3123 111.189 92.6703 111.189 90.9523C111.189 89.2353 110.516 87.5921 109.322 86.3973L105.737 82.813C106.26 81.7676 106.708 80.7221 107.156 79.6767C107.455 78.93 107.754 78.1833 108.052 77.5112C108.127 77.2872 108.202 77.0632 108.276 76.8391C108.426 76.4658 108.5 76.1671 108.65 75.7937H113.727C117.312 75.7937 120.149 72.8814 120.149 69.3718V50.5541C120 46.9698 117.162 44.0576 113.578 44.0576ZM71.7614 113.578C71.7614 114.848 70.716 115.893 69.4466 115.893H50.5542C49.2848 115.893 48.2394 114.848 48.2394 113.578V109.695C52.0477 110.591 56.0054 111.039 60.0377 111.039C64.0701 111.039 68.0278 110.516 71.8361 109.62V113.578H71.7614ZM106.185 89.5333C106.633 89.9813 106.858 90.5793 106.858 91.1763C106.858 91.7733 106.633 92.3713 106.185 92.8193L92.7444 106.26C91.8484 107.156 90.4294 107.156 89.5334 106.26L86.7704 103.497C93.5664 99.3163 99.2414 93.5663 103.423 86.8454L106.185 89.5333ZM115.893 69.5211C115.893 70.7906 114.848 71.836 113.578 71.836H109.695C110.591 68.0277 111.114 64.1447 111.114 60.0376C111.114 56.08 110.666 52.1223 109.77 48.2393H113.653C114.922 48.2393 115.968 49.2847 115.968 50.5541V69.5211H115.893Z" fill="#3E3E51"/>
<path d="M60.0376 97.8969C55.9306 97.8969 51.8982 97.2249 48.0899 95.9549C46.9698 95.5819 45.8497 96.1789 45.4763 97.2989C45.103 98.4189 45.7004 99.5399 46.8205 99.9129C51.0768 101.332 55.5572 102.078 60.1123 102.078C83.2613 102.078 102.153 83.2606 102.153 60.0372C102.153 55.9302 101.556 51.8978 100.361 48.0148C100.062 46.8947 98.8673 46.2974 97.7473 46.596C96.6273 46.8947 96.0303 48.0895 96.3293 49.2096C97.3743 52.7193 97.8973 56.3782 97.8973 60.0372C97.8973 80.8711 80.8715 97.8969 60.0376 97.8969Z" fill="#3E3E51"/>
<path d="M15.3084 86.4714C15.2338 86.6207 15.1591 86.7701 15.0844 86.9194V86.9941L7.84106 109.62C7.61706 110.367 7.76636 111.189 8.36376 111.711C8.73716 112.085 9.25986 112.309 9.85726 112.309C10.0813 112.309 10.3053 112.309 10.5293 112.234L33.1553 104.991H33.23C33.3794 104.916 33.454 104.916 33.6034 104.841L33.6781 104.767C33.8274 104.692 33.9021 104.617 33.9768 104.468L101.481 36.963C101.854 37.2617 102.302 37.4857 102.825 37.4857C103.348 37.4857 103.871 37.2617 104.319 36.8883L110.815 30.3917C111.189 30.0184 111.413 29.4957 111.413 28.8983C111.413 28.3756 111.263 27.9275 110.89 27.5542L115.445 22.9991C116.938 21.5056 117.685 19.5641 117.685 17.5479C117.685 15.5317 116.864 13.5156 115.445 12.0968L108.052 4.70407C106.559 3.21067 104.617 2.46387 102.601 2.46387C100.585 2.46387 98.5694 3.28527 97.1504 4.70407L92.5954 9.25917C91.7734 8.58707 90.5044 8.66177 89.7574 9.40847L83.2614 15.9051C82.5144 16.6518 82.4397 17.9213 83.1114 18.7427L15.6071 86.2474C15.5324 86.2474 15.3831 86.322 15.3084 86.4714ZM32.4833 99.9877L27.7042 95.2077L93.7154 29.197L98.4944 33.9761L32.4833 99.9877ZM99.9884 7.61637C101.332 6.27227 103.647 6.27227 104.991 7.61637L112.383 15.009C113.055 15.6811 113.429 16.5772 113.429 17.5479C113.429 18.5187 113.055 19.4148 112.383 20.0868L107.828 24.6419L99.7644 16.4278L95.5074 12.1714L99.9884 7.61637ZM91.1764 13.7396L106.335 28.8983L102.75 32.4826L87.6664 17.3986L91.1764 13.7396ZM86.0244 21.5803L90.8034 26.3594L24.7919 92.3707L20.0128 87.5915L86.0244 21.5803ZM28.6003 102.004L13.0682 107.007L18.0713 91.4747L28.6003 102.004Z" fill="#3E3E51"/>
<path d="M12.9932 40.1742C12.6945 40.921 12.3958 41.6677 12.0971 42.4144C12.0224 42.6385 11.9477 42.8625 11.8731 43.0865C11.7237 43.4599 11.649 43.7586 11.4997 44.1319H6.4219C2.9123 44.0573 0 46.9695 0 50.5538V69.5209C0 73.1052 2.9123 75.9427 6.4219 75.9427H12.9932C14.1133 75.9427 15.084 75.0467 15.084 73.8519C15.084 73.6279 15.0093 73.4039 15.0093 73.2545V73.1798C13.7399 68.9235 13.1425 64.4431 13.1425 59.9627C13.1425 55.2582 13.8146 50.7778 15.084 46.5215C15.2334 45.9241 15.4574 45.4014 15.6067 44.804C15.6814 44.58 15.7561 44.3559 15.8307 44.1319C15.9801 43.7586 16.1294 43.3105 16.2788 42.9372C16.4281 42.5638 16.5775 42.1904 16.7268 41.8171C16.8015 41.7424 16.8015 41.6677 16.8762 41.5184C21.6553 30.4667 30.5414 21.5806 41.593 16.8762L41.817 16.8015C42.1904 16.6521 42.6385 16.5028 43.0118 16.3535C43.3852 16.2041 43.7586 16.0548 44.2066 15.9054C44.4306 15.8307 44.7293 15.7561 44.9533 15.6814C45.476 15.532 46.0734 15.308 46.5961 15.1587C50.8525 13.8892 55.4076 13.2172 60.0373 13.2172C64.5177 13.2172 68.9981 13.8892 73.3292 15.1587C73.4785 15.1587 73.5532 15.2334 73.7025 15.2334H74.2253C74.3746 15.2334 74.4493 15.1587 74.5986 15.1587H74.6733C74.8226 15.1587 74.8973 15.084 74.972 15.0093H75.0467C75.1213 14.9347 75.2707 14.86 75.3454 14.7853L75.42 14.7106C75.4947 14.636 75.5694 14.5613 75.6441 14.4866L75.7187 14.4119C75.7934 14.3373 75.7934 14.2626 75.8681 14.1879L75.9427 14.0386C75.9427 13.9639 76.0174 13.8892 76.0174 13.8146L76.0921 13.7399V13.4412C76.0921 13.3665 76.0921 13.2918 76.0921 13.2172V6.4219C76.0921 2.8376 73.1798 0 69.5955 0H50.5538C46.9695 0 44.0572 2.9123 44.0572 6.4219V11.4997C43.6839 11.649 43.3105 11.7237 42.9371 11.8731C42.7131 11.9477 42.5638 12.0224 42.3398 12.0971C40.4729 12.7691 38.6808 13.5159 36.9633 14.4119L33.379 10.8276C30.9147 8.3634 26.6584 8.3634 24.2688 10.8276L10.8276 24.2688C9.6329 25.4636 8.9608 27.1064 8.9608 28.8239C8.9608 30.5414 9.6329 32.1842 10.8276 33.379L14.4119 36.9633C13.9639 38.0087 13.4412 39.1288 12.9932 40.1742ZM10.3796 71.761H6.4219C5.1525 71.761 4.107 70.7156 4.107 69.4462V50.5538C4.107 49.2844 5.1525 48.239 6.4219 48.239H10.3049C9.4835 52.0473 8.9608 55.9303 8.9608 60.0373C8.9608 63.995 9.4835 67.9527 10.3796 71.761ZM48.239 6.4219C48.239 5.1525 49.2844 4.107 50.5538 4.107H69.5208C70.7903 4.107 71.8357 5.1525 71.8357 6.4219V10.3049C67.9527 9.4835 63.995 8.9608 60.0373 8.9608C56.005 8.9608 52.0473 9.4835 48.239 10.3796V6.4219ZM13.8146 30.4667C13.3665 30.0187 13.1425 29.4213 13.1425 28.8239C13.1425 28.2265 13.3665 27.6291 13.8146 27.1811L27.2558 13.7399C28.1518 12.8438 29.5706 12.8438 30.4667 13.7399L33.2296 16.5028C26.4343 20.6845 20.7592 26.4344 16.5775 33.1549L13.8146 30.4667Z" fill="#3E3E51"/>
<path d="M60.0371 22.1778C64.0695 22.1778 68.0272 22.8498 71.9102 24.0446C73.0303 24.418 74.1504 23.8206 74.5238 22.7005C74.8971 21.5804 74.2997 20.4603 73.1796 20.0869C68.9233 18.6681 64.5175 17.9961 60.0371 17.9961C36.8884 17.9961 17.9961 36.8137 17.9961 60.0371C17.9961 64.2935 18.6681 68.5499 19.9376 72.5823C20.2363 73.4783 21.0577 74.0757 21.9538 74.0757C22.1778 74.0757 22.4018 74.0757 22.5511 74.0011C23.6712 73.6277 24.2686 72.5076 23.8953 71.3875C22.7752 67.7285 22.1778 63.9202 22.1778 60.0371C22.1778 39.1286 39.1286 22.1778 60.0371 22.1778Z" fill="#3E3E51"/>
</svg>
