<svg width="64" height="66" viewBox="0 0 64 66" fill="none" xmlns="http://www.w3.org/2000/svg">
<ellipse cx="31.5595" cy="32.5777" rx="31.5595" ry="32.5777" fill="#2FC7D6"/>
<path d="M36.2938 17.1033V22.8044C36.2938 24.6036 37.7068 26.0621 39.4497 26.0621H43.3947M25.2479 32.5777H37.8718M25.2479 40.7221H31.5599M34.8156 16.2888C35.7522 16.2888 36.6405 16.7183 37.2401 17.461L43.4522 25.156C43.9248 25.7415 44.1837 26.4795 44.1837 27.2416V42.351C44.1837 45.9494 41.3577 48.8665 37.8718 48.8665H25.2479C21.762 48.8665 18.936 45.9494 18.936 42.351V22.8044C18.936 19.2059 21.762 16.2888 25.2479 16.2888H34.8156Z" stroke="white" stroke-width="1.5" stroke-linecap="round"/>
</svg>
