<svg width="65" height="66" viewBox="0 0 65 66" fill="none" xmlns="http://www.w3.org/2000/svg">
<ellipse cx="32.5" cy="33.1389" rx="32.5" ry="32.5777" fill="#2FC7D6"/>
<path fill-rule="evenodd" clip-rule="evenodd" d="M14.084 27.7277C14.084 22.3412 18.3598 17.936 23.6814 17.936H41.3199C46.6415 17.936 50.9173 22.3412 50.9173 27.7277V38.5502C50.9173 43.9367 46.6415 48.3419 41.3199 48.3419H23.6814C18.3598 48.3419 14.084 43.9367 14.084 38.5502V27.7277ZM23.6814 19.4821C19.2615 19.4821 15.6403 23.1525 15.6403 27.7277V38.5502C15.6403 43.1254 19.2615 46.7958 23.6814 46.7958H41.3199C45.7398 46.7958 49.361 43.1254 49.361 38.5502V27.7277C49.361 23.1525 45.7398 19.4821 41.3199 19.4821H23.6814ZM21.3016 27.2553C21.5642 26.9174 22.0529 26.855 22.3931 27.1159L30.8596 33.6093C31.8337 34.3565 33.1676 34.3565 34.1417 33.6093L42.6082 27.1159C42.9484 26.855 43.4371 26.9174 43.6997 27.2553C43.9623 27.5933 43.8995 28.0787 43.5593 28.3396L35.0928 34.8331C33.5584 36.0099 31.4429 36.0099 29.9085 34.8331L21.442 28.3396C21.1018 28.0787 21.039 27.5933 21.3016 27.2553Z" fill="white"/>
</svg>
