<svg width="284" height="265" viewBox="0 0 284 265" fill="none" xmlns="http://www.w3.org/2000/svg">
<g clip-path="url(#clip0_457_32817)">
<path d="M95.4239 210.345L101.705 207.609C102.24 207.275 102.841 207.142 103.443 207.142C104.044 207.142 104.646 207.275 105.113 207.609L147.145 231.633L189.177 255.657C190.313 256.258 190.982 257.526 190.982 258.794C190.982 260.128 190.313 261.33 189.177 261.93L182.896 264.466C182.361 264.733 181.76 264.933 181.225 264.933C180.624 264.933 180.089 264.8 179.555 264.466L137.523 240.509L95.4907 216.551C94.3547 215.951 93.6865 214.749 93.6865 213.415C93.6196 212.213 94.2879 211.012 95.4239 210.345Z" fill="white"/>
<path d="M95.4906 210.478L101.772 207.742C102.307 207.409 102.841 207.275 103.443 207.275C103.977 207.275 104.645 207.475 105.113 207.742L147.012 231.7L148.482 232.567L188.91 255.657C189.979 256.258 190.781 257.526 190.781 258.727C190.781 259.261 190.714 259.728 190.514 260.195C190.246 260.862 189.779 261.463 189.11 261.863L182.829 264.399C182.294 264.666 181.76 264.866 181.158 264.866C180.624 264.866 179.956 264.666 179.488 264.399L137.589 240.509L136.052 239.641L95.6242 216.618C94.5551 216.017 93.7532 214.816 93.7532 213.548C93.7532 213.014 93.82 212.547 94.0205 212.08C94.2878 211.479 94.8223 210.812 95.4906 210.478Z" fill="white"/>
<path d="M95.4908 210.545L101.772 207.809C102.307 207.542 102.841 207.342 103.443 207.409C103.977 207.409 104.646 207.609 105.113 207.876L146.878 231.767L148.348 232.634L188.643 255.657C189.645 256.258 190.581 257.459 190.581 258.66C190.581 259.127 190.581 259.661 190.38 260.128C190.18 260.796 189.712 261.396 189.044 261.797L182.762 264.333C182.295 264.6 181.693 264.733 181.159 264.733C180.624 264.733 179.956 264.533 179.488 264.266L137.723 240.442L136.186 239.574L95.8917 216.618C94.8894 216.017 93.9539 214.816 93.9539 213.615C93.9539 213.148 93.9538 212.614 94.1543 212.147C94.4216 211.546 94.8894 210.946 95.4908 210.545Z" fill="white"/>
<path d="M95.5575 210.679L101.839 207.943C102.307 207.676 102.908 207.542 103.443 207.542C103.977 207.542 104.646 207.809 105.113 208.009L146.744 231.833L148.214 232.701L188.375 255.657C189.311 256.191 190.313 257.459 190.313 258.593C190.313 259.061 190.38 259.594 190.18 259.995C189.979 260.662 189.578 261.263 188.91 261.663L182.629 264.199C182.161 264.466 181.559 264.6 181.025 264.6C180.49 264.6 179.822 264.333 179.421 264.132L137.723 240.375L136.32 239.574L96.1589 216.685C95.2234 216.151 94.1542 214.883 94.1542 213.748C94.1542 213.281 94.0874 212.747 94.2879 212.347C94.4884 211.68 94.8893 211.012 95.5575 210.679Z" fill="white"/>
<path d="M95.6242 210.745L101.906 208.009C102.373 207.742 102.975 207.609 103.509 207.609C103.977 207.609 104.712 207.876 105.18 208.143L146.744 231.9L148.214 232.768L188.242 255.657C189.177 256.191 190.246 257.459 190.246 258.594C190.246 259.061 190.38 259.595 190.18 259.995C190.046 260.596 189.645 261.263 188.977 261.663L182.695 264.199C182.228 264.466 181.693 264.6 181.158 264.6C180.691 264.6 179.956 264.333 179.555 264.066L137.99 240.442L136.52 239.574L96.4929 216.751C95.5574 216.218 94.4882 214.95 94.4882 213.882C94.4882 213.415 94.3546 212.881 94.555 212.48C94.555 211.813 94.956 211.146 95.6242 210.745Z" fill="white"/>
<path d="M95.6912 210.879L101.973 208.143C102.44 207.876 102.975 207.742 103.51 207.742C103.977 207.742 104.712 208.009 105.113 208.276L146.544 231.967L148.014 232.834L187.908 255.657C188.776 256.124 189.979 257.459 189.979 258.527C189.979 258.927 190.18 259.528 189.979 259.861C189.912 260.462 189.511 261.129 188.843 261.53L182.562 264.066C182.094 264.333 181.559 264.466 181.025 264.399C180.557 264.399 179.822 264.132 179.421 263.865L137.99 240.308L136.52 239.441L96.6267 216.685C95.758 216.218 94.5552 214.883 94.5552 213.882C94.5552 213.481 94.3547 212.881 94.5552 212.547C94.622 211.88 95.0229 211.212 95.6912 210.879Z" fill="white"/>
<path d="M95.7581 210.946L102.039 208.209C102.507 207.943 103.042 207.809 103.576 207.876C104.044 207.876 104.846 208.209 105.18 208.41L146.477 232.033L147.947 232.901L187.774 255.657C188.576 256.124 189.912 257.459 189.912 258.46C189.912 258.86 190.18 259.394 189.979 259.795C189.912 260.395 189.578 261.063 188.91 261.463L182.629 263.999C182.161 264.266 181.626 264.399 181.159 264.333C180.758 264.333 179.956 263.999 179.555 263.799L138.191 240.242L136.721 239.374L96.9609 216.685C96.159 216.218 94.8225 214.883 94.8225 213.882C94.8225 213.481 94.5552 212.948 94.7557 212.614C94.6889 212.013 95.0898 211.346 95.7581 210.946Z" fill="white"/>
<path d="M95.7579 211.079L102.039 208.343C102.507 208.076 103.042 207.943 103.509 208.009C103.91 208.009 104.779 208.343 105.113 208.543L146.276 232.033L147.747 232.901L187.44 255.591C188.242 256.058 189.645 257.392 189.645 258.327C189.645 258.727 189.979 259.261 189.779 259.595C189.779 260.195 189.444 260.862 188.776 261.263L182.495 263.799C182.027 264.066 181.559 264.199 181.025 264.132C180.624 264.132 179.822 263.799 179.421 263.599L138.324 240.175L136.854 239.307L97.1612 216.685C96.3593 216.218 94.956 214.883 94.956 213.949C94.956 213.548 94.6219 213.014 94.8224 212.681C94.7555 212.147 95.1565 211.413 95.7579 211.079Z" fill="white"/>
<path d="M95.8248 211.146L102.106 208.41C102.574 208.143 103.042 208.009 103.576 208.076C103.977 208.076 104.846 208.476 105.18 208.677L146.21 232.1L147.68 232.968L187.239 255.59C187.974 255.991 189.511 257.392 189.511 258.26C189.511 258.593 189.846 259.194 189.712 259.461C189.712 260.062 189.445 260.729 188.776 261.129L182.495 263.665C182.027 263.932 181.559 263.999 181.092 263.932C180.691 263.932 179.822 263.532 179.488 263.398L138.458 240.041L136.988 239.174L97.4286 216.685C96.6935 216.284 95.1566 214.883 95.1566 214.015C95.1566 213.682 94.8225 213.081 94.9561 212.814C94.8893 212.28 95.1566 211.546 95.8248 211.146Z" fill="white"/>
<path d="M95.8917 211.279L102.173 208.543C102.574 208.276 103.109 208.209 103.576 208.276C103.911 208.276 104.846 208.677 105.18 208.877L146.076 232.234L147.546 233.101L186.972 255.657C187.64 256.058 189.244 257.459 189.244 258.26C189.244 258.593 189.645 259.194 189.511 259.461C189.578 259.995 189.244 260.796 188.643 261.129L182.428 263.598C182.027 263.865 181.493 263.932 181.025 263.865C180.691 263.865 179.755 263.465 179.488 263.265L138.592 239.975L137.122 239.107L97.6959 216.685C97.0277 216.284 95.4239 214.883 95.3571 214.082C95.3571 213.748 94.9562 213.148 95.0898 212.881C94.9562 212.347 95.2235 211.613 95.8917 211.279Z" fill="white"/>
<path d="M95.9584 211.346L102.24 208.61C102.641 208.343 103.175 208.276 103.643 208.343C103.977 208.343 104.913 208.81 105.247 208.944L146.076 232.234L147.546 233.101L186.838 255.59C187.44 255.924 189.177 257.392 189.177 258.126C189.177 258.393 189.645 258.994 189.511 259.261C189.645 259.795 189.311 260.595 188.709 260.929L182.428 263.465C182.027 263.732 181.493 263.799 181.092 263.732C180.757 263.732 179.822 263.332 179.555 263.131L138.725 239.908L137.255 239.04L97.9631 216.685C97.3617 216.351 95.6243 214.883 95.6243 214.149C95.6243 213.882 95.1565 213.281 95.2902 213.014C95.0229 212.48 95.2902 211.746 95.9584 211.346Z" fill="white"/>
<path d="M96.0253 211.479L102.307 208.743C102.708 208.476 103.175 208.41 103.643 208.476C103.977 208.476 104.913 208.943 105.18 209.077L145.876 232.3L147.346 233.168L186.504 255.59C187.106 255.924 188.91 257.392 188.91 258.06C188.91 258.327 189.445 258.927 189.311 259.194C189.445 259.728 189.177 260.529 188.576 260.862L182.294 263.398C181.893 263.665 181.426 263.732 180.958 263.665C180.624 263.665 179.688 263.198 179.421 263.065L138.726 239.908L137.255 239.04L98.0968 216.751C97.4954 216.418 95.6911 214.95 95.6911 214.282C95.6911 214.015 95.1566 213.415 95.2902 213.148C95.0897 212.614 95.357 211.813 96.0253 211.479Z" fill="white"/>
<path d="M96.0253 211.546L102.307 208.81C102.708 208.543 103.175 208.476 103.643 208.61C103.91 208.61 104.913 209.077 105.18 209.277L145.742 232.434L147.212 233.301L186.304 255.59C186.838 255.924 188.776 257.392 188.776 257.993C188.776 258.26 189.378 258.86 189.244 259.061C189.445 259.594 189.177 260.395 188.509 260.729L182.228 263.265C181.827 263.465 181.359 263.598 180.958 263.465C180.691 263.465 179.688 262.998 179.421 262.864L138.859 239.775L137.389 238.907L98.2973 216.685C97.7627 216.418 95.8248 214.883 95.8248 214.282C95.8248 214.015 95.2234 213.415 95.3571 213.214C95.1566 212.747 95.4239 211.947 96.0253 211.546Z" fill="white"/>
<path d="M96.0922 211.613L102.374 208.877C102.775 208.677 103.242 208.543 103.643 208.677C103.911 208.677 104.98 209.211 105.18 209.344L145.608 232.434L147.079 233.301L186.037 255.524C186.504 255.791 188.576 257.326 188.576 257.859C188.576 258.06 189.244 258.727 189.111 258.927C189.378 259.461 189.111 260.262 188.442 260.662L182.161 263.198C181.76 263.398 181.292 263.465 180.891 263.398C180.624 263.398 179.622 262.865 179.354 262.731L138.993 239.775L137.523 238.907L98.5647 216.751C98.0969 216.484 96.0254 214.95 96.0254 214.416C96.0254 214.216 95.3571 213.548 95.4908 213.348C95.2235 212.814 95.424 212.013 96.0922 211.613Z" fill="white"/>
<path d="M96.1588 211.746L102.44 209.01C102.841 208.81 103.242 208.743 103.71 208.81C103.91 208.81 105.046 209.344 105.247 209.477L145.541 232.501L147.012 233.301L185.769 255.59C186.17 255.857 188.375 257.392 188.375 257.859C188.375 258.06 189.11 258.727 188.977 258.86C189.244 259.328 189.044 260.195 188.375 260.596L182.094 263.131C181.693 263.332 181.292 263.398 180.891 263.332C180.691 263.332 179.555 262.798 179.421 262.664L139.126 239.708L137.656 238.84L98.8318 216.751C98.364 216.484 96.2257 214.95 96.2257 214.482C96.2257 214.282 95.4906 213.615 95.5574 213.481C95.2901 212.948 95.4906 212.147 96.1588 211.746Z" fill="white"/>
<path d="M96.2257 211.813L102.507 209.077C102.908 208.877 103.309 208.81 103.71 208.877C103.91 208.877 105.046 209.477 105.247 209.544L145.408 232.501L146.878 233.301L185.569 255.39C185.97 255.591 188.175 257.192 188.175 257.659C188.175 257.859 188.977 258.46 188.843 258.66C189.177 259.127 188.977 259.995 188.308 260.395L182.027 262.931C181.626 263.131 181.225 263.198 180.824 263.065C180.624 263.065 179.488 262.464 179.354 262.397L139.193 239.508L137.723 238.707L99.0323 216.685C98.6313 216.484 96.4261 214.883 96.4261 214.482C96.4261 214.282 95.6243 213.682 95.6911 213.481C95.4238 213.081 95.5574 212.214 96.2257 211.813Z" fill="white"/>
<path d="M96.2926 211.947L102.574 209.21C102.908 209.01 103.376 208.944 103.777 209.077C103.977 209.077 105.113 209.678 105.247 209.744L145.274 232.634L146.744 233.435L185.301 255.457C185.636 255.657 187.974 257.259 187.974 257.659C187.974 257.793 188.776 258.46 188.709 258.594C189.11 259.061 188.91 259.928 188.242 260.329L181.96 262.864C181.626 263.065 181.158 263.131 180.824 262.998C180.624 262.998 179.488 262.397 179.354 262.331L139.26 239.508L137.79 238.707L99.2328 216.751C98.8987 216.551 96.5599 214.95 96.5599 214.549C96.5599 214.416 95.758 213.748 95.758 213.615C95.4907 213.215 95.6243 212.347 96.2926 211.947Z" fill="white"/>
<path d="M96.3594 212.013L102.641 209.277C102.975 209.077 103.443 209.01 103.777 209.144C103.91 209.144 105.113 209.811 105.247 209.878L145.207 232.701L146.677 233.502L185.101 255.457C185.368 255.591 187.841 257.259 187.841 257.593C187.841 257.726 188.709 258.393 188.709 258.527C189.11 258.994 188.977 259.861 188.309 260.262L182.027 262.798C181.693 262.998 181.292 263.065 180.891 262.931C180.758 262.931 179.555 262.331 179.421 262.197L139.461 239.441L137.99 238.64L99.5669 216.818C99.2996 216.685 96.8271 215.016 96.8271 214.683C96.8271 214.549 95.9584 213.882 95.9584 213.748C95.5575 213.281 95.6911 212.414 96.3594 212.013Z" fill="white"/>
<path d="M96.3594 212.147L102.641 209.411C102.975 209.21 103.376 209.144 103.777 209.277C103.91 209.277 105.113 209.945 105.247 210.011L145.074 232.767L146.544 233.568L184.901 255.457C185.168 255.59 187.707 257.259 187.707 257.526C187.707 257.659 188.643 258.327 188.643 258.393C189.11 258.86 188.977 259.728 188.309 260.128L182.027 262.664C181.693 262.864 181.292 262.864 180.958 262.798C180.824 262.798 179.621 262.13 179.488 262.064L139.661 239.374L138.191 238.573L99.8342 216.751C99.5669 216.618 97.0276 215.016 97.0276 214.683C97.0276 214.549 96.0921 213.882 96.0921 213.815C95.6243 213.415 95.758 212.547 96.3594 212.147Z" fill="white"/>
<path d="M96.4262 212.213L102.708 209.477C103.042 209.277 103.443 209.277 103.777 209.411C103.91 209.411 105.18 210.078 105.247 210.145L144.94 232.834L146.41 233.635L184.633 255.457C184.834 255.59 187.507 257.259 187.507 257.459C187.507 257.526 188.509 258.26 188.509 258.327C188.977 258.727 188.91 259.661 188.242 260.062L181.96 262.598C181.626 262.798 181.225 262.798 180.891 262.664C180.757 262.664 179.555 261.997 179.421 261.93L139.661 239.374L138.191 238.573L99.9679 216.818C99.7674 216.685 97.0944 215.083 97.0944 214.816C97.0944 214.749 96.0921 214.082 96.0921 213.949C95.6911 213.548 95.758 212.614 96.4262 212.213Z" fill="white"/>
<path d="M96.4929 212.347L102.774 209.611C103.108 209.411 103.509 209.411 103.844 209.544C103.91 209.544 105.247 210.278 105.314 210.278L144.873 232.901L146.343 233.702L184.433 255.457C184.566 255.524 187.306 257.192 187.306 257.392C187.306 257.459 188.375 258.126 188.375 258.193C188.91 258.594 188.843 259.528 188.175 259.928L181.893 262.464C181.559 262.664 181.225 262.664 180.891 262.531C180.824 262.531 179.555 261.797 179.488 261.797L139.928 239.241L138.458 238.44L100.369 216.751C100.235 216.685 97.4285 215.016 97.4285 214.816C97.4285 214.749 96.3593 214.082 96.3593 214.015C95.7579 213.682 95.8247 212.747 96.4929 212.347Z" fill="white"/>
<path d="M96.5598 212.414L102.841 209.678C103.175 209.477 103.509 209.477 103.844 209.611C103.91 209.611 105.247 210.345 105.314 210.412L144.74 232.968L146.143 233.768L184.099 255.457C184.165 255.524 187.039 257.192 187.039 257.326C187.039 257.392 188.175 258.06 188.175 258.126C188.776 258.527 188.709 259.461 188.041 259.861L181.76 262.397C181.426 262.597 181.092 262.597 180.757 262.464C180.691 262.464 179.354 261.73 179.354 261.73L139.928 239.241L138.458 238.44L100.502 216.818C100.436 216.751 97.5622 215.083 97.5622 214.95C97.5622 214.883 96.4262 214.215 96.4262 214.149C95.8248 213.748 95.8916 212.814 96.5598 212.414Z" fill="white"/>
<path d="M96.6268 212.547L102.908 209.811C103.242 209.611 103.576 209.611 103.911 209.811L105.314 210.612L144.606 233.101L146.009 233.902L183.832 255.524C183.898 255.524 186.839 257.259 186.839 257.326L188.041 258.06C188.643 258.46 188.643 259.394 187.975 259.795L181.693 262.331C181.426 262.531 181.025 262.531 180.758 262.331L179.354 261.53L140.062 239.107L138.592 238.306L100.77 216.751C100.703 216.751 97.7628 215.016 97.7628 214.95L96.56 214.215C95.9586 213.882 95.9586 212.948 96.6268 212.547Z" fill="white"/>
<path d="M102.908 209.945C103.175 209.744 103.576 209.744 103.844 209.945L145.876 233.969L187.908 257.993C188.576 258.393 188.576 259.328 187.908 259.728L181.626 262.264C181.359 262.464 180.958 262.464 180.691 262.264L138.659 238.306L96.6267 214.349C95.9584 213.949 95.9584 213.014 96.6267 212.614L102.908 209.945Z" fill="white"/>
<path d="M244.975 227.496L248.383 226.027C248.65 225.827 248.984 225.76 249.319 225.76C249.653 225.76 249.987 225.827 250.254 226.027L266.626 235.237L282.998 244.446C283.599 244.78 284 245.447 284 246.181C284 246.915 283.599 247.582 282.998 247.916L279.59 249.318C279.322 249.451 278.988 249.584 278.654 249.584C278.32 249.584 278.053 249.518 277.719 249.318L261.347 240.175L244.975 231.032C244.374 230.699 243.973 230.031 243.973 229.297C243.973 228.497 244.374 227.829 244.975 227.496Z" fill="white"/>
<path d="M244.975 227.562L248.383 226.094C248.65 225.961 248.984 225.827 249.318 225.827C249.653 225.827 249.987 225.894 250.254 226.094L266.559 235.237L267.361 235.704L282.864 244.379C283.465 244.713 283.866 245.38 283.866 246.048C283.866 246.315 283.866 246.581 283.733 246.848C283.599 247.249 283.332 247.582 282.931 247.783L279.523 249.184C279.255 249.318 278.921 249.451 278.587 249.451C278.253 249.451 277.919 249.384 277.652 249.184L261.347 240.042L260.612 239.574L245.109 230.899C244.507 230.565 244.106 229.898 244.106 229.231C244.106 228.964 244.106 228.697 244.24 228.43C244.374 228.096 244.641 227.763 244.975 227.562Z" fill="white"/>
<path d="M245.042 227.629L248.45 226.161C248.717 226.027 249.051 225.894 249.385 225.894C249.653 225.894 250.054 226.027 250.321 226.161L266.559 235.303L267.361 235.771L282.797 244.446C283.332 244.78 283.866 245.447 283.866 246.114C283.866 246.381 283.866 246.648 283.799 246.848C283.666 247.249 283.399 247.582 283.064 247.783L279.656 249.184C279.389 249.317 279.055 249.451 278.788 249.384C278.52 249.384 278.119 249.251 277.919 249.117L261.681 240.041L260.879 239.574L245.242 230.966C244.708 230.632 244.173 229.965 244.173 229.297C244.173 229.03 244.173 228.763 244.24 228.563C244.374 228.163 244.641 227.829 245.042 227.629Z" fill="white"/>
<path d="M245.042 227.629L248.45 226.161C248.717 226.027 249.051 225.894 249.319 225.961C249.586 225.961 249.987 226.094 250.187 226.228L266.359 235.303L267.16 235.771L282.53 244.379C283.064 244.646 283.599 245.38 283.599 245.981C283.599 246.248 283.666 246.515 283.532 246.715C283.465 247.049 283.198 247.449 282.797 247.649L279.389 249.051C279.122 249.184 278.788 249.251 278.52 249.251C278.253 249.251 277.852 249.117 277.652 248.984L261.414 239.908L260.612 239.441L245.242 230.832C244.708 230.565 244.173 229.831 244.173 229.231C244.173 228.964 244.106 228.697 244.24 228.497C244.44 228.23 244.708 227.896 245.042 227.629Z" fill="white"/>
<path d="M245.109 227.696L248.517 226.228C248.784 226.094 249.051 226.027 249.385 226.027C249.653 226.027 250.054 226.161 250.254 226.294L266.359 235.37L267.16 235.837L282.463 244.446C282.931 244.713 283.532 245.447 283.532 246.048C283.532 246.248 283.599 246.581 283.532 246.782C283.465 247.115 283.198 247.516 282.864 247.716L279.456 249.117C279.189 249.251 278.921 249.318 278.587 249.318C278.32 249.318 277.919 249.184 277.719 249.051L261.547 240.042L260.745 239.574L245.443 231.033C244.975 230.766 244.374 230.031 244.307 229.431C244.307 229.231 244.24 228.897 244.307 228.697C244.507 228.296 244.708 227.896 245.109 227.696Z" fill="white"/>
<path d="M245.109 227.762L248.517 226.294C248.784 226.161 249.051 226.094 249.385 226.094C249.653 226.094 250.054 226.228 250.254 226.361L266.359 235.37L267.16 235.837L282.396 244.379C282.864 244.646 283.532 245.38 283.532 245.914C283.532 246.114 283.599 246.448 283.532 246.581C283.465 246.915 283.265 247.315 282.864 247.516L279.456 248.917C279.189 249.051 278.921 249.117 278.654 249.117C278.387 249.117 277.986 248.984 277.785 248.85L261.681 239.841L260.879 239.374L245.643 230.832C245.175 230.565 244.507 229.831 244.507 229.297C244.507 229.097 244.44 228.83 244.507 228.63C244.507 228.363 244.775 227.963 245.109 227.762Z" fill="white"/>
<path d="M245.176 227.829L248.584 226.361C248.851 226.228 249.118 226.161 249.385 226.161C249.653 226.161 250.054 226.361 250.254 226.428L266.292 235.437L267.094 235.904L282.263 244.446C282.73 244.713 283.399 245.447 283.399 245.981C283.399 246.181 283.532 246.448 283.465 246.648C283.465 246.982 283.198 247.382 282.864 247.582L279.456 248.984C279.189 249.117 278.921 249.184 278.654 249.184C278.387 249.184 277.986 248.984 277.785 248.917L261.748 239.975L260.946 239.508L245.777 231.032C245.309 230.766 244.641 230.031 244.641 229.498C244.641 229.297 244.507 229.03 244.574 228.83C244.574 228.43 244.775 228.029 245.176 227.829Z" fill="white"/>
<path d="M245.176 227.896L248.584 226.428C248.851 226.294 249.118 226.228 249.385 226.228C249.586 226.228 250.054 226.428 250.254 226.495L266.225 235.437L267.027 235.904L282.196 244.379C282.597 244.646 283.399 245.38 283.399 245.847C283.399 246.048 283.532 246.315 283.465 246.515C283.465 246.848 283.265 247.249 282.864 247.449L279.456 248.85C279.189 248.984 278.921 249.051 278.654 249.051C278.454 249.051 277.986 248.85 277.785 248.784L261.815 239.908L261.013 239.441L245.911 230.966C245.51 230.699 244.708 229.965 244.708 229.498C244.708 229.297 244.574 229.03 244.641 228.83C244.641 228.497 244.841 228.096 245.176 227.896Z" fill="white"/>
<path d="M245.175 227.896L248.583 226.428C248.851 226.294 249.118 226.228 249.385 226.228C249.586 226.228 250.054 226.428 250.254 226.561L266.158 235.504L266.96 235.971L282.062 244.446C282.463 244.646 283.265 245.447 283.265 245.914C283.265 246.114 283.465 246.381 283.398 246.581C283.398 246.915 283.265 247.316 282.864 247.516L279.456 248.917C279.189 249.051 278.921 249.117 278.654 249.051C278.454 249.051 277.986 248.85 277.785 248.717L261.881 239.841L261.079 239.374L245.977 230.966C245.576 230.766 244.774 230.031 244.774 229.564C244.774 229.364 244.574 229.097 244.641 228.897C244.641 228.563 244.841 228.163 245.175 227.896Z" fill="white"/>
<path d="M245.242 227.963L248.65 226.495C248.918 226.361 249.185 226.294 249.452 226.361C249.653 226.361 250.12 226.561 250.321 226.695L266.158 235.57L266.96 236.038L281.995 244.446C282.396 244.646 283.198 245.447 283.198 245.847C283.198 246.048 283.399 246.315 283.332 246.448C283.399 246.782 283.198 247.182 282.864 247.382L279.456 248.784C279.255 248.917 278.921 248.984 278.721 248.917C278.52 248.917 278.053 248.717 277.852 248.583L261.948 239.775L261.146 239.307L246.111 230.899C245.71 230.699 244.841 229.965 244.841 229.498C244.841 229.297 244.641 229.03 244.708 228.897C244.708 228.63 244.841 228.163 245.242 227.963Z" fill="white"/>
<path d="M245.242 228.029L248.65 226.561C248.851 226.428 249.118 226.361 249.385 226.428C249.586 226.428 250.054 226.628 250.254 226.761L266.025 235.57L266.826 236.037L281.795 244.446C282.129 244.646 283.065 245.38 283.065 245.847C283.065 245.981 283.332 246.314 283.265 246.448C283.332 246.782 283.198 247.182 282.797 247.382L279.389 248.784C279.189 248.917 278.921 248.984 278.654 248.917C278.454 248.917 277.986 248.717 277.785 248.583L262.015 239.775L261.213 239.307L246.245 230.966C245.911 230.766 244.975 230.031 244.975 229.631C244.975 229.498 244.708 229.164 244.775 229.03C244.775 228.697 244.908 228.23 245.242 228.029Z" fill="white"/>
<path d="M245.309 228.096L248.717 226.628C248.918 226.495 249.185 226.428 249.452 226.495C249.653 226.495 250.12 226.761 250.321 226.828L266.024 235.637L266.826 236.104L281.728 244.446C282.062 244.646 282.997 245.38 282.997 245.781C282.997 245.914 283.265 246.248 283.198 246.381C283.265 246.715 283.131 247.115 282.797 247.316L279.389 248.717C279.189 248.85 278.921 248.917 278.654 248.85C278.52 248.85 277.986 248.583 277.852 248.517L262.149 239.775L261.347 239.307L246.445 230.966C246.111 230.766 245.175 230.031 245.175 229.631C245.175 229.498 244.908 229.164 244.975 229.03C244.774 228.764 244.908 228.296 245.309 228.096Z" fill="white"/>
<path d="M245.309 228.163L248.717 226.695C248.918 226.561 249.185 226.495 249.452 226.561C249.586 226.561 250.121 226.828 250.254 226.895L265.891 235.637L266.693 236.104L281.528 244.446C281.795 244.579 282.864 245.38 282.864 245.714C282.864 245.847 283.198 246.181 283.131 246.248C283.265 246.515 283.131 246.982 282.73 247.182L279.322 248.583C279.122 248.717 278.855 248.717 278.587 248.717C278.454 248.717 277.919 248.45 277.785 248.383L262.149 239.641L261.347 239.174L246.512 230.899C246.245 230.766 245.176 229.965 245.176 229.631C245.176 229.498 244.841 229.164 244.908 229.097C244.841 228.764 244.975 228.363 245.309 228.163Z" fill="white"/>
<path d="M245.376 228.23L248.784 226.762C248.984 226.628 249.252 226.628 249.452 226.628C249.586 226.628 250.12 226.895 250.254 226.962L265.824 235.704L266.626 236.171L281.394 244.446C281.661 244.579 282.73 245.38 282.73 245.714C282.73 245.847 283.064 246.181 282.998 246.248C283.131 246.515 282.998 246.982 282.663 247.182L279.255 248.583C279.055 248.717 278.788 248.717 278.587 248.717C278.454 248.717 277.919 248.45 277.785 248.383L262.215 239.708L261.414 239.241L246.646 230.966C246.378 230.832 245.309 230.031 245.309 229.698C245.309 229.564 244.975 229.297 245.042 229.164C244.841 228.83 244.975 228.43 245.376 228.23Z" fill="white"/>
<path d="M245.376 228.23L248.784 226.762C248.985 226.628 249.252 226.628 249.452 226.628C249.586 226.628 250.187 226.895 250.254 226.962L265.757 235.637L266.559 236.104L281.26 244.379C281.528 244.513 282.664 245.314 282.664 245.58C282.664 245.714 282.998 245.981 282.998 246.114C283.131 246.381 283.065 246.848 282.664 247.049L279.256 248.45C279.055 248.583 278.788 248.583 278.587 248.517C278.454 248.517 277.919 248.25 277.785 248.183L262.282 239.508L261.481 239.041L246.779 230.832C246.512 230.699 245.376 229.898 245.376 229.631C245.376 229.498 245.042 229.231 245.042 229.097C244.908 228.897 245.042 228.497 245.376 228.23Z" fill="white"/>
<path d="M245.443 228.296L248.851 226.828C249.051 226.695 249.318 226.695 249.519 226.761C249.653 226.761 250.254 227.095 250.321 227.095L265.757 235.771L266.559 236.238L281.193 244.446C281.394 244.579 282.597 245.38 282.597 245.647C282.597 245.714 282.998 246.048 282.931 246.181C283.131 246.448 282.998 246.915 282.663 247.115L279.255 248.517C279.055 248.65 278.788 248.65 278.587 248.583C278.454 248.583 277.919 248.317 277.785 248.25L262.349 239.574L261.547 239.107L246.913 230.899C246.712 230.766 245.51 229.965 245.51 229.698C245.51 229.631 245.109 229.297 245.175 229.164C244.975 228.964 245.042 228.497 245.443 228.296Z" fill="white"/>
<path d="M245.443 228.363L248.851 226.895C249.051 226.762 249.252 226.762 249.519 226.828C249.586 226.828 250.254 227.162 250.321 227.229L265.69 235.837L266.492 236.304L281.06 244.513C281.26 244.646 282.463 245.447 282.463 245.647C282.463 245.714 282.864 246.048 282.864 246.114C283.064 246.381 282.998 246.848 282.597 247.049L279.189 248.45C278.988 248.583 278.788 248.583 278.587 248.517C278.52 248.517 277.852 248.183 277.785 248.183L262.416 239.574L261.614 239.107L247.047 230.966C246.846 230.832 245.643 230.031 245.576 229.831C245.576 229.765 245.175 229.431 245.175 229.364C244.975 229.03 245.109 228.563 245.443 228.363Z" fill="white"/>
<path d="M245.443 228.43L248.851 226.962C249.051 226.828 249.252 226.828 249.452 226.895C249.519 226.895 250.187 227.229 250.254 227.295L265.557 235.904L266.359 236.305L280.859 244.446C280.993 244.513 282.329 245.38 282.329 245.58C282.329 245.647 282.797 245.981 282.73 246.048C282.931 246.315 282.864 246.782 282.53 246.982L279.122 248.383C278.921 248.517 278.721 248.517 278.521 248.45C278.454 248.45 277.785 248.116 277.719 248.05L262.416 239.508L261.614 239.041L247.113 230.966C246.98 230.899 245.643 230.032 245.643 229.831C245.643 229.765 245.176 229.431 245.242 229.364C245.042 229.097 245.109 228.63 245.443 228.43Z" fill="white"/>
<path d="M245.51 228.497L248.918 227.028C249.118 226.895 249.318 226.895 249.519 226.962C249.586 226.962 250.254 227.295 250.321 227.362L265.557 235.904L266.358 236.304L280.792 244.446C280.926 244.513 282.262 245.38 282.262 245.514C282.262 245.58 282.73 245.914 282.73 245.981C282.998 246.248 282.931 246.715 282.53 246.915L279.122 248.316C278.921 248.45 278.721 248.45 278.52 248.383C278.454 248.383 277.785 248.05 277.718 247.983L262.483 239.508L261.681 239.107L247.247 231.032C247.113 230.966 245.777 230.098 245.777 229.965C245.777 229.898 245.309 229.564 245.309 229.498C245.109 229.164 245.175 228.697 245.51 228.497Z" fill="white"/>
<path d="M245.51 228.497L248.918 227.028C249.118 226.895 249.318 226.895 249.519 226.962C249.586 226.962 250.254 227.295 250.321 227.362L265.49 235.837L266.225 236.238L280.592 244.312C280.726 244.379 282.129 245.247 282.129 245.38C282.129 245.447 282.663 245.781 282.597 245.781C282.864 246.048 282.797 246.515 282.463 246.715L279.055 248.116C278.854 248.25 278.654 248.25 278.454 248.183C278.387 248.183 277.718 247.849 277.652 247.783L262.483 239.307L261.681 238.907L247.314 230.899C247.18 230.832 245.777 229.965 245.777 229.831C245.777 229.764 245.242 229.431 245.309 229.431C245.109 229.231 245.175 228.763 245.51 228.497Z" fill="white"/>
<path d="M245.577 228.563L248.985 227.095C249.185 226.962 249.385 226.962 249.586 227.028C249.653 227.028 250.321 227.429 250.388 227.429L265.49 235.904L266.225 236.304L280.525 244.379C280.592 244.446 282.062 245.314 282.062 245.38C282.062 245.447 282.597 245.781 282.597 245.781C282.864 245.981 282.864 246.515 282.463 246.715L279.055 248.116C278.855 248.183 278.654 248.25 278.521 248.183C278.454 248.183 277.785 247.783 277.785 247.783L262.617 239.374L261.815 238.974L247.514 230.966C247.448 230.899 245.977 230.031 245.977 229.965C245.977 229.898 245.443 229.564 245.443 229.564C245.176 229.297 245.176 228.764 245.577 228.563Z" fill="white"/>
<path d="M245.577 228.63L248.985 227.162C249.185 227.095 249.385 227.028 249.519 227.162L250.254 227.562L265.289 235.971L266.025 236.371L280.258 244.379C280.325 244.379 281.862 245.314 281.862 245.38C281.862 245.38 282.463 245.781 282.396 245.781C282.73 245.981 282.664 246.515 282.329 246.715L278.921 248.116C278.721 248.183 278.521 248.25 278.387 248.116L277.652 247.716L262.617 239.307L261.948 238.907L247.715 230.966C247.648 230.966 246.111 230.031 246.111 229.965C246.111 229.965 245.51 229.631 245.577 229.564C245.242 229.364 245.242 228.83 245.577 228.63Z" fill="white"/>
<path d="M245.643 228.697L249.051 227.229C249.185 227.162 249.385 227.095 249.586 227.229L250.321 227.629L265.289 236.038L266.025 236.438L280.258 244.379L281.862 245.314C281.862 245.314 282.463 245.647 282.463 245.714C282.797 245.914 282.797 246.448 282.396 246.648L278.988 248.05C278.855 248.116 278.654 248.116 278.454 248.05L277.719 247.649L262.75 239.307L262.015 238.907L247.782 230.966L246.178 230.031C246.178 230.031 245.577 229.698 245.577 229.631C245.242 229.431 245.242 228.897 245.643 228.697Z" fill="white"/>
<path d="M249.051 227.229C249.185 227.162 249.385 227.162 249.586 227.229L265.958 236.438L282.329 245.647C282.663 245.847 282.663 246.381 282.329 246.581L278.921 247.983C278.788 248.05 278.587 248.05 278.387 247.983L262.015 238.84L245.643 229.698C245.309 229.498 245.309 228.964 245.643 228.764L249.051 227.229Z" fill="white"/>
<path d="M212.432 150.285L215.573 148.95C215.84 148.816 216.107 148.683 216.441 148.683C216.709 148.683 217.043 148.75 217.31 148.883L230.207 155.957L243.104 163.031C243.639 163.364 244.039 163.965 244.039 164.632C244.039 165.3 243.705 165.9 243.104 166.234L240.297 167.969C240.03 168.103 239.763 168.169 239.429 168.169C239.161 168.169 238.827 168.103 238.56 167.969L225.529 160.695L212.499 153.421C211.964 153.087 211.563 152.487 211.563 151.819C211.563 151.219 211.897 150.618 212.432 150.285Z" fill="white"/>
<path d="M212.499 150.285L215.64 148.95C215.773 148.883 215.907 148.816 215.974 148.816C216.107 148.75 216.308 148.75 216.508 148.75C216.776 148.75 217.11 148.816 217.377 149.017L230.207 156.024L230.942 156.424L243.037 163.031C243.572 163.364 243.973 163.965 243.973 164.566C243.973 164.833 243.973 165.1 243.839 165.3C243.705 165.633 243.438 165.967 243.104 166.167L240.297 167.902C240.164 167.969 240.097 168.036 239.963 168.036C239.83 168.103 239.629 168.103 239.429 168.103C239.161 168.103 238.827 168.036 238.56 167.902L225.529 160.695L224.794 160.295L212.566 153.488C212.031 153.154 211.63 152.554 211.63 151.953C211.63 151.686 211.63 151.419 211.764 151.219C211.897 150.819 212.165 150.485 212.499 150.285Z" fill="white"/>
<path d="M212.499 150.351L215.64 149.017C215.773 148.95 215.907 148.883 215.974 148.883C216.107 148.816 216.308 148.816 216.508 148.816C216.776 148.816 217.11 148.95 217.377 149.083L230.14 156.09L230.875 156.491L242.904 163.097C243.438 163.364 243.839 164.032 243.839 164.632C243.839 164.899 243.839 165.099 243.772 165.366C243.639 165.7 243.438 166.034 243.104 166.234L240.297 167.969C240.231 168.036 240.097 168.102 239.963 168.102C239.83 168.169 239.629 168.169 239.429 168.169C239.161 168.169 238.827 168.036 238.627 167.902L225.663 160.695L224.928 160.295L212.766 153.555C212.232 153.288 211.831 152.62 211.831 152.02C211.831 151.753 211.831 151.552 211.897 151.286C211.964 150.885 212.165 150.551 212.499 150.351Z" fill="white"/>
<path d="M212.566 150.418L215.706 149.083C215.773 149.017 215.974 148.95 216.04 148.95C216.174 148.883 216.375 148.883 216.575 148.883C216.842 148.883 217.176 149.017 217.377 149.15L230.073 156.09L230.808 156.491L242.77 163.031C243.238 163.298 243.772 163.965 243.772 164.499C243.772 164.699 243.772 164.966 243.705 165.166C243.639 165.5 243.371 165.834 243.037 166.034L240.231 167.769C240.164 167.836 240.03 167.902 239.896 167.902C239.763 167.969 239.562 167.969 239.362 167.969C239.095 167.969 238.76 167.836 238.56 167.702L225.663 160.562L224.928 160.161L212.766 153.421C212.298 153.154 211.764 152.487 211.764 151.953C211.764 151.753 211.697 151.486 211.831 151.286C211.964 150.952 212.232 150.618 212.566 150.418Z" fill="white"/>
<path d="M212.566 150.485L215.706 149.15C215.773 149.083 215.974 149.017 216.04 149.017C216.174 148.95 216.375 148.95 216.575 148.95C216.842 148.95 217.176 149.083 217.377 149.217L230.007 156.157L230.742 156.558L242.636 163.098C243.104 163.364 243.639 164.032 243.639 164.566C243.639 164.766 243.705 165.033 243.639 165.233C243.572 165.567 243.371 165.9 243.037 166.101L240.231 167.836C240.164 167.902 239.963 167.969 239.896 167.969C239.763 168.036 239.562 168.036 239.362 168.036C239.095 168.036 238.76 167.902 238.56 167.769L225.73 160.628L224.995 160.228L212.9 153.555C212.432 153.288 211.897 152.62 211.897 152.086C211.897 151.886 211.831 151.619 211.897 151.419C212.031 151.019 212.231 150.685 212.566 150.485Z" fill="white"/>
<path d="M212.566 150.485L215.639 149.15C215.706 149.083 215.907 149.017 215.974 149.017C216.107 148.95 216.308 148.95 216.508 148.95C216.709 148.95 217.11 149.083 217.31 149.217L229.873 156.09L230.608 156.491L242.436 162.964C242.903 163.231 243.438 163.898 243.438 164.365C243.438 164.566 243.505 164.833 243.438 165.033C243.371 165.366 243.171 165.7 242.837 165.9L240.097 167.635C240.03 167.702 239.83 167.769 239.763 167.769C239.629 167.836 239.429 167.836 239.228 167.836C239.028 167.836 238.627 167.702 238.426 167.569L225.663 160.495L224.928 160.094L212.9 153.421C212.432 153.154 211.83 152.487 211.83 152.02C211.83 151.82 211.764 151.553 211.83 151.352C212.031 151.085 212.231 150.685 212.566 150.485Z" fill="white"/>
<path d="M212.632 150.551L215.706 149.217C215.773 149.15 215.974 149.083 216.04 149.083C216.174 149.017 216.374 149.017 216.575 149.017C216.775 149.017 217.176 149.15 217.377 149.284L229.873 156.157L230.608 156.558L242.369 163.031C242.77 163.298 243.438 163.898 243.438 164.432C243.438 164.632 243.572 164.899 243.505 165.033C243.505 165.366 243.304 165.7 242.97 165.9L240.23 167.635C240.164 167.702 239.963 167.769 239.896 167.769C239.763 167.836 239.562 167.836 239.362 167.836C239.161 167.836 238.76 167.702 238.56 167.569L225.863 160.495L225.128 160.094L213.167 153.488C212.766 153.221 212.098 152.62 212.098 152.086C212.098 151.886 211.964 151.619 212.031 151.486C212.098 151.085 212.298 150.752 212.632 150.551Z" fill="white"/>
<path d="M212.632 150.618L215.706 149.284C215.773 149.217 215.974 149.15 216.04 149.15C216.174 149.083 216.375 149.083 216.575 149.083C216.776 149.083 217.176 149.284 217.377 149.35L229.873 156.157L230.608 156.558L242.369 162.964C242.77 163.164 243.438 163.832 243.438 164.299C243.438 164.499 243.572 164.766 243.505 164.899C243.505 165.233 243.304 165.567 242.97 165.767L240.231 167.435C240.164 167.502 239.963 167.569 239.896 167.569C239.763 167.635 239.562 167.635 239.362 167.635C239.161 167.635 238.76 167.502 238.56 167.368L225.93 160.361L225.195 159.961L213.301 153.354C212.9 153.154 212.232 152.487 212.232 152.02C212.232 151.819 212.098 151.553 212.165 151.419C212.165 151.152 212.298 150.818 212.632 150.618Z" fill="white"/>
<path d="M212.699 150.685L215.773 149.35C215.84 149.284 216.04 149.217 216.107 149.217C216.241 149.15 216.441 149.15 216.575 149.15C216.775 149.15 217.176 149.35 217.377 149.417L229.806 156.224L230.541 156.624L242.235 163.031C242.569 163.231 243.371 163.898 243.371 164.365C243.371 164.566 243.572 164.833 243.505 164.966C243.505 165.233 243.371 165.633 243.037 165.834L240.297 167.502C240.23 167.569 240.03 167.635 239.963 167.635C239.83 167.702 239.629 167.702 239.495 167.702C239.295 167.702 238.894 167.502 238.694 167.435L226.131 160.428L225.396 160.028L213.568 153.421C213.234 153.221 212.432 152.554 212.432 152.086C212.432 151.886 212.231 151.619 212.298 151.486C212.165 151.219 212.365 150.885 212.699 150.685Z" fill="white"/>
<path d="M212.699 150.685L215.773 149.35C215.84 149.284 216.04 149.217 216.107 149.217C216.241 149.15 216.441 149.15 216.575 149.15C216.775 149.15 217.176 149.35 217.377 149.417L229.739 156.157L230.474 156.558L242.101 162.897C242.436 163.098 243.237 163.765 243.237 164.165C243.237 164.299 243.438 164.632 243.371 164.766C243.438 165.033 243.237 165.433 242.903 165.633L240.164 167.302C240.097 167.368 239.896 167.435 239.829 167.435C239.696 167.502 239.495 167.502 239.362 167.502C239.161 167.502 238.76 167.302 238.56 167.235L226.064 160.295L225.329 159.894L213.568 153.354C213.234 153.154 212.432 152.487 212.432 152.086C212.432 151.953 212.231 151.619 212.298 151.486C212.231 151.286 212.365 150.885 212.699 150.685Z" fill="white"/>
<path d="M212.699 150.752L215.706 149.417C215.773 149.35 215.973 149.284 216.04 149.284C216.174 149.217 216.374 149.217 216.508 149.217C216.709 149.217 217.109 149.417 217.31 149.484L229.605 156.224L230.341 156.624L241.901 162.964C242.235 163.164 243.037 163.832 243.037 164.232C243.037 164.365 243.237 164.632 243.237 164.766C243.304 165.033 243.171 165.433 242.837 165.633L240.164 167.302C240.097 167.368 239.896 167.435 239.829 167.435C239.696 167.502 239.495 167.502 239.362 167.502C239.228 167.502 238.76 167.302 238.627 167.235L226.131 160.295L225.396 159.894L213.635 153.354C213.301 153.154 212.499 152.487 212.499 152.086C212.499 151.953 212.298 151.686 212.298 151.552C212.231 151.352 212.365 150.952 212.699 150.752Z" fill="white"/>
<path d="M212.766 150.818L215.773 149.551C215.84 149.484 216.04 149.417 216.107 149.417C216.241 149.35 216.441 149.35 216.575 149.35C216.709 149.35 217.176 149.551 217.377 149.617L229.606 156.291L230.341 156.691L241.834 162.964C242.102 163.164 243.037 163.832 243.037 164.165C243.037 164.299 243.304 164.566 243.238 164.699C243.304 164.966 243.171 165.366 242.837 165.567L240.164 167.235C240.097 167.235 239.896 167.368 239.83 167.368C239.696 167.435 239.495 167.435 239.362 167.435C239.228 167.435 238.76 167.235 238.627 167.168L226.198 160.295L225.463 159.894L213.768 153.421C213.501 153.288 212.566 152.554 212.566 152.22C212.566 152.086 212.298 151.819 212.365 151.686C212.298 151.419 212.432 151.019 212.766 150.818Z" fill="white"/>
<path d="M212.766 150.885L215.773 149.617C215.84 149.617 216.04 149.484 216.107 149.484C216.241 149.417 216.441 149.417 216.575 149.417C216.709 149.417 217.243 149.617 217.31 149.751L229.472 156.424L230.207 156.824L241.634 163.097C241.901 163.231 242.837 163.965 242.837 164.299C242.837 164.432 243.104 164.699 243.104 164.833C243.238 165.099 243.104 165.5 242.77 165.7L240.097 167.368C240.03 167.368 239.83 167.502 239.763 167.502C239.629 167.569 239.429 167.569 239.295 167.569C239.161 167.569 238.694 167.368 238.56 167.302L226.198 160.428L225.463 160.028L213.835 153.554C213.568 153.421 212.632 152.687 212.632 152.353C212.632 152.22 212.365 151.953 212.365 151.819C212.298 151.486 212.432 151.085 212.766 150.885Z" fill="white"/>
<path d="M212.833 150.885L215.84 149.617C215.907 149.617 216.107 149.484 216.174 149.484C216.308 149.417 216.508 149.417 216.642 149.417C216.776 149.417 217.31 149.684 217.377 149.751L229.472 156.357L230.207 156.758L241.567 162.964C241.834 163.097 242.77 163.831 242.77 164.098C242.77 164.232 243.104 164.499 243.037 164.632C243.171 164.899 243.037 165.3 242.703 165.5L240.03 167.168C239.963 167.168 239.763 167.302 239.696 167.302C239.562 167.368 239.362 167.368 239.228 167.368C239.095 167.368 238.627 167.101 238.493 167.035L226.198 160.228L225.463 159.827L213.902 153.421C213.635 153.288 212.699 152.553 212.699 152.287C212.699 152.153 212.365 151.886 212.432 151.753C212.365 151.552 212.499 151.085 212.833 150.885Z" fill="white"/>
<path d="M212.833 150.952L215.773 149.684C215.84 149.684 216.041 149.551 216.107 149.551C216.241 149.484 216.441 149.484 216.575 149.551C216.709 149.551 217.243 149.817 217.31 149.884L229.338 156.491L230.073 156.891L241.433 163.097C241.634 163.231 242.703 163.965 242.703 164.232C242.703 164.365 243.037 164.632 243.037 164.699C243.171 164.966 243.104 165.366 242.77 165.567L240.097 167.235C240.03 167.235 239.83 167.368 239.763 167.368C239.629 167.435 239.429 167.435 239.295 167.368C239.161 167.368 238.627 167.102 238.56 167.035L226.331 160.228L225.596 159.828L214.103 153.421C213.902 153.288 212.833 152.554 212.833 152.287C212.833 152.153 212.499 151.886 212.499 151.819C212.432 151.553 212.499 151.152 212.833 150.952Z" fill="white"/>
<path d="M212.9 151.019L215.84 149.751C215.907 149.751 216.107 149.617 216.174 149.617C216.308 149.551 216.508 149.551 216.642 149.617C216.776 149.617 217.31 149.884 217.377 149.951L229.405 156.491L230.14 156.891L241.433 163.031C241.634 163.164 242.703 163.898 242.703 164.099C242.703 164.165 243.104 164.499 243.037 164.566C243.171 164.833 243.104 165.233 242.77 165.433L240.097 167.102C240.03 167.102 239.83 167.235 239.763 167.302C239.629 167.369 239.429 167.369 239.295 167.302C239.161 167.302 238.627 167.035 238.56 166.968L226.398 160.161L225.663 159.761L214.236 153.421C214.036 153.288 212.967 152.554 212.967 152.353C212.967 152.287 212.566 151.953 212.633 151.886C212.432 151.619 212.566 151.219 212.9 151.019Z" fill="white"/>
<path d="M212.9 151.085L215.84 149.817C215.907 149.817 216.107 149.684 216.174 149.684C216.308 149.617 216.508 149.617 216.642 149.684C216.709 149.684 217.31 149.951 217.377 150.018L229.338 156.558L230.073 156.958L241.3 163.097C241.5 163.164 242.569 163.965 242.636 164.165C242.636 164.232 243.037 164.566 243.037 164.632C243.238 164.899 243.171 165.3 242.837 165.5L240.231 167.101C240.231 167.101 239.963 167.235 239.896 167.302C239.763 167.368 239.562 167.368 239.429 167.302C239.362 167.302 238.76 167.035 238.694 166.968L226.465 160.161L225.73 159.761L214.37 153.421C214.169 153.354 213.1 152.554 213.033 152.353C213.033 152.287 212.632 151.953 212.632 151.886C212.499 151.686 212.566 151.286 212.9 151.085Z" fill="white"/>
<path d="M212.9 151.085L215.84 149.817C215.84 149.817 216.107 149.684 216.174 149.684C216.308 149.617 216.508 149.617 216.642 149.684C216.709 149.684 217.31 149.951 217.377 150.018L229.271 156.491L229.94 156.891L241.099 163.031C241.233 163.097 242.436 163.898 242.436 164.032C242.436 164.098 242.837 164.432 242.837 164.499C243.037 164.766 242.97 165.166 242.636 165.366L240.03 166.968C240.03 166.968 239.763 167.101 239.763 167.168C239.629 167.235 239.429 167.235 239.295 167.168C239.228 167.168 238.627 166.901 238.56 166.835L226.532 160.161L225.797 159.761L214.437 153.488C214.303 153.421 213.1 152.62 213.1 152.487C213.1 152.42 212.699 152.086 212.699 152.02C212.499 151.753 212.566 151.286 212.9 151.085Z" fill="white"/>
<path d="M212.967 151.152L215.907 149.884L216.241 149.751C216.375 149.684 216.575 149.684 216.709 149.751C216.775 149.751 217.377 150.084 217.444 150.084L229.271 156.558L229.94 156.958L241.032 163.031C241.166 163.098 242.369 163.898 242.369 164.032C242.369 164.099 242.837 164.432 242.837 164.432C243.037 164.632 243.037 165.1 242.703 165.3L240.097 166.901C240.097 166.901 239.83 167.035 239.83 167.102C239.696 167.168 239.495 167.168 239.362 167.102C239.295 167.102 238.694 166.768 238.627 166.768L226.599 160.094L225.93 159.694L214.637 153.421C214.503 153.354 213.301 152.554 213.301 152.42C213.301 152.353 212.833 152.02 212.833 152.02C212.566 151.819 212.632 151.352 212.967 151.152Z" fill="white"/>
<path d="M212.967 151.219L215.84 149.951L216.174 149.818C216.308 149.751 216.508 149.751 216.642 149.818C216.709 149.818 217.31 150.151 217.377 150.151L229.138 156.558L229.806 156.958L240.832 163.031C240.899 163.098 242.235 163.832 242.235 163.965C242.235 164.032 242.703 164.299 242.703 164.365C242.97 164.566 242.903 165.033 242.569 165.233L239.963 166.835C239.963 166.835 239.696 166.968 239.696 167.035C239.562 167.102 239.362 167.102 239.228 167.035C239.161 167.035 238.56 166.701 238.56 166.701L226.599 160.095L225.93 159.694L214.704 153.488C214.637 153.421 213.301 152.62 213.301 152.554C213.301 152.487 212.833 152.22 212.833 152.153C212.632 151.886 212.632 151.419 212.967 151.219Z" fill="white"/>
<path d="M213.033 151.286L215.907 150.018L216.241 149.884C216.374 149.817 216.575 149.817 216.709 149.884C216.775 149.884 217.377 150.218 217.444 150.218L229.138 156.624L229.806 157.025L240.765 163.031C240.832 163.097 242.168 163.832 242.168 163.965C242.168 164.032 242.703 164.299 242.636 164.365C242.903 164.566 242.903 165.033 242.569 165.233L239.963 166.835L239.696 167.035C239.562 167.101 239.362 167.101 239.228 167.035C239.161 167.035 238.56 166.701 238.56 166.701L226.665 160.094L225.997 159.694L214.838 153.488C214.771 153.421 213.434 152.687 213.434 152.554C213.434 152.487 212.9 152.22 212.966 152.153C212.632 151.953 212.699 151.486 213.033 151.286Z" fill="white"/>
<path d="M213.033 151.286L215.907 150.018L216.241 149.884C216.374 149.817 216.575 149.817 216.709 149.884L217.377 150.218L229.004 156.624L229.672 157.025L240.631 163.031C240.698 163.031 242.035 163.832 242.035 163.898L242.569 164.232C242.837 164.432 242.837 164.899 242.502 165.099L239.963 166.701L239.696 166.901C239.562 166.968 239.362 166.968 239.228 166.901L238.56 166.568L226.732 160.028L226.064 159.627L214.971 153.488C214.904 153.488 213.568 152.687 213.568 152.62L213.033 152.287C212.699 152.02 212.699 151.486 213.033 151.286Z" fill="white"/>
<path d="M213.033 151.352L215.907 150.084L216.241 149.951C216.375 149.884 216.575 149.884 216.709 149.951L217.377 150.285L228.937 156.624L229.606 157.025L240.498 162.964C240.498 162.964 241.968 163.765 241.968 163.832C241.968 163.832 242.569 164.165 242.503 164.165C242.837 164.365 242.837 164.833 242.503 165.033L239.963 166.634L239.696 166.835C239.562 166.901 239.362 166.901 239.228 166.835L238.56 166.501L226.799 159.961L226.131 159.561L215.105 153.421C215.105 153.421 213.635 152.62 213.635 152.554C213.635 152.554 213.033 152.22 213.1 152.22C212.699 152.02 212.699 151.553 213.033 151.352Z" fill="white"/>
<path d="M216.241 150.018C216.375 149.951 216.575 149.951 216.709 150.018L229.606 157.091L242.503 164.165C242.837 164.365 242.837 164.833 242.503 165.033L239.696 166.768C239.562 166.835 239.362 166.835 239.228 166.768L226.198 159.494L213.167 152.22C212.833 152.02 212.833 151.553 213.167 151.352L216.241 150.018Z" fill="white"/>
<path d="M42.5666 116.918C32.6767 111.979 16.8395 112.18 7.1501 117.452C-2.53931 122.724 -2.40566 130.999 7.48422 135.937C17.3741 140.875 33.2113 140.675 42.9007 135.403C52.5901 130.198 52.4565 121.923 42.5666 116.918Z" fill="white"/>
<path d="M42.4998 116.984C32.6768 112.046 16.9064 112.313 7.28383 117.518C-2.33876 122.724 -2.20511 130.999 7.61795 135.87C17.441 140.808 33.2114 140.542 42.8339 135.336C52.4565 130.131 52.3229 121.923 42.4998 116.984Z" fill="#FDFDFD"/>
<path d="M42.3662 117.051C32.61 112.18 16.9064 112.38 7.35066 117.585C-2.2051 122.79 -2.07146 130.932 7.68478 135.87C17.441 140.742 33.1445 140.541 42.7003 135.336C52.3229 130.131 52.1893 121.923 42.3662 117.051Z" fill="#FAFAFA"/>
<path d="M42.2992 117.118C32.6098 112.246 16.9731 112.513 7.48414 117.652C-2.0048 122.79 -1.87115 130.932 7.81826 135.803C17.5077 140.675 33.1444 140.408 42.6333 135.269C52.1223 130.131 51.9886 121.989 42.2992 117.118Z" fill="#F8F8F8"/>
<path d="M42.1656 117.185C32.543 112.313 17.0399 112.58 7.55097 117.718C-1.93797 122.857 -1.7375 130.932 7.88509 135.803C17.5745 140.675 33.0107 140.408 42.4997 135.269C51.9886 130.064 51.855 121.989 42.1656 117.185Z" fill="#F6F6F6"/>
<path d="M42.0989 117.185C32.4763 112.38 17.1069 112.58 7.68477 117.719C-1.73735 122.79 -1.6037 130.865 8.01889 135.67C17.6415 140.475 33.0109 140.275 42.433 135.136C51.8551 130.064 51.7215 122.056 42.0989 117.185Z" fill="#F4F4F4"/>
<path d="M41.9652 117.251C32.4095 112.447 17.1069 112.713 7.7516 117.785C-1.60369 122.857 -1.47005 130.865 8.08572 135.603C17.6415 140.408 32.9441 140.141 42.2994 135.069C51.7215 130.064 51.521 122.056 41.9652 117.251Z" fill="#F1F1F1"/>
<path d="M41.8983 117.318C32.4093 112.58 17.1736 112.78 7.88508 117.852C-1.40339 122.924 -1.26974 130.865 8.2192 135.603C17.7081 140.341 32.9439 140.141 42.2324 135.069C51.5209 129.998 51.3872 122.056 41.8983 117.318Z" fill="#EFEFEF"/>
<path d="M41.7646 117.385C32.3425 112.647 17.1736 112.914 7.95192 117.919C-1.26973 122.924 -1.13608 130.865 8.28604 135.536C17.7082 140.275 32.8771 140.008 42.0987 135.003C51.3872 129.998 51.2536 122.123 41.7646 117.385Z" fill="#EDEDED"/>
<path d="M41.6979 117.452C32.3426 112.78 17.2405 112.98 8.08571 117.985C-1.13594 122.924 -1.00229 130.798 8.41983 135.47C17.7751 140.141 32.8772 139.941 42.0321 134.936C51.2537 129.997 51.0532 122.123 41.6979 117.452Z" fill="#EAEAEA"/>
<path d="M41.631 117.452C32.3425 112.78 17.374 112.98 8.21919 117.985C-0.935632 122.924 -0.801986 130.732 8.55331 135.403C17.8418 140.074 32.8102 139.874 41.9651 134.869C51.0531 129.931 50.9194 122.123 41.631 117.452Z" fill="#E8E8E8"/>
<path d="M41.4973 117.518C32.2088 112.847 17.374 113.114 8.28602 118.052C-0.801975 122.99 -0.668327 130.732 8.62014 135.403C17.9086 140.074 32.7434 139.807 41.8314 134.869C50.9194 129.931 50.7858 122.19 41.4973 117.518Z" fill="#E6E6E6"/>
<path d="M41.4306 117.585C32.209 112.98 17.441 113.181 8.41982 118.119C-0.668183 122.99 -0.534536 130.732 8.68711 135.336C17.9088 139.941 32.6768 139.741 41.6979 134.802C50.7859 129.931 50.5855 122.19 41.4306 117.585Z" fill="#E4E4E4"/>
<path d="M41.2969 117.652C32.1421 113.047 17.4409 113.314 8.48659 118.186C-0.467765 123.057 -0.334118 130.732 8.8207 135.336C17.9755 139.941 32.6767 139.674 41.6311 134.802C50.5854 129.864 50.4518 122.256 41.2969 117.652Z" fill="#E1E1E1"/>
<path d="M41.2302 117.719C32.1422 113.181 17.5078 113.381 8.62032 118.252C-0.267214 123.057 -0.133567 130.732 8.95443 135.27C18.0424 139.807 32.6768 139.607 41.5643 134.736C50.4518 129.864 50.3182 122.256 41.2302 117.719Z" fill="#DFDFDF"/>
<path d="M41.0964 117.718C32.0752 113.247 17.5745 113.448 8.68697 118.252C-0.200563 123.057 -0.066916 130.665 9.02108 135.136C18.0423 139.674 32.6098 139.474 41.4305 134.669C50.318 129.864 50.1175 122.256 41.0964 117.718Z" fill="#DDDDDD"/>
<path d="M41.0296 117.785C32.0753 113.314 17.6414 113.514 8.82069 118.252C-1.07288e-05 123.057 0.133636 130.531 9.15481 135.069C18.1092 139.54 32.543 139.34 41.3638 134.602C50.1176 129.864 49.984 122.323 41.0296 117.785Z" fill="#DADADA"/>
<path d="M40.896 117.852C31.9416 113.381 17.6414 113.581 8.88753 118.319C0.133647 123.057 0.267295 130.531 9.22165 135.003C18.176 139.474 32.4762 139.274 41.2301 134.535C49.984 129.797 49.8504 122.323 40.896 117.852Z" fill="#D8D8D8"/>
<path d="M40.8293 117.919C31.9417 113.448 17.7083 113.714 9.02126 118.386C0.3342 123.124 0.467847 130.531 9.35538 135.003C18.2429 139.474 32.4763 139.207 41.1634 134.535C49.8504 129.797 49.65 122.39 40.8293 117.919Z" fill="#D6D6D6"/>
<path d="M40.6956 117.985C31.8749 113.581 17.7083 113.781 9.08809 118.453C0.467858 123.124 0.601505 130.531 9.42221 134.936C18.2429 139.34 32.4095 139.14 41.0297 134.469C49.65 129.797 49.5163 122.39 40.6956 117.985Z" fill="#D4D4D4"/>
<path d="M40.6287 117.985C31.8748 113.581 17.7751 113.781 9.22164 118.453C0.601403 123.124 0.73505 130.465 9.55576 134.869C18.3096 139.274 32.4094 139.073 40.9628 134.402C49.5162 129.731 49.3826 122.39 40.6287 117.985Z" fill="#D1D1D1"/>
<path d="M40.4951 118.052C31.808 113.715 17.7751 113.915 9.28847 118.519C0.735061 123.124 0.868708 130.465 9.62259 134.802C18.3096 139.14 32.3426 138.94 40.8292 134.335C49.3826 129.731 49.2489 122.457 40.4951 118.052Z" fill="#CFCFCF"/>
<path d="M46.5759 120.455C45.4399 118.653 43.7025 116.984 41.23 115.516C32.2757 110.378 17.775 110.378 8.88743 115.516C6.41496 116.918 4.61073 118.653 3.54155 120.455H2.20508V125.193C2.33873 128.463 4.5439 131.733 8.88743 134.268C17.8418 139.407 32.3425 139.407 41.23 134.268C45.5736 131.733 47.7787 128.529 47.9124 125.193V120.455H46.5759Z" fill="#636363"/>
<path d="M8.88739 111.112C-0.0669577 116.25 -0.0669577 124.592 8.88739 129.797C17.8417 134.936 32.3425 134.936 41.23 129.797C50.1843 124.659 50.1843 116.317 41.23 111.112C32.2756 105.973 17.7749 105.973 8.88739 111.112Z" fill="white"/>
<path d="M25.0587 133.868C19.1782 133.868 13.2309 132.6 8.75374 129.997C4.34339 127.462 1.93774 124.058 1.93774 120.455C1.93774 116.851 4.34339 113.448 8.75374 110.912C17.7749 105.706 32.4093 105.706 41.3636 110.912C45.774 113.448 48.1796 116.851 48.1796 120.455C48.1796 124.058 45.774 127.462 41.3636 129.997C36.8864 132.6 30.9392 133.868 25.0587 133.868ZM9.02104 111.312C4.81116 113.781 2.47233 116.984 2.47233 120.455C2.47233 123.858 4.81116 127.128 9.02104 129.597C17.9086 134.736 32.2756 134.736 41.1632 129.597C45.373 127.128 47.7119 123.925 47.7119 120.455C47.7119 117.051 45.373 113.781 41.1632 111.312C32.2756 106.24 17.8417 106.24 9.02104 111.312Z" fill="#636363"/>
<path d="M36.0846 118.986C32.7435 120.855 27.7985 121.122 25.0588 119.453C22.319 117.785 22.7199 114.916 26.0611 113.047C29.4023 111.178 34.3472 110.912 37.087 112.58C39.8936 114.182 39.4258 117.118 36.0846 118.986Z" fill="white"/>
<path d="M29.8033 120.788C27.9322 120.788 26.1948 120.388 24.9252 119.654C23.6555 118.92 22.9873 117.852 22.9873 116.717C22.9873 115.316 24.0565 113.848 25.9275 112.78C29.3355 110.845 34.4141 110.645 37.2207 112.313C38.4904 113.047 39.1586 114.115 39.1586 115.249C39.1586 116.651 38.0894 118.119 36.2184 119.187C34.3473 120.254 32.0085 120.788 29.8033 120.788ZM32.3426 111.712C30.2042 111.712 27.9322 112.246 26.1948 113.247C24.4574 114.248 23.5219 115.516 23.5219 116.717C23.5219 117.652 24.1233 118.586 25.1925 119.253C27.8654 120.855 32.7435 120.655 35.9511 118.786C37.6885 117.785 38.624 116.517 38.624 115.316C38.624 114.382 38.0226 113.447 36.9534 112.78C35.7506 112.046 34.1468 111.712 32.3426 111.712Z" fill="#636363"/>
<path d="M23.5219 129.464L7.81836 120.121C12.2955 117.585 19.4457 117.585 23.7892 120.121C28.1995 122.724 28.0659 126.861 23.5219 129.464Z" fill="white"/>
<path d="M23.5219 129.731L7.35059 120.121L7.75153 119.921C12.2955 117.318 19.5793 117.318 23.9896 119.921C26.128 121.189 27.264 122.924 27.264 124.726C27.264 126.594 25.9944 128.396 23.6555 129.664L23.5219 129.731ZM8.35294 120.121L23.5219 129.13C25.5934 127.929 26.7294 126.327 26.7294 124.659C26.7294 123.057 25.6602 121.456 23.6555 120.321C19.5793 117.919 12.7633 117.785 8.35294 120.121Z" fill="#636363"/>
<path d="M175.746 259.328L100.77 216.218C96.3595 213.348 93.7534 208.41 93.7534 203.204C93.7534 203.204 93.7534 8.94231 93.8202 8.60864C94.8226 1.46812 103.51 -2.20224 110.058 1.60159L184.968 44.7116C189.244 47.5812 191.85 52.386 191.85 57.5245L191.717 250.052C191.717 250.452 191.65 250.786 191.65 251.119C191.115 258.727 182.495 263.198 175.746 259.328Z" fill="#636363"/>
<path d="M190.046 68.8692V65.9996C190.046 65.1321 189.378 64.8652 188.509 65.3323C187.64 65.7994 186.972 66.8672 186.972 67.7347V70.6043C186.972 71.4718 187.64 71.7388 188.509 71.2716C189.378 70.8045 190.046 69.7367 190.046 68.8692Z" fill="white"/>
<path d="M187.774 71.7388C187.574 71.7388 187.373 71.6721 187.24 71.6053C186.905 71.4051 186.772 71.0715 186.772 70.6043V67.7348C186.772 66.8005 187.507 65.666 188.442 65.1322C188.977 64.7985 189.511 64.7985 189.846 64.9987C190.18 65.1989 190.313 65.5326 190.313 65.9997V68.8692C190.313 69.8035 189.578 70.938 188.643 71.4719C188.309 71.6721 188.041 71.7388 187.774 71.7388ZM189.244 65.3991C189.044 65.3991 188.843 65.4658 188.643 65.5993C187.908 66.0664 187.24 67.0007 187.24 67.8015V70.6711C187.24 70.8713 187.306 71.1382 187.507 71.2049C187.707 71.3384 188.041 71.2717 188.375 71.0715C189.111 70.6711 189.779 69.6701 189.779 68.936V66.0664C189.779 65.8662 189.712 65.5993 189.511 65.5326C189.445 65.3991 189.378 65.3991 189.244 65.3991Z" fill="#636363"/>
<path d="M186.972 67.7348C186.972 66.8673 187.64 65.7995 188.509 65.3324C188.71 65.1989 188.91 65.1989 189.111 65.1322C189.177 65.2657 189.177 65.3324 189.177 65.4659V68.3354C189.177 69.203 188.509 70.2707 187.64 70.7378C187.44 70.8713 187.239 70.938 187.106 70.938C187.106 70.8046 187.039 70.7378 187.039 70.6044L186.972 67.7348Z" fill="white"/>
<path d="M191.115 69.6033C190.982 68.7357 190.246 68.4688 189.511 68.9359C188.71 69.4031 188.175 70.4708 188.309 71.3384C188.442 72.2059 189.177 72.4728 189.912 72.0057C190.714 71.4718 191.249 70.4041 191.115 69.6033Z" fill="white"/>
<path d="M189.244 72.4729C189.044 72.4729 188.91 72.4061 188.776 72.3394C188.442 72.1392 188.175 71.8055 188.108 71.3384C187.975 70.4041 188.576 69.2029 189.445 68.669C189.912 68.4021 190.38 68.3354 190.781 68.4688C191.115 68.669 191.383 69.0027 191.449 69.4698C191.583 70.4041 190.982 71.6053 190.113 72.1392C189.779 72.4061 189.511 72.4729 189.244 72.4729ZM190.247 69.0027C190.046 69.0027 189.846 69.0694 189.645 69.2029C188.977 69.6033 188.442 70.6043 188.576 71.3384C188.643 71.6053 188.776 71.8723 188.977 71.939C189.177 72.0725 189.511 72.0057 189.846 71.8055C190.514 71.4051 191.048 70.4041 190.915 69.67C190.848 69.4031 190.714 69.1362 190.514 69.0694C190.447 69.0027 190.38 69.0027 190.247 69.0027Z" fill="#636363"/>
<path d="M189.578 68.936C188.776 69.4032 188.242 70.4709 188.375 71.3384C188.442 71.6721 188.576 71.9391 188.843 72.0725L187.44 71.4719C187.173 71.3384 187.106 71.1382 187.039 70.7378C186.905 69.8703 187.44 68.8026 188.242 68.3354C188.643 68.0685 189.177 68.1352 189.177 68.1352L190.581 68.7358C190.247 68.6691 189.912 68.7358 189.578 68.936Z" fill="white"/>
<path d="M188.91 72.4062L188.71 72.3395L187.306 71.7388C186.905 71.5386 186.772 71.1382 186.705 70.8046C186.571 69.8703 187.173 68.6691 188.041 68.1352C188.442 67.8683 189.111 67.8683 189.111 67.8683H189.177L190.581 68.4689L190.38 68.936C190.18 68.8693 189.846 68.936 189.578 69.1362C188.91 69.5366 188.375 70.5376 188.509 71.2717C188.576 71.5387 188.643 71.7388 188.843 71.8056L189.044 71.9391L188.91 72.4062ZM189.111 68.4689C188.91 68.4689 188.576 68.4689 188.375 68.6691C187.707 69.0695 187.173 70.0705 187.306 70.8046C187.373 71.1382 187.44 71.2717 187.574 71.3384L188.175 71.6054C188.175 71.5387 188.175 71.5386 188.175 71.4719C188.041 70.5376 188.643 69.3364 189.511 68.8026C189.578 68.7358 189.645 68.7358 189.712 68.7358L189.111 68.4689Z" fill="#636363"/>
<path d="M190.113 97.3646C189.244 97.8318 188.576 98.8995 188.576 99.767V108.442C188.576 108.843 188.71 109.11 188.977 109.243L187.64 108.576L187.507 108.509C187.173 108.376 186.972 108.109 186.972 107.642V98.9662C186.972 98.0987 187.64 97.0309 188.509 96.5638C188.91 96.2969 189.177 96.2301 189.445 96.3636H189.511C189.511 96.3636 189.511 96.3636 189.578 96.3636L191.115 97.0977C190.915 97.031 190.514 97.0977 190.113 97.3646Z" fill="white"/>
<path d="M188.843 109.443L187.373 108.709C187.106 108.576 186.705 108.309 186.705 107.642V98.9662C186.705 98.0319 187.44 96.8974 188.375 96.3636C188.776 96.1634 189.177 95.9632 189.578 96.1634H189.645L189.578 96.4303L189.712 96.2301L191.316 96.9642L191.115 97.4313C190.915 97.3646 190.581 97.4313 190.246 97.5648C189.511 97.9652 188.843 98.9662 188.843 99.7003V108.376C188.843 108.576 188.91 108.843 189.11 108.91L188.843 109.443ZM189.244 96.5638C189.11 96.5638 188.91 96.6305 188.643 96.764C187.908 97.1644 187.239 98.1654 187.239 98.8995V107.575C187.239 107.975 187.44 108.109 187.574 108.175L188.309 108.509C188.309 108.442 188.309 108.376 188.309 108.309V99.6335C188.309 98.6993 189.044 97.5648 189.979 97.0309C190.046 96.9642 190.113 96.9642 190.18 96.8974L189.378 96.497C189.378 96.6305 189.311 96.5638 189.244 96.5638Z" fill="#636363"/>
<path d="M191.583 106.641V97.9652C191.583 97.0977 190.914 96.8307 190.046 97.2979C189.177 97.765 188.509 98.8328 188.509 99.7003V108.376C188.509 109.243 189.177 109.51 190.046 109.043C190.914 108.576 191.583 107.508 191.583 106.641Z" fill="white"/>
<path d="M189.311 109.577C189.11 109.577 188.91 109.51 188.776 109.443C188.442 109.243 188.308 108.91 188.308 108.442V99.767C188.308 98.8327 189.043 97.6983 189.979 97.1644C190.514 96.8307 191.048 96.8307 191.382 97.0309C191.716 97.2311 191.917 97.5648 191.85 98.0319V106.707C191.85 107.642 191.115 108.776 190.179 109.31C189.912 109.443 189.578 109.577 189.311 109.577ZM190.848 97.3646C190.647 97.3646 190.447 97.4313 190.246 97.5648C189.511 97.9652 188.843 98.9662 188.843 99.7003V108.376C188.843 108.576 188.91 108.843 189.11 108.91C189.311 109.043 189.645 108.976 189.979 108.776C190.714 108.309 191.382 107.375 191.382 106.574V97.8985C191.382 97.6983 191.315 97.4313 191.115 97.3646C191.048 97.3646 190.981 97.3646 190.848 97.3646Z" fill="#636363"/>
<path d="M190.046 116.451C189.177 116.918 188.509 117.985 188.509 118.853V123.858C188.509 124.258 188.643 124.525 188.91 124.659L187.574 123.991L187.44 123.925C187.106 123.791 186.905 123.524 186.905 123.057V118.052C186.905 117.185 187.574 116.117 188.442 115.65C188.843 115.383 189.11 115.316 189.445 115.45H189.511C189.511 115.45 189.511 115.45 189.578 115.45L191.115 116.184C190.848 116.117 190.447 116.184 190.046 116.451Z" fill="white"/>
<path d="M188.776 124.859L187.306 124.125C187.039 123.991 186.638 123.725 186.638 123.057V118.052C186.638 117.118 187.373 115.983 188.309 115.45C188.643 115.249 189.11 115.049 189.511 115.249H189.578L189.511 115.516L189.645 115.316L191.249 116.05L191.048 116.517C190.848 116.451 190.514 116.517 190.18 116.651C189.445 117.118 188.776 118.052 188.776 118.853V123.858C188.776 124.058 188.843 124.325 189.044 124.392L188.776 124.859ZM189.177 115.65C189.044 115.65 188.843 115.716 188.576 115.85C187.841 116.317 187.173 117.251 187.173 118.052V123.057C187.173 123.458 187.373 123.591 187.507 123.658L188.242 123.991C188.242 123.925 188.242 123.858 188.242 123.791V118.786C188.242 117.852 188.977 116.717 189.912 116.184C189.979 116.117 190.046 116.117 190.113 116.05L189.311 115.65C189.244 115.716 189.244 115.65 189.177 115.65Z" fill="#636363"/>
<path d="M191.516 122.056V117.051C191.516 116.183 190.848 115.917 189.979 116.384C189.11 116.851 188.442 117.919 188.442 118.786V123.791C188.442 124.659 189.11 124.926 189.979 124.458C190.848 123.991 191.516 122.857 191.516 122.056Z" fill="white"/>
<path d="M189.244 124.926C189.044 124.926 188.843 124.859 188.709 124.792C188.375 124.592 188.242 124.258 188.242 123.791V118.786C188.242 117.852 188.977 116.717 189.912 116.184C190.447 115.85 190.981 115.85 191.316 116.05C191.65 116.25 191.783 116.584 191.783 117.051V122.056C191.783 122.99 191.048 124.125 190.113 124.659C189.845 124.859 189.511 124.926 189.244 124.926ZM190.781 116.45C190.581 116.45 190.38 116.517 190.18 116.651C189.445 117.118 188.776 118.052 188.776 118.786V123.791C188.776 123.991 188.843 124.258 189.044 124.325C189.244 124.459 189.578 124.392 189.912 124.192C190.647 123.724 191.316 122.79 191.316 122.056V117.051C191.316 116.851 191.249 116.584 191.048 116.517C190.981 116.45 190.915 116.45 190.781 116.45Z" fill="#636363"/>
<path d="M93.8202 8.54189L93.7534 203.004C93.7534 208.276 96.3595 213.148 100.77 216.017L176.548 259.594C180.891 261.53 186.17 259.394 186.17 254.456L186.304 60.661C186.304 55.5225 183.765 50.6509 179.421 47.8481L103.71 4.27092C98.2974 1.20117 94.0875 4.00399 93.8202 8.54189Z" fill="white"/>
<path d="M179.822 260.596C178.686 260.596 177.55 260.329 176.414 259.861L100.569 216.284C96.0921 213.348 93.4192 208.343 93.4192 203.004L93.5528 8.54191C93.6865 6.27296 94.8225 4.40442 96.5599 3.40341C98.5646 2.33567 101.171 2.53587 103.844 4.07075L179.622 47.6479C184.032 50.5842 186.638 55.4558 186.638 60.7278L186.438 254.456C186.438 256.592 185.502 258.327 183.765 259.461C182.629 260.195 181.225 260.596 179.822 260.596ZM94.0874 8.54191L94.0206 203.004C94.0206 208.21 96.5599 212.948 100.903 215.817L176.681 259.394C178.953 260.395 181.559 260.262 183.497 259.061C185.034 258.06 185.903 256.458 185.903 254.523L186.037 60.7278C186.037 55.656 183.564 50.9179 179.287 48.1151L103.576 4.47115C101.037 3.06974 98.6314 2.86954 96.8272 3.87055C95.2234 4.73809 94.2211 6.40643 94.0874 8.54191Z" fill="#636363"/>
<path d="M174.209 253.322L102.173 211.546C99.0992 209.544 97.2281 206.074 97.2949 202.404L97.4286 13.0131C97.6291 9.80984 100.569 7.87456 104.378 10.01L176.347 51.7854C179.354 53.7874 181.158 57.1908 181.158 60.7945L180.958 249.718C180.958 253.121 177.149 255.19 174.209 253.322Z" fill="white"/>
<path d="M176.614 254.256C175.746 254.256 174.877 253.989 174.075 253.522L102.039 211.746C98.8986 209.678 97.0276 206.141 97.0276 202.404L97.1612 13.0131C97.2949 11.3447 98.0299 10.0101 99.2996 9.34272C100.703 8.54191 102.574 8.74211 104.445 9.80986L176.414 51.5852C179.555 53.654 181.359 57.0574 181.359 60.7945L181.158 249.718C181.158 251.453 180.223 252.921 178.753 253.722C178.085 254.122 177.349 254.256 176.614 254.256ZM101.304 9.34272C100.703 9.34272 100.101 9.47619 99.5669 9.74312C98.4977 10.3437 97.7626 11.5449 97.6958 12.9463L97.5622 202.404C97.5622 206.007 99.3664 209.344 102.373 211.346L174.409 253.055C175.679 253.922 177.216 253.989 178.619 253.255C179.956 252.521 180.757 251.186 180.757 249.651L180.958 60.7278C180.958 57.1909 179.221 53.9209 176.28 51.9856L104.245 10.2103C103.242 9.60965 102.24 9.34272 101.304 9.34272Z" fill="#636363"/>
<path d="M151.689 33.3002L135.184 23.6905C134.716 23.4236 134.315 23.6905 134.315 24.3578C134.315 25.0252 134.716 25.7592 135.184 26.0262L151.689 35.6358C152.157 35.9028 152.558 35.6358 152.558 34.9685C152.558 34.3012 152.224 33.5671 151.689 33.3002Z" fill="#636363"/>
<path d="M118.278 123.925C111.328 126.527 95.424 121.589 93.9539 119.787L84.5317 124.459C84.5317 124.459 84.5986 124.525 84.6654 124.592C90.7463 129.797 99.5002 134.135 108.922 130.798C116.34 128.129 121.017 122.924 121.017 122.924C120.082 123.324 119.146 123.658 118.278 123.925Z" fill="#636363"/>
<path d="M172.939 172.574C173.073 169.637 173.273 166.367 173.207 162.23C173.207 162.096 173.207 161.963 173.207 161.896L163.784 166.568C163.784 166.634 163.784 166.768 163.784 166.901C162.648 188.857 160.644 216.151 141.866 231.9C140.931 232.634 139.862 233.168 138.726 233.635C138.726 233.635 150.286 225.427 151.288 224.759C166.056 214.95 171.87 193.461 172.939 172.574Z" fill="#636363"/>
<path d="M173.206 161.896C172.137 161.896 171.135 161.83 170.133 161.696C150.687 160.161 139.126 136.738 134.983 115.316L123.222 120.988C123.222 121.055 130.172 164.499 160.71 166.367C161.713 166.434 162.715 166.568 163.784 166.568L173.206 161.896Z" fill="#B199EC"/>
<path d="M123.156 120.922C123.557 123.191 131.709 165.9 163.718 166.501C163.784 169.771 164.92 232.434 130.038 235.971C127.766 234.77 84.9994 212.147 84.4648 124.459C84.799 124.792 91.4145 131.132 101.638 131.199C107.92 131.265 115.337 128.863 123.156 120.922Z" fill="white"/>
<path d="M130.039 236.238L129.972 236.171C125.361 233.702 84.799 209.811 84.2644 124.392V123.658L84.799 124.125C85.4672 124.792 91.9491 130.732 101.772 130.798C109.19 130.865 116.273 127.395 123.022 120.588L123.423 120.188L123.557 120.721C124.425 125.326 132.979 165.433 163.851 166.034H164.119V166.301C164.252 173.041 164.386 232.567 130.172 236.038L130.039 236.238ZM84.8658 125.126C85.6009 209.211 125.227 233.035 130.172 235.637C163.317 232.167 163.584 174.709 163.517 166.768C133.38 165.967 124.359 128.129 123.022 121.522C116.34 128.129 109.19 131.466 101.839 131.466C101.772 131.466 101.705 131.466 101.705 131.466C92.8178 131.466 86.6701 126.728 84.8658 125.126Z" fill="#636363"/>
<path d="M122.889 207.008C121.953 206.875 120.951 206.474 120.015 205.941C118.746 205.273 117.476 204.272 116.34 203.004C114.536 201.002 112.932 198.466 111.729 195.597C110.66 192.994 109.925 190.191 109.724 187.455C109.39 183.918 109.791 180.648 110.86 177.979C111.395 176.578 112.13 175.443 113.065 174.509C115.003 172.373 117.543 171.506 120.349 172.04C127.165 173.174 133.38 181.983 134.315 191.66C134.382 192.394 134.048 192.928 133.514 192.861C132.979 192.794 132.511 192.127 132.444 191.393C131.642 183.184 126.363 175.71 120.617 174.709C118.211 174.309 116.073 175.043 114.469 176.845C113.734 177.645 113.132 178.646 112.598 179.781C111.662 182.05 111.328 184.786 111.595 187.789C111.796 190.125 112.397 192.46 113.333 194.729C114.335 197.198 115.672 199.401 117.275 201.069C118.278 202.137 119.28 202.938 120.349 203.538C121.352 204.072 122.421 204.406 123.423 204.472C124.96 204.539 125.962 203.939 125.628 200.402C125.495 199.134 125.027 198.133 124.091 197.265C123.49 196.665 122.822 196.398 122.688 196.331C120.082 195.797 117.743 192.46 117.409 188.79C117.275 187.455 117.409 186.187 117.877 185.12C118.077 184.586 118.679 184.519 119.146 184.986C119.614 185.453 119.815 186.321 119.547 186.855C119.28 187.455 119.213 188.256 119.28 189.057C119.481 191.326 120.951 193.395 122.554 193.662H122.621H122.688C124.225 194.262 127.165 196.464 127.566 200.669C127.967 205.14 126.764 207.275 123.891 207.075C123.423 207.075 123.156 207.075 122.889 207.008Z" fill="white"/>
<path d="M125.895 191.926H125.829C125.294 191.793 124.826 191.059 124.826 190.325C124.759 188.99 124.225 187.656 123.423 186.655C122.955 186.054 122.354 185.654 121.752 185.453C121.218 185.32 120.817 184.586 120.75 183.852C120.75 183.118 121.151 182.65 121.619 182.784C122.554 183.051 123.49 183.718 124.358 184.719C125.695 186.321 126.564 188.59 126.63 190.725C126.764 191.593 126.363 192.06 125.895 191.926Z" fill="white"/>
<path d="M123.156 201.803C120.817 201.403 118.478 199.668 116.607 196.998C114.736 194.262 113.6 190.925 113.399 187.589C112.998 181.383 116.072 176.911 120.416 177.378C120.95 177.445 121.418 178.046 121.485 178.847C121.552 179.581 121.218 180.115 120.75 180.115C117.342 179.781 114.936 183.251 115.27 188.123C115.471 190.725 116.34 193.328 117.81 195.463C119.28 197.599 121.084 198.933 122.955 199.267C123.49 199.334 123.958 200.001 124.024 200.735C124.024 201.336 123.623 201.87 123.156 201.803Z" fill="white"/>
<path d="M108.321 195.73C107.92 195.664 107.519 195.263 107.385 194.663C106.517 192.06 105.982 189.391 105.715 186.721C105.113 180.382 106.316 174.776 109.056 170.972C111.796 167.102 115.738 165.5 120.216 166.434C124.492 167.302 128.702 170.505 132.11 175.376C135.518 180.248 137.656 186.254 138.258 192.327C138.325 193.128 138.392 193.928 138.392 194.729C138.458 196.531 137.924 198.133 137.055 199C136.988 199.067 136.921 199.134 136.855 199.2C136.32 199.734 135.585 200.602 133.781 199.868C131.175 198.8 129.905 196.264 129.304 194.329C128.635 192.327 128.635 190.592 128.635 190.525C128.635 189.791 129.036 189.324 129.571 189.524C130.105 189.658 130.506 190.392 130.573 191.126C130.573 191.126 130.64 192.46 131.108 193.862C131.709 195.597 132.645 196.731 133.914 197.265C134.85 197.666 135.117 197.332 135.518 196.865C135.585 196.798 135.652 196.731 135.719 196.665C136.253 196.131 136.52 195.196 136.52 194.062C136.52 193.395 136.454 192.661 136.387 191.926C135.318 180.715 128.301 170.638 120.416 169.037C116.473 168.236 112.999 169.637 110.526 173.041C108.12 176.444 107.051 181.449 107.586 186.988C107.786 189.324 108.321 191.726 109.056 193.995C109.323 194.729 109.123 195.463 108.655 195.597C108.521 195.73 108.455 195.73 108.321 195.73Z" fill="white"/>
<path d="M103.777 175.643C103.643 175.643 103.51 175.577 103.309 175.443C102.841 175.043 102.574 174.175 102.708 173.575C103.911 169.17 106.049 165.7 108.922 163.431C111.863 161.095 115.404 160.228 119.213 160.895C125.294 161.963 131.375 166.768 135.852 174.242C136.253 174.843 136.253 175.71 135.919 176.111C135.585 176.511 134.984 176.311 134.583 175.71C130.506 168.97 125.027 164.566 119.48 163.631C112.531 162.43 106.851 166.835 104.579 175.11C104.445 175.443 104.111 175.71 103.777 175.643Z" fill="white"/>
<path d="M124.893 212.681C124.826 212.681 124.826 212.681 124.759 212.681C121.953 212.147 119.213 210.879 116.473 208.81C116.006 208.41 115.671 207.609 115.805 206.942C115.939 206.274 116.473 206.074 117.008 206.474C119.414 208.343 121.953 209.478 124.492 209.945C124.759 210.011 125.094 210.011 125.361 210.078C125.895 210.145 126.363 210.812 126.43 211.546C126.497 212.28 126.163 212.814 125.695 212.814C125.495 212.747 125.16 212.747 124.893 212.681Z" fill="white"/>
<path d="M132.177 165.7C131.976 165.7 131.843 165.567 131.642 165.366C127.7 161.296 123.289 158.76 118.946 158.026C115.204 157.358 111.662 158.092 108.655 160.094C108.254 160.361 107.653 160.028 107.319 159.36C106.984 158.693 107.118 157.892 107.519 157.625C110.793 155.423 114.602 154.689 118.679 155.356C123.423 156.157 128.167 158.893 132.511 163.298C132.979 163.765 133.179 164.632 132.979 165.166C132.778 165.567 132.511 165.767 132.177 165.7Z" fill="white"/>
<path d="M278.654 247.783C278.654 247.783 280.659 247.649 282.53 245.781C285.27 243.045 277.251 241.71 277.251 241.71L275.38 245.18L278.654 247.783Z" fill="#636363"/>
<path d="M263.552 210.412C262.082 209.611 261.146 207.809 261.146 206.141C261.146 205.006 260.545 204.005 259.609 203.471L251.457 198.8C249.385 197.599 247.381 198.867 247.381 201.269L247.18 224.426C247.18 226.094 248.183 227.896 249.586 228.697L279.59 245.847C281.661 247.049 283.666 245.781 283.666 243.378L283.866 225.227C283.866 223.225 282.864 221.423 281.127 220.422L263.552 210.412Z" fill="#636363"/>
<path d="M282.73 245.113C283.198 244.379 283.064 244.446 283.131 243.979C283.131 243.845 283.131 243.712 283.131 243.578L283.332 225.427C283.332 223.425 282.329 221.623 280.592 220.622L263.084 210.612C261.614 209.811 260.679 208.009 260.679 206.341C260.679 205.206 260.077 204.205 259.142 203.672L250.989 199C248.918 197.799 246.913 199.067 246.913 201.469L246.712 224.626C246.712 226.294 247.715 228.096 249.118 228.897L275.847 244.246L275.447 245.047L278.587 246.782C278.587 246.782 279.456 247.649 281.661 246.248C282.129 245.714 282.53 245.447 282.73 245.113Z" fill="#636363"/>
<path d="M278.119 208.143L250.789 192.861C250.254 192.527 248.784 192.861 248.784 194.129L248.984 225.761C248.984 226.094 249.118 226.361 249.385 226.495L276.182 242.444C276.716 242.778 277.919 242.311 277.986 241.043L278.587 208.944C278.52 208.61 278.387 208.343 278.119 208.143Z" fill="#636363"/>
<path d="M277.585 208.61L250.053 193.195C249.519 192.861 248.784 193.261 248.784 193.929L248.182 226.228C248.182 226.561 248.316 226.828 248.583 226.962L276.115 242.377C276.649 242.711 277.384 242.311 277.384 241.643L277.986 209.344C277.986 209.01 277.785 208.744 277.585 208.61Z" fill="white"/>
<path d="M276.516 242.844C276.315 242.844 276.115 242.778 275.914 242.711L248.383 227.295C247.982 227.095 247.781 226.695 247.781 226.294L248.383 193.995C248.383 193.595 248.583 193.194 248.984 192.994C249.318 192.794 249.786 192.794 250.12 192.994L277.652 208.41C278.053 208.61 278.253 209.01 278.253 209.411L277.652 241.71C277.652 242.11 277.451 242.511 277.05 242.711C276.917 242.778 276.716 242.844 276.516 242.844ZM249.586 193.395C249.519 193.395 249.385 193.395 249.318 193.461C249.185 193.528 249.051 193.728 249.051 193.929L248.45 226.228C248.45 226.428 248.517 226.561 248.717 226.695L276.248 242.11C276.382 242.177 276.582 242.177 276.783 242.11C276.917 242.044 277.05 241.843 277.05 241.643L277.652 209.344C277.652 209.144 277.585 209.01 277.384 208.877L249.853 193.461C249.786 193.461 249.719 193.395 249.586 193.395Z" fill="#636363"/>
<path d="M257.471 229.03L251.791 225.76V227.095L257.471 230.365V229.03Z" fill="#636363"/>
<path d="M270.635 236.705L264.955 233.435V234.77L270.635 238.04V236.705Z" fill="#636363"/>
<path d="M264.02 232.768L258.34 229.564V230.899L264.02 234.169V232.768Z" fill="#636363"/>
<path d="M265.156 209.411L267.294 210.679V210.145L265.156 208.944V209.411Z" fill="#636363"/>
<path d="M262.149 207.676L264.755 209.21V208.677L262.149 207.142V207.676Z" fill="#636363"/>
<path d="M259.342 206.074L261.347 207.209V206.675L259.342 205.54V206.074Z" fill="#636363"/>
<path d="M254.798 203.405L258.674 205.674L258.741 205.206L254.798 202.938V203.405Z" fill="#636363"/>
<path d="M267.896 211.012L275.781 215.484V214.95L267.962 210.479L267.896 211.012Z" fill="#636363"/>
<path d="M255.801 205.14L257.738 206.274V205.807L255.801 204.673V205.14Z" fill="#636363"/>
<path d="M252.727 203.405L254.798 204.606V204.072L252.727 202.871V203.405Z" fill="#636363"/>
<path d="M268.363 212.414L275.714 216.618V216.084L268.363 211.88V212.414Z" fill="#636363"/>
<path d="M266.024 211.079L267.962 212.147V211.68L266.024 210.545V211.079Z" fill="#636363"/>
<path d="M251.925 200.669L257.872 204.072V203.538L251.925 200.135V200.669Z" fill="#636363"/>
<path d="M268.363 210.145L275.781 214.349V213.815L268.363 209.611V210.145Z" fill="#636363"/>
<path d="M266.091 208.81L267.962 209.878V209.411L266.091 208.276V208.81Z" fill="#636363"/>
<path d="M259.81 202.871L266.292 206.608V206.141L259.877 202.404L259.81 202.871Z" fill="#636363"/>
<path d="M272.774 211.479L275.781 213.215V212.681L272.774 210.946V211.479Z" fill="#636363"/>
<path d="M269.566 209.611L272.039 211.012V210.478L269.566 209.077V209.611Z" fill="#636363"/>
<path d="M265.156 207.075L268.898 209.211V208.677L265.223 206.608L265.156 207.075Z" fill="#636363"/>
<path d="M261.146 204.739L264.688 206.808V206.274L261.146 204.272V204.739Z" fill="#636363"/>
<path d="M257.07 202.404L260.478 204.406V203.872L257.07 201.937V202.404Z" fill="#636363"/>
<path d="M253.528 200.402L256.402 202.07V201.536L253.528 199.868V200.402Z" fill="#636363"/>
<path d="M262.015 214.616L267.161 217.619L267.227 217.085L262.015 214.149V214.616Z" fill="#636363"/>
<path d="M254.665 210.412L261.213 214.149V213.682L254.665 209.878V210.412Z" fill="#636363"/>
<path d="M251.791 208.743L253.929 209.945V209.477L251.791 208.209V208.743Z" fill="#636363"/>
<path d="M267.829 217.953L273.241 221.089L273.308 220.555L267.829 217.485V217.953Z" fill="#636363"/>
<path d="M258.406 213.682L263.285 216.485V216.017L258.406 213.215V213.682Z" fill="#636363"/>
<path d="M263.686 216.751L265.49 217.752V217.285L263.686 216.218V216.751Z" fill="#636363"/>
<path d="M255.533 212.08L257.605 213.281V212.747L255.533 211.546V212.08Z" fill="#636363"/>
<path d="M252.793 210.478L255.132 211.813V211.346L252.793 209.945V210.478Z" fill="#636363"/>
<path d="M265.891 218.019L267.829 219.154V218.62L265.891 217.552V218.019Z" fill="#636363"/>
<path d="M255.399 209.678L257.738 211.012V210.478L255.399 209.144V209.678Z" fill="#636363"/>
<path d="M252.593 208.076L254.531 209.144V208.61L252.593 207.542V208.076Z" fill="#636363"/>
<path d="M268.229 217.085L275.647 221.289V220.755L268.296 216.551L268.229 217.085Z" fill="#636363"/>
<path d="M265.958 215.75L267.829 216.818V216.351L265.958 215.283V215.75Z" fill="#636363"/>
<path d="M263.352 210.745L273.308 216.485V215.951L263.352 210.212V210.745Z" fill="#636363"/>
<path d="M259.676 208.61L262.216 210.145L262.282 209.611L259.676 208.143V208.61Z" fill="#636363"/>
<path d="M254.33 205.54L259.008 208.276V207.742H259.075L254.33 205.073V205.54Z" fill="#636363"/>
<path d="M259.743 209.878L266.158 213.548V213.081L259.743 209.344V209.878Z" fill="#636363"/>
<path d="M251.858 205.34L258.741 209.277V208.81L251.858 204.806V205.34Z" fill="#636363"/>
<path d="M268.497 214.883L275.714 219.02V218.487L268.497 214.416V214.883Z" fill="#636363"/>
<path d="M266.96 214.082L268.163 214.683V214.216L267.027 213.548L266.96 214.082Z" fill="#636363"/>
<path d="M272.64 218.42L275.647 220.155L275.714 219.621L272.707 217.886L272.64 218.42Z" fill="#636363"/>
<path d="M269.9 216.818L271.905 217.953V217.486L269.9 216.351V216.818Z" fill="#636363"/>
<path d="M263.953 213.415L269.432 216.551V216.017L263.953 212.881V213.415Z" fill="#636363"/>
<path d="M257.538 209.744L260.211 211.279V210.745L257.538 209.211V209.744Z" fill="#636363"/>
<path d="M253.395 207.342L255.667 208.677V208.143L253.462 206.875L253.395 207.342Z" fill="#636363"/>
<path d="M256.001 208.877L257.137 209.477V209.01L256.001 208.343V208.877Z" fill="#636363"/>
<path d="M260.812 211.613L263.485 213.148V212.614L260.812 211.079V211.613Z" fill="#636363"/>
<path d="M261.08 211.746C259.609 210.946 258.674 209.144 258.674 207.475C258.674 206.341 258.072 205.34 257.137 204.806L248.984 200.135C246.913 198.934 244.908 200.201 244.908 202.604L244.708 225.761C244.708 227.429 245.71 229.231 247.113 230.031L277.117 247.182C279.189 248.383 281.193 247.115 281.193 244.713L281.394 226.561C281.394 224.559 280.392 222.757 278.654 221.756L261.08 211.746Z" fill="#636363"/>
<path d="M260.679 211.947C259.209 211.146 258.273 209.344 258.273 207.676C258.273 206.541 257.672 205.54 256.736 205.006L248.584 200.335C246.512 199.134 244.507 200.402 244.507 202.804L244.307 225.961C244.307 227.629 245.309 229.431 246.713 230.232L276.716 247.382C278.788 248.583 280.793 247.316 280.793 244.913L280.993 226.761C280.993 224.759 279.991 222.958 278.253 221.957L260.679 211.947Z" fill="white"/>
<path d="M278.253 248.116C277.719 248.116 277.117 247.983 276.516 247.649L246.512 230.499C244.975 229.631 243.973 227.763 243.973 225.961L244.173 202.804C244.173 201.536 244.708 200.468 245.643 199.935C246.512 199.401 247.648 199.467 248.65 200.068L256.803 204.739C257.872 205.34 258.473 206.474 258.473 207.676C258.473 209.277 259.409 210.946 260.745 211.746L278.253 221.756C280.057 222.757 281.127 224.693 281.127 226.761L280.926 244.913C280.926 246.181 280.391 247.249 279.456 247.716C279.122 247.983 278.721 248.116 278.253 248.116ZM246.98 200.135C246.579 200.135 246.245 200.201 245.911 200.402C245.175 200.802 244.708 201.67 244.708 202.804L244.507 225.961C244.507 227.562 245.443 229.231 246.779 230.031L276.783 247.182C277.652 247.649 278.587 247.716 279.255 247.316C279.991 246.915 280.458 246.048 280.458 244.913L280.659 226.761C280.659 224.893 279.656 223.158 278.053 222.224L260.545 212.214C259.008 211.346 258.006 209.477 258.006 207.676C258.006 206.675 257.471 205.74 256.602 205.206L248.45 200.535C247.982 200.268 247.447 200.135 246.98 200.135Z" fill="#636363"/>
<path d="M262.015 87.5548L216.909 64.5983V36.0363L262.015 59.0594V87.5548Z" fill="white"/>
<path d="M262.282 87.9552L216.642 64.7318V35.6359L262.282 58.8592V87.9552ZM217.176 64.3981L261.815 87.0876V59.1929L217.176 36.5034V64.3981Z" fill="#636363"/>
<path d="M262.015 59.0594L253.863 61.3284L252.526 61.7288L251.39 62.0624L250.722 62.2626L250.455 62.3294L249.385 62.5963L248.65 62.7965L239.696 65.3991L239.496 65.4659L229.205 52.0524L228.202 50.7177L228.069 50.5842L227.133 49.383L226.064 47.9816L223.458 44.6449L216.909 36.0363L230.474 42.9766L239.496 47.5145L253.863 54.8552L262.015 59.0594Z" fill="#636363"/>
<path d="M239.496 29.9634L262.015 59.0594L239.496 47.5144L216.909 36.0362L239.496 29.9634Z" fill="#636363"/>
<path d="M239.496 60.0604L250.722 73.8076L262.015 87.5548L239.496 76.0765L216.909 64.5983L228.202 62.3294L239.496 60.0604Z" fill="white"/>
<path d="M263.017 88.3556L216.107 64.4648L239.562 59.7267L263.017 88.3556ZM217.644 64.665L261.079 86.7539L239.362 60.3274L217.644 64.665Z" fill="#636363"/>
<path opacity="0.16" d="M250.588 44.3112L230.474 33.9675V42.9765V53.387L239.696 65.3991L248.65 62.7965L249.385 62.5963L250.454 62.3293L250.722 62.2626L251.39 62.0624L252.526 61.7287L253.862 61.3283V54.8552V48.4487L250.588 44.3112Z" fill="#373737"/>
<path d="M252.526 44.6449V61.7288L251.457 62.0624H251.39L250.722 62.2626L250.454 62.3294L249.385 62.5963L248.65 62.7965L239.495 65.4659L229.205 52.0524V32.6328L251.457 44.111L252.526 44.6449Z" fill="white"/>
<path d="M239.362 65.7328L228.937 52.1191V32.2324L252.793 44.5114V61.929L239.362 65.7328ZM229.405 51.9856L239.562 65.1989L252.259 61.5953V44.7784L251.323 44.3112L229.405 33.0332V51.9856Z" fill="#636363"/>
<path opacity="0.16" d="M251.457 44.111V62.0624H251.39L250.722 62.2626L250.454 62.3294L249.385 62.5963L248.65 62.7965L239.495 65.4659L229.205 52.0524V32.6328L251.457 44.111Z" fill="#373737"/>
<path d="M250.454 39.7733V62.3293L249.385 62.5963L248.65 62.7965L239.495 65.4658L228.202 50.7177L228.069 50.5842L227.133 49.383V27.7612L250.454 39.7733Z" fill="white"/>
<path d="M239.362 65.7328L226.866 49.5165V27.3608L250.722 39.6399V62.5296L239.362 65.7328ZM227.4 49.3163L239.562 65.1322L250.254 62.1292V39.9068L227.4 28.1616V49.3163Z" fill="#636363"/>
<path opacity="0.11" d="M240.097 64.3981L228.804 49.65L228.737 49.5165L227.133 47.5145V49.383L228.069 50.5842L228.202 50.7177L239.495 65.4659L248.65 62.7965L249.385 62.5963L250.454 62.3294V61.4618L240.097 64.3981Z" fill="#373737"/>
<path d="M237.557 137.005L234.016 139.207L232.813 137.405C232.011 137.205 231.142 136.804 230.207 136.337C224.794 133.201 220.451 125.993 220.517 120.188C220.517 119.72 220.584 119.253 220.651 118.786L219.448 116.918L222.723 114.916C222.99 114.715 223.324 114.515 223.591 114.382C225.396 113.581 227.734 113.848 230.407 115.316C235.82 118.453 240.164 125.66 240.164 131.466C240.097 134.135 239.161 136.07 237.557 137.005Z" fill="#636363"/>
<path d="M216.976 149.484C216.976 147.415 217.444 145.546 218.179 144.012L217.711 142.744C217.711 142.744 221.052 140.675 221.186 140.608L221.587 140.341C223.925 139.14 226.866 139.14 230.14 141.009C237.424 145.146 243.304 156.758 243.237 164.566L239.429 166.901L230.942 159.027L232.613 158.426L216.976 149.484Z" fill="#636363"/>
<path d="M226.598 117.652C232.011 120.788 236.355 127.995 236.355 133.801C236.288 139.607 231.877 141.809 226.465 138.673C221.052 135.536 216.708 128.329 216.708 122.523C216.775 116.717 221.186 114.515 226.598 117.652Z" fill="white"/>
<path d="M231.076 140.341C229.605 140.341 228.002 139.874 226.331 138.873C220.852 135.737 216.441 128.396 216.508 122.523C216.508 119.787 217.51 117.718 219.315 116.651C221.253 115.516 223.992 115.783 226.732 117.385C232.212 120.521 236.622 127.862 236.555 133.735C236.555 136.471 235.553 138.606 233.749 139.607C233.013 140.074 232.078 140.341 231.076 140.341ZM221.988 116.45C221.052 116.45 220.25 116.651 219.515 117.051C217.911 117.985 216.976 119.921 216.976 122.523C216.909 128.262 221.253 135.403 226.598 138.473C229.205 140.008 231.744 140.274 233.548 139.207C235.152 138.272 236.087 136.337 236.087 133.735C236.154 127.995 231.811 120.855 226.465 117.785C224.928 116.918 223.324 116.45 221.988 116.45Z" fill="#636363"/>
<path d="M226.398 143.411C233.682 147.548 239.562 159.16 239.495 166.968L213.167 151.886C213.234 144.078 219.114 139.273 226.398 143.411Z" fill="white"/>
<path d="M239.696 167.368L212.9 152.02V151.886C212.9 147.682 214.637 144.278 217.444 142.61C220.05 141.142 223.19 141.342 226.465 143.211C234.083 147.548 239.696 159.36 239.696 166.968V167.368ZM213.434 151.753L239.228 166.568C239.094 159.227 233.481 147.815 226.264 143.678C223.19 141.876 220.183 141.676 217.711 143.077C215.105 144.545 213.501 147.815 213.434 151.753Z" fill="#636363"/>
<path d="M54.0602 34.5681C54.5948 34.9018 55.3967 34.7683 56.0649 34.3679L61.5445 30.5641C62.5468 29.83 64.0169 29.8967 65.3534 30.6308L73.9736 35.5691C75.7779 36.5701 75.4438 38.2385 74.976 40.0403L66.0885 71.205C65.7543 72.6064 64.6852 73.0068 63.2819 72.206L27.999 51.9856C26.5958 51.1848 25.7939 49.4497 26.128 48.0483L32.8103 25.0252C33.0776 24.0909 34.6814 23.4236 35.4833 23.8907L54.0602 34.5681Z" fill="#B199EC"/>
<path d="M52.4565 39.2395L58.4706 29.2294L54.4612 26.9605V18.2851L50.4518 16.0161V24.6915L46.4424 22.4226L52.4565 39.2395Z" fill="white"/>
<path d="M52.3896 39.9068L45.9077 21.8219L50.1176 24.2243V15.549L54.7284 18.1516V26.827L58.8047 29.1627L52.3896 39.9068ZM46.9769 23.0231L52.5232 38.5721L58.0696 29.3629L54.1938 27.1606V18.4852L50.719 16.55V25.2254L46.9769 23.0231Z" fill="#636363"/>
<path d="M45.1726 38.3719C45.7072 38.7055 46.3086 38.5721 46.5759 38.1717L49.1152 34.3678C49.583 33.6338 50.719 33.7005 52.0555 34.4346L63.0145 40.1737C64.8188 41.1747 65.2865 42.843 65.6875 44.6449L65.3533 71.2717C65.6206 72.6731 64.7519 73.1402 63.3486 72.3394L28.1995 51.9856C26.863 51.385 26.0611 50.5174 25.6602 49.5832C25.326 48.8491 25.1256 48.0483 25.1256 47.2475L24.9251 28.8289C24.7246 27.8947 25.727 27.2273 26.5289 27.6945L45.1726 38.3719Z" fill="white"/>
<path d="M64.5515 72.94C64.1505 72.94 63.6827 72.8065 63.215 72.5396L28.0658 52.2525C26.863 51.7187 25.9275 50.8511 25.3929 49.7166C25.0588 48.9826 24.8583 48.1818 24.8583 47.2475L24.6578 28.829C24.5242 28.2951 24.7915 27.8279 25.1924 27.4943C25.6602 27.1606 26.1948 27.1606 26.6625 27.4275L45.3063 38.1717C45.7072 38.4386 46.1082 38.3719 46.3755 38.0382L48.9147 34.2344C49.5162 33.3669 50.719 33.3669 52.2559 34.2344L63.215 39.9735C65.086 41.0412 65.6206 42.7763 66.0216 44.6449L65.6875 71.2049C65.8879 72.1392 65.5538 72.6063 65.2865 72.7398C65.086 72.8733 64.8187 72.94 64.5515 72.94ZM25.9943 27.7612C25.8606 27.7612 25.6602 27.8279 25.5265 27.8947C25.2592 28.0949 25.1256 28.3618 25.1924 28.6955V28.7622L25.3929 47.1808C25.3929 47.9816 25.5933 48.7824 25.8606 49.383C26.3284 50.384 27.1303 51.118 28.2663 51.6519L63.4823 72.0057C64.0837 72.3394 64.6183 72.4729 64.8856 72.2727C65.086 72.1392 65.1529 71.7388 65.0192 71.2717L65.3533 44.7116C64.9524 42.9765 64.4846 41.4416 62.8809 40.4406L51.9218 34.7015C50.719 34.0342 49.7166 33.9675 49.3825 34.5013L46.7764 38.3052C46.3755 38.9058 45.6404 38.9725 44.9722 38.6388L26.3952 27.8947C26.2616 27.8279 26.1279 27.7612 25.9943 27.7612Z" fill="#636363"/>
<path d="M32.6098 48.7824L26.7961 45.5792L27.598 49.1828C27.6648 49.2495 27.7317 49.383 27.7985 49.4497L33.0776 52.5862L32.6098 48.7824Z" fill="white"/>
<path d="M33.4785 53.0533L27.6648 49.6499C27.5312 49.5832 27.3975 49.4497 27.3307 49.3163L27.2639 49.2495L26.3284 45.0453L32.8102 48.5822L33.4785 53.0533ZM27.8653 49.0493C27.9321 49.1161 27.9321 49.1828 27.999 49.1828L32.8102 51.9856L32.4093 48.9159L27.2639 46.113L27.8653 49.0493Z" fill="#636363"/>
<path d="M29.0681 48.1151L27.6648 47.381L27.8653 48.2485L27.9321 48.3153L29.2017 49.0493L29.0681 48.1151Z" fill="#636363"/>
<path d="M42.7669 43.7107C42.0319 43.3103 38.8912 42.5762 38.0225 42.376V48.382C38.0225 51.385 40.1608 55.0554 42.7669 56.5903C43.9698 57.3244 45.1058 57.3911 45.9745 57.0574C46.7763 56.7237 47.3109 55.9229 47.5114 54.7217C47.5782 54.4548 47.5782 54.1879 47.5782 53.9209V47.9149C45.9076 46.4467 44.3707 44.6449 42.7669 43.7107Z" fill="white"/>
<path d="M45.9744 56.9907C45.9075 57.0574 45.8407 57.0574 45.8407 57.1241C44.972 57.658 43.7692 57.5245 42.4327 56.7905C39.8266 55.2556 37.6882 51.5852 37.6882 48.5822V42.5762C37.8219 42.5762 37.9555 42.6429 38.0892 42.6429V48.3153C38.0892 51.3183 40.2275 54.9887 42.8336 56.5235C43.9696 57.2576 45.1056 57.3911 45.9744 56.9907Z" fill="#636363"/>
<path d="M48.7142 47.2475V53.5205C48.7142 55.0554 48.1796 56.1898 47.3777 56.657L45.9076 57.4578C46.0412 57.3243 47.4445 55.1888 47.4445 54.2546V47.9816C47.4445 47.9816 43.9697 44.5114 42.3659 43.5772C40.9626 42.7764 37.2874 42.109 37.2874 42.109L38.557 41.3749C38.557 41.3749 42.0318 41.9088 43.6356 42.8431C45.2394 43.7774 48.7142 47.2475 48.7142 47.2475Z" fill="#636363"/>
<path d="M48.7142 47.2475L47.4445 47.9816C47.4445 47.9816 43.9697 44.5114 42.3659 43.5772C40.7622 42.6429 37.2874 42.109 37.2874 42.109L38.557 41.3749C38.557 41.3749 41.965 41.7753 43.6356 42.7096C45.2394 43.7106 48.7142 47.2475 48.7142 47.2475Z" fill="#636363"/>
<path d="M42.3659 43.5772C40.829 42.7764 38.6238 42.3092 37.2874 42.109V48.382C37.2874 51.5852 39.5594 55.5225 42.3659 57.1241C43.8361 57.9249 45.1057 57.9249 46.0412 57.3243C46.9099 56.7905 47.4445 55.7227 47.4445 54.2546V47.9816C47.4445 47.9816 44.5043 44.7116 42.3659 43.5772ZM47.1772 54.1211C47.1772 55.5225 46.7095 56.5235 45.9744 57.0574C45.9076 57.1241 45.8408 57.1241 45.8408 57.1909C44.9721 57.7247 43.7692 57.5913 42.4328 56.8572C39.8266 55.3223 37.6883 51.6519 37.6883 48.6489V42.6429C39.2921 43.0433 40.8958 43.11 42.4328 43.9776C44.0365 44.9118 45.5735 46.6469 47.1772 48.1151V54.1211Z" fill="white"/>
<path d="M69.2959 225.827L67.6921 226.561V196.598L69.2959 195.864V225.827Z" fill="#636363"/>
<path d="M30.7388 204.806V175.71L67.4249 196.731V226.094L30.7388 204.806Z" fill="white"/>
<path d="M31.006 176.177L67.1576 196.932V225.627L31.006 204.673V176.177ZM30.4714 175.243V205.006L67.6921 226.561V196.598L30.4714 175.243Z" fill="#636363"/>
<path d="M69.2959 195.864L67.6921 196.598L30.4714 175.243L32.0752 174.509L69.2959 195.864Z" fill="#636363"/>
<path d="M69.2959 194.929L67.6921 195.73V190.258L69.2959 189.524V194.929Z" fill="#636363"/>
<path d="M30.7388 173.975V169.304L67.4249 190.392V195.196L30.7388 173.975Z" fill="white"/>
<path d="M31.006 169.771L67.1576 190.525V194.729L31.006 173.775V169.771ZM30.4714 168.837V174.109L67.6921 195.73V190.258L30.4714 168.837Z" fill="#636363"/>
<path d="M69.2959 189.524L67.6921 190.191L30.4714 168.837L31.8747 167.969L69.2959 189.524Z" fill="#636363"/>
<path d="M41.1631 205.54L55.0624 204.339L41.1631 186.921V205.54Z" fill="white"/>
<path d="M40.9626 205.74V186.254L55.4634 204.539L40.9626 205.74ZM41.3636 187.589V205.273L54.5946 204.139L41.3636 187.589Z" fill="#636363"/>
<path d="M145.274 64.7318C145.274 61.2617 142.535 56.9907 139.06 55.0554C137.189 53.9877 135.318 53.7875 133.981 54.5216C132.712 55.1889 131.977 56.5236 131.977 58.3254V65.7328L127.366 63.2637L126.965 85.4193C126.898 90.2241 131.709 96.7641 137.79 100.034C143.871 103.304 148.883 102.103 148.95 97.2979L149.418 75.0756L145.274 72.8066V64.7318ZM139.929 88.8895C139.995 89.1564 139.661 89.3566 139.461 89.2231L135.986 87.1544C135.852 87.0877 135.786 86.9542 135.852 86.8207L136.721 81.8157C136.721 81.7489 136.721 81.6155 136.654 81.5487C136.12 80.8814 135.786 80.0806 135.786 79.3465C135.786 78.1453 136.788 77.7449 137.924 78.4123C139.127 79.0796 140.062 80.6145 140.062 81.8157C140.062 82.4163 139.795 82.8167 139.394 82.9502C139.26 83.0169 139.127 83.1504 139.127 83.2838L139.929 88.8895ZM142.668 71.4052L134.583 67.0008V58.7925C134.583 57.8582 134.917 57.1909 135.451 56.8572C136.12 56.5236 137.122 56.657 138.191 57.2576C140.597 58.5923 142.668 61.7955 142.668 64.198V71.4052Z" fill="white"/>
<path d="M144.005 102.169C142.134 102.169 139.929 101.502 137.657 100.301C131.509 96.9642 126.631 90.2909 126.697 85.4193L127.165 62.7298L131.776 65.1989V58.2586C131.776 56.3901 132.511 54.9219 133.914 54.2546C135.318 53.5205 137.256 53.7207 139.26 54.8552C142.802 56.7905 145.609 61.1949 145.609 64.7318V72.6731L149.752 74.9421V75.0756L149.284 97.2979C149.217 99.1665 148.482 100.568 147.079 101.435C146.21 101.903 145.141 102.169 144.005 102.169ZM127.633 63.5973L127.165 85.4193C127.098 90.0907 131.843 96.5638 137.857 99.8338C141.399 101.769 144.673 102.169 146.745 100.968C147.947 100.234 148.616 98.9663 148.682 97.2979L149.15 75.209L145.007 72.9401V64.7318C145.007 61.3284 142.334 57.1909 138.926 55.3223C137.122 54.3213 135.385 54.1211 134.115 54.7885C132.912 55.3891 132.244 56.657 132.244 58.3254V66.0665L127.633 63.5973ZM139.594 89.4901C139.461 89.4901 139.394 89.4901 139.26 89.4233L135.785 87.3546C135.585 87.2211 135.451 87.0209 135.518 86.754L136.387 81.6822C136.387 81.6822 136.387 81.6822 136.387 81.6155C135.852 80.8814 135.518 80.0139 135.518 79.2798C135.518 78.6792 135.785 78.212 136.186 77.9451C136.654 77.6782 137.389 77.7449 138.057 78.1453C139.327 78.8794 140.329 80.481 140.329 81.7489C140.329 82.4163 140.062 82.9501 139.528 83.1503C139.461 83.1503 139.461 83.2171 139.461 83.2171L140.196 88.756C140.196 88.9562 140.129 89.2231 139.929 89.2899C139.795 89.4233 139.728 89.4901 139.594 89.4901ZM136.855 78.3455C136.721 78.3455 136.521 78.4122 136.454 78.479C136.12 78.6792 136.053 79.0796 136.053 79.3465C136.053 79.9471 136.32 80.6812 136.855 81.3485C136.921 81.482 136.988 81.6155 136.988 81.7489L136.12 86.8207C136.12 86.8874 136.12 86.8874 136.12 86.8874L139.594 88.9562H139.661C139.661 88.9562 139.728 88.9562 139.661 88.8895L138.926 83.3505C138.926 83.0836 139.06 82.8167 139.327 82.6832C139.728 82.483 139.795 82.0826 139.795 81.7489C139.795 80.6812 138.859 79.213 137.79 78.6124C137.456 78.479 137.122 78.3455 136.855 78.3455ZM142.936 71.8723L134.315 67.201V58.7925C134.315 57.7915 134.716 56.9907 135.385 56.657C136.12 56.2566 137.189 56.4568 138.325 57.0574C140.864 58.4588 142.936 61.7288 142.936 64.2647V71.8723ZM134.85 66.8673L142.468 70.9381V64.1979C142.468 61.8623 140.463 58.7925 138.124 57.4578C137.122 56.924 136.186 56.7905 135.652 57.0574C135.184 57.3244 134.917 57.925 134.917 58.7258V66.8673H134.85Z" fill="#636363" stroke="#636363" stroke-width="0.5"/>
</g>
<defs>
<clipPath id="clip0_457_32817">
<rect width="284" height="265" fill="white"/>
</clipPath>
</defs>
</svg>
