<svg width="153" height="132" viewBox="0 0 153 132" fill="none" xmlns="http://www.w3.org/2000/svg">
<path d="M130.578 56.0573H123.858C123.783 56.0573 123.708 56.0573 123.559 56.0573H123.335L123.26 56.1319C123.185 56.1319 123.111 56.2066 123.036 56.2066L122.887 56.2813C122.812 56.3559 122.737 56.3559 122.663 56.4306L122.513 56.5053C122.439 56.58 122.364 56.6546 122.289 56.7293L122.215 56.804C122.14 56.8787 122.065 56.9533 122.065 57.028L121.991 57.1027C121.916 57.1774 121.916 57.3267 121.841 57.4014V57.476C121.841 57.5507 121.767 57.7001 121.767 57.7747V58.2975C121.767 58.4468 121.767 58.5215 121.841 58.6708C123.111 62.9272 123.783 67.4076 123.783 71.9627C123.783 76.6671 123.111 81.1475 121.841 85.4039C121.692 86.0013 121.468 86.524 121.319 87.1213C121.244 87.3454 121.169 87.5694 121.095 87.7934C120.945 88.2414 120.796 88.6895 120.572 89.0629C120.423 89.4362 120.273 89.8096 120.124 90.1083C120.049 90.2576 120.049 90.3323 119.974 90.4816C115.195 101.459 106.384 110.27 95.407 114.974C95.3323 115.049 95.183 115.049 95.1083 115.124C94.7349 115.273 94.3615 115.423 93.9882 115.572C93.6148 115.721 93.1668 115.871 92.7934 116.02C92.5694 116.095 92.2707 116.169 92.0467 116.244C91.524 116.393 91.0012 116.617 90.4785 116.767C86.2222 118.036 81.6671 118.783 77.0373 118.783C72.5569 118.783 68.0765 118.111 63.7455 116.841C63.6708 116.841 63.5215 116.767 63.4468 116.767H62.9241C62.8494 116.767 62.7001 116.767 62.6254 116.841H62.5507C62.476 116.841 62.3267 116.916 62.252 116.991L62.1773 117.065C62.1027 117.14 62.028 117.14 61.9533 117.215L61.8787 117.289C61.804 117.364 61.7293 117.439 61.6546 117.513L61.58 117.588C61.5053 117.663 61.5053 117.737 61.4306 117.812L61.3559 117.961C61.3559 118.036 61.2813 118.111 61.2813 118.185L61.2066 118.26V118.484C61.2066 118.559 61.2066 118.633 61.2066 118.708V125.354C61.2066 128.938 64.1189 131.776 67.6285 131.776H86.5955C90.1798 131.776 93.0921 128.864 93.0921 125.354V120.276C93.4655 120.127 93.8388 120.052 94.2122 119.903C94.4362 119.828 94.5856 119.754 94.8096 119.679C95.5563 119.38 96.303 119.082 97.0498 118.783C98.0952 118.335 99.1406 117.812 100.186 117.364L103.77 120.948C106.235 123.413 110.491 123.413 112.881 120.948L126.322 107.507C127.516 106.312 128.189 104.67 128.189 102.952C128.189 101.235 127.516 99.5918 126.322 98.397L122.737 94.8127C123.26 93.7673 123.708 92.7218 124.156 91.6764C124.455 90.9297 124.754 90.183 125.052 89.5109C125.127 89.2869 125.202 89.0629 125.276 88.8388C125.426 88.4655 125.5 88.1668 125.65 87.7934H130.727C134.312 87.7934 137.149 84.8811 137.149 81.3715V62.5538C137 58.9695 134.162 56.0573 130.578 56.0573ZM88.761 125.578C88.761 126.848 87.7156 127.893 86.4462 127.893H67.5538C66.2844 127.893 65.239 126.848 65.239 125.578V121.695C69.0473 122.591 73.005 123.039 77.0373 123.039C81.0697 123.039 85.0274 122.516 88.8357 121.62V125.578H88.761ZM123.185 101.533C123.633 101.981 123.858 102.579 123.858 103.176C123.858 103.773 123.633 104.371 123.185 104.819L109.744 118.26C108.848 119.156 107.429 119.156 106.533 118.26L103.77 115.497C110.566 111.316 116.241 105.566 120.423 98.8451L123.185 101.533ZM132.893 81.5208C132.893 82.7903 131.848 83.8357 130.578 83.8357H126.695C127.591 80.0274 128.114 76.1444 128.114 72.0373C128.114 68.0797 127.666 64.122 126.77 60.239H130.653C131.922 60.239 132.968 61.2844 132.968 62.5538V81.5208H132.893Z" fill="#3E3E51"/>
<path d="M77.0373 109.897C72.9303 109.897 68.8979 109.225 65.0896 107.955C63.9695 107.582 62.8494 108.179 62.476 109.299C62.1027 110.419 62.7001 111.54 63.8202 111.913C68.0765 113.332 72.5569 114.078 77.112 114.078C100.261 114.078 119.153 95.2607 119.153 72.0373C119.153 67.9303 118.556 63.8979 117.361 60.0149C117.062 58.8948 115.867 58.2975 114.747 58.5961C113.627 58.8948 113.03 60.0896 113.329 61.2097C114.374 64.7194 114.897 68.3783 114.897 72.0373C114.897 92.8712 97.8712 109.897 77.0373 109.897Z" fill="#3E3E51"/>
<path d="M32.308 98.4717C32.2334 98.621 32.1587 98.7704 32.084 98.9197V98.9944L24.8407 121.62C24.6167 122.367 24.766 123.189 25.3634 123.711C25.7368 124.085 26.2595 124.309 26.8569 124.309C27.0809 124.309 27.3049 124.309 27.5289 124.234L50.1549 116.991H50.2296C50.379 116.916 50.4536 116.916 50.603 116.841L50.6777 116.767C50.827 116.692 50.9017 116.617 50.9764 116.468L118.481 48.9633C118.854 49.262 119.302 49.486 119.825 49.486C120.348 49.486 120.871 49.262 121.319 48.8886L127.815 42.392C128.189 42.0187 128.413 41.496 128.413 40.8986C128.413 40.3759 128.263 39.9278 127.89 39.5545L132.445 34.9994C133.938 33.5059 134.685 31.5644 134.685 29.5482C134.685 27.532 133.864 25.5159 132.445 24.0971L125.052 16.7044C123.559 15.211 121.617 14.4642 119.601 14.4642C117.585 14.4642 115.569 15.2856 114.15 16.7044L109.595 21.2595C108.773 20.5874 107.504 20.6621 106.757 21.4088L100.261 27.9054C99.514 28.6521 99.4393 29.9216 100.111 30.743L32.6067 98.2477C32.532 98.2477 32.3827 98.3223 32.308 98.4717ZM49.4829 111.988L44.7038 107.208L110.715 41.1973L115.494 45.9764L49.4829 111.988ZM116.988 19.6167C118.332 18.2726 120.647 18.2726 121.991 19.6167L129.383 27.0093C130.055 27.6814 130.429 28.5775 130.429 29.5482C130.429 30.519 130.055 31.4151 129.383 32.0871L124.828 36.6422L116.764 28.4281L112.507 24.1717L116.988 19.6167ZM108.176 25.7399L123.335 40.8986L119.75 44.4829L104.666 29.3989L108.176 25.7399ZM103.024 33.5806L107.803 38.3597L41.7915 104.371L37.0124 99.5918L103.024 33.5806ZM45.5999 114.004L30.0678 119.007L35.0709 103.475L45.5999 114.004Z" fill="#3E3E51"/>
<path d="M29.9932 52.1742C29.6945 52.921 29.3958 53.6677 29.0971 54.4144C29.0224 54.6385 28.9477 54.8625 28.8731 55.0865C28.7237 55.4599 28.649 55.7586 28.4997 56.1319H23.4219C19.9123 56.0573 17 58.9695 17 62.5538V81.5209C17 85.1052 19.9123 87.9427 23.4219 87.9427H29.9932C31.1133 87.9427 32.084 87.0467 32.084 85.8519C32.084 85.6279 32.0093 85.4039 32.0093 85.2545V85.1798C30.7399 80.9235 30.1425 76.4431 30.1425 71.9627C30.1425 67.2582 30.8146 62.7778 32.084 58.5215C32.2334 57.9241 32.4574 57.4014 32.6067 56.804C32.6814 56.58 32.7561 56.3559 32.8307 56.1319C32.9801 55.7586 33.1294 55.3105 33.2788 54.9372C33.4281 54.5638 33.5775 54.1904 33.7268 53.8171C33.8015 53.7424 33.8015 53.6677 33.8762 53.5184C38.6553 42.4667 47.5414 33.5806 58.593 28.8762L58.817 28.8015C59.1904 28.6521 59.6385 28.5028 60.0118 28.3535C60.3852 28.2041 60.7586 28.0548 61.2066 27.9054C61.4306 27.8307 61.7293 27.7561 61.9533 27.6814C62.476 27.532 63.0734 27.308 63.5961 27.1587C67.8525 25.8892 72.4076 25.2172 77.0373 25.2172C81.5177 25.2172 85.9981 25.8892 90.3292 27.1587C90.4785 27.1587 90.5532 27.2334 90.7025 27.2334H91.2253C91.3746 27.2334 91.4493 27.1587 91.5986 27.1587H91.6733C91.8226 27.1587 91.8973 27.084 91.972 27.0093H92.0467C92.1213 26.9347 92.2707 26.86 92.3454 26.7853L92.42 26.7106C92.4947 26.636 92.5694 26.5613 92.6441 26.4866L92.7187 26.4119C92.7934 26.3373 92.7934 26.2626 92.8681 26.1879L92.9427 26.0386C92.9427 25.9639 93.0174 25.8892 93.0174 25.8146L93.0921 25.7399V25.4412C93.0921 25.3665 93.0921 25.2918 93.0921 25.2172V18.4219C93.0921 14.8376 90.1798 12 86.5955 12H67.5538C63.9695 12 61.0572 14.9123 61.0572 18.4219V23.4997C60.6839 23.649 60.3105 23.7237 59.9371 23.8731C59.7131 23.9477 59.5638 24.0224 59.3398 24.0971C57.4729 24.7691 55.6808 25.5159 53.9633 26.4119L50.379 22.8276C47.9147 20.3634 43.6584 20.3634 41.2688 22.8276L27.8276 36.2688C26.6329 37.4636 25.9608 39.1064 25.9608 40.8239C25.9608 42.5414 26.6329 44.1842 27.8276 45.379L31.4119 48.9633C30.9639 50.0087 30.4412 51.1288 29.9932 52.1742ZM27.3796 83.761H23.4219C22.1525 83.761 21.107 82.7156 21.107 81.4462V62.5538C21.107 61.2844 22.1525 60.239 23.4219 60.239H27.3049C26.4835 64.0473 25.9608 67.9303 25.9608 72.0373C25.9608 75.995 26.4835 79.9527 27.3796 83.761ZM65.239 18.4219C65.239 17.1525 66.2844 16.107 67.5538 16.107H86.5208C87.7903 16.107 88.8357 17.1525 88.8357 18.4219V22.3049C84.9527 21.4835 80.995 20.9608 77.0373 20.9608C73.005 20.9608 69.0473 21.4835 65.239 22.3796V18.4219ZM30.8146 42.4667C30.3665 42.0187 30.1425 41.4213 30.1425 40.8239C30.1425 40.2265 30.3665 39.6291 30.8146 39.1811L44.2558 25.7399C45.1518 24.8438 46.5706 24.8438 47.4667 25.7399L50.2296 28.5028C43.4343 32.6845 37.7592 38.4344 33.5775 45.1549L30.8146 42.4667Z" fill="#3E3E51"/>
<path d="M77.0373 34.178C81.0697 34.178 85.0274 34.85 88.9104 36.0448C90.0305 36.4182 91.1506 35.8208 91.524 34.7007C91.8973 33.5806 91.2999 32.4605 90.1798 32.0871C85.9235 30.6683 81.5177 29.9963 77.0373 29.9963C53.8886 29.9963 34.9963 48.8139 34.9963 72.0373C34.9963 76.2937 35.6683 80.5501 36.9378 84.5825C37.2365 85.4785 38.0579 86.0759 38.954 86.0759C39.178 86.0759 39.402 86.0759 39.5513 86.0013C40.6714 85.6279 41.2688 84.5078 40.8955 83.3877C39.7754 79.7287 39.178 75.9204 39.178 72.0373C39.178 51.1288 56.1288 34.178 77.0373 34.178Z" fill="#3E3E51"/>
<path d="M0 72L80 0H0V72Z" fill="#6E55AB" fill-opacity="0.3"/>
</svg>
