<svg width="180" height="133" viewBox="0 0 180 133" fill="none" xmlns="http://www.w3.org/2000/svg">
<path d="M0 72L80 0H0V72Z" fill="#054BB5" fill-opacity="0.3"/>
<path d="M156.4 111.277C155.015 111.277 153.815 112.175 153.815 113.372V118.758C153.815 119.88 154.923 120.853 156.4 120.853C157.785 120.853 158.985 119.955 158.985 118.758V113.372C158.985 112.175 157.785 111.277 156.4 111.277Z" fill="#3E3E51"/>
<path d="M158.985 32.7232C158.985 31.601 157.877 30.6284 156.4 30.6284C155.015 30.6284 153.815 31.5262 153.815 32.7232V43.1222C153.815 44.2444 154.923 45.217 156.4 45.217C157.785 45.217 158.985 44.3192 158.985 43.1222V32.7232Z" fill="#3E3E51"/>
<path d="M35.6615 106.04H44.7077C46.0923 106.04 47.2923 105.142 47.2923 103.945C47.2923 102.748 46.1846 101.85 44.7077 101.85H35.6615C34.2769 101.85 33.0769 102.748 33.0769 103.945C33.0769 105.142 34.2769 106.04 35.6615 106.04Z" fill="#3E3E51"/>
<path d="M158.985 90.404C158.985 89.2818 157.877 88.3092 156.4 88.3092C155.015 88.3092 153.815 89.207 153.815 90.404V105.292C153.815 106.414 154.923 107.387 156.4 107.387C157.785 107.387 158.985 106.489 158.985 105.292V90.404Z" fill="#3E3E51"/>
<path d="M35.6615 113.372H44.7077C46.0923 113.372 47.2923 112.474 47.2923 111.277C47.2923 110.155 46.1846 109.182 44.7077 109.182H35.6615C34.2769 109.182 33.0769 110.08 33.0769 111.277C33.0769 112.399 34.2769 113.372 35.6615 113.372Z" fill="#3E3E51"/>
<path d="M78.4923 41.4763H69.9077C66.1231 41.4763 62.9846 44.02 62.9846 47.0873V78.8828C62.9846 81.9501 66.1231 84.4938 69.9077 84.4938H78.4923C82.2769 84.4938 85.4154 81.9501 85.4154 78.8828V47.1621C85.4154 44.02 82.2769 41.4763 78.4923 41.4763ZM80.2461 78.9576C80.2461 79.7805 79.4154 80.3791 78.4923 80.3791H69.9077C68.8923 80.3791 68.1538 79.7057 68.1538 78.9576V47.1621C68.1538 46.3391 68.9846 45.7406 69.9077 45.7406H78.4923C79.5077 45.7406 80.2461 46.414 80.2461 47.1621V78.9576Z" fill="#3E3E51"/>
<path d="M171.354 127.81H167.477C167.662 127.362 167.754 126.913 167.754 126.389V48.7332C167.754 47.611 166.646 46.6384 165.169 46.6384C163.692 46.6384 162.585 47.5362 162.585 48.7332V126.389C162.585 127.137 161.846 127.81 160.831 127.81H151.969C151.046 127.81 150.215 127.212 150.215 126.389V24.7182C150.215 23.9701 150.954 23.2968 151.969 23.2968H160.831C161.754 23.2968 162.585 23.8953 162.585 24.7182V36.3142C162.585 37.4364 163.692 38.409 165.169 38.409C166.646 38.409 167.754 37.5112 167.754 36.3142V24.7182C167.754 21.6509 164.615 19.1072 160.831 19.1072H151.969C151.323 19.1072 150.769 19.182 150.215 19.3317V17.611C150.215 14.5436 147.169 12 143.292 12H119.015C115.231 12 112.092 14.5436 112.092 17.611V24.7182C111.538 24.5686 110.985 24.4938 110.338 24.4938H97.2308C96.5846 24.4938 96.0308 24.5686 95.4769 24.7182C95.4769 21.6509 92.3385 19.182 88.5538 19.182H59.8462C56.0615 19.182 52.9231 21.7257 52.9231 24.793V35.4913C52.3692 35.3416 51.8154 35.2668 51.1692 35.2668H29.1077C25.3231 35.2668 22.1846 37.7357 22.1846 40.8778V126.464C22.1846 126.988 22.2769 127.436 22.4615 127.885H18.5846C17.2 127.885 16 128.783 16 129.98C16 131.102 17.1077 132.075 18.5846 132.075H171.538C172.923 132.075 174.123 131.177 174.123 129.98C173.938 128.708 172.831 127.81 171.354 127.81ZM52.9231 126.389C52.9231 127.137 52.1846 127.81 51.1692 127.81H29.1077C28.1846 127.81 27.3538 127.212 27.3538 126.389V79.7806H52.9231V126.389ZM52.9231 75.6658H27.3538V72.6733H52.9231V75.6658ZM52.9231 68.4838H27.3538V65.9402H52.9231V68.4838ZM52.9231 61.7506H27.3538V58.7581H52.9231V61.7506ZM52.9231 54.6434H27.3538V40.803C27.3538 40.0549 28.0923 39.3815 29.1077 39.3815H51.1692C52.0923 39.3815 52.9231 39.9801 52.9231 40.803V54.6434ZM90.3077 126.389C90.3077 127.137 89.5692 127.81 88.5538 127.81H59.8462C58.9231 127.81 58.0923 127.212 58.0923 126.389V24.7182C58.0923 23.9701 58.8308 23.2968 59.8462 23.2968H88.5538C89.4769 23.2968 90.3077 23.8953 90.3077 24.7182V126.389ZM112.185 43.8703H102.954C101.569 43.8703 100.369 44.7681 100.369 45.9651C100.369 47.0873 101.477 48.0599 102.954 48.0599H112.185V106.04H103.785C102.4 106.04 101.2 106.938 101.2 108.135C101.2 109.332 102.308 110.229 103.785 110.229H112.185V126.539C112.185 127.287 111.446 127.96 110.431 127.96H97.2308C96.3077 127.96 95.4769 127.362 95.4769 126.539V30.1047C95.4769 29.3566 96.2154 28.6833 97.2308 28.6833H110.431C111.354 28.6833 112.185 29.2818 112.185 30.1047V43.8703ZM145.046 126.389C145.046 127.137 144.308 127.81 143.292 127.81H119.015C118.092 127.81 117.262 127.212 117.262 126.389V107.387H145.046V126.389ZM145.046 103.197H117.262V100.504H145.046V103.197ZM145.046 96.389H117.262V73.4214H145.046V96.389ZM145.046 69.2319H117.262V66.5387H145.046V69.2319ZM145.046 62.3491H117.262V39.4564H145.046V62.3491ZM145.046 35.2668H117.262V32.5736H145.046V35.2668ZM145.046 24.7182V28.384H117.262V17.611C117.262 16.8628 118 16.1895 119.015 16.1895H143.385C144.308 16.1895 145.138 16.788 145.138 17.611V24.7182H145.046Z" fill="#3E3E51"/>
<path d="M124 120.778H138.308C139.692 120.778 140.892 119.88 140.892 118.683C140.892 117.486 139.785 116.589 138.308 116.589H124C122.615 116.589 121.415 117.486 121.415 118.683C121.415 119.88 122.615 120.778 124 120.778Z" fill="#3E3E51"/>
<path d="M78.6769 109.182H69.6308C68.2461 109.182 67.0462 110.08 67.0462 111.277C67.0462 112.399 68.1538 113.372 69.6308 113.372H78.6769C80.0615 113.372 81.2615 112.474 81.2615 111.277C81.2615 110.08 80.1538 109.182 78.6769 109.182Z" fill="#3E3E51"/>
<path d="M78.6769 101.85H69.6308C68.2461 101.85 67.0462 102.748 67.0462 103.945C67.0462 105.142 68.1538 106.04 69.6308 106.04H78.6769C80.0615 106.04 81.2615 105.142 81.2615 103.945C81.2615 102.748 80.1538 101.85 78.6769 101.85Z" fill="#3E3E51"/>
</svg>
