<svg width="135" height="132" viewBox="0 0 135 132" fill="none" xmlns="http://www.w3.org/2000/svg">
<path d="M88.4 75.8328H81.0292C80.0613 74.8571 79.2423 73.3937 78.5723 71.5122C84.3796 68.1673 88.2511 62.1742 88.2511 55.3449V55.2753C88.3255 55.2753 88.4 55.2753 88.4745 55.2753C92.7183 55.2753 96.1431 51.5122 96.1431 46.9129V26.9129C96.1431 23.3589 92.7927 20.5017 88.6978 20.5017C88.0277 20.5017 87.3577 20.5714 86.6876 20.7805C84.8263 18.3415 81.9226 16.878 78.7212 16.878C76.8599 16.878 75.073 17.3659 73.5095 18.2718C71.8715 14.5784 68.0745 12 63.6073 12C58.3956 12 54.0774 15.554 53.035 20.2927C52.5883 20.223 52.0672 20.223 51.6204 20.223C45.6642 20.223 40.8248 23.0801 39.9314 26.8432C39.8569 27.0523 39.7825 27.2613 39.7825 27.5401V46.9129C39.7825 51.5122 43.2073 55.2753 47.4511 55.2753C47.5255 55.2753 47.6 55.2753 47.6745 55.2753V55.3449C47.6745 62.1742 51.546 68.1673 57.3533 71.5122C56.6832 73.3937 55.8642 74.8571 54.8964 75.8328H47.5255C30.6993 75.8328 17 88.6551 17 104.404V130.049C17 131.094 17.8934 132 19.0847 132H38.1445H99.7168H116.915C118.032 132 119 131.164 119 130.049V104.404C119 88.6551 105.301 75.8328 88.4 75.8328ZM88.2511 51.3728V42.5226C89.7401 42.453 91.1547 43.6376 91.6759 45.3101V45.3798C91.7504 45.5192 91.7504 45.6585 91.7504 45.7979C91.7504 45.8676 91.7504 45.8676 91.7504 45.9373C91.7504 46.0767 91.8248 46.216 91.8248 46.2857C91.8248 46.3554 91.8248 46.3554 91.8248 46.4251C91.8248 46.5645 91.8248 46.7735 91.8248 46.9129C91.9737 49.4216 90.1869 51.5122 88.2511 51.3728ZM47.7489 51.3728C45.8131 51.5122 44.0263 49.4216 44.0263 46.9129C44.0263 46.7735 44.0263 46.5645 44.0263 46.4251C44.0263 46.3554 44.0263 46.3554 44.0263 46.2857C44.0263 46.1463 44.0263 46.007 44.1007 45.8676V45.7979C44.5474 43.8467 46.0365 42.3833 47.6745 42.453V51.3728H47.7489ZM48.5679 35.554C48.0467 35.9024 47.7489 36.4599 47.7489 37.0871V38.5505H47.6745C47.6 38.5505 47.6 38.5505 47.5255 38.5505C46.9299 38.5505 46.4088 38.6202 45.8131 38.7596C45.7387 38.7596 45.6642 38.8293 45.5898 38.8293C45.3664 38.899 45.1431 38.9686 44.9197 39.0383C44.8453 39.0383 44.7708 39.108 44.6964 39.108C44.473 39.1777 44.3241 39.3171 44.1007 39.3868C44.0263 39.3868 44.0263 39.4564 43.9518 39.4564V27.9582C43.9518 27.8885 43.9518 27.8885 43.9518 27.8188C44.1752 26.0767 47.3022 24.1254 51.546 24.1254C52.5139 24.1254 53.4073 24.1951 54.3752 24.4042C54.9708 24.5436 55.6409 24.4042 56.162 24.0557C56.6832 23.7073 56.981 23.1498 56.981 22.5226C56.981 22.453 56.981 22.3833 56.981 22.3136C57.0555 18.7596 59.9591 15.8328 63.6073 15.8328C67.181 15.8328 70.0847 18.6202 70.1591 22.1742C70.1591 23.0105 70.8292 23.777 71.7226 23.9861C72.6161 24.1951 73.5095 23.8467 74.0307 23.1498C74.9985 21.6167 76.7854 20.7805 78.7212 20.7805C80.9547 20.7805 82.965 22.0348 83.7839 23.9164C84.0073 24.4739 84.454 24.8223 85.0496 25.0314C85.6453 25.2404 86.2409 25.1707 86.762 24.892C87.3577 24.6132 87.9533 24.4042 88.6978 24.4042C90.4847 24.4042 91.9737 25.5192 91.9737 26.9826V39.5958C91.8993 39.5958 91.8248 39.5261 91.8248 39.5261C91.6759 39.4564 91.4526 39.3171 91.3036 39.2474C91.2292 39.1777 91.0803 39.1777 91.0058 39.108C90.8569 39.0383 90.6336 38.9686 90.4847 38.9686C90.4102 38.9686 90.2613 38.899 90.1869 38.899C90.038 38.8293 89.8146 38.8293 89.5912 38.7596C89.5168 38.7596 89.4423 38.7596 89.2934 38.6899C88.9956 38.6202 88.6978 38.6202 88.4 38.6202C88.3255 38.6202 88.2511 38.6202 88.1766 38.6202V37.1568C88.1766 36.3902 87.7299 35.6934 86.9109 35.4146C86.1664 35.1359 85.273 35.2056 84.6774 35.7631C83.1139 37.0871 71.0526 41.1289 62.9372 38.7596C58.0234 37.3659 50.3547 35.3449 50.2803 35.3449C49.7591 35.0662 49.0891 35.2056 48.5679 35.554ZM51.8438 55.3449V52.7666V41.1289V39.7352C54.5241 40.4321 58.6934 41.547 61.746 42.453C69.3401 44.6829 78.8701 42.453 84.0817 40.4321V41.1986V52.8362V55.4146C84.0817 61.2683 80.508 66.3554 75.2219 68.8641H75.1474C70.6058 71.0244 65.3197 71.0244 60.7781 68.8641H60.7037C55.492 66.2857 51.8438 61.1986 51.8438 55.3449ZM57.3533 79.108C58.9168 77.7143 60.2569 75.7631 61.1504 73.1847C62.1927 73.5331 63.3839 73.8118 64.5007 74.0209C65.0219 74.0906 65.6175 74.1603 66.2131 74.23H66.2876C66.8088 74.2997 67.4044 74.2997 68 74.2997C68.5956 74.2997 69.1168 74.2997 69.7124 74.23H69.7869C70.3825 74.1603 70.9036 74.0906 71.4993 74.0209C72.6161 73.8118 73.7328 73.5331 74.8496 73.1847C75.8175 75.7631 77.0832 77.7143 78.6467 79.108C79.3912 79.8746 79.7635 80.6411 79.7635 81.4077C79.7635 83.9164 75.7431 86.3554 70.6058 86.9129H65.3942C60.2569 86.2857 56.2365 83.9164 56.2365 81.4077C56.2365 80.6411 56.6088 79.8746 57.3533 79.108ZM98.6745 90.8153L95.6219 121.338H42.2394L39.1869 90.8153H98.6745ZM33.6774 123.289C32.7095 124.544 32.4117 126.077 32.8584 127.54L33.0073 128.098H21.0949V104.404C21.1693 90.7457 33.0073 79.6655 47.5255 79.6655H52.2905C52.1416 80.223 52.0672 80.7805 52.0672 81.4077C52.0672 83.4983 53.1095 85.3798 54.8964 86.9129H36.8788C36.2832 86.9129 35.762 87.1219 35.3153 87.5401C34.9431 87.9582 34.7197 88.5157 34.7942 89.0035L37.9956 121.268H37.8467C36.2088 121.408 34.7197 122.105 33.6774 123.289ZM100.982 126.425L100.685 127.401C100.536 127.819 100.164 128.028 99.7168 128.028H38.1445C37.6978 128.028 37.3255 127.749 37.1766 127.401L36.8788 126.425C36.7299 126.077 36.9533 125.728 37.0277 125.589C37.1022 125.449 37.4 125.24 37.8467 125.24H40.3781H97.5577H100.089C100.536 125.24 100.759 125.449 100.908 125.589C100.908 125.798 101.057 126.077 100.982 126.425ZM114.831 128.098H104.78L104.928 127.54C105.375 126.077 105.077 124.544 104.109 123.289C103.142 122.035 101.653 121.338 100.015 121.338H99.7912L102.993 89.0732C103.067 88.5157 102.844 87.9582 102.472 87.6098C102.099 87.1916 101.504 86.9826 100.908 86.9826H81.1036C82.8905 85.4495 83.9328 83.4983 83.9328 81.4773C83.9328 80.9199 83.8584 80.2927 83.7095 79.7352H88.4745C102.993 79.7352 114.831 90.8153 114.831 104.404V128.098Z" fill="#3E3E51"/>
<path d="M0 72L80 0H0V72Z" fill="#2FC7D6" fill-opacity="0.3"/>
</svg>
