<svg width="55" height="55" viewBox="0 0 55 55" fill="none" xmlns="http://www.w3.org/2000/svg">
<path d="M24.055 35.98L31.2388 29.3094C32.3678 28.261 32.3678 26.474 31.2388 25.4256L24.055 18.755M27.5 54C42.1355 54 54 42.1355 54 27.5C54 12.8645 42.1355 0.999999 27.5 1C12.8645 1 0.999999 12.8645 1 27.5C1 42.1355 12.8645 54 27.5 54Z" stroke="#15154F" stroke-width="2" stroke-linecap="round"/>
<path d="M33.17 28.9447L25.6956 36.1005C24.4236 37.3182 22.3125 36.4167 22.3125 34.6558L22.3125 20.3442C22.3125 18.5833 24.4236 17.6818 25.6956 18.8995L33.17 26.0553C33.9925 26.8428 33.9925 28.1572 33.17 28.9447Z" stroke="#15154F" stroke-width="2"/>
</svg>
