<svg width="31" height="31" viewBox="0 0 31 31" fill="none" xmlns="http://www.w3.org/2000/svg">
<path d="M1 13.5844C1 11.7064 1.85562 9.93179 3.32217 8.76809L11.7169 2.1069C13.935 0.346851 17.065 0.346854 19.2831 2.1069L27.6778 8.76809C29.1444 9.93179 30 11.7064 30 13.5844V23.6505C30 27.0395 27.2666 29.7869 23.8947 29.7869H21.6053C20.7623 29.7869 20.0789 29.1 20.0789 28.2528V23.6505C20.0789 21.956 18.7122 20.5823 17.0263 20.5823H13.9737C12.2878 20.5823 10.9211 21.956 10.9211 23.6505V28.2528C10.9211 29.1 10.2377 29.7869 9.39474 29.7869H7.10526C3.73342 29.7869 1 27.0395 1 23.6505V13.5844Z" stroke="black" stroke-width="1.5"/>
</svg>
