<svg width="31" height="27" viewBox="0 0 31 27" fill="none" xmlns="http://www.w3.org/2000/svg">
<path fill-rule="evenodd" clip-rule="evenodd" d="M0 8.65975C0 4.05373 3.59864 0.286865 8.07747 0.286865H22.9225C27.4014 0.286865 31 4.05373 31 8.65975V17.914C31 22.52 27.4014 26.2869 22.9225 26.2869H8.07747C3.59864 26.2869 0 22.52 0 17.914V8.65975ZM8.07747 1.6089C4.35759 1.6089 1.30986 4.74748 1.30986 8.65975V17.914C1.30986 21.8263 4.35759 24.9648 8.07747 24.9648H22.9225C26.6424 24.9648 29.6901 21.8263 29.6901 17.914V8.65975C29.6901 4.74748 26.6424 1.6089 22.9225 1.6089H8.07747ZM6.07455 8.25579C6.2956 7.96682 6.70689 7.91342 6.9932 8.13652L14.1188 13.6891C14.9387 14.3279 16.0613 14.3279 16.8812 13.6891L24.0068 8.13652C24.2931 7.91342 24.7044 7.96682 24.9254 8.25579C25.1465 8.54476 25.0936 8.95987 24.8073 9.18297L17.6816 14.7355C16.3902 15.7418 14.6098 15.7418 13.3184 14.7355L6.19272 9.18297C5.90641 8.95987 5.85351 8.54476 6.07455 8.25579Z" fill="black"/>
</svg>
