<svg width="553" height="490" viewBox="0 0 553 490" fill="none" xmlns="http://www.w3.org/2000/svg">
<path d="M269.355 199.51C286.048 199.51 299.579 185.976 299.579 169.282C299.579 152.588 286.048 139.055 269.355 139.055C252.663 139.055 239.131 152.588 239.131 169.282C239.131 185.976 252.663 199.51 269.355 199.51Z" fill="#6E55AB"/>
<path d="M382.73 78.8665C384.028 70.8468 378.58 63.293 370.561 61.9947C362.542 60.6964 354.99 66.1452 353.691 74.1649C352.393 82.1846 357.841 89.7384 365.86 91.0367C373.879 92.335 381.432 86.8862 382.73 78.8665Z" fill="#6E55AB"/>
<path d="M480.76 28.26C482.061 20.2403 476.615 12.6839 468.596 11.3823C460.578 10.0808 453.022 15.5269 451.721 23.5466C450.419 31.5664 455.865 39.1227 463.884 40.4243C471.903 41.7258 479.458 36.2797 480.76 28.26Z" fill="#6E55AB"/>
<path d="M522.03 250.292C522.03 257.547 516.187 263.391 508.933 263.391C501.679 263.391 495.836 257.547 495.836 250.292C495.836 243.037 501.679 237.193 508.933 237.193C516.187 237.193 522.03 243.239 522.03 250.292Z" fill="#6E55AB"/>
<path d="M514.776 242.433L511.754 261.779C511.754 261.779 488.985 252.106 487.978 250.292C487.172 248.68 488.179 232.76 488.179 232.76L514.776 242.433Z" fill="#6E55AB"/>
<path d="M475.283 157.191L487.978 173.313L471.858 184.396L475.283 157.191Z" fill="#6E55AB"/>
<path d="M453.522 23.9884L475.082 15.5247L487.575 57.0372L473.672 63.0827L453.522 23.9884Z" fill="#6E55AB"/>
<path d="M356.603 79.8086L374.536 67.5161L407.178 107.618L391.058 120.515L356.603 79.8086Z" fill="#6E55AB"/>
<path d="M214.145 409.088L217.369 407.274L134.555 316.994L122.062 335.534L214.145 409.088Z" fill="#6E55AB"/>
<path d="M433.977 321.025C433.977 321.025 400.73 347.222 393.073 350.043C385.416 352.864 382.595 338.758 391.058 324.047C399.521 309.337 409.999 294.827 409.999 294.827L327.587 254.322L394.685 162.431L473.671 274.877L433.977 321.025Z" fill="#CEC5E2"/>
<path d="M430.954 316.994L393.073 350.245C399.723 347.826 425.917 327.675 432.566 322.435L430.954 316.994Z" fill="#D2CAE5"/>
<path d="M377.558 188.628L396.297 179.963L384.006 132.808L377.558 188.628Z" fill="#6E55AB"/>
<path d="M486.567 242.433L506.112 249.889L512.762 264.398C512.762 264.398 448.686 324.652 435.589 328.682C422.492 332.712 423.096 295.029 429.342 281.729C435.79 268.429 486.567 242.433 486.567 242.433Z" fill="#E3DFEF"/>
<path d="M490.194 172.91L518 240.216L508.933 246.262L486.366 236.79L464.201 176.738L490.194 172.91Z" fill="#E3DFEF"/>
<path d="M493.015 182.784L514.777 242.433L518.001 240.216L494.224 182.784H493.015Z" fill="#D2CAE5"/>
<path d="M475.082 197.092C486.099 197.092 495.03 188.16 495.03 177.141C495.03 166.123 486.099 157.191 475.082 157.191C464.065 157.191 455.134 166.123 455.134 177.141C455.134 188.16 464.065 197.092 475.082 197.092Z" fill="#6E55AB"/>
<path d="M493.015 182.784C493.015 183.993 492.814 185.202 492.814 186.21C494.224 183.388 495.03 180.366 495.03 177.141C495.03 166.058 486.164 157.191 475.082 157.191C474.881 157.191 474.679 157.191 474.478 157.191C485.157 160.617 493.015 170.894 493.015 182.784Z" fill="#D2CAE5"/>
<path d="M495.836 223.087L489.791 239.41L469.037 221.677L475.082 209.586L495.836 223.087Z" fill="#6E55AB"/>
<path d="M469.037 218.251L488.179 232.76C488.179 232.76 491.604 244.851 489.791 244.247C488.179 243.642 441.835 276.086 432.365 284.147C422.894 292.208 414.029 270.041 420.275 253.516C426.723 237.193 469.037 218.251 469.037 218.251Z" fill="#EFECF6"/>
<path d="M387.633 218.251L397.506 212.205L421.887 259.763L408.588 267.623L387.633 218.251Z" fill="#6E55AB"/>
<path d="M466.216 189.837L479.515 179.963L493.821 188.426L501.276 218.251L489.791 228.327L469.037 218.251L466.216 189.837Z" fill="#EFECF6"/>
<path d="M382.192 120.515L475.082 154.168L476.694 175.731L447.477 204.145L391.058 181.776L382.192 120.515Z" fill="#EFECF6"/>
<path d="M384.006 132.808L469.037 160.819L476.694 175.731L475.082 154.168L382.192 120.515L384.006 132.808Z" fill="#D2CAE5"/>
<path d="M388.036 160.818L460.171 192.457L447.477 204.145L391.058 181.776L388.036 160.818Z" fill="#E3DFEF"/>
<path d="M384.207 124.747L384.006 186.008L340.886 255.532L314.691 264.6L295.952 207.167L384.207 124.747Z" fill="#EFECF6"/>
<path d="M384.006 157.191L310.46 251.703L314.691 264.6L340.886 255.531L384.006 186.008V157.191Z" fill="#E3DFEF"/>
<path d="M264.317 162.229L279.833 141.07L316.908 199.51L313.482 203.137L264.317 162.229Z" fill="#6E55AB"/>
<path d="M-21 541.484L117.427 331.906L214.145 409.088L166.391 610L-21 541.484Z" fill="white"/>
<path d="M217.369 407.274L130.928 334.526L128.51 310.747C128.51 310.747 206.489 216.034 214.347 205.958C222.205 195.882 223.213 181.776 227.847 176.738C230.265 174.119 240.743 170.088 249.81 166.864C257.668 164.244 278.825 173.917 278.825 173.917L319.326 207.57L323.356 247.269L357.207 312.964C357.207 312.964 352.976 337.952 334.841 356.895C316.102 375.434 217.369 407.274 217.369 407.274Z" fill="white"/>
<path d="M356.602 312.762L354.789 309.135L311.87 327.272C311.87 327.272 268.952 305.508 254.847 318.002C240.944 330.496 223.212 323.644 215.354 311.956C207.697 300.268 199.436 311.956 199.436 311.956C190.369 368.18 226.436 397.601 231.675 402.236C259.885 392.563 320.333 370.799 334.236 356.492C352.371 337.952 356.602 312.762 356.602 312.762Z" fill="#E3DFEF"/>
<path d="M202.257 237.596C202.257 237.596 199.839 247.672 187.548 261.778C175.256 275.885 163.973 280.721 163.973 280.721C163.973 280.721 182.107 277.9 192.384 264.398C202.458 250.897 202.257 237.596 202.257 237.596Z" fill="#D2CAE5"/>
<path d="M314.893 204.145L316.908 213.213L318.318 244.045L322.55 244.851L318.923 207.57L314.893 204.145Z" fill="#D2CAE5"/>
<path d="M283.661 379.263C257.467 388.936 224.623 394.981 224.623 394.981L231.877 402.438C260.086 392.765 320.535 371.001 334.438 356.693C334.237 356.693 309.856 369.389 283.661 379.263Z" fill="#D2CAE5"/>
<path d="M150.271 284.147H157.525L199.637 233.566V224.095C185.936 240.821 165.585 265.406 150.271 284.147Z" fill="#D2CAE5"/>
<path d="M336.453 354.275C352.774 335.735 356.602 312.762 356.602 312.762L348.341 296.843L279.833 356.29C279.833 356.492 309.049 360.522 336.453 354.275Z" fill="#E3DFEF"/>
<path d="M284.265 168.275L279.833 141.07L352.774 80.2117L367.886 78.801L391.058 108.827V124.747L324.565 199.51H316.908L284.265 168.275Z" fill="white"/>
<path d="M410.2 108.223L396.096 105.804L372.319 76.1813L375.946 62.4782L449.492 22.7793L461.582 26.2051L475.082 50.7902L473.269 65.5009L410.2 108.223Z" fill="white"/>
<path d="M466.216 24.593L476.895 13.5095L540.769 1.21698C547.62 -0.193642 553.665 5.65035 552.859 12.5019C551.045 28.0187 540.366 41.1173 525.456 46.1553L488.985 58.2463L478.91 50.1856L466.216 24.593Z" fill="white"/>
<path d="M269.355 278.101L383.804 218.049H391.26L412.618 259.36C412.618 259.36 410.805 270.444 410.805 270.041C410.805 269.638 310.259 350.043 310.259 350.043L269.355 278.101Z" fill="white"/>
<path d="M397.506 218.251V209.384C397.506 209.384 455.537 176.134 471.052 186.613C486.567 197.092 477.701 216.84 468.432 226.916C459.163 236.992 425.111 261.779 425.111 261.779L415.842 256.338L397.506 218.251Z" fill="white"/>
<path d="M310.057 350.245C310.057 350.245 410.603 269.638 410.603 270.242C410.603 270.847 412.417 259.562 412.417 259.562L412.014 258.957C413.424 258.353 415.036 257.748 416.245 256.741L424.91 261.778C424.91 261.778 458.761 236.992 468.231 226.916C474.074 220.669 479.515 210.795 479.313 201.525C475.686 208.578 468.433 220.064 456.544 228.528C438.007 242.03 429.342 246.262 429.342 246.262L425.111 235.178L393.678 256.942L402.342 264.6L330.811 316.994C330.811 316.994 326.781 307.12 322.953 300.47C321.139 297.245 307.639 310.143 295.751 325.256L310.057 350.245Z" fill="#E3DFEF"/>
<path d="M411.409 266.01L410.603 270.041L310.057 350.245L308.042 344.602L411.409 266.01Z" fill="#D2CAE5"/>
<path d="M286.684 357.096C308.829 357.096 326.781 339.142 326.781 316.994C326.781 294.847 308.829 276.892 286.684 276.892C264.538 276.892 246.586 294.847 246.586 316.994C246.586 339.142 264.538 357.096 286.684 357.096Z" fill="#6E55AB"/>
<path d="M404.76 260.166C416.222 260.166 425.514 250.874 425.514 239.41C425.514 227.947 416.222 218.654 404.76 218.654C393.298 218.654 384.006 227.947 384.006 239.41C384.006 250.874 393.298 260.166 404.76 260.166Z" fill="#6E55AB"/>
<path d="M403.349 223.289C413.626 223.289 421.887 231.551 421.887 241.828C421.887 244.448 421.282 246.866 420.275 249.083C422.088 246.262 423.096 242.836 423.096 239.209C423.096 228.931 414.835 220.669 404.558 220.669C396.901 220.669 390.252 225.304 387.431 231.954C391.058 226.715 396.7 223.289 403.349 223.289Z" fill="#D2CAE5"/>
<path d="M284.266 286.767C303.408 286.767 318.923 302.283 318.923 321.428C318.923 326.264 317.915 330.899 316.102 335.131C319.527 329.69 321.542 323.443 321.542 316.591C321.542 297.447 306.027 281.93 286.885 281.93C272.579 281.93 260.288 290.595 255.049 302.888C261.094 293.215 271.773 286.767 284.266 286.767Z" fill="#D2CAE5"/>
<path d="M200.444 331.907C200.444 282.132 240.944 241.627 290.714 241.627C302.199 241.627 313.281 243.844 323.356 247.672L323.154 247.068L322.751 243.037C312.878 239.41 301.997 237.395 290.915 237.395C238.929 237.395 196.615 279.714 196.615 331.705C196.615 360.32 209.309 385.913 229.459 403.042C230.869 402.639 232.28 402.034 233.892 401.43C213.339 385.309 200.444 360.119 200.444 331.907Z" fill="#E3DFEF"/>
<path d="M184.928 385.913L101.912 576.347" stroke="#E3DFEF" stroke-width="2" stroke-miterlimit="10"/>
<path d="M303.408 186.613L382.998 98.5497" stroke="#E3DFEF" stroke-width="2" stroke-miterlimit="10"/>
<path d="M387.633 95.3255L471.858 44.9462" stroke="#E3DFEF" stroke-width="2" stroke-miterlimit="10"/>
<path d="M476.492 45.1477L551.045 20.9657C551.65 19.3536 552.053 17.9429 552.254 16.3308L474.679 41.3189L476.492 45.1477Z" fill="#E3DFEF"/>
<path d="M196.414 394.981L128.308 596.095L166.391 610L214.145 409.088L196.414 394.981Z" fill="#E3DFEF"/>
<path d="M512.963 264.6L506.314 250.091L439.014 327.473C456.947 317.196 512.963 264.6 512.963 264.6Z" fill="#CEC5E2"/>
<path d="M487.373 245.254L419.67 276.086C422.088 283.945 427.126 288.58 432.365 284.147C440.626 277.094 477.701 250.897 487.373 245.254Z" fill="#CEC5E2"/>
<path d="M479.515 179.963L489.186 190.442L495.836 213.817L489.791 228.327L501.276 218.251L493.821 188.426L479.515 179.963Z" fill="#D2CAE5"/>
<path d="M410.2 108.223L473.268 65.5009L475.081 50.7902L396.095 105.804L410.2 108.223Z" fill="#E3DFEF"/>
<path d="M391.058 124.747V108.827L316.908 199.51H324.565L391.058 124.747Z" fill="#E3DFEF"/>
<path d="M522.03 37.2885C506.716 42.931 479.111 49.984 479.111 49.984L489.186 58.0447L525.657 45.9537C535.933 42.5279 544.194 35.2733 549.03 25.802C548.829 25.802 537.344 31.8475 522.03 37.2885Z" fill="#E3DFEF"/>
<path d="M512.963 264.6L511.553 261.779L469.037 304.097C490.194 285.759 512.963 264.6 512.963 264.6Z" fill="#D2CAE5"/>
<path d="M522.03 250.292C522.03 247.068 520.821 244.045 518.806 241.627L517.194 242.433C519.209 245.053 520.418 248.478 520.418 252.106C520.418 254.322 520.015 256.338 519.209 258.151C521.023 256.136 522.03 253.315 522.03 250.292Z" fill="#D2CAE5"/>
<path d="M540.971 1.01546L477.097 13.308L551.65 5.65034C549.434 2.22455 545.404 0.20939 540.971 1.01546Z" fill="#D2CAE5"/>
<path d="M372.319 76.1813L378.163 65.5009L447.074 29.4294L461.582 26.2051L449.492 22.7793L375.946 62.4782L372.319 76.1813Z" fill="#D2CAE5"/>
<path d="M284.265 168.275L286.885 143.69L353.58 86.0557L367.886 78.801L352.774 80.2117L279.833 141.07L284.265 168.275Z" fill="#D2CAE5"/>
<path d="M249.407 167.066C240.34 170.29 229.862 174.119 227.444 176.94C223.011 181.978 221.802 196.084 213.944 206.16C212.533 207.974 208.705 212.608 203.667 218.855L206.891 229.536L212.13 218.251C212.13 218.251 228.25 203.943 229.862 194.673C231.474 185.404 234.295 182.784 244.974 175.731C255.653 168.678 278.422 174.119 278.422 174.119C278.422 174.119 257.265 164.244 249.407 167.066Z" fill="#D2CAE5"/>
<path d="M206.891 228.327C206.891 224.296 206.488 220.266 205.682 216.236C204.675 217.445 203.466 218.855 202.257 220.266C202.66 222.886 202.861 225.505 202.861 228.125C202.861 257.144 179.891 281.124 151.278 282.535C150.069 283.945 149.062 285.356 147.853 286.565C148.055 286.565 148.256 286.565 148.458 286.565C180.697 286.968 206.891 260.569 206.891 228.327Z" fill="#E3DFEF"/>
<path d="M214.145 409.088L208.302 404.453L190.57 508.435L214.145 409.088Z" fill="#D2CAE5"/>
<path d="M225.832 404.453L217.369 398.81L211.526 402.437L217.369 407.274L225.832 404.453Z" fill="#D2CAE5"/>
<path d="M269.96 144.294L271.169 139.055C270.564 139.055 269.96 139.055 269.355 139.055C254.646 139.055 242.556 149.534 239.735 163.438C244.773 152.153 256.258 144.294 269.355 144.294C269.557 144.294 269.758 144.294 269.96 144.294Z" fill="#D2CAE5"/>
<path d="M145.637 289.588H151.682L133.547 313.367L130.726 334.526L128.308 310.949L145.637 289.588Z" fill="#D2CAE5"/>
<path d="M128.308 340.572L-21 541.484L117.427 331.906L128.308 340.572Z" fill="#D2CAE5"/>
<path d="M471.052 186.411C455.537 175.932 397.506 209.183 397.506 209.183V218.049C397.506 218.049 399.924 211.802 400.73 210.795C401.536 209.787 425.111 200.719 443.245 192.658C461.38 184.598 473.873 188.426 473.873 188.426C472.865 187.822 472.059 187.016 471.052 186.411Z" fill="#D2CAE5"/>
<path d="M392.469 220.669L391.058 218.049H383.603L269.153 278.102C279.027 278.505 382.797 220.669 382.797 220.669H392.469Z" fill="#D2CAE5"/>
<path d="M410.2 108.223L473.268 65.5009L473.873 60.463C473.47 60.6645 473.268 60.6645 473.268 60.6645L406.976 107.618L410.2 108.223Z" fill="#D2CAE5"/>
<path d="M391.058 118.298V118.5L321.139 199.51H324.565L391.058 124.747V118.298Z" fill="#D2CAE5"/>
<path d="M525.657 45.9538C533.314 43.3341 539.762 38.6992 544.597 32.6537C544.396 32.8552 537.344 37.2886 524.851 43.1326C517.194 46.7599 499.462 52.6039 486.97 56.6342L488.985 58.2463L525.657 45.9538Z" fill="#D2CAE5"/>
<path d="M373.528 62.6797C371.916 62.0752 370.103 61.6721 368.289 61.6721C360.431 61.6721 354.185 67.7176 353.58 75.5768C355.192 69.3298 361.035 64.6949 367.685 64.6949C369.297 64.6949 370.909 64.8964 372.319 65.5009L373.528 62.6797Z" fill="#D2CAE5"/>
<path d="M474.477 13.5095C472.06 11.8974 469.44 11.0913 466.418 11.0913C461.582 11.0913 457.35 13.5095 454.731 16.9353C457.35 14.9201 460.373 13.9125 463.798 13.9125C466.619 13.9125 469.239 14.7186 471.455 16.1292C472.261 15.3232 473.269 14.5171 474.477 13.5095Z" fill="#D2CAE5"/>
<path d="M468.231 226.715C472.463 222.08 476.694 215.43 478.507 208.578C478.507 208.578 469.239 223.893 458.156 232.962C447.074 242.03 421.887 259.965 421.887 259.965L424.91 261.778C424.91 261.577 458.962 236.79 468.231 226.715Z" fill="#D2CAE5"/>
<path d="M489.791 239.41C489.791 239.41 447.678 269.235 441.432 277.295C458.156 264.801 488.582 243.642 489.993 244.247C490.597 244.448 490.194 242.03 489.791 239.41Z" fill="#D2CAE5"/>
</svg>
