<svg width="360" height="39" viewBox="0 0 360 39" fill="none" xmlns="http://www.w3.org/2000/svg">
<path d="M53.8133 30.7666C53.8133 31.6875 53.5467 32.3917 53.0667 32.9333C52.5867 33.4208 51.8933 33.6917 51.0933 33.6917H48V23.9417H50.9333C51.84 23.9417 52.5333 24.1583 52.96 24.6458C53.44 25.1333 53.6533 25.7833 53.6533 26.5958C53.6533 27.0291 53.5467 27.4083 53.3867 27.7333C53.2267 28.0583 52.9067 28.3833 52.48 28.5458V28.6C52.6933 28.6541 52.9067 28.7625 53.0667 28.925C53.2267 29.0875 53.3867 29.25 53.4933 29.4125C53.6 29.6291 53.6533 29.8458 53.7067 30.0625C53.76 30.2792 53.8133 30.4958 53.8133 30.7666ZM52.1067 26.5958C52.1067 26.2166 52 25.8917 51.7867 25.675C51.5733 25.4583 51.2533 25.35 50.7733 25.35H49.5467V27.8958H50.8267C51.2533 27.8958 51.6267 27.7875 51.84 27.5166C52 27.3 52.1067 26.975 52.1067 26.5958ZM52.2667 30.6583C52.2667 30.225 52.16 29.9 51.9467 29.6292C51.7333 29.3583 51.4133 29.25 50.9333 29.25H49.5467V32.1208H50.9333C51.2 32.1208 51.4133 32.0666 51.5733 32.0125C51.7333 31.9583 51.8933 31.85 52 31.6875C52.1067 31.5792 52.16 31.4166 52.2133 31.2C52.2667 31.0375 52.2667 30.875 52.2667 30.6583Z" fill="white"/>
<path d="M64.1066 31.5791C63.9466 32.2832 63.6266 32.7707 63.0932 33.1499C62.6132 33.5291 61.9732 33.6916 61.2799 33.6916C60.7999 33.6916 60.3732 33.6374 59.9999 33.4749C59.6266 33.3124 59.3066 33.0957 59.0932 32.8249C58.8266 32.5541 58.6666 32.2291 58.5599 31.8499C58.4532 31.4707 58.3999 31.0916 58.3999 30.6041V26.8124C58.3999 26.4332 58.4532 26.0541 58.5599 25.6749C58.6666 25.2957 58.8799 24.9707 59.0932 24.6999C59.3599 24.4291 59.6266 24.2124 59.9999 24.0499C60.3732 23.8874 60.7999 23.7791 61.3332 23.7791C62.0799 23.7791 62.7199 23.9957 63.1999 24.3749C63.6799 24.8082 63.9999 25.2957 64.1599 25.8916L62.6666 26.3791C62.6132 26.2166 62.6132 26.1082 62.5066 25.9457C62.4532 25.8374 62.3466 25.6749 62.2399 25.5666C62.1332 25.4582 61.9732 25.3499 61.8132 25.2957C61.6532 25.2416 61.4932 25.1874 61.2799 25.1874C61.0132 25.1874 60.8532 25.2416 60.6399 25.2957C60.4799 25.4041 60.3199 25.5124 60.2132 25.6207C60.1066 25.7291 59.9999 25.8916 59.9466 26.0541C59.8932 26.2166 59.8399 26.3791 59.8399 26.5416V30.4416C59.8399 30.6582 59.8932 30.8207 59.9466 31.0374C59.9999 31.2541 60.1066 31.3624 60.2132 31.5249C60.3199 31.6874 60.4799 31.7957 60.6399 31.8499C60.7999 31.9041 61.0132 31.9582 61.2266 31.9582C61.5466 31.9582 61.8666 31.8499 62.0799 31.6874C62.3466 31.4707 62.4532 31.1999 62.5599 30.8749L64.1066 31.5791Z" fill="white"/>
<path d="M68.2668 32.8249C67.6268 32.7707 67.1468 32.6624 66.7201 32.3916C66.2935 32.1749 65.9735 31.9041 65.7601 31.5249C65.4935 31.1457 65.3335 30.7666 65.2801 30.2249C65.1735 29.7374 65.1201 29.1957 65.1201 28.5457C65.1201 27.9499 65.1735 27.4082 65.2801 26.9207C65.3868 26.4332 65.5468 25.9999 65.8135 25.6207C66.0801 25.2416 66.4001 24.9707 66.7734 24.7541C67.2001 24.5374 67.6801 24.3749 68.2668 24.3207V23.7791H69.8134V24.3207C70.4001 24.3749 70.8801 24.5374 71.3068 24.7541C71.7334 24.9707 72.0535 25.2416 72.2668 25.6207C72.5335 25.9999 72.6935 26.3791 72.8001 26.8666C72.9068 27.3541 72.9601 27.8957 72.9601 28.4916C72.9601 29.0874 72.9068 29.6832 72.8001 30.1707C72.6935 30.6582 72.5335 31.0916 72.2668 31.4707C72.0001 31.8499 71.6801 32.1207 71.3068 32.3374C70.8801 32.5541 70.4001 32.7166 69.7601 32.7707V33.5832H68.2668V32.8249ZM68.2668 25.8374C67.6801 25.8916 67.2534 26.1624 67.0401 26.6499C66.8268 27.1374 66.7201 27.7874 66.7201 28.5457C66.7201 28.9791 66.7734 29.3582 66.7734 29.7374C66.8268 30.0624 66.9334 30.3874 67.0401 30.6041C67.1468 30.8207 67.3068 31.0374 67.5201 31.1457C67.7335 31.2541 68.0001 31.3624 68.2668 31.3624V25.8374ZM69.8134 31.4166C70.4534 31.3624 70.8268 31.0916 71.0935 30.6582C71.3068 30.1707 71.4134 29.5207 71.4134 28.5999C71.4134 27.7874 71.3068 27.1916 71.0401 26.7041C70.8268 26.2166 70.4001 25.9457 69.8134 25.9457V31.4166Z" fill="white"/>
<path d="M74.3467 33.6375V23.8875H79.68V25.35H75.8934V27.95H79.1467V29.4125H75.8934V32.1208H79.68V33.6375H74.3467Z" fill="white"/>
<path d="M86.9333 26.8666C86.9333 27.3 86.88 27.6791 86.7733 28.0583C86.6666 28.4375 86.4533 28.7625 86.24 29.0333C86.0266 29.3041 85.7067 29.5208 85.3333 29.6833C84.96 29.8458 84.5333 29.9 84.0533 29.9H82.6667V33.6375H81.0667V23.8875H83.9466C84.3733 23.8875 84.8 23.9416 85.1733 24.05C85.5466 24.1583 85.8666 24.375 86.08 24.5916C86.3466 24.8625 86.56 25.1333 86.6666 25.5125C86.88 25.9458 86.9333 26.3791 86.9333 26.8666ZM85.3867 26.8666C85.3867 26.3791 85.28 26 85.0667 25.7833C84.8533 25.5125 84.48 25.4041 84 25.4041H82.6667V28.4375H84C84.48 28.4375 84.8 28.275 85.0667 28.0041C85.28 27.6791 85.3867 27.3 85.3867 26.8666Z" fill="white"/>
<path d="M88.1067 33.6375V23.8875H93.44V25.35H89.6534V27.95H92.9067V29.4125H89.6534V32.1208H93.44V33.6375H88.1067Z" fill="white"/>
<path d="M104.267 30.6582C104.267 31.1457 104.213 31.5249 104.053 31.9041C103.893 32.2832 103.733 32.6082 103.467 32.8791C103.2 33.1499 102.88 33.3666 102.56 33.4749C102.187 33.6374 101.813 33.6916 101.387 33.6916C100.853 33.6916 100.427 33.5832 100.053 33.4207C99.68 33.2582 99.36 32.9874 99.1467 32.7166C98.9334 32.4457 98.72 32.0666 98.6134 31.6874C98.5067 31.3082 98.4534 30.8749 98.4534 30.4416V26.7582C98.4534 26.4332 98.5067 26.0541 98.6134 25.7291C98.72 25.4041 98.88 25.0249 99.1467 24.7541C99.36 24.4832 99.68 24.2124 100.053 24.0499C100.427 23.8874 100.907 23.7791 101.44 23.7791C101.92 23.7791 102.4 23.8874 102.773 24.0499C103.147 24.2124 103.467 24.4832 103.68 24.7541C103.947 25.0249 104.107 25.3499 104.213 25.7291C104.32 26.1082 104.373 26.4332 104.373 26.8124L104.267 30.6582ZM102.667 26.8124C102.667 26.7041 102.667 26.5416 102.613 26.3791C102.56 26.2166 102.507 26.0541 102.4 25.8916C102.293 25.7291 102.187 25.6207 101.973 25.5124C101.813 25.4041 101.6 25.3499 101.333 25.3499C101.067 25.3499 100.853 25.4041 100.64 25.5124C100.48 25.6207 100.32 25.7291 100.213 25.8916C100.107 26.0541 100.053 26.2166 100 26.3791C99.9467 26.5416 99.9467 26.7041 99.9467 26.8666V30.6041C99.9467 31.0916 100.053 31.4707 100.267 31.7957C100.48 32.1207 100.853 32.2832 101.333 32.2832C101.707 32.2832 102.027 32.1749 102.24 31.9041C102.453 31.6332 102.613 31.3082 102.613 30.8749L102.667 26.8124Z" fill="white"/>
<path d="M107.307 27.7333H108.693C109.173 27.7333 109.653 27.7875 109.973 27.95C110.347 28.1125 110.613 28.275 110.88 28.5458C111.147 28.8166 111.307 29.0875 111.413 29.4666C111.52 29.7916 111.573 30.225 111.573 30.6041C111.573 31.6333 111.307 32.3375 110.773 32.8791C110.24 33.3666 109.547 33.6375 108.64 33.6375H105.653V23.8875H110.773V25.35H107.253V27.7333H107.307ZM107.307 32.175H108.64C109.12 32.175 109.493 32.0666 109.707 31.7958C109.92 31.525 110.027 31.1458 110.027 30.7125C110.027 30.2791 109.92 29.9541 109.707 29.6833C109.493 29.4125 109.12 29.3041 108.64 29.3041H107.307V32.175Z" fill="white"/>
<path d="M118.72 26.8666C118.72 27.3 118.667 27.6791 118.56 28.0583C118.453 28.4375 118.24 28.7625 118.027 29.0333C117.813 29.3041 117.493 29.5208 117.12 29.6833C116.747 29.8458 116.32 29.9 115.84 29.9H114.453V33.6375H112.853V23.8875H115.733C116.16 23.8875 116.587 23.9416 116.96 24.05C117.333 24.1583 117.653 24.375 117.867 24.5916C118.133 24.8625 118.347 25.1333 118.453 25.5125C118.667 25.9458 118.72 26.3791 118.72 26.8666ZM117.173 26.8666C117.173 26.3791 117.067 26 116.853 25.7833C116.64 25.5125 116.267 25.4041 115.787 25.4041H114.453V28.4375H115.787C116.267 28.4375 116.587 28.275 116.853 28.0041C117.067 27.6791 117.173 27.3 117.173 26.8666Z" fill="white"/>
<path d="M123.413 31.525H120.747C120.747 31.6333 120.693 31.7417 120.64 31.9583C120.587 32.175 120.533 32.3917 120.48 32.6083C120.427 32.825 120.373 33.0417 120.32 33.2583C120.267 33.475 120.213 33.5833 120.213 33.6917H118.56L121.333 23.9417H122.827L125.6 33.6917H123.947L123.413 31.525ZM121.6 28.1667L121.12 30.1166H123.093L122.613 28.1667C122.613 28.0583 122.56 27.95 122.507 27.7333C122.453 27.5167 122.4 27.3541 122.347 27.1375C122.293 26.9208 122.24 26.7042 122.187 26.5417C122.133 26.3792 122.133 26.2167 122.08 26.1083H122.027L121.6 28.1667Z" fill="white"/>
<path d="M126.08 31.4707C126.187 31.4166 126.293 31.4166 126.4 31.3624C126.507 31.3082 126.667 31.2541 126.827 31.1999C126.987 31.1457 127.093 31.0916 127.253 31.0374C127.36 30.9832 127.52 30.9291 127.573 30.9291C127.627 31.3082 127.84 31.6332 128.107 31.8499C128.373 32.0666 128.693 32.1749 129.067 32.1749C129.493 32.1749 129.813 32.0666 130.027 31.7416C130.24 31.4707 130.4 31.0916 130.4 30.6582C130.4 30.4416 130.4 30.2791 130.347 30.0624C130.293 29.8999 130.24 29.7374 130.133 29.5749C130.027 29.4666 129.92 29.3041 129.707 29.2499C129.493 29.1957 129.333 29.2499 129.067 29.2499H128.32V27.8957H129.067C129.44 27.8957 129.76 27.7874 129.973 27.5707C130.187 27.3541 130.293 26.9749 130.293 26.5416C130.293 26.1624 130.187 25.8916 129.973 25.6749C129.76 25.4582 129.44 25.3499 129.067 25.3499C128.693 25.3499 128.373 25.4582 128.16 25.6749C127.947 25.8916 127.733 26.1624 127.68 26.5416L126.24 25.9999C126.4 25.3499 126.72 24.8082 127.253 24.3749C127.733 23.9957 128.373 23.7791 129.173 23.7791C130.08 23.7791 130.773 23.9957 131.253 24.4291C131.733 24.8624 131.947 25.5124 131.947 26.3791C131.947 26.5416 131.947 26.7041 131.893 26.9207C131.84 27.1374 131.787 27.3541 131.733 27.5166C131.68 27.7332 131.573 27.8957 131.413 28.0582C131.253 28.2207 131.093 28.3832 130.88 28.4374V28.4916C131.093 28.5999 131.307 28.7082 131.467 28.8707C131.627 29.0332 131.733 29.1957 131.84 29.4124C131.947 29.6291 132 29.8457 132 30.0624C132.053 30.2791 132.053 30.4957 132.053 30.7124C132.053 31.1999 132 31.6332 131.84 32.0124C131.68 32.3916 131.52 32.6624 131.253 32.9332C130.987 33.2041 130.667 33.3666 130.293 33.4749C129.92 33.5832 129.547 33.6374 129.067 33.6374C128.267 33.6374 127.627 33.4207 127.093 33.0416C126.56 32.7166 126.24 32.1749 126.08 31.4707Z" fill="white"/>
<path d="M139.093 30.6582C139.093 31.1457 139.04 31.5249 138.88 31.9041C138.72 32.2832 138.56 32.6082 138.293 32.8791C138.027 33.1499 137.707 33.3666 137.387 33.4749C137.013 33.6374 136.64 33.6916 136.213 33.6916C135.68 33.6916 135.253 33.5832 134.88 33.4207C134.507 33.2582 134.187 32.9874 133.973 32.7166C133.76 32.4457 133.547 32.0666 133.44 31.6874C133.333 31.3082 133.28 30.8749 133.28 30.4416V26.7582C133.28 26.4332 133.333 26.0541 133.44 25.7291C133.547 25.3499 133.707 25.0249 133.973 24.7541C134.187 24.4832 134.507 24.2124 134.88 24.0499C135.253 23.8874 135.733 23.7791 136.267 23.7791C136.747 23.7791 137.227 23.8874 137.6 24.0499C137.973 24.2124 138.293 24.4832 138.507 24.7541C138.773 25.0249 138.933 25.3499 139.04 25.7291C139.147 26.1082 139.2 26.4332 139.2 26.8124L139.093 30.6582ZM137.493 26.8124C137.493 26.7041 137.493 26.5416 137.44 26.3791C137.387 26.2166 137.333 26.0541 137.227 25.8916C137.12 25.7291 137.013 25.6207 136.8 25.5124C136.64 25.4041 136.427 25.3499 136.16 25.3499C135.893 25.3499 135.68 25.4041 135.467 25.5124C135.307 25.6207 135.147 25.7291 135.04 25.8916C134.933 26.0541 134.88 26.2166 134.827 26.3791C134.773 26.5416 134.773 26.7041 134.773 26.8666V30.6041C134.773 31.0916 134.88 31.4707 135.093 31.7957C135.307 32.1207 135.68 32.2832 136.16 32.2832C136.533 32.2832 136.853 32.1749 137.067 31.9041C137.333 31.6332 137.44 31.3082 137.44 30.8749L137.493 26.8124Z" fill="white"/>
<path d="M146.507 30.7666C146.507 31.6875 146.24 32.3917 145.76 32.9333C145.28 33.4208 144.587 33.6917 143.787 33.6917H140.693V23.9417H143.627C144.533 23.9417 145.227 24.1583 145.653 24.6458C146.133 25.1333 146.347 25.7833 146.347 26.5958C146.347 27.0291 146.24 27.4083 146.08 27.7333C145.92 28.0583 145.6 28.3833 145.173 28.5458V28.6C145.387 28.6541 145.6 28.7625 145.76 28.925C145.92 29.0875 146.08 29.25 146.187 29.4125C146.293 29.6291 146.347 29.8458 146.4 30.0625C146.453 30.2792 146.507 30.4958 146.507 30.7666ZM144.8 26.5958C144.8 26.2166 144.693 25.8917 144.48 25.675C144.267 25.4583 143.947 25.35 143.467 25.35H142.24V27.8958H143.52C143.947 27.8958 144.32 27.7875 144.533 27.5166C144.693 27.3 144.8 26.975 144.8 26.5958ZM144.96 30.6583C144.96 30.225 144.853 29.9 144.64 29.6292C144.427 29.3583 144.107 29.25 143.627 29.25H142.24V32.1208H143.627C143.893 32.1208 144.107 32.0666 144.267 32.0125C144.427 31.9583 144.587 31.85 144.693 31.6875C144.8 31.5792 144.853 31.4166 144.907 31.2C144.907 31.0375 144.96 30.875 144.96 30.6583Z" fill="white"/>
<path d="M152.053 31.525H149.387C149.387 31.6333 149.333 31.7417 149.28 31.9583C149.227 32.175 149.173 32.3917 149.12 32.6083C149.067 32.825 149.013 33.0417 148.96 33.2583C148.907 33.475 148.853 33.5833 148.853 33.6917H147.2L149.973 23.9417H151.467L154.24 33.6917H152.587L152.053 31.525ZM150.24 28.1667L149.76 30.1166H151.733L151.253 28.1667C151.253 28.0583 151.2 27.95 151.147 27.7333C151.093 27.5167 151.04 27.3541 150.987 27.1375C150.933 26.9208 150.88 26.7042 150.827 26.5417C150.773 26.3792 150.773 26.2167 150.72 26.1083H150.667L150.24 28.1667Z" fill="white"/>
<path d="M159.573 33.6375V29.4125H156.853V33.6375H155.253V23.8875H156.853V28.0041H159.573V23.8875H161.173V33.6375H159.573Z" fill="white"/>
<path d="M162.933 33.6375V23.8875H164.48V30.4416C164.693 30.0625 164.907 29.6291 165.067 29.25C165.227 28.8708 165.44 28.4375 165.653 28.0583C166.027 27.3541 166.347 26.7041 166.667 26C166.987 25.2958 167.36 24.6458 167.68 23.9416H169.12V33.6916H167.52V27.2458H167.467C167.307 27.5708 167.147 27.8958 166.987 28.1666C166.827 28.4916 166.667 28.8166 166.507 29.0875L164.267 33.5833L162.933 33.6375Z" fill="white"/>
<path d="M176.693 23.8875V33.6375H175.093V29.5208H174.24C173.92 29.5208 173.653 29.6291 173.387 29.8458C173.12 30.0625 172.907 30.4416 172.747 31.0375L172.16 33.6916H170.507L171.147 30.7666C171.253 30.3875 171.36 30.0625 171.52 29.7916C171.68 29.5208 171.893 29.3041 172.213 29.1958C171.68 29.0333 171.36 28.7083 171.147 28.275C170.933 27.8416 170.827 27.3541 170.827 26.8666C170.827 26.4333 170.88 26 171.04 25.675C171.147 25.2958 171.36 25.025 171.627 24.7541C171.893 24.4833 172.16 24.3208 172.48 24.1583C172.8 24.05 173.173 23.9416 173.6 23.9416L176.693 23.8875ZM172.427 26.8125C172.427 27.3 172.587 27.625 172.853 27.7875C173.12 27.95 173.44 28.0583 173.867 28.0583H175.093V25.35H173.813C173.333 25.35 173.013 25.4583 172.747 25.7291C172.533 26 172.427 26.3791 172.427 26.8125Z" fill="white"/>
<path d="M202.133 17.3875H196.747V7.63745H198.347V15.925H201.013V7.63745H202.613V15.925H203.52V19.3916H202.133V17.3875Z" fill="white"/>
<path d="M204.64 17.3875V7.63745H206.187V14.1916C206.4 13.8125 206.613 13.3791 206.773 13C206.933 12.6208 207.147 12.1875 207.36 11.8083C207.733 11.1041 208.053 10.4541 208.373 9.74995C208.693 9.04578 209.067 8.39578 209.387 7.69162H210.827V17.4416H209.227V11.05H209.173C209.013 11.375 208.853 11.7 208.693 11.9708C208.533 12.2958 208.373 12.6208 208.213 12.8916L205.973 17.3875H204.64Z" fill="white"/>
<path d="M215.414 16.5749C214.774 16.5207 214.294 16.4124 213.867 16.1416C213.44 15.9249 213.12 15.6541 212.907 15.2749C212.64 14.8957 212.48 14.5166 212.427 13.9749C212.32 13.4874 212.267 12.9457 212.267 12.2957C212.267 11.6999 212.32 11.1582 212.427 10.6707C212.534 10.1832 212.694 9.74989 212.96 9.37072C213.227 8.99155 213.547 8.72072 213.92 8.50405C214.347 8.28739 214.827 8.12489 215.414 8.07072V7.52905H216.96V8.07072C217.547 8.12489 218.027 8.28739 218.454 8.50405C218.88 8.72072 219.2 8.99155 219.414 9.37072C219.68 9.74989 219.84 10.1291 219.947 10.6166C220.054 11.1041 220.107 11.6457 220.107 12.2416C220.107 12.8374 220.054 13.4332 219.947 13.9207C219.84 14.4082 219.68 14.8416 219.414 15.2207C219.147 15.5999 218.827 15.8707 218.454 16.0874C218.027 16.3041 217.547 16.4666 216.907 16.5207V17.3332H215.36L215.414 16.5749ZM215.414 9.58739C214.827 9.64155 214.4 9.91239 214.187 10.3999C213.974 10.8874 213.867 11.5374 213.867 12.2957C213.867 12.7291 213.92 13.1082 213.92 13.4874C213.974 13.8124 214.08 14.1374 214.187 14.3541C214.294 14.5707 214.454 14.7874 214.667 14.8957C214.88 15.0041 215.147 15.1124 215.414 15.1124V9.58739ZM216.96 15.1666C217.6 15.1124 217.974 14.8416 218.24 14.4082C218.454 13.9207 218.56 13.2707 218.56 12.3499C218.56 11.5374 218.454 10.9416 218.187 10.4541C217.974 9.96655 217.547 9.69572 216.96 9.69572V15.1666Z" fill="white"/>
<path d="M227.467 10.6708C227.467 11.1042 227.413 11.4833 227.307 11.8625C227.2 12.2417 226.987 12.5667 226.773 12.8375C226.56 13.1083 226.24 13.325 225.867 13.4875C225.493 13.65 225.067 13.7042 224.587 13.7042H223.2V17.4417H221.6V7.69165H224.48C224.907 7.69165 225.333 7.74582 225.707 7.85415C226.08 7.96248 226.4 8.17915 226.613 8.39582C226.88 8.66665 227.093 8.93748 227.2 9.31665C227.413 9.69582 227.467 10.1292 227.467 10.6708ZM225.92 10.6167C225.92 10.1292 225.813 9.74998 225.6 9.53332C225.387 9.26248 225.013 9.15415 224.533 9.15415H223.2V12.1875H224.533C225.013 12.1875 225.333 12.025 225.6 11.7542C225.813 11.4292 225.92 11.1042 225.92 10.6167Z" fill="white"/>
<path d="M234.667 14.4082C234.667 14.8957 234.614 15.2749 234.454 15.6541C234.294 16.0332 234.134 16.3582 233.867 16.6291C233.6 16.8999 233.28 17.1166 232.96 17.2249C232.587 17.3874 232.214 17.4416 231.787 17.4416C231.254 17.4416 230.827 17.3332 230.454 17.1707C230.08 17.0082 229.76 16.7374 229.547 16.4666C229.334 16.1957 229.12 15.8166 229.014 15.4374C228.907 15.0582 228.854 14.6249 228.854 14.1916V10.5082C228.854 10.1832 228.907 9.80405 229.014 9.47905C229.12 9.09989 229.28 8.77489 229.547 8.50405C229.76 8.23322 230.08 7.96239 230.454 7.79989C230.827 7.63739 231.307 7.52905 231.84 7.52905C232.32 7.52905 232.8 7.63739 233.174 7.79989C233.547 7.96239 233.867 8.23322 234.08 8.50405C234.294 8.77489 234.507 9.09989 234.614 9.47905C234.72 9.85822 234.774 10.1832 234.774 10.5624V14.4082H234.667ZM233.067 10.5624C233.067 10.4541 233.067 10.2916 233.014 10.1291C232.96 9.96655 232.907 9.80405 232.8 9.64155C232.694 9.47905 232.587 9.37072 232.374 9.26239C232.16 9.15405 232 9.09989 231.734 9.09989C231.467 9.09989 231.254 9.15405 231.04 9.26239C230.827 9.37072 230.72 9.47905 230.614 9.64155C230.507 9.80405 230.454 9.96655 230.4 10.1291C230.347 10.2916 230.347 10.4541 230.347 10.6166V14.3541C230.347 14.8416 230.454 15.2207 230.667 15.5457C230.88 15.8707 231.254 16.0332 231.734 16.0332C232.107 16.0332 232.427 15.9249 232.64 15.6541C232.907 15.3832 233.014 15.0582 233.014 14.6249V10.5624H233.067Z" fill="white"/>
<path d="M241.974 14.5167C241.974 15.4375 241.707 16.1417 241.227 16.6833C240.747 17.1708 240.053 17.4417 239.253 17.4417H236.16V7.69165H239.093C240 7.69165 240.693 7.90832 241.12 8.39582C241.6 8.88332 241.813 9.53332 241.813 10.3458C241.813 10.7792 241.707 11.1583 241.547 11.4833C241.387 11.8083 241.067 12.1333 240.64 12.2958V12.35C240.854 12.4042 241.067 12.5125 241.227 12.675C241.387 12.8375 241.547 13 241.653 13.1625C241.76 13.3792 241.813 13.5958 241.867 13.8125C241.973 14.0292 241.974 14.2458 241.974 14.5167ZM240.32 10.3458C240.32 9.96665 240.213 9.64165 240 9.42498C239.787 9.20832 239.467 9.09998 238.987 9.09998H237.76V11.6458H239.04C239.467 11.6458 239.84 11.5375 240.053 11.2667C240.267 10.9958 240.32 10.725 240.32 10.3458ZM240.427 14.4083C240.427 13.975 240.32 13.65 240.107 13.3792C239.894 13.1083 239.573 13 239.093 13H237.707V15.8708H239.093C239.36 15.8708 239.573 15.8167 239.733 15.7625C239.893 15.7083 240.053 15.6 240.16 15.4375C240.267 15.3292 240.32 15.1667 240.374 14.95C240.427 14.7875 240.427 14.625 240.427 14.4083Z" fill="white"/>
<path d="M249.12 14.4082C249.12 14.8957 249.067 15.2749 248.907 15.6541C248.747 16.0332 248.587 16.3582 248.32 16.6291C248.054 16.8999 247.734 17.1166 247.414 17.2249C247.04 17.3874 246.667 17.4416 246.24 17.4416C245.707 17.4416 245.28 17.3332 244.907 17.1707C244.534 17.0082 244.214 16.7374 244 16.4666C243.787 16.1957 243.574 15.8166 243.467 15.4374C243.36 15.0582 243.307 14.6249 243.307 14.1916V10.5082C243.307 10.1832 243.36 9.80405 243.467 9.47905C243.574 9.15405 243.734 8.77489 244 8.50405C244.214 8.23322 244.534 7.96239 244.907 7.79989C245.28 7.63739 245.76 7.52905 246.294 7.52905C246.774 7.52905 247.254 7.63739 247.627 7.79989C248 7.96239 248.32 8.23322 248.534 8.50405C248.747 8.77489 248.96 9.09989 249.067 9.47905C249.174 9.85822 249.227 10.1832 249.227 10.5624L249.12 14.4082ZM247.52 10.5624C247.52 10.4541 247.52 10.2916 247.467 10.1291C247.414 9.96655 247.36 9.80405 247.254 9.64155C247.147 9.47905 247.04 9.37072 246.827 9.26239C246.667 9.15405 246.454 9.09989 246.187 9.09989C245.92 9.09989 245.707 9.15405 245.494 9.26239C245.334 9.37072 245.174 9.47905 245.067 9.64155C244.96 9.80405 244.907 9.96655 244.854 10.1291C244.8 10.2916 244.8 10.4541 244.8 10.6166V14.3541C244.8 14.8416 244.907 15.2207 245.12 15.5457C245.334 15.8707 245.707 16.0332 246.187 16.0332C246.56 16.0332 246.88 15.9249 247.094 15.6541C247.36 15.3832 247.467 15.0582 247.467 14.6249L247.52 10.5624Z" fill="white"/>
<path d="M253.814 7.09578C253.44 7.09578 253.174 7.04162 252.907 6.87912C252.694 6.77078 252.48 6.60828 252.32 6.39162C252.16 6.22912 252.054 6.01245 252 5.79578C251.947 5.57912 251.894 5.36245 251.894 5.19995H252.96C252.96 5.30828 253.014 5.41662 253.014 5.47078C253.067 5.57912 253.12 5.68745 253.174 5.74162C253.227 5.84995 253.334 5.90412 253.44 5.95828C253.547 6.01245 253.654 6.06662 253.76 6.06662C253.867 6.06662 254.027 6.06662 254.134 5.95828C254.24 5.90412 254.294 5.84995 254.4 5.74162C254.454 5.63328 254.507 5.57912 254.56 5.47078C254.614 5.36245 254.614 5.25412 254.614 5.19995H255.68C255.68 5.36245 255.627 5.57912 255.574 5.79578C255.52 6.01245 255.414 6.22912 255.254 6.39162C255.094 6.55412 254.934 6.71662 254.667 6.87912C254.4 7.04162 254.134 7.09578 253.814 7.09578Z" fill="white"/>
<path d="M250.614 17.3875V7.63745H252.16V14.1916C252.374 13.8125 252.587 13.3791 252.747 13C252.907 12.6208 253.12 12.1875 253.334 11.8083C253.707 11.1041 254.027 10.4541 254.347 9.74995C254.667 9.04578 255.04 8.39578 255.36 7.69162H256.8V17.4416H255.2V11.05H255.147C254.987 11.375 254.827 11.7 254.667 11.9708C254.507 12.2958 254.347 12.6208 254.187 12.8916L251.947 17.3875H250.614Z" fill="white"/>
<path d="M266.187 9.09995V17.3875H264.587V9.09995H262.454V7.63745H268.267V9.09995H266.187Z" fill="white"/>
<path d="M275.573 10.6708C275.573 11.1042 275.52 11.4833 275.413 11.8625C275.307 12.2417 275.093 12.5667 274.88 12.8375C274.667 13.1083 274.347 13.325 273.973 13.4875C273.6 13.65 273.173 13.7042 272.693 13.7042H271.307V17.4417H269.707V7.69165H272.587C273.013 7.69165 273.44 7.74582 273.813 7.85415C274.187 7.96248 274.507 8.17915 274.72 8.39582C274.987 8.66665 275.2 8.93748 275.307 9.31665C275.52 9.69582 275.573 10.1292 275.573 10.6708ZM274.027 10.6167C274.027 10.1292 273.92 9.74998 273.707 9.53332C273.493 9.26248 273.12 9.15415 272.64 9.15415H271.307V12.1875H272.64C273.12 12.1875 273.44 12.025 273.707 11.7542C273.92 11.4292 274.027 11.1042 274.027 10.6167Z" fill="white"/>
<path d="M280.107 15.275H277.44C277.44 15.3833 277.387 15.4917 277.334 15.7083C277.28 15.925 277.227 16.1417 277.174 16.3583C277.12 16.575 277.067 16.7917 277.014 17.0083C276.96 17.225 276.907 17.3333 276.907 17.4417H275.2L277.974 7.69165H279.467L282.24 17.4417H280.587L280.107 15.275ZM278.24 11.9167L277.76 13.8667H279.734L279.254 11.9167C279.254 11.8083 279.2 11.7 279.147 11.4833C279.094 11.2667 279.04 11.1042 278.987 10.8875C278.934 10.6708 278.88 10.4542 278.827 10.2917C278.774 10.1292 278.774 9.96665 278.72 9.85832H278.667L278.24 11.9167Z" fill="white"/>
<path d="M287.36 17.3875V13.1625H284.64V17.3875H283.04V7.63745H284.64V11.7541H287.36V7.63745H288.96V17.3875H287.36Z" fill="white"/>
<path d="M296.32 15.3291C296.16 16.0332 295.84 16.5207 295.307 16.8999C294.827 17.2791 294.187 17.4416 293.494 17.4416C293.014 17.4416 292.587 17.3874 292.214 17.2249C291.84 17.0624 291.52 16.8457 291.307 16.5749C291.04 16.3041 290.88 15.9791 290.774 15.5999C290.667 15.2207 290.614 14.8416 290.614 14.3541V10.5624C290.614 10.1832 290.667 9.80405 290.774 9.42489C290.88 9.04572 291.094 8.72072 291.307 8.44989C291.574 8.17905 291.84 7.96239 292.214 7.79989C292.587 7.63739 293.014 7.52905 293.547 7.52905C294.294 7.52905 294.934 7.74572 295.414 8.12489C295.894 8.55822 296.214 9.04572 296.374 9.64155L294.88 10.1291C294.827 9.96655 294.827 9.85822 294.72 9.69572C294.667 9.58739 294.56 9.42489 294.453 9.31655C294.347 9.20822 294.187 9.09989 294.027 9.04572C293.867 8.99155 293.707 8.93739 293.494 8.93739C293.227 8.93739 293.067 8.99155 292.853 9.04572C292.693 9.15405 292.534 9.26239 292.427 9.37072C292.32 9.47905 292.214 9.64155 292.16 9.80405C292.107 9.96655 292.053 10.1291 292.053 10.2916V14.1916C292.053 14.4082 292.107 14.5707 292.16 14.7874C292.214 14.9499 292.32 15.1124 292.427 15.2749C292.534 15.4374 292.693 15.5457 292.853 15.5999C293.013 15.6541 293.227 15.7082 293.44 15.7082C293.76 15.7082 294.08 15.5999 294.294 15.4374C294.56 15.2207 294.667 14.9499 294.774 14.6249L296.32 15.3291Z" fill="white"/>
<path d="M300.053 16.5749C299.413 16.5207 298.933 16.4124 298.507 16.1416C298.08 15.9249 297.76 15.6541 297.547 15.2749C297.28 14.8957 297.12 14.5166 297.067 13.9749C296.96 13.4874 296.907 12.9457 296.907 12.2957C296.907 11.6999 296.96 11.1582 297.067 10.6707C297.173 10.1832 297.333 9.74989 297.6 9.37072C297.867 8.99155 298.187 8.72072 298.56 8.50405C298.987 8.28739 299.467 8.12489 300.053 8.07072V7.52905H301.6V8.07072C302.187 8.12489 302.667 8.28739 303.093 8.50405C303.52 8.72072 303.84 8.99155 304.053 9.37072C304.32 9.74989 304.48 10.1291 304.587 10.6166C304.693 11.1041 304.747 11.6457 304.747 12.2416C304.747 12.8374 304.693 13.4332 304.587 13.9207C304.48 14.4082 304.32 14.8416 304.053 15.2207C303.787 15.5999 303.467 15.8707 303.093 16.0874C302.667 16.3041 302.187 16.4666 301.547 16.5207V17.3332H300V16.5749H300.053ZM300 9.58739C299.413 9.64155 298.987 9.91239 298.773 10.3999C298.56 10.8874 298.453 11.5374 298.453 12.2957C298.453 12.7291 298.507 13.1082 298.507 13.4874C298.56 13.8124 298.667 14.1374 298.773 14.3541C298.88 14.5707 299.04 14.7874 299.253 14.8957C299.467 15.0041 299.733 15.1124 300 15.1124V9.58739ZM301.6 15.1666C302.24 15.1124 302.613 14.8416 302.88 14.4082C303.093 13.9207 303.2 13.2707 303.2 12.3499C303.2 11.5374 303.093 10.9416 302.827 10.4541C302.613 9.96655 302.187 9.69572 301.6 9.69572V15.1666Z" fill="white"/>
<path d="M312.267 14.4083C312.267 14.8958 312.213 15.2749 312.053 15.6541C311.893 16.0333 311.733 16.3583 311.467 16.6291C311.2 16.8999 310.88 17.1166 310.56 17.2249C310.24 17.3333 309.813 17.4416 309.387 17.4416C308.853 17.4416 308.427 17.3333 308.053 17.1708C307.68 17.0083 307.36 16.7374 307.147 16.4666C306.933 16.1958 306.72 15.8166 306.613 15.4374C306.507 15.0583 306.453 14.6249 306.453 14.1916V10.5083C306.453 10.1833 306.507 9.80409 306.613 9.47909C306.72 9.15409 306.88 8.77492 307.147 8.50409C307.36 8.23325 307.68 7.96242 308.053 7.79992C308.427 7.63742 308.8 7.58325 309.333 7.58325C309.813 7.58325 310.293 7.69159 310.667 7.85409C311.04 8.01659 311.36 8.28742 311.573 8.55825C311.787 8.82909 312 9.15409 312.107 9.53325C312.213 9.91242 312.267 10.2374 312.267 10.6166V14.4083ZM310.667 10.5624C310.667 10.4541 310.667 10.2916 310.613 10.1291C310.56 9.96659 310.507 9.80409 310.4 9.64158C310.293 9.47908 310.187 9.37075 309.973 9.26242C309.76 9.15409 309.6 9.09992 309.333 9.09992C309.067 9.09992 308.853 9.15409 308.64 9.26242C308.48 9.37075 308.32 9.47908 308.213 9.64158C308.107 9.80409 308.053 9.96659 308 10.1291C307.947 10.2916 307.947 10.4541 307.947 10.6166V14.3541C307.947 14.8416 308.053 15.2208 308.267 15.5458C308.48 15.8708 308.853 16.0333 309.333 16.0333C309.707 16.0333 310.027 15.9249 310.24 15.6541C310.507 15.3833 310.613 15.0583 310.613 14.6249L310.667 10.5624Z" fill="white"/>
<path d="M319.734 10.6708C319.734 11.1042 319.68 11.4833 319.574 11.8625C319.467 12.2417 319.254 12.5667 319.04 12.8375C318.827 13.1083 318.507 13.325 318.134 13.4875C317.76 13.65 317.334 13.7042 316.854 13.7042H315.467V17.4417H313.867V7.69165H316.747C317.174 7.69165 317.6 7.74582 317.974 7.85415C318.347 7.96248 318.667 8.17915 318.88 8.39582C319.147 8.66665 319.36 8.93748 319.467 9.31665C319.68 9.69582 319.734 10.1292 319.734 10.6708ZM318.187 10.6167C318.187 10.1292 318.08 9.74998 317.867 9.53332C317.654 9.26248 317.28 9.15415 316.8 9.15415H315.467V12.1875H316.8C317.28 12.1875 317.6 12.025 317.867 11.7542C318.027 11.4292 318.187 11.1042 318.187 10.6167Z" fill="white"/>
<path d="M327.147 17.3874V11.6999H327.094L326.4 13.5416L325.494 15.6541H324.374L323.414 13.4333L322.72 11.6458H322.667V17.3333H321.067V7.58325H322.56L323.894 10.7791L324.854 13.1083H324.907L325.867 10.8333L327.2 7.63742H328.694V17.3874H327.147Z" fill="white"/>
<path d="M334.614 15.275H331.947C331.947 15.3833 331.894 15.4917 331.84 15.7083C331.787 15.925 331.734 16.1417 331.68 16.3583C331.627 16.575 331.574 16.7917 331.52 17.0083C331.467 17.225 331.414 17.3333 331.414 17.4417H329.76L332.534 7.69165H334.027L336.8 17.4417H335.147L334.614 15.275ZM332.8 11.9167L332.32 13.8667H334.294L333.814 11.9167C333.814 11.8083 333.76 11.7 333.707 11.4833C333.654 11.2667 333.6 11.1042 333.547 10.8875C333.494 10.6708 333.44 10.4542 333.387 10.2917C333.334 10.1292 333.334 9.96665 333.28 9.85832H333.227L332.8 11.9167Z" fill="white"/>
<path d="M343.147 17.3875H337.76V7.63745H339.36V15.925H342.027V7.63745H343.627V15.925H344.534V19.3916H343.2V17.3875H343.147Z" fill="white"/>
<path d="M345.707 17.3875V7.63745H347.253V14.1916C347.467 13.8125 347.68 13.3791 347.84 13C348 12.6208 348.213 12.1875 348.427 11.8083C348.8 11.1041 349.12 10.4541 349.44 9.74995C349.76 9.04578 350.133 8.39578 350.453 7.69162H351.893V17.4416H350.293V11.05H350.4C350.24 11.375 350.08 11.7 349.92 11.9708C349.76 12.2416 349.6 12.6208 349.44 12.8916L347.2 17.3875H345.707Z" fill="white"/>
<path d="M353.707 17.3875V7.63745H355.253V14.1916C355.467 13.8125 355.68 13.3791 355.84 13C356 12.6208 356.213 12.1875 356.427 11.8083C356.8 11.1041 357.12 10.4541 357.44 9.74995C357.76 9.04578 358.133 8.39578 358.453 7.69162H359.893V17.4416H358.293V11.05H358.4C358.24 11.375 358.08 11.7 357.92 11.9708C357.76 12.2416 357.6 12.6208 357.44 12.8916L355.2 17.3875H353.707Z" fill="white"/>
<path d="M50.9868 16.5749C50.3468 16.5207 49.8668 16.4124 49.4401 16.1416C49.0134 15.9249 48.6934 15.6541 48.4801 15.2749C48.2134 14.8957 48.0534 14.5166 48.0001 13.9749C47.8934 13.4874 47.8401 12.9457 47.8401 12.2957C47.8401 11.6999 47.8934 11.1582 48.0001 10.6707C48.1068 10.1832 48.2668 9.74989 48.5334 9.37072C48.8001 8.99155 49.1201 8.72072 49.4934 8.50405C49.9201 8.28739 50.4001 8.12489 50.9868 8.07072V7.52905H52.5334V8.07072C53.1201 8.12489 53.6001 8.28739 54.0268 8.50405C54.4534 8.72072 54.7734 8.99155 54.9868 9.37072C55.2534 9.74989 55.4134 10.1291 55.5201 10.6166C55.6268 11.1041 55.6801 11.6457 55.6801 12.2416C55.6801 12.8374 55.6268 13.4332 55.5201 13.9207C55.4134 14.4082 55.2534 14.8416 54.9868 15.2207C54.7201 15.5999 54.4001 15.8707 54.0268 16.0874C53.6001 16.3041 53.1201 16.4666 52.4801 16.5207V17.3332H50.9334V16.5749H50.9868ZM50.9334 9.58739C50.3468 9.64155 49.9201 9.91239 49.7068 10.3999C49.4934 10.8874 49.3868 11.5374 49.3868 12.2957C49.3868 12.7291 49.4401 13.1082 49.4401 13.4874C49.4401 13.8666 49.6001 14.1374 49.7068 14.3541C49.8134 14.5707 49.9734 14.7874 50.1868 14.8957C50.4001 15.0041 50.6668 15.1124 50.9334 15.1124V9.58739ZM52.5334 15.1666C53.1734 15.1124 53.5468 14.8416 53.8134 14.4082C54.0268 13.9207 54.1334 13.2707 54.1334 12.3499C54.1334 11.5374 54.0268 10.9416 53.7601 10.4541C53.5468 9.96655 53.1201 9.69572 52.5334 9.69572V15.1666Z" fill="white"/>
<path d="M56.8535 17.3875V7.63745H62.1868V9.09995H58.4002V11.7H61.6535V13.1625H58.4002V15.8708H62.1868V17.3875H56.8535Z" fill="white"/>
<path d="M64.4802 19.3914H63.0935V16.0873C63.2002 16.0873 63.3068 16.0331 63.4135 16.0331C63.5202 16.0331 63.6268 15.9789 63.7335 15.9789C63.9468 15.8164 64.1068 15.5998 64.2135 15.3831C64.3202 15.1664 64.4268 14.8414 64.4802 14.5164C64.5335 14.1914 64.5868 13.7581 64.6402 13.3248C64.6935 12.8373 64.6935 12.2956 64.6935 11.6998L64.8535 7.74561H70.1335C70.1335 9.15394 70.1335 10.5081 70.1335 11.9164C70.1335 13.2706 70.1335 14.6789 70.1335 16.0873H70.8802V19.4998H69.4935V17.4956H64.3735L64.4802 19.3914ZM68.6935 15.9789V9.09977H66.2935L66.1868 12.0248C66.1868 12.4581 66.1335 12.8373 66.1335 13.2706C66.1335 13.6498 66.0802 14.0289 66.0268 14.3539C65.9735 14.6789 65.9202 15.0039 65.8668 15.2748C65.8135 15.5456 65.7068 15.7623 65.5468 15.9789H68.6935Z" fill="white"/>
<path d="M72.2668 17.3875V7.63745H77.6002V9.09995H73.8135V11.7H77.0668V13.1625H73.8135V15.8708H77.6002V17.3875H72.2668Z" fill="white"/>
<path d="M84.6933 10.6708C84.6933 11.1042 84.64 11.4833 84.5333 11.8625C84.4267 12.2417 84.2133 12.5667 84 12.8375C83.7867 13.1083 83.4667 13.325 83.0933 13.4875C82.72 13.65 82.2933 13.7042 81.8133 13.7042H80.4267V17.4417H78.8267V7.69165H81.7067C82.1333 7.69165 82.56 7.74582 82.9333 7.85415C83.3067 7.96248 83.6267 8.17915 83.84 8.39582C84.1067 8.66665 84.32 8.93748 84.4267 9.31665C84.64 9.69582 84.6933 10.1292 84.6933 10.6708ZM83.1467 10.6167C83.1467 10.1292 83.04 9.74998 82.8267 9.53332C82.6133 9.26248 82.24 9.15415 81.76 9.15415H80.4267V12.1875H81.76C82.24 12.1875 82.56 12.025 82.8267 11.7542C83.04 11.4292 83.1467 11.1042 83.1467 10.6167Z" fill="white"/>
<path d="M89.3868 15.275H86.7201C86.7201 15.3833 86.6668 15.4917 86.6134 15.7083C86.5601 15.925 86.5068 16.1417 86.4535 16.3583C86.4001 16.575 86.3468 16.7917 86.2934 17.0083C86.2401 17.225 86.1868 17.3333 86.1868 17.4417H84.5334L87.3068 7.69165H88.8001L91.5734 17.4417H89.9201L89.3868 15.275ZM87.5734 11.9167L87.0934 13.8667H89.0668L88.5334 11.9167C88.5334 11.8083 88.4801 11.7 88.4268 11.4833C88.3734 11.2667 88.3201 11.1042 88.2668 10.8875C88.2134 10.6708 88.1601 10.4542 88.1068 10.2917C88.0534 10.1292 88.0534 9.96665 88.0001 9.85832L87.5734 11.9167Z" fill="white"/>
<path d="M95.0401 12.7291C95.0401 13.4874 94.9868 14.1916 94.9335 14.7333C94.8801 15.2749 94.7201 15.7624 94.5068 16.1416C94.2935 16.5208 94.0268 16.8458 93.7068 17.0624C93.3868 17.2791 92.9601 17.4416 92.4801 17.5499L92.0535 16.3041C92.3735 16.1958 92.5868 16.0333 92.8001 15.8708C93.0135 15.7083 93.1735 15.4916 93.2801 15.2208C93.3868 14.9499 93.4935 14.6791 93.5468 14.2999C93.6001 13.9208 93.6001 13.4333 93.6001 12.8916V7.58325H98.7735V17.3333H97.2268V9.09992H95.0401V12.7291Z" fill="white"/>
<path d="M106.294 14.3541C106.294 15.3291 106.027 16.0875 105.494 16.6291C104.96 17.1166 104.267 17.3875 103.36 17.3875H100.374V7.63745H101.974V11.4833H103.36C103.84 11.4833 104.32 11.5375 104.64 11.7C105.014 11.8625 105.28 12.025 105.547 12.2958C105.814 12.5666 105.974 12.8375 106.08 13.2166C106.24 13.5416 106.294 13.975 106.294 14.3541ZM104.747 14.4083C104.747 13.975 104.64 13.5958 104.427 13.3791C104.214 13.1083 103.84 13 103.36 13H102.027V15.925H103.36C103.84 15.925 104.214 15.8166 104.427 15.4916C104.587 15.2208 104.747 14.8958 104.747 14.4083Z" fill="white"/>
<path d="M111.733 17.3875V13.1625H109.013V17.3875H107.413V7.63745H109.013V11.7541H111.733V7.63745H113.333V17.3875H111.733Z" fill="white"/>
<path d="M115.147 17.3875V7.63745H116.747V11.4833H118.133C118.613 11.4833 119.093 11.5375 119.413 11.7C119.787 11.8625 120.053 12.025 120.32 12.2958C120.533 12.5666 120.747 12.8375 120.853 13.2166C120.96 13.5958 121.013 13.975 121.013 14.3541C121.013 15.3833 120.747 16.0875 120.267 16.6291C119.787 17.1708 119.04 17.3875 118.133 17.3875H115.147ZM118.08 15.925C118.56 15.925 118.933 15.8166 119.147 15.5458C119.36 15.275 119.467 14.8958 119.467 14.4625C119.467 14.0291 119.36 13.7041 119.147 13.4333C118.933 13.1625 118.56 13.0541 118.08 13.0541H116.747V15.9791H118.08V15.925ZM121.813 17.3875V7.63745H123.413V17.3875H121.813Z" fill="white"/>
<path d="M137.12 17.3875V7.63745H138.667V14.1916C138.88 13.8125 139.093 13.3791 139.253 13C139.413 12.6208 139.627 12.1875 139.84 11.8083C140.213 11.1041 140.533 10.4541 140.853 9.74995C141.173 9.04578 141.547 8.39578 141.867 7.69162H143.307V17.4416H141.707V11.05H141.653C141.493 11.375 141.333 11.7 141.173 11.9708C141.013 12.2958 140.853 12.6208 140.693 12.8916L138.453 17.3875H137.12Z" fill="white"/>
<path d="M149.387 17.3875V13.1625H146.667V17.3875H145.067V7.63745H146.667V11.7541H149.387V7.63745H150.987V17.3875H149.387Z" fill="white"/>
<path d="M157.974 15.3291C157.814 16.0332 157.494 16.5207 156.96 16.8999C156.48 17.2791 155.84 17.4416 155.147 17.4416C154.667 17.4416 154.24 17.3874 153.867 17.2249C153.494 17.0624 153.174 16.8457 152.96 16.5749C152.694 16.3041 152.534 15.9791 152.427 15.5999C152.32 15.2207 152.267 14.8416 152.267 14.3541V10.5624C152.267 10.1832 152.32 9.80405 152.427 9.42489C152.534 9.04572 152.747 8.72072 152.96 8.44989C153.227 8.17905 153.494 7.96239 153.867 7.79989C154.24 7.63739 154.667 7.52905 155.2 7.52905C155.947 7.52905 156.587 7.74572 157.067 8.12489C157.547 8.55822 157.867 9.04572 158.027 9.64155L156.534 10.1291C156.48 9.96655 156.48 9.85822 156.374 9.69572C156.32 9.58739 156.214 9.42489 156.107 9.31655C156 9.20822 155.84 9.09989 155.68 9.04572C155.52 8.99155 155.36 8.93739 155.147 8.93739C154.88 8.93739 154.72 8.99155 154.507 9.04572C154.347 9.15405 154.187 9.26239 154.08 9.37072C153.974 9.47905 153.867 9.64155 153.814 9.80405C153.76 9.96655 153.707 10.1291 153.707 10.2916V14.1916C153.707 14.4082 153.76 14.5707 153.814 14.7874C153.867 14.9499 153.974 15.1124 154.08 15.2749C154.187 15.4374 154.347 15.5457 154.507 15.5999C154.667 15.6541 154.88 15.7082 155.094 15.7082C155.414 15.7082 155.734 15.5999 155.947 15.4374C156.214 15.2207 156.32 14.9499 156.427 14.6249L157.974 15.3291Z" fill="white"/>
<path d="M162.56 9.09995V17.3875H160.96V9.09995H158.827V7.63745H164.64V9.09995H162.56Z" fill="white"/>
<path d="M165.707 17.3875V7.63745H167.253V14.1916C167.467 13.8125 167.68 13.3791 167.84 13C168 12.6208 168.213 12.1875 168.427 11.8083C168.8 11.1041 169.12 10.4541 169.44 9.74995C169.76 9.04578 170.133 8.39578 170.453 7.69162H171.893V17.4416H170.293V11.05H170.24C170.08 11.375 169.92 11.7 169.76 11.9708C169.6 12.2416 169.44 12.6208 169.28 12.8916L167.04 17.3875H165.707Z" fill="white"/>
<path d="M176.64 9.09995V17.3875H175.04V9.09995H172.907V7.63745H178.72V9.09995H176.64Z" fill="white"/>
<path d="M184.48 11.4833C184.107 12.7833 183.68 14.0291 183.253 15.3291C183.093 15.7625 182.933 16.1416 182.773 16.4125C182.613 16.6833 182.453 16.9 182.24 17.0625C182.08 17.225 181.867 17.2791 181.653 17.3333C181.44 17.3875 181.227 17.3875 180.96 17.4416H180.213V16.1416H180.8C181.013 16.1416 181.173 16.0875 181.28 15.9791C181.387 15.8708 181.547 15.6541 181.707 15.3833C181.707 15.3291 181.76 15.275 181.76 15.2208C181.813 15.1666 181.813 15.1125 181.813 15.0041L179.307 7.63745H180.96L181.867 10.6708L182.56 12.9458H182.613C182.667 12.675 182.773 12.2958 182.933 11.8625C183.093 11.4291 183.2 10.8875 183.36 10.3458C183.52 9.80412 183.627 9.31662 183.787 8.82912C183.947 8.34162 184.053 7.96245 184.107 7.63745H185.653C185.227 8.93745 184.853 10.2375 184.48 11.4833Z" fill="white"/>
<path d="M189.76 9.09995V17.3875H188.16V9.09995H186.027V7.63745H191.84V9.09995H189.76Z" fill="white"/>
<path d="M128.373 7.09578C128 7.09578 127.733 7.04162 127.467 6.87912C127.253 6.77078 127.04 6.60828 126.88 6.39162C126.72 6.22912 126.613 6.01245 126.56 5.79578C126.507 5.57912 126.453 5.36245 126.453 5.19995H127.52C127.52 5.30828 127.573 5.41662 127.573 5.47078C127.627 5.57912 127.68 5.68745 127.733 5.74162C127.787 5.84995 127.893 5.90412 128 5.95828C128.107 6.01245 128.213 6.06662 128.32 6.06662C128.427 6.06662 128.587 6.06662 128.693 5.95828C128.8 5.90412 128.853 5.84995 128.96 5.74162C129.013 5.63328 129.067 5.57912 129.12 5.47078C129.173 5.36245 129.173 5.25412 129.173 5.19995H130.24C130.24 5.36245 130.187 5.57912 130.133 5.79578C130.08 6.01245 129.973 6.22912 129.813 6.39162C129.653 6.55412 129.493 6.71662 129.227 6.87912C128.96 7.04162 128.693 7.09578 128.373 7.09578Z" fill="white"/>
<path d="M125.173 17.3875V7.63745H126.72V14.1916C126.933 13.8125 127.147 13.3791 127.307 13C127.467 12.6208 127.68 12.1875 127.893 11.8083C128.267 11.1041 128.587 10.4541 128.907 9.74995C129.227 9.04578 129.6 8.39578 129.92 7.69162H131.36V17.4416H129.76V11.05H129.707C129.547 11.375 129.387 11.7 129.227 11.9708C129.067 12.2958 128.907 12.6208 128.747 12.8916L126.507 17.3875H125.173Z" fill="white"/>
<path d="M38.4 29.25H28.8V39H38.4V29.25Z" fill="url(#paint0_linear_202_5750)"/>
<path d="M9.6 23.0208C9.6 20.3667 10.4533 19.5 13.0667 19.5H19.2V9.75H9.6V15.925C9.6 18.5792 8.74667 19.5 6.08 19.5H0V39H19.2V29.25H10.2933C9.92 29.25 9.6 28.925 9.6 28.5458V23.0208Z" fill="url(#paint1_radial_202_5750)"/>
<path d="M7.73333 9.75H1.86667C0.8 9.75 0 8.9375 0 7.85417V1.89583C0 0.8125 0.8 0 1.86667 0H7.78667C8.74667 0 9.6 0.8125 9.6 1.89583V7.90833C9.6 8.9375 8.74667 9.75 7.73333 9.75Z" fill="url(#paint2_linear_202_5750)"/>
<path d="M38.4 9.75C38.4 3.52083 34.8266 0 28.8 0H19.2V9.75H27.04C27.8933 9.75 28.8 10.6167 28.8 11.5375C28.8 12.4042 28.8 13.325 28.8 15.9792C28.8 18.6333 27.8933 19.5 25.28 19.5H21.8133C20.0533 19.5 19.2 20.3667 19.2 22.1542V26.5958C19.2 28.3833 20.0533 29.25 21.8133 29.25H26.1866C27.9466 29.25 28.8 28.3833 28.8 26.5958V23.075C28.8 20.4208 29.6533 19.5542 32.2666 19.5542L38.4 19.5V9.75Z" fill="url(#paint3_linear_202_5750)"/>
<defs>
<linearGradient id="paint0_linear_202_5750" x1="30.7543" y1="36.9925" x2="38.0557" y2="29.8472" gradientUnits="userSpaceOnUse">
<stop stop-color="#6693CF"/>
<stop offset="0.1984" stop-color="#6993CD"/>
<stop offset="0.4861" stop-color="#7392C8"/>
<stop offset="0.8264" stop-color="#8390C2"/>
<stop offset="1" stop-color="#8E90BE"/>
</linearGradient>
<radialGradient id="paint1_radial_202_5750" cx="0" cy="0" r="1" gradientUnits="userSpaceOnUse" gradientTransform="translate(22.0155 20.8754) scale(35.1774 35.7271)">
<stop stop-color="#7ABCC3"/>
<stop offset="0.8258" stop-color="#5366AA"/>
<stop offset="1" stop-color="#5164AA"/>
</radialGradient>
<linearGradient id="paint2_linear_202_5750" x1="0.134347" y1="0.214771" x2="9.65112" y2="9.43969" gradientUnits="userSpaceOnUse">
<stop stop-color="#6860A4"/>
<stop offset="0.6629" stop-color="#6676A8"/>
</linearGradient>
<linearGradient id="paint3_linear_202_5750" x1="12.5259" y1="21.9344" x2="38.7683" y2="4.54823" gradientUnits="userSpaceOnUse">
<stop stop-color="#7CC1C3"/>
<stop offset="0.1816" stop-color="#7CC1C3"/>
<stop offset="0.5912" stop-color="#717BB2"/>
<stop offset="0.6802" stop-color="#7170B1"/>
<stop offset="0.7204" stop-color="#7470B0"/>
<stop offset="0.7771" stop-color="#7C70AC"/>
<stop offset="0.8437" stop-color="#8C71A8"/>
<stop offset="0.9178" stop-color="#A771A1"/>
<stop offset="0.9972" stop-color="#CD7199"/>
<stop offset="1" stop-color="#CF7198"/>
</linearGradient>
</defs>
</svg>
